G04 DipTrace 3.3.0.0*
G04 BottomSilk.gbr*
%MOIN*%
G04 #@! TF.FileFunction,Legend,Bot*
G04 #@! TF.Part,Single*
%ADD12C,0.003*%
%ADD26C,0.01*%
%ADD29C,0.012*%
%ADD119C,0.006562*%
%FSLAX26Y26*%
G04*
G70*
G90*
G75*
G01*
G04 BotSilk*
%LPD*%
X2300000Y1267500D2*
D29*
X2374993D1*
X2300000Y1357500D2*
X2374993D1*
X2415007D2*
X2490000D1*
X2415007Y1267500D2*
X2490000D1*
X2300000Y1357500D2*
Y1267500D1*
X2490000Y1357500D2*
Y1267500D1*
X3400000Y1357500D2*
X3325007D1*
X3400000Y1267500D2*
X3325007D1*
X3284993D2*
X3210000D1*
X3284993Y1357500D2*
X3210000D1*
X3400000Y1267500D2*
Y1357500D1*
X3210000Y1267500D2*
Y1357500D1*
X4940000Y402500D2*
Y547510D1*
X4810000Y402500D2*
Y547510D1*
X4940000Y677518D2*
Y807483D1*
X4810000Y677518D2*
Y807483D1*
Y402500D2*
X4940000D1*
X4829994Y827500D2*
X4920006D1*
X4810000Y807483D2*
X4829994Y827500D1*
X4940000Y807483D2*
X4920006Y827500D1*
X3037500Y895000D2*
X2962507D1*
X3037500Y805000D2*
X2962507D1*
X2922493D2*
X2847500D1*
X2922493Y895000D2*
X2847500D1*
X3037500Y805000D2*
Y895000D1*
X2847500Y805000D2*
Y895000D1*
X1431249Y332500D2*
X1356256D1*
X1431249Y242500D2*
X1356256D1*
X1316242D2*
X1241249D1*
X1316242Y332500D2*
X1241249D1*
X1431249Y242500D2*
Y332500D1*
X1241249Y242500D2*
Y332500D1*
X4200000Y357500D2*
X4125007D1*
X4200000Y267500D2*
X4125007D1*
X4084993D2*
X4010000D1*
X4084993Y357500D2*
X4010000D1*
X4200000Y267500D2*
Y357500D1*
X4010000Y267500D2*
Y357500D1*
X2050000Y667500D2*
X2124993D1*
X2050000Y757500D2*
X2124993D1*
X2165007D2*
X2240000D1*
X2165007Y667500D2*
X2240000D1*
X2050000Y757500D2*
Y667500D1*
X2240000Y757500D2*
Y667500D1*
X2100000Y105000D2*
X2174993D1*
X2100000Y195000D2*
X2174993D1*
X2215007D2*
X2290000D1*
X2215007Y105000D2*
X2290000D1*
X2100000Y195000D2*
Y105000D1*
X2290000Y195000D2*
Y105000D1*
X2595000Y1113998D2*
D26*
X2655000D1*
X2595000Y1108995D2*
X2655000D1*
X2595000Y1149004D2*
X2655000D1*
X2595000Y1104006D2*
Y1149004D1*
X2655000Y1104006D2*
Y1149004D1*
X2595000Y1104006D2*
X2655000D1*
X2387500Y1182500D2*
D29*
X2312507D1*
X2387500Y1092500D2*
X2312507D1*
X2272493D2*
X2197500D1*
X2272493Y1182500D2*
X2197500D1*
X2387500Y1092500D2*
Y1182500D1*
X2197500Y1092500D2*
Y1182500D1*
X3737500Y270000D2*
X3662507D1*
X3737500Y180000D2*
X3662507D1*
X3622493D2*
X3547500D1*
X3622493Y270000D2*
X3547500D1*
X3737500Y180000D2*
Y270000D1*
X3547500Y180000D2*
Y270000D1*
X2387500Y920000D2*
X2312507D1*
X2387500Y830000D2*
X2312507D1*
X2272493D2*
X2197500D1*
X2272493Y920000D2*
X2197500D1*
X2387500Y830000D2*
Y920000D1*
X2197500Y830000D2*
Y920000D1*
X3737500Y457500D2*
X3662507D1*
X3737500Y367500D2*
X3662507D1*
X3622493D2*
X3547500D1*
X3622493Y457500D2*
X3547500D1*
X3737500Y367500D2*
Y457500D1*
X3547500Y367500D2*
Y457500D1*
X3737500Y645000D2*
X3662507D1*
X3737500Y555000D2*
X3662507D1*
X3622493D2*
X3547500D1*
X3622493Y645000D2*
X3547500D1*
X3737500Y555000D2*
Y645000D1*
X3547500Y555000D2*
Y645000D1*
X1900000Y255000D2*
X1974993D1*
X1900000Y345000D2*
X1974993D1*
X2015007D2*
X2090000D1*
X2015007Y255000D2*
X2090000D1*
X1900000Y345000D2*
Y255000D1*
X2090000Y345000D2*
Y255000D1*
X1800000Y105000D2*
X1874993D1*
X1800000Y195000D2*
X1874993D1*
X1915007D2*
X1990000D1*
X1915007Y105000D2*
X1990000D1*
X1800000Y195000D2*
Y105000D1*
X1990000Y195000D2*
Y105000D1*
X3400000Y1182500D2*
X3325007D1*
X3400000Y1092500D2*
X3325007D1*
X3284993D2*
X3210000D1*
X3284993Y1182500D2*
X3210000D1*
X3400000Y1092500D2*
Y1182500D1*
X3210000Y1092500D2*
Y1182500D1*
X1795000Y250000D2*
Y324993D1*
X1705000Y250000D2*
Y324993D1*
Y365007D2*
Y440000D1*
X1795000Y365007D2*
Y440000D1*
X1705000Y250000D2*
X1795000D1*
X1705000Y440000D2*
X1795000D1*
X4400000Y355000D2*
X4474993D1*
X4400000Y445000D2*
X4474993D1*
X4515007D2*
X4590000D1*
X4515007Y355000D2*
X4590000D1*
X4400000Y445000D2*
Y355000D1*
X4590000Y445000D2*
Y355000D1*
X900000Y605000D2*
X974993D1*
X900000Y695000D2*
X974993D1*
X1015007D2*
X1090000D1*
X1015007Y605000D2*
X1090000D1*
X900000Y695000D2*
Y605000D1*
X1090000Y695000D2*
Y605000D1*
X1081251Y520000D2*
X1006258D1*
X1081251Y430000D2*
X1006258D1*
X966244D2*
X891251D1*
X966244Y520000D2*
X891251D1*
X1081251Y430000D2*
Y520000D1*
X891251Y430000D2*
Y520000D1*
X800000Y1300000D2*
G02X800000Y1300000I150000J0D01*
G01*
X4950000D2*
G02X4950000Y1300000I150000J0D01*
G01*
X800000Y200000D2*
G02X800000Y200000I150000J0D01*
G01*
X4950000D2*
G02X4950000Y200000I150000J0D01*
G01*
X3581500Y1197000D2*
D12*
X3584500D1*
X3582897Y1194000D2*
X3586103D1*
X3583864Y1191000D2*
X3588136D1*
X3584682Y1188000D2*
X3590318D1*
X3585594Y1185000D2*
X3592394D1*
X3586441Y1182000D2*
X3594442D1*
X3586994Y1179000D2*
X3596506D1*
X3587284Y1176000D2*
X3598487D1*
X3587420Y1173000D2*
X3600482D1*
X3515500Y1170000D2*
X3602522D1*
X3515500Y1167000D2*
X3604505D1*
X3686500D2*
X3842500D1*
X4046500D2*
X4082500D1*
X4445500D2*
D3*
X4508500D2*
X4544500D1*
X3515500Y1164000D2*
X3606589D1*
X3687526D2*
X3842500D1*
X4046500D2*
X4082500D1*
X4445500D2*
X4448500D1*
X4508500D2*
X4544500D1*
X4781500D2*
X4835500D1*
X3515500Y1161000D2*
X3608905D1*
X3688430D2*
X3842500D1*
X4046500D2*
X4082500D1*
X4445500D2*
X4451500D1*
X4508500D2*
X4544500D1*
X4774127D2*
X4842885D1*
X3515500Y1158000D2*
X3611224D1*
X3689104D2*
X3842500D1*
X4046500D2*
X4082500D1*
X4445500D2*
X4454500D1*
X4508500D2*
X4544500D1*
X4767371D2*
X4849735D1*
X3515500Y1155000D2*
X3613358D1*
X3689792D2*
X3842500D1*
X4046500D2*
X4082500D1*
X4445500D2*
X4457512D1*
X4508500D2*
X4544500D1*
X4761329D2*
X4856054D1*
X3515500Y1152000D2*
X3615428D1*
X3690749D2*
X3842500D1*
X4046500D2*
X4082500D1*
X4445500D2*
X4460605D1*
X4508500D2*
X4544500D1*
X4755971D2*
X4861747D1*
X3515500Y1149000D2*
X3617502D1*
X3691954D2*
X3842500D1*
X4046500D2*
X4082500D1*
X4445500D2*
X4463882D1*
X4508500D2*
X4544500D1*
X4751173D2*
X4866608D1*
X3515500Y1146000D2*
X3619486D1*
X3693229D2*
X3842500D1*
X4046500D2*
X4082500D1*
X4445500D2*
X4467230D1*
X4508500D2*
X4544500D1*
X4746990D2*
X4870650D1*
X3515500Y1143000D2*
X3621481D1*
X3694389D2*
X3842500D1*
X4046500D2*
X4082500D1*
X4445500D2*
X4470375D1*
X4508500D2*
X4544500D1*
X4743627D2*
X4874150D1*
X3515500Y1140000D2*
X3623522D1*
X3695424D2*
X3842500D1*
X4046500D2*
X4082500D1*
X4445500D2*
X4473394D1*
X4508500D2*
X4544500D1*
X4740980D2*
X4877365D1*
X3515500Y1137000D2*
X3625505D1*
X3696486D2*
X3842500D1*
X4046500D2*
X4082500D1*
X4445500D2*
X4476368D1*
X4508500D2*
X4544500D1*
X4738601D2*
X4880451D1*
X3515500Y1134000D2*
X3627589D1*
X3697518D2*
X3842500D1*
X4046500D2*
X4082500D1*
X4445500D2*
X4478768D1*
X4508500D2*
X4544500D1*
X4736165D2*
X4883471D1*
X3515500Y1131000D2*
X3629905D1*
X3698567D2*
X3842500D1*
X4046500D2*
X4082500D1*
X4445500D2*
X4480510D1*
X4508500D2*
X4544500D1*
X4733813D2*
X4886377D1*
X3515500Y1128000D2*
X3632212D1*
X3699910D2*
X3842500D1*
X4046500D2*
X4082500D1*
X4445500D2*
X4481035D1*
X4508500D2*
X4544500D1*
X4731756D2*
X4888999D1*
X3515500Y1125000D2*
X3634253D1*
X3701500D2*
X3842500D1*
X4046500D2*
X4082500D1*
X4445500D2*
X4481308D1*
X4508500D2*
X4544500D1*
X4729968D2*
X4793512D1*
X4822899D2*
X4891270D1*
X3515500Y1122000D2*
X3636046D1*
X3791500D2*
X3842500D1*
X4046500D2*
X4082500D1*
X4445500D2*
X4481427D1*
X4508500D2*
X4544500D1*
X4728347D2*
X4787629D1*
X4830536D2*
X4893395D1*
X3626500Y1119000D2*
X3637783D1*
X3791500D2*
X3842500D1*
X4046500D2*
X4082500D1*
X4445500D2*
X4481474D1*
X4508500D2*
X4544500D1*
X4726889D2*
X4782128D1*
X4837041D2*
X4895478D1*
X3626500Y1116000D2*
X3639716D1*
X3791500D2*
X3842500D1*
X4046500D2*
X4082500D1*
X4445500D2*
X4481491D1*
X4508500D2*
X4544500D1*
X4725654D2*
X4777358D1*
X4842310D2*
X4897376D1*
X3626500Y1113000D2*
X3641958D1*
X3791500D2*
X3842500D1*
X4046500D2*
X4082500D1*
X4445500D2*
X4481497D1*
X4508500D2*
X4544500D1*
X4724591D2*
X4773451D1*
X4846522D2*
X4899086D1*
X3626500Y1110000D2*
X3644244D1*
X3791500D2*
X3842500D1*
X4046500D2*
X4082500D1*
X4445500D2*
X4481499D1*
X4508500D2*
X4544500D1*
X4723531D2*
X4770355D1*
X4849990D2*
X4900674D1*
X3626500Y1107000D2*
X3646366D1*
X3791500D2*
X3842500D1*
X4046500D2*
X4082500D1*
X4445500D2*
X4481500D1*
X4508500D2*
X4544500D1*
X4722633D2*
X4767968D1*
X4852851D2*
X4902119D1*
X3626500Y1104000D2*
X3648431D1*
X3791500D2*
X3842500D1*
X4046500D2*
X4082500D1*
X4445500D2*
X4481500D1*
X4508500D2*
X4544500D1*
X4722011D2*
X4766047D1*
X4855216D2*
X4903348D1*
X3626500Y1101000D2*
X3650503D1*
X3791500D2*
X3842500D1*
X3983500D2*
X4013500D1*
X4046500D2*
X4082500D1*
X4142500D2*
X4178500D1*
X4310500D2*
X4346500D1*
X4445500D2*
X4481500D1*
X4508500D2*
X4544500D1*
X4616500D2*
X4658500D1*
X4722572D2*
X4764374D1*
X4857365D2*
X4904410D1*
X3626500Y1098000D2*
X3652486D1*
X3791500D2*
X3842500D1*
X3975308D2*
X4021804D1*
X4046500D2*
X4082500D1*
X4134565D2*
X4187820D1*
X4301845D2*
X4355820D1*
X4409500D2*
X4481500D1*
X4508500D2*
X4544500D1*
X4607180D2*
X4668169D1*
X4725458D2*
X4762909D1*
X4859366D2*
X4905470D1*
X3626500Y1095000D2*
X3654481D1*
X3791500D2*
X3842500D1*
X3968737D2*
X4028764D1*
X4046500D2*
X4082500D1*
X4127671D2*
X4195575D1*
X4294518D2*
X4363575D1*
X4409500D2*
X4481500D1*
X4508500D2*
X4544500D1*
X4599425D2*
X4676284D1*
X4732036D2*
X4761766D1*
X4860980D2*
X4906390D1*
X3626500Y1092000D2*
X3656522D1*
X3791500D2*
X3842500D1*
X3963583D2*
X4034781D1*
X4046500D2*
X4082500D1*
X4121943D2*
X4201740D1*
X4288482D2*
X4369740D1*
X4409500D2*
X4481500D1*
X4508500D2*
X4544500D1*
X4593260D2*
X4682506D1*
X4739979D2*
X4761031D1*
X4862261D2*
X4906974D1*
X3626500Y1089000D2*
X3658493D1*
X3791500D2*
X3842500D1*
X3959385D2*
X4040500D1*
X4046500D2*
X4082500D1*
X4117199D2*
X4206688D1*
X4283376D2*
X4374688D1*
X4409500D2*
X4481500D1*
X4508500D2*
X4544500D1*
X4588335D2*
X4687199D1*
X4748500D2*
X4760500D1*
X4863522D2*
X4907276D1*
X3626500Y1086000D2*
X3660475D1*
X3791500D2*
X3842500D1*
X3956072D2*
X4082500D1*
X4113266D2*
X4210805D1*
X4279066D2*
X4378805D1*
X4409500D2*
X4481500D1*
X4508500D2*
X4544500D1*
X4584429D2*
X4690966D1*
X4864865D2*
X4907412D1*
X3626500Y1083000D2*
X3662430D1*
X3791500D2*
X3842500D1*
X3953569D2*
X4082500D1*
X4109926D2*
X4214558D1*
X4275654D2*
X4382558D1*
X4409500D2*
X4481500D1*
X4508500D2*
X4544500D1*
X4581441D2*
X4694185D1*
X4866184D2*
X4907467D1*
X3626500Y1080000D2*
X3664089D1*
X3791500D2*
X3842500D1*
X3951585D2*
X4082500D1*
X4107118D2*
X4218095D1*
X4273001D2*
X4386095D1*
X4409500D2*
X4481500D1*
X4508500D2*
X4544500D1*
X4579353D2*
X4696918D1*
X4867260D2*
X4907488D1*
X3524500Y1077000D2*
X3602500D1*
X3626500D2*
X3665500D1*
X3719500D2*
X3842500D1*
X3949881D2*
X4082500D1*
X4104773D2*
X4221213D1*
X4270709D2*
X4389213D1*
X4409500D2*
X4481500D1*
X4508500D2*
X4544500D1*
X4577879D2*
X4699140D1*
X4867933D2*
X4907496D1*
X3524500Y1074000D2*
X3604474D1*
X3719614D2*
X3842500D1*
X3948308D2*
X4082500D1*
X4102631D2*
X4223890D1*
X4268560D2*
X4391890D1*
X4409500D2*
X4481500D1*
X4508500D2*
X4544500D1*
X4576642D2*
X4700993D1*
X4868373D2*
X4907499D1*
X3524500Y1071000D2*
X3606570D1*
X3720010D2*
X3842500D1*
X3946885D2*
X4082500D1*
X4100632D2*
X4226262D1*
X4266637D2*
X4394262D1*
X4409500D2*
X4481500D1*
X4508500D2*
X4544500D1*
X4575651D2*
X4632919D1*
X4644130D2*
X4702640D1*
X4868904D2*
X4907500D1*
X3524500Y1068000D2*
X3608896D1*
X3720835D2*
X3842500D1*
X3945766D2*
X4082500D1*
X4099011D2*
X4228290D1*
X4264919D2*
X4316626D1*
X4339784D2*
X4396290D1*
X4445500D2*
X4481500D1*
X4508500D2*
X4544500D1*
X4575028D2*
X4624308D1*
X4654031D2*
X4704095D1*
X4869682D2*
X4907500D1*
X3524500Y1065000D2*
X3611219D1*
X3721987D2*
X3842500D1*
X3945077D2*
X4082500D1*
X4097657D2*
X4151626D1*
X4172374D2*
X4230054D1*
X4263327D2*
X4311139D1*
X4347037D2*
X4398054D1*
X4445500D2*
X4481500D1*
X4508500D2*
X4544500D1*
X4574603D2*
X4618354D1*
X4661579D2*
X4705227D1*
X4870475D2*
X4907500D1*
X3524500Y1062000D2*
X3613357D1*
X3723240D2*
X3842500D1*
X3944631D2*
X3996101D1*
X4021910D2*
X4082500D1*
X4096173D2*
X4146128D1*
X4177872D2*
X4231663D1*
X4261893D2*
X4306463D1*
X4352812D2*
X4399663D1*
X4445500D2*
X4481500D1*
X4508500D2*
X4544500D1*
X4574000D2*
X4614065D1*
X4664653D2*
X4705909D1*
X4871006D2*
X4907500D1*
X3524500Y1059000D2*
X3615428D1*
X3724393D2*
X3842500D1*
X3944098D2*
X3991452D1*
X4026665D2*
X4082500D1*
X4094500D2*
X4141358D1*
X4182642D2*
X4233115D1*
X4260757D2*
X4302845D1*
X4357206D2*
X4401115D1*
X4445500D2*
X4481500D1*
X4508500D2*
X4544500D1*
X4572916D2*
X4612059D1*
X4666702D2*
X4706251D1*
X4871287D2*
X4907500D1*
X3524500Y1056000D2*
X3617502D1*
X3725426D2*
X3842500D1*
X3943318D2*
X3987842D1*
X4030658D2*
X4082500D1*
X4098553D2*
X4137451D1*
X4186549D2*
X4234347D1*
X4259972D2*
X4300179D1*
X4360512D2*
X4402347D1*
X4445500D2*
X4481500D1*
X4508500D2*
X4544500D1*
X4571500D2*
X4611506D1*
X4668225D2*
X4706403D1*
X4871415D2*
X4907500D1*
X3524500Y1053000D2*
X3619486D1*
X3726487D2*
X3842500D1*
X3942526D2*
X3985190D1*
X4034028D2*
X4082500D1*
X4103543D2*
X4134346D1*
X4189645D2*
X4235410D1*
X4259249D2*
X4298119D1*
X4362972D2*
X4403410D1*
X4445500D2*
X4481500D1*
X4508500D2*
X4544500D1*
X4572885D2*
X4611369D1*
X4669453D2*
X4706466D1*
X4871468D2*
X4907500D1*
X3524500Y1050000D2*
X3621481D1*
X3727509D2*
X3842500D1*
X3941994D2*
X3983248D1*
X4036751D2*
X4082500D1*
X4109319D2*
X4131878D1*
X4192032D2*
X4236470D1*
X4258379D2*
X4296278D1*
X4364819D2*
X4404470D1*
X4445500D2*
X4481500D1*
X4508500D2*
X4544500D1*
X4573746D2*
X4617619D1*
X4670500D2*
X4706500D1*
X4871477D2*
X4907500D1*
X3524500Y1047000D2*
X3623522D1*
X3728475D2*
X3842500D1*
X3941713D2*
X3981905D1*
X4038722D2*
X4082500D1*
X4115380D2*
X4129684D1*
X4193953D2*
X4237390D1*
X4257537D2*
X4294302D1*
X4366129D2*
X4405390D1*
X4445500D2*
X4481500D1*
X4508500D2*
X4544500D1*
X4574182D2*
X4626790D1*
X4871379D2*
X4907500D1*
X3524500Y1044000D2*
X3625505D1*
X3729495D2*
X3842500D1*
X3941585D2*
X3981139D1*
X4040149D2*
X4082500D1*
X4121500D2*
X4127500D1*
X4195626D2*
X4237986D1*
X4256885D2*
X4291991D1*
X4366932D2*
X4405986D1*
X4445500D2*
X4481500D1*
X4508500D2*
X4544500D1*
X4574376D2*
X4638642D1*
X4870999D2*
X4907500D1*
X3524500Y1041000D2*
X3627589D1*
X3730407D2*
X3842500D1*
X3941532D2*
X3980766D1*
X4041380D2*
X4082500D1*
X4197090D2*
X4238393D1*
X4256216D2*
X4406393D1*
X4445500D2*
X4481500D1*
X4508500D2*
X4544500D1*
X4574454D2*
X4651572D1*
X4870282D2*
X4907500D1*
X3524500Y1038000D2*
X3629905D1*
X3731033D2*
X3842500D1*
X3941511D2*
X3980603D1*
X4042470D2*
X4082500D1*
X4198237D2*
X4238911D1*
X4255368D2*
X4406911D1*
X4445500D2*
X4481500D1*
X4508500D2*
X4544500D1*
X4574484D2*
X4663712D1*
X4869513D2*
X4907500D1*
X3524500Y1035000D2*
X3632212D1*
X3731500D2*
X3842500D1*
X3941504D2*
X3980538D1*
X4043461D2*
X4082500D1*
X4199026D2*
X4239685D1*
X4254545D2*
X4407685D1*
X4445500D2*
X4481500D1*
X4508500D2*
X4544500D1*
X4574494D2*
X4674076D1*
X4868978D2*
X4907500D1*
X3626500Y1032000D2*
X3634253D1*
X3791500D2*
X3842500D1*
X3941501D2*
X3980513D1*
X4044489D2*
X4082500D1*
X4199751D2*
X4240475D1*
X4254001D2*
X4408475D1*
X4445500D2*
X4481500D1*
X4508500D2*
X4544500D1*
X4574498D2*
X4682442D1*
X4868594D2*
X4907500D1*
X3626500Y1029000D2*
X3636046D1*
X3791500D2*
X3842500D1*
X3941500D2*
X3980505D1*
X4045397D2*
X4082500D1*
X4200621D2*
X4241006D1*
X4253715D2*
X4409006D1*
X4445500D2*
X4481500D1*
X4508500D2*
X4544500D1*
X4574499D2*
X4689047D1*
X4868085D2*
X4907500D1*
X3626500Y1026000D2*
X3637783D1*
X3791500D2*
X3842500D1*
X3941500D2*
X3980502D1*
X4045977D2*
X4082500D1*
X4201451D2*
X4241287D1*
X4253585D2*
X4409287D1*
X4445500D2*
X4481500D1*
X4508500D2*
X4544500D1*
X4574500D2*
X4694429D1*
X4867302D2*
X4907500D1*
X3626500Y1023000D2*
X3639716D1*
X3791500D2*
X3842500D1*
X3941500D2*
X3980500D1*
X4046277D2*
X4082500D1*
X4201986D2*
X4241415D1*
X4253532D2*
X4409415D1*
X4445500D2*
X4481500D1*
X4508500D2*
X4544500D1*
X4574500D2*
X4698858D1*
X4866407D2*
X4907500D1*
X3626500Y1020000D2*
X3641958D1*
X3791500D2*
X3842500D1*
X3941500D2*
X3980500D1*
X4046412D2*
X4082500D1*
X4202167D2*
X4241457D1*
X4253511D2*
X4409457D1*
X4445500D2*
X4481500D1*
X4508500D2*
X4544500D1*
X4574500D2*
X4702306D1*
X4751500D2*
X4754500D1*
X4865482D2*
X4907500D1*
X3626500Y1017000D2*
X3644244D1*
X3791500D2*
X3842500D1*
X3941500D2*
X3980500D1*
X4046467D2*
X4082500D1*
X4201915D2*
X4241372D1*
X4253504D2*
X4409372D1*
X4445500D2*
X4481500D1*
X4508500D2*
X4544500D1*
X4574500D2*
X4610500D1*
X4620644D2*
X4704884D1*
X4745139D2*
X4756348D1*
X4864377D2*
X4907488D1*
X3626500Y1014000D2*
X3646366D1*
X3791500D2*
X3842500D1*
X3941500D2*
X3980500D1*
X4046488D2*
X4082500D1*
X4201238D2*
X4240997D1*
X4253501D2*
X4408997D1*
X4445500D2*
X4481500D1*
X4508500D2*
X4544500D1*
X4574500D2*
X4610500D1*
X4631783D2*
X4706893D1*
X4738698D2*
X4757966D1*
X4863086D2*
X4907383D1*
X3626500Y1011000D2*
X3648431D1*
X3791500D2*
X3842500D1*
X3941500D2*
X3980500D1*
X4046496D2*
X4082500D1*
X4200384D2*
X4240281D1*
X4253500D2*
D3*
X4371078D2*
X4408281D1*
X4445500D2*
X4481500D1*
X4508500D2*
X4544500D1*
X4574500D2*
X4610500D1*
X4643264D2*
X4708603D1*
X4732492D2*
X4759295D1*
X4861674D2*
X4907000D1*
X3626500Y1008000D2*
X3650503D1*
X3791500D2*
X3842500D1*
X3941500D2*
X3980500D1*
X4046499D2*
X4082500D1*
X4199486D2*
X4239512D1*
X4369218D2*
X4407512D1*
X4445500D2*
X4481500D1*
X4508500D2*
X4544500D1*
X4574500D2*
X4610500D1*
X4653506D2*
X4710094D1*
X4727028D2*
X4760514D1*
X4860119D2*
X4906270D1*
X3626500Y1005000D2*
X3652486D1*
X3791500D2*
X3842500D1*
X3941500D2*
X3980500D1*
X4046500D2*
X4082500D1*
X4124500D2*
D3*
X4198480D2*
X4238989D1*
X4367819D2*
X4406989D1*
X4445500D2*
X4481500D1*
X4508500D2*
X4544500D1*
X4574500D2*
X4610500D1*
X4661507D2*
X4711340D1*
X4722366D2*
X4762089D1*
X4858337D2*
X4905396D1*
X3626500Y1002000D2*
X3654481D1*
X3791500D2*
X3842500D1*
X3941500D2*
X3980500D1*
X4046500D2*
X4082500D1*
X4118500D2*
X4127500D1*
X4197479D2*
X4238700D1*
X4366508D2*
X4406700D1*
X4445500D2*
X4481500D1*
X4508500D2*
X4544500D1*
X4574500D2*
X4610512D1*
X4667090D2*
X4712407D1*
X4720420D2*
X4764221D1*
X4856305D2*
X4904478D1*
X3626500Y999000D2*
X3656522D1*
X3791500D2*
X3842500D1*
X3941500D2*
X3980500D1*
X4046500D2*
X4082500D1*
X4112512D2*
X4128652D1*
X4196510D2*
X4238467D1*
X4365134D2*
X4406467D1*
X4445500D2*
X4481500D1*
X4508500D2*
X4544500D1*
X4574500D2*
X4610617D1*
X4671084D2*
X4713469D1*
X4720279D2*
X4766702D1*
X4854076D2*
X4903376D1*
X3626500Y996000D2*
X3658505D1*
X3791500D2*
X3842500D1*
X3941500D2*
X3980500D1*
X4046500D2*
X4082500D1*
X4106626D2*
X4130046D1*
X4195376D2*
X4238020D1*
X4280500D2*
X4283500D1*
X4363679D2*
X4406020D1*
X4445488D2*
X4481500D1*
X4508500D2*
X4544500D1*
X4574500D2*
X4611011D1*
X4672345D2*
X4714390D1*
X4721227D2*
X4769237D1*
X4851543D2*
X4902086D1*
X3626500Y993000D2*
X3660589D1*
X3791500D2*
X3842500D1*
X3941500D2*
X3980500D1*
X4046500D2*
X4082500D1*
X4101090D2*
X4131833D1*
X4193961D2*
X4237176D1*
X4275526D2*
X4286614D1*
X4361996D2*
X4405176D1*
X4445383D2*
X4481500D1*
X4508500D2*
X4544500D1*
X4574500D2*
X4611847D1*
X4673004D2*
X4714963D1*
X4722442D2*
X4771837D1*
X4848577D2*
X4900674D1*
X3626500Y990000D2*
X3662905D1*
X3791500D2*
X3842500D1*
X3941500D2*
X3980500D1*
X4046500D2*
X4082500D1*
X4096115D2*
X4134126D1*
X4192047D2*
X4236017D1*
X4270442D2*
X4290022D1*
X4359722D2*
X4404005D1*
X4444989D2*
X4481500D1*
X4508500D2*
X4544500D1*
X4574500D2*
X4613127D1*
X4673195D2*
X4715159D1*
X4723823D2*
X4774910D1*
X4844883D2*
X4899119D1*
X3515500Y987000D2*
X3665224D1*
X3692500D2*
X3842500D1*
X3941500D2*
X3980500D1*
X4046500D2*
X4082500D1*
X4091500D2*
X4136883D1*
X4189262D2*
X4234761D1*
X4265245D2*
X4293970D1*
X4356567D2*
X4402656D1*
X4444048D2*
X4481500D1*
X4508500D2*
X4544500D1*
X4574500D2*
X4614986D1*
X4672909D2*
X4714912D1*
X4725286D2*
X4778988D1*
X4840048D2*
X4897348D1*
X3515500Y984000D2*
X3667358D1*
X3693999D2*
X3842500D1*
X3941500D2*
X3980500D1*
X4046500D2*
X4082500D1*
X4093360D2*
X4140190D1*
X4185410D2*
X4233596D1*
X4260550D2*
X4298674D1*
X4352668D2*
X4401213D1*
X4442604D2*
X4481500D1*
X4508500D2*
X4544500D1*
X4574500D2*
X4617750D1*
X4672006D2*
X4714249D1*
X4726865D2*
X4784829D1*
X4833818D2*
X4895410D1*
X3515500Y981000D2*
X3669428D1*
X3695257D2*
X3842500D1*
X3941500D2*
X3980500D1*
X4046500D2*
X4082500D1*
X4095083D2*
X4144150D1*
X4180653D2*
X4232457D1*
X4256621D2*
X4304294D1*
X4348230D2*
X4399727D1*
X4436059D2*
X4481500D1*
X4508500D2*
X4544500D1*
X4574488D2*
X4621594D1*
X4670317D2*
X4713489D1*
X4728646D2*
X4792985D1*
X4826086D2*
X4893470D1*
X3515500Y978000D2*
X3671502D1*
X3696517D2*
X3842500D1*
X3941500D2*
X3980500D1*
X4046500D2*
X4082500D1*
X4096795D2*
X4148500D1*
X4175500D2*
X4231014D1*
X4255149D2*
X4310500D1*
X4343500D2*
X4398139D1*
X4424457D2*
X4481500D1*
X4508500D2*
X4544500D1*
X4574383D2*
X4626348D1*
X4667703D2*
X4712868D1*
X4730588D2*
X4802500D1*
X4817500D2*
X4891402D1*
X3515500Y975000D2*
X3673486D1*
X3697874D2*
X3842500D1*
X3941500D2*
X3980500D1*
X4046500D2*
X4082500D1*
X4098720D2*
X4229261D1*
X4255474D2*
X4396356D1*
X4409500D2*
X4481488D1*
X4508500D2*
X4544500D1*
X4574000D2*
X4631500D1*
X4664500D2*
X4712199D1*
X4732530D2*
X4889080D1*
X3515500Y972000D2*
X3675481D1*
X3699300D2*
X3842500D1*
X3941500D2*
X3980500D1*
X4046500D2*
X4082500D1*
X4100959D2*
X4227409D1*
X4256999D2*
X4394413D1*
X4409500D2*
X4481383D1*
X4508500D2*
X4544500D1*
X4573282D2*
X4711248D1*
X4734610D2*
X4886658D1*
X3515500Y969000D2*
X3677522D1*
X3700759D2*
X3842500D1*
X3941500D2*
X3980500D1*
X4046500D2*
X4082500D1*
X4103244D2*
X4225367D1*
X4258812D2*
X4392471D1*
X4409500D2*
X4481000D1*
X4508500D2*
X4544500D1*
X4572513D2*
X4710033D1*
X4737025D2*
X4884130D1*
X3515500Y966000D2*
X3679505D1*
X3702150D2*
X3842500D1*
X3941500D2*
X3980500D1*
X4046500D2*
X4082500D1*
X4105378D2*
X4222966D1*
X4261172D2*
X4390379D1*
X4409500D2*
X4480270D1*
X4508500D2*
X4544500D1*
X4571990D2*
X4708654D1*
X4739724D2*
X4881236D1*
X3515500Y963000D2*
X3681589D1*
X3703360D2*
X3842500D1*
X3941500D2*
X3980500D1*
X4046500D2*
X4082500D1*
X4107560D2*
X4220261D1*
X4264278D2*
X4387857D1*
X4409500D2*
X4479384D1*
X4508500D2*
X4544500D1*
X4571700D2*
X4707100D1*
X4742600D2*
X4878000D1*
X3515500Y960000D2*
X3683905D1*
X3704426D2*
X3842500D1*
X3941500D2*
X3980500D1*
X4046500D2*
X4082500D1*
X4110119D2*
X4217293D1*
X4267836D2*
X4384765D1*
X4409500D2*
X4478361D1*
X4508500D2*
X4544500D1*
X4571467D2*
X4705229D1*
X4745650D2*
X4874645D1*
X3515500Y957000D2*
X3686224D1*
X3705588D2*
X3842500D1*
X3941500D2*
X3980500D1*
X4046500D2*
X4082500D1*
X4113239D2*
X4213944D1*
X4271624D2*
X4381065D1*
X4409500D2*
X4476853D1*
X4508500D2*
X4544500D1*
X4571032D2*
X4702898D1*
X4749035D2*
X4870997D1*
X3515500Y954000D2*
X3688358D1*
X3706890D2*
X3842500D1*
X3941500D2*
X3980500D1*
X4046500D2*
X4082500D1*
X4117061D2*
X4210012D1*
X4275810D2*
X4376828D1*
X4409500D2*
X4474598D1*
X4508500D2*
X4544500D1*
X4570293D2*
X4700111D1*
X4752980D2*
X4866694D1*
X3515500Y951000D2*
X3690420D1*
X3708204D2*
X3842500D1*
X3941500D2*
X3980500D1*
X4046500D2*
X4082500D1*
X4121775D2*
X4205253D1*
X4280797D2*
X4371880D1*
X4409500D2*
X4471308D1*
X4508500D2*
X4544500D1*
X4569509D2*
X4607500D1*
X4619623D2*
X4696649D1*
X4757745D2*
X4861546D1*
X3515500Y948000D2*
X3692409D1*
X3709380D2*
X3842500D1*
X3941500D2*
X3980500D1*
X4046500D2*
X4082500D1*
X4127694D2*
X4199316D1*
X4287245D2*
X4365697D1*
X4409500D2*
X4466365D1*
X4508500D2*
X4544500D1*
X4568937D2*
X4607500D1*
X4626089D2*
X4692039D1*
X4763703D2*
X4855410D1*
X3515500Y945000D2*
X3694082D1*
X3710433D2*
X3842500D1*
X3941500D2*
X3980500D1*
X4046500D2*
X4082500D1*
X4134818D2*
X4192186D1*
X4295420D2*
X4358029D1*
X4409500D2*
X4459474D1*
X4508500D2*
X4544500D1*
X4568500D2*
X4607500D1*
X4633115D2*
X4686119D1*
X4770950D2*
X4847945D1*
X3515500Y942000D2*
X3695500D1*
X3711591D2*
X3718910D1*
X4142500D2*
X4184500D1*
X4304500D2*
X4349500D1*
X4427500D2*
X4451500D1*
X4640500D2*
X4679500D1*
X4779057D2*
X4839086D1*
X3712891Y939000D2*
X3720665D1*
X4787500D2*
X4829500D1*
X3714205Y936000D2*
X3721670D1*
X3715380Y933000D2*
X3722169D1*
X3716421Y930000D2*
X3722485D1*
X3717485Y927000D2*
X3722951D1*
X3718509Y924000D2*
X3723701D1*
X3719486Y921000D2*
X3724481D1*
X3720611Y918000D2*
X3725009D1*
X3721901Y915000D2*
X3725288D1*
X3723225Y912000D2*
X3725416D1*
X3724434Y909000D2*
X3725470D1*
X3725500Y906000D2*
D3*
X3199000Y747000D2*
X3205000D1*
X3217000D2*
X3223000D1*
X3195812Y744000D2*
X3211000D1*
X3217000D2*
X3226796D1*
X3193000Y741000D2*
X3229853D1*
X3197594Y738000D2*
X3231064D1*
X3193000Y735000D2*
X3196000D1*
X3202000D2*
X3247000D1*
X3187000Y732000D2*
X3202000D1*
X3208000D2*
X3247466D1*
X3181000Y729000D2*
X3248235D1*
X3183525Y726000D2*
X3249135D1*
X3185687Y723000D2*
X3250000D1*
X3256000D2*
X3259000D1*
X3187716Y720000D2*
X3260963D1*
X3189934Y717000D2*
X3262964D1*
X3196408Y714000D2*
X3265060D1*
X3206914Y711000D2*
X3267470D1*
X3220000Y708000D2*
X3271109D1*
X3217114Y705000D2*
X3276499D1*
X3214510Y702000D2*
X3282542D1*
X3212335Y699000D2*
X3287721D1*
X3210498Y696000D2*
X3291919D1*
X3208857Y693000D2*
X3293651D1*
X3207393Y690000D2*
X3268000D1*
X3292000D2*
X3295000D1*
X3206156Y687000D2*
X3259000D1*
X3265000D2*
X3283000D1*
X3205091Y684000D2*
X3281699D1*
X3204031Y681000D2*
X3280058D1*
X3055000Y678000D2*
D3*
X3203110D2*
X3276190D1*
X3053615Y675000D2*
X3058000D1*
X3088000D2*
X3100000D1*
X3202526D2*
X3271400D1*
X3052754Y672000D2*
X3061000D1*
X3082000D2*
X3112798D1*
X3202224D2*
X3267124D1*
X3052329Y669000D2*
X3122604D1*
X3202088D2*
X3263909D1*
X3052253Y666000D2*
X3129554D1*
X3202033D2*
X3262899D1*
X3052663Y663000D2*
X3134417D1*
X3202012D2*
X3262372D1*
X3053757Y660000D2*
X3137798D1*
X3202016D2*
X3262142D1*
X3352000D2*
X3361000D1*
X3055480Y657000D2*
X3140314D1*
X3202119D2*
X3262051D1*
X3344960D2*
X3380969D1*
X3057881Y654000D2*
X3141298D1*
X3202500D2*
X3262018D1*
X3339771D2*
X3400000D1*
X3412000D2*
X3421000D1*
X3061562Y651000D2*
X3142152D1*
X3203218D2*
X3262006D1*
X3336288D2*
X3419615D1*
X3066851Y648000D2*
X3143071D1*
X3203987D2*
X3262002D1*
X3333871D2*
X3418742D1*
X3073000Y645000D2*
X3143820D1*
X3204510D2*
X3262001D1*
X3331995D2*
X3418189D1*
X3071615Y642000D2*
X3143993D1*
X3204789D2*
X3262000D1*
X3330453D2*
X3417461D1*
X3070765Y639000D2*
X3143553D1*
X3204904D2*
X3262000D1*
X3329289D2*
X3416321D1*
X3070435Y636000D2*
X3142810D1*
X3204851D2*
X3262000D1*
X3328596D2*
X3412928D1*
X3070635Y633000D2*
X3141946D1*
X3204489D2*
X3262000D1*
X3328250D2*
X3408665D1*
X3071381Y630000D2*
X3140853D1*
X3203778D2*
X3262000D1*
X3328098D2*
X3404761D1*
X3072491Y627000D2*
X3139476D1*
X3203012D2*
X3262012D1*
X3328036D2*
X3401794D1*
X3073617Y624000D2*
X3137791D1*
X3202489D2*
X3262117D1*
X3328025D2*
X3400846D1*
X3074550Y621000D2*
X3135888D1*
X3202200D2*
X3262500D1*
X3328122D2*
X3400339D1*
X3013000Y618000D2*
D3*
X3074265D2*
X3133962D1*
X3201967D2*
X3263218D1*
X3328513D2*
X3400017D1*
X3012536Y615000D2*
X3016000D1*
X3043000D2*
X3046000D1*
X3073670D2*
X3131896D1*
X3201532D2*
X3263999D1*
X3329336D2*
X3399537D1*
X3011793Y612000D2*
X3020128D1*
X3046000D2*
X3048525D1*
X3072899D2*
X3129529D1*
X3145000D2*
X3148000D1*
X3200793D2*
X3264628D1*
X3330487D2*
X3398672D1*
X3011004Y609000D2*
X3024294D1*
X3044492D2*
X3050664D1*
X3071971D2*
X3127000D1*
X3133000D2*
X3146397D1*
X3200005D2*
X3265300D1*
X3331740D2*
X3397421D1*
X3010373Y606000D2*
X3028145D1*
X3043161D2*
X3052387D1*
X3071202D2*
X3144364D1*
X3199362D2*
X3266251D1*
X3332902D2*
X3395823D1*
X3009712Y603000D2*
X3031322D1*
X3041677D2*
X3053644D1*
X3071016D2*
X3142182D1*
X3198595D2*
X3267455D1*
X3334018D2*
X3394000D1*
X3008878Y600000D2*
X3034000D1*
X3040000D2*
X3054378D1*
X3071439D2*
X3140094D1*
X3197343D2*
X3268729D1*
X3335392D2*
X3395385D1*
X3457000D2*
D3*
X3008162Y597000D2*
X3054752D1*
X3072075D2*
X3137941D1*
X3195574D2*
X3269913D1*
X3322000D2*
X3331000D1*
X3337000D2*
X3396246D1*
X3418000D2*
D3*
X3452511D2*
X3457000D1*
X3008003Y594000D2*
X3055016D1*
X3072543D2*
X3135482D1*
X3193324D2*
X3271206D1*
X3323499D2*
X3396682D1*
X3416860D2*
X3421000D1*
X3447873D2*
X3458037D1*
X3008460Y591000D2*
X3055462D1*
X3072800D2*
X3132666D1*
X3190403D2*
X3272899D1*
X3324757D2*
X3396864D1*
X3415583D2*
X3422947D1*
X3443518D2*
X3459036D1*
X2980000Y588000D2*
X2992000D1*
X3009218D2*
X3056193D1*
X3072920D2*
X3129415D1*
X3166000D2*
D3*
X3187000D2*
X3277200D1*
X3326029D2*
X3396837D1*
X3414283D2*
X3424927D1*
X3439638D2*
X3459975D1*
X2982988Y585000D2*
X3004000D1*
X3010000D2*
X3056866D1*
X3072970D2*
X3125750D1*
X3167198D2*
X3282416D1*
X3327503D2*
X3396484D1*
X3413115D2*
X3427000D1*
X3436000D2*
X3460882D1*
X2985883Y582000D2*
X3057009D1*
X3072989D2*
X3122001D1*
X3168626D2*
X3287468D1*
X3329428D2*
X3395776D1*
X3412077D2*
X3461646D1*
X2988500Y579000D2*
X3056570D1*
X3072996D2*
X3118483D1*
X3171748D2*
X3205000D1*
X3223000D2*
X3244000D1*
X3253000D2*
X3292000D1*
X3332117D2*
X3395011D1*
X3411026D2*
X3461310D1*
X2990770Y576000D2*
X3055929D1*
X3072987D2*
X3115192D1*
X3178780D2*
X3202000D1*
X3256000D2*
X3286000D1*
X3335590D2*
X3394489D1*
X3410108D2*
X3460679D1*
X2992896Y573000D2*
X3055458D1*
X3072882D2*
X3112000D1*
X3187000D2*
D3*
X3202000D2*
X3232000D1*
X3241000D2*
X3250000D1*
X3339598D2*
X3394211D1*
X3409525D2*
X3459814D1*
X2994990Y570000D2*
X3055212D1*
X3072489D2*
X3115000D1*
X3181356D2*
X3261767D1*
X3343882D2*
X3394072D1*
X3409224D2*
X3458548D1*
X2996982Y567000D2*
X3055197D1*
X3071665D2*
X3112230D1*
X3177135D2*
X3271938D1*
X3348288D2*
X3393914D1*
X3409088D2*
X3457000D1*
X3481000D2*
X3484000D1*
X2998980Y564000D2*
X3055530D1*
X3070502D2*
X3110179D1*
X3174004D2*
X3279796D1*
X3352649D2*
X3393523D1*
X3409033D2*
X3482397D1*
X3001022Y561000D2*
X3056229D1*
X3069145D2*
X3109551D1*
X3172837D2*
X3285057D1*
X3356755D2*
X3392903D1*
X3409023D2*
X3480364D1*
X3003005Y558000D2*
X3056999D1*
X3067626D2*
X3109211D1*
X3124000D2*
X3136000D1*
X3171778D2*
X3289000D1*
X3352000D2*
X3355000D1*
X3360475D2*
X3392514D1*
X3409130D2*
X3478182D1*
X3005101Y555000D2*
X3057565D1*
X3065899D2*
X3109000D1*
X3115000D2*
X3134385D1*
X3170311D2*
X3283000D1*
X3352911D2*
X3358000D1*
X3364000D2*
X3392720D1*
X3409591D2*
X3476094D1*
X3007522Y552000D2*
X3058000D1*
X3064000D2*
X3132235D1*
X3168224D2*
X3286464D1*
X3353665D2*
X3393316D1*
X3410616D2*
X3473941D1*
X3010223Y549000D2*
X3129565D1*
X3165676D2*
X3290219D1*
X3325000D2*
X3328000D1*
X3353306D2*
X3394096D1*
X3412000D2*
X3471506D1*
X3013088Y546000D2*
X3126374D1*
X3162874D2*
X3294090D1*
X3325464D2*
X3337375D1*
X3352676D2*
X3395066D1*
X3410053D2*
X3468900D1*
X3016021Y543000D2*
X3122709D1*
X3159954D2*
X3297892D1*
X3326219D2*
X3346000D1*
X3352000D2*
X3396071D1*
X3408073D2*
X3466414D1*
X3018883Y540000D2*
X3118846D1*
X3156972D2*
X3301507D1*
X3327125D2*
X3397000D1*
X3406000D2*
X3464174D1*
X3021376Y537000D2*
X3115000D1*
X3153877D2*
X3304685D1*
X3328263D2*
X3461859D1*
X3023155Y534000D2*
X3124000D1*
X3130000D2*
D3*
X3150499D2*
X3307480D1*
X3329809D2*
X3458995D1*
X3024179Y531000D2*
X3130000D1*
X3146770D2*
X3310138D1*
X3333189D2*
X3455464D1*
X3024773Y528000D2*
X3126399D1*
X3142895D2*
X3312496D1*
X3337000D2*
X3451546D1*
X3025367Y525000D2*
X3122036D1*
X3138967D2*
X3314216D1*
X3332219D2*
X3447751D1*
X3026169Y522000D2*
X3116529D1*
X3134747D2*
X3315265D1*
X3328000D2*
X3444560D1*
X3026982Y519000D2*
X3109728D1*
X3129910D2*
X3322000D1*
X3330089D2*
X3442174D1*
X3027622Y516000D2*
X3101910D1*
X3123826D2*
X3324291D1*
X3332615D2*
X3440481D1*
X3028286Y513000D2*
X3094132D1*
X3115448D2*
X3326963D1*
X3336117D2*
X3439206D1*
X3029122Y510000D2*
X3087567D1*
X3104125D2*
X3330050D1*
X3341080D2*
X3437960D1*
X3029830Y507000D2*
X3082000D1*
X3091000D2*
X3333523D1*
X3347984D2*
X3436627D1*
X3030199Y504000D2*
X3337435D1*
X3356442D2*
X3435301D1*
X2983000Y501000D2*
X2992000D1*
X3029260D2*
X3342282D1*
X3364943D2*
X3434122D1*
X2971000Y498000D2*
X3007000D1*
X3028000D2*
X3348315D1*
X3372363D2*
X3433079D1*
X2974000Y495000D2*
X3031000D1*
X3037000D2*
X3355000D1*
X3379000D2*
X3432015D1*
X2968000Y492000D2*
D3*
X2977000D2*
X3142000D1*
X3151000D2*
X3169601D1*
X3177296D2*
X3430992D1*
X2968000Y489000D2*
X2971000D1*
X2980000D2*
X3034000D1*
X3043951D2*
X3139000D1*
X3145000D2*
X3167608D1*
X3179075D2*
X3283000D1*
X3288536D2*
X3430014D1*
X2968000Y486000D2*
X2974000D1*
X2983000D2*
X3037000D1*
X3045661D2*
X3166991D1*
X3179042D2*
X3280012D1*
X3287793D2*
X3428889D1*
X2968012Y483000D2*
X3040000D1*
X3048108D2*
X3167362D1*
X3178566D2*
X3277117D1*
X3287016D2*
X3307464D1*
X3316000D2*
X3427590D1*
X2968129Y480000D2*
X3043012D1*
X3051201D2*
X3167598D1*
X3177735D2*
X3274500D1*
X3286502D2*
X3311208D1*
X3319000D2*
X3426187D1*
X3451000D2*
X3475000D1*
X2968640Y477000D2*
X3046129D1*
X3054921D2*
X3120513D1*
X3127114D2*
X3167311D1*
X3176330D2*
X3272219D1*
X3286329D2*
X3314992D1*
X3322000D2*
X3424725D1*
X3433000D2*
X3482594D1*
X2969611Y474000D2*
X3010000D1*
X3016000D2*
X3049640D1*
X3059157D2*
X3116464D1*
X3124510D2*
X3166683D1*
X3174351D2*
X3269995D1*
X3286586D2*
X3318563D1*
X3325000D2*
X3423231D1*
X3431848D2*
X3490000D1*
X2972493Y471000D2*
X3007000D1*
X3016000D2*
X3054057D1*
X3064033D2*
X3111005D1*
X3122347D2*
X3157452D1*
X3161695D2*
X3166000D1*
X3172181D2*
X3267564D1*
X3287277D2*
X3322000D1*
X3328000D2*
X3421629D1*
X3430454D2*
X3486534D1*
X2976744Y468000D2*
X3004000D1*
X3010000D2*
D3*
X3016000D2*
X3060343D1*
X3069741D2*
X3102280D1*
X3120615D2*
X3158078D1*
X3165467D2*
X3265000D1*
X3288149D2*
X3292000D1*
X3298000D2*
X3419727D1*
X3428667D2*
X3482765D1*
X2982487Y465000D2*
X3010000D1*
X3016000D2*
X3070305D1*
X3076000D2*
X3088995D1*
X3119348D2*
X3158653D1*
X3166961D2*
X3267422D1*
X3289000D2*
D3*
X3298000D2*
X3327988D1*
X3334452D2*
X3417296D1*
X3426374D2*
X3478865D1*
X3490000D2*
D3*
X2989000Y462000D2*
X3001552D1*
X3007552D2*
X3009988D1*
X3016000D2*
X3085184D1*
X3118560D2*
X3157861D1*
X3165432D2*
X3269282D1*
X3298000D2*
X3330871D1*
X3338090D2*
X3414251D1*
X3423614D2*
X3475000D1*
X3487000D2*
X3490000D1*
X2986590Y459000D2*
X2999604D1*
X3005604D2*
X3009874D1*
X3016000D2*
X3103000D1*
X3118000D2*
X3124000D1*
X3133012D2*
X3156566D1*
X3163862D2*
X3270669D1*
X3298000D2*
X3333372D1*
X3341473D2*
X3410658D1*
X3420166D2*
X3439012D1*
X3444760D2*
X3489874D1*
X2984835Y456000D2*
X2998000D1*
X3004000D2*
X3009410D1*
X3016000D2*
X3051639D1*
X3057988D2*
X3097103D1*
X3130129D2*
X3155224D1*
X3162309D2*
X3271875D1*
X3298000D2*
X3335154D1*
X3344186D2*
X3406828D1*
X3414983D2*
X3439129D1*
X3449874D2*
X3489372D1*
X2983830Y453000D2*
X3008385D1*
X3016000D2*
X3048186D1*
X3057883D2*
X3089242D1*
X3127628D2*
X3141631D1*
X3151000D2*
X3154000D1*
X3160787D2*
X3272866D1*
X3298000D2*
X3336170D1*
X3346419D2*
X3346000D1*
X3352645D2*
X3403000D1*
X3405850D2*
X3439617D1*
X3445000D2*
X3448000D1*
X3453924D2*
X3488142D1*
X2983343Y450000D2*
X2995000D1*
X3001000D2*
X3007000D1*
X3016012D2*
X3044863D1*
X3057500D2*
X3079809D1*
X3125835D2*
X3140805D1*
X3159379D2*
X3199704D1*
X3213399D2*
X3273579D1*
X3298000D2*
X3304000D1*
X3313000D2*
X3321525D1*
X3328000D2*
X3336682D1*
X3350594D2*
X3352000D1*
X3358000D2*
X3361000D1*
X3391142D2*
X3440718D1*
X3446848D2*
X3450874D1*
X3457050D2*
X3486049D1*
X2983132Y447000D2*
X2995000D1*
X3001000D2*
X3008511D1*
X3016129D2*
X3041888D1*
X3056782D2*
X3070800D1*
X3091000D2*
D3*
X3124754D2*
X3137298D1*
X3158264D2*
X3195346D1*
X3218036D2*
X3274271D1*
X3298000D2*
X3301000D1*
X3313012D2*
X3323664D1*
X3334000D2*
X3337000D1*
X3352302D2*
X3361000D1*
X3373000D2*
X3442205D1*
X3448454D2*
X3453372D1*
X3459517D2*
X3483154D1*
X2983046Y444000D2*
X2995000D1*
X3001000D2*
X3009874D1*
X3016640D2*
X3039581D1*
X3055989D2*
X3063744D1*
X3087886D2*
X3091000D1*
X3124000D2*
X3133000D1*
X3157588D2*
X3192177D1*
X3221541D2*
X3275128D1*
X3313129D2*
X3325387D1*
X3356778D2*
X3443498D1*
X3449667D2*
X3455165D1*
X3461244D2*
X3479622D1*
X2983000Y441000D2*
X2986000D1*
X2992000D2*
X2995000D1*
X3001000D2*
X3011529D1*
X3017611D2*
X3038161D1*
X3055232D2*
X3058000D1*
X3084499D2*
X3092140D1*
X3157248D2*
X3189958D1*
X3224204D2*
X3275954D1*
X3313628D2*
X3326644D1*
X3363451D2*
X3444287D1*
X3450385D2*
X3456284D1*
X3462319D2*
X3475816D1*
X3001012Y438000D2*
X3013706D1*
X3020330D2*
X3037125D1*
X3054331D2*
X3061501D1*
X3080755D2*
X3093406D1*
X3157097D2*
X3188480D1*
X3225136D2*
X3276501D1*
X3314835D2*
X3327381D1*
X3372441D2*
X3402448D1*
X3411886D2*
X3444587D1*
X3450731D2*
X3457155D1*
X3463170D2*
X3472000D1*
X3001117Y435000D2*
X3016274D1*
X3023910D2*
X3035926D1*
X3051508D2*
X3064468D1*
X3076862D2*
X3094588D1*
X3157034D2*
X3187606D1*
X3225661D2*
X3276803D1*
X3316754D2*
X3327761D1*
X3364000D2*
D3*
X3382931D2*
X3401396D1*
X3414490D2*
X3444373D1*
X3450771D2*
X3458074D1*
X3464091D2*
X3473385D1*
X3001488Y432000D2*
X3019000D1*
X3028000D2*
X3032348D1*
X3047546D2*
X3067000D1*
X3073000D2*
X3095546D1*
X3106000D2*
X3349000D1*
X3363536D2*
X3367000D1*
X3394000D2*
X3400000D1*
X3416653D2*
X3443610D1*
X3450346D2*
X3458821D1*
X3464952D2*
X3474246D1*
X3002101Y429000D2*
X3028000D1*
X3043000D2*
X3095149D1*
X3105977D2*
X3349000D1*
X3362793D2*
X3370000D1*
X3418384D2*
X3442346D1*
X3449246D2*
X3458994D1*
X3465620D2*
X3474682D1*
X3002488Y426000D2*
X3094159D1*
X3105748D2*
X3349000D1*
X3362016D2*
X3373000D1*
X3397000D2*
X3400000D1*
X3419643D2*
X3440386D1*
X3447533D2*
X3458565D1*
X3466373D2*
X3474876D1*
X3002292Y423000D2*
X3092561D1*
X3105203D2*
X3193716D1*
X3205000D2*
X3349000D1*
X3361490D2*
X3376000D1*
X3395396D2*
X3401615D1*
X3420380D2*
X3437199D1*
X3445244D2*
X3457927D1*
X3467535D2*
X3474957D1*
X3001801Y420000D2*
X3090407D1*
X3102865D2*
X3189463D1*
X3205000D2*
X3349000D1*
X3361223D2*
X3379000D1*
X3393323D2*
X3403754D1*
X3420761D2*
X3432530D1*
X3442008D2*
X3457446D1*
X3469000D2*
X3475000D1*
X3001394Y417000D2*
X3088000D1*
X3100000D2*
X3186192D1*
X3223000D2*
X3349012D1*
X3361213D2*
X3382000D1*
X3391000D2*
X3406317D1*
X3421000D2*
X3427000D1*
X3437634D2*
X3457083D1*
X3001063Y414000D2*
X3184941D1*
X3227039D2*
X3289000D1*
X3295000D2*
X3349126D1*
X3361659D2*
X3409116D1*
X3432473D2*
X3456581D1*
X3000573Y411000D2*
X3099988D1*
X3106000D2*
X3183947D1*
X3232382D2*
X3280000D1*
X3286000D2*
D3*
X3295000D2*
X3298000D1*
X3304229D2*
X3349590D1*
X3362846D2*
X3412000D1*
X3427000D2*
X3455812D1*
X2999810Y408000D2*
X3099871D1*
X3106000D2*
X3182967D1*
X3238240D2*
X3277000D1*
X3295000D2*
D3*
X3304727D2*
X3350615D1*
X3364757D2*
X3455024D1*
X2999011Y405000D2*
X3099372D1*
X3106000D2*
X3182202D1*
X3244000D2*
X3278947D1*
X3306422D2*
X3352000D1*
X3367000D2*
X3454493D1*
X2998376Y402000D2*
X3098142D1*
X3106000D2*
X3181806D1*
X3238794D2*
X3280927D1*
X3308259D2*
X3454213D1*
X2997701Y399000D2*
X3096049D1*
X3106000D2*
X3182743D1*
X3232415D2*
X3283000D1*
X3310000D2*
X3454085D1*
X2996726Y396000D2*
X3093154D1*
X3106000D2*
X3184000D1*
X3225938D2*
X3279536D1*
X3303216D2*
X3349000D1*
X3355578D2*
X3454032D1*
X2995287Y393000D2*
X3089622D1*
X3106000D2*
X3182615D1*
X3220000D2*
X3229000D1*
X3241000D2*
X3275793D1*
X3297706D2*
X3349000D1*
X3356730D2*
X3454023D1*
X2993038Y390000D2*
X3085816D1*
X3106000D2*
X3181754D1*
X3224554D2*
X3272016D1*
X3293647D2*
X3349000D1*
X3358460D2*
X3454121D1*
X2989652Y387000D2*
X3082000D1*
X3106000D2*
X3181318D1*
X3228541D2*
X3268502D1*
X3290674D2*
X3349000D1*
X3360752D2*
X3454513D1*
X2985407Y384000D2*
X3019464D1*
X3024296D2*
X3084886D1*
X3106000D2*
X3181136D1*
X3232000D2*
X3265329D1*
X3288060D2*
X3349000D1*
X3363972D2*
X3455347D1*
X2980797Y381000D2*
X3020219D1*
X3028654D2*
X3087490D1*
X3106000D2*
X3181163D1*
X3228812D2*
X3262584D1*
X3285205D2*
X3349000D1*
X3368235D2*
X3456627D1*
X2976069Y378000D2*
X3021101D1*
X3031823D2*
X3089653D1*
X3106000D2*
X3181518D1*
X3226000D2*
X3260250D1*
X3282210D2*
X3349000D1*
X3373000D2*
X3458474D1*
X2971630Y375000D2*
X3022009D1*
X3034041D2*
X3091396D1*
X3106000D2*
X3182251D1*
X3230396D2*
X3258007D1*
X3279654D2*
X3349000D1*
X3370012D2*
X3461122D1*
X2968016Y372000D2*
X3023006D1*
X3035511D2*
X3092760D1*
X3106000D2*
X3145126D1*
X3165988D2*
X3183140D1*
X3234323D2*
X3255568D1*
X3277678D2*
X3349000D1*
X3367129D2*
X3464478D1*
X2965000Y369000D2*
X3023903D1*
X3036329D2*
X3093877D1*
X3106000D2*
X3142628D1*
X3151000D2*
X3160000D1*
X3168883D2*
X3184000D1*
X3190000D2*
D3*
X3238000D2*
X3253000D1*
X3275816D2*
X3349000D1*
X3364617D2*
X3468100D1*
X2975594Y366000D2*
X3024467D1*
X3036735D2*
X3094958D1*
X3106000D2*
X3140846D1*
X3149152D2*
X3162886D1*
X3171489D2*
X3190000D1*
X3273867D2*
X3349000D1*
X3362729D2*
X3427012D1*
X3432988D2*
X3471665D1*
X2986000Y363000D2*
X3024660D1*
X3037010D2*
X3095886D1*
X3106000D2*
X3139834D1*
X3147546D2*
X3165490D1*
X3173653D2*
X3193348D1*
X3271847D2*
X3349000D1*
X3361334D2*
X3424129D1*
X3432883D2*
X3475301D1*
X2983590Y360000D2*
X3024401D1*
X3037460D2*
X3096473D1*
X3106000D2*
X3139344D1*
X3146333D2*
X3167653D1*
X3175384D2*
X3196211D1*
X3269512D2*
X3349000D1*
X3360126D2*
X3421628D1*
X3432500D2*
X3479139D1*
X2981835Y357000D2*
X3023620D1*
X3038216D2*
X3052000D1*
X3061012D2*
X3096775D1*
X3106000D2*
X3139121D1*
X3145615D2*
X3169384D1*
X3176655D2*
X3198684D1*
X3266882D2*
X3349000D1*
X3359145D2*
X3419835D1*
X3431782D2*
X3482965D1*
X2980830Y354000D2*
X3022373D1*
X3039100D2*
X3052000D1*
X3064129D2*
X3096900D1*
X3106000D2*
X3138931D1*
X3145258D2*
X3170643D1*
X3177495D2*
X3200760D1*
X3264634D2*
X3349000D1*
X3358538D2*
X3418716D1*
X3431013D2*
X3486554D1*
X2980343Y351000D2*
X3001235D1*
X3010552D2*
X3020648D1*
X3040020D2*
X3051988D1*
X3067628D2*
X3096850D1*
X3106000D2*
X3138518D1*
X3145100D2*
X3171378D1*
X3178240D2*
X3202554D1*
X3262970D2*
X3349000D1*
X3358228D2*
X3417845D1*
X3430490D2*
X3490000D1*
X2980144Y348000D2*
X2998210D1*
X3011604D2*
X3018439D1*
X3041135D2*
X3051883D1*
X3058000D2*
D3*
X3071823D2*
X3096489D1*
X3106000D2*
X3137776D1*
X3145037D2*
X3171740D1*
X3179117D2*
X3204276D1*
X3262570D2*
X3349000D1*
X3358090D2*
X3416903D1*
X3430211D2*
X3477156D1*
X2980174Y345000D2*
X2994548D1*
X3013000D2*
X3016000D1*
X3042531D2*
X3051498D1*
X3058000D2*
X3061000D1*
X3076588D2*
X3095778D1*
X3106000D2*
X3136898D1*
X3145025D2*
X3171899D1*
X3179950D2*
X3206101D1*
X3262699D2*
X3349000D1*
X3358033D2*
X3415944D1*
X3430096D2*
X3463000D1*
X2980607Y342000D2*
X2990521D1*
X3044316D2*
X3050755D1*
X3058000D2*
X3066312D1*
X3081204D2*
X3095011D1*
X3106000D2*
X3135991D1*
X3145122D2*
X3171963D1*
X3180486D2*
X3207947D1*
X3263419D2*
X3349000D1*
X3358012D2*
X3415007D1*
X3430149D2*
X3465422D1*
X2981621Y339000D2*
X2986678D1*
X3046550D2*
X3049862D1*
X3058000D2*
X3071650D1*
X3084951D2*
X3094489D1*
X3106000D2*
X3134993D1*
X3145501D2*
X3171987D1*
X3180667D2*
X3209397D1*
X3264653D2*
X3349000D1*
X3358004D2*
X3388114D1*
X3400000D2*
X3413999D1*
X3430522D2*
X3467282D1*
X2983000Y336000D2*
D3*
X3049000D2*
D3*
X3057988D2*
X3076522D1*
X3087726D2*
X3094211D1*
X3106000D2*
X3134089D1*
X3146218D2*
X3171996D1*
X3180415D2*
X3210262D1*
X3266483D2*
X3349000D1*
X3358001D2*
X3382510D1*
X3400000D2*
X3413087D1*
X3431348D2*
X3442466D1*
X3447536D2*
X3468657D1*
X3057883Y333000D2*
X3080266D1*
X3089916D2*
X3094084D1*
X3106000D2*
X3133466D1*
X3146987D2*
X3165988D1*
X3172000D2*
D3*
X3179750D2*
X3210680D1*
X3269136D2*
X3349000D1*
X3358000D2*
X3377347D1*
X3388000D2*
X3391000D1*
X3400000D2*
X3412405D1*
X3432586D2*
X3440235D1*
X3449793D2*
X3469758D1*
X3057500Y330000D2*
X3083107D1*
X3091936D2*
X3094030D1*
X3106000D2*
X3142000D1*
X3147510D2*
X3165871D1*
X3178990D2*
X3210763D1*
X3272605D2*
X3349000D1*
X3358012D2*
X3372615D1*
X3383026D2*
X3391000D1*
X3400000D2*
X3411712D1*
X3434180D2*
X3438135D1*
X3452016D2*
X3470621D1*
X3056782Y327000D2*
X3084088D1*
X3094000D2*
D3*
X3106000D2*
X3139343D1*
X3147777D2*
X3165383D1*
X3178368D2*
X3210445D1*
X3276686D2*
X3349000D1*
X3358117D2*
X3368348D1*
X3377927D2*
X3391000D1*
X3400000D2*
X3410741D1*
X3436000D2*
D3*
X3454502D2*
X3470310D1*
X3001000Y324000D2*
X3010000D1*
X3056013D2*
X3084602D1*
X3106000D2*
X3136251D1*
X3147799D2*
X3164282D1*
X3177711D2*
X3209637D1*
X3281214D2*
X3349000D1*
X3358500D2*
X3364560D1*
X3372542D2*
X3391000D1*
X3400000D2*
X3409418D1*
X3457338D2*
X3469801D1*
X3004000Y321000D2*
X3019919D1*
X3055490D2*
X3084732D1*
X3106000D2*
X3133000D1*
X3142000D2*
D3*
X3147467D2*
X3162795D1*
X3176854D2*
X3208391D1*
X3286000D2*
X3292000D1*
X3301000D2*
X3349000D1*
X3359218D2*
X3361000D1*
X3367000D2*
X3391000D1*
X3400000D2*
X3407664D1*
X3460674D2*
X3469402D1*
X3007000Y318000D2*
X3029015D1*
X3055211D2*
X3084445D1*
X3106000D2*
X3142000D1*
X3146743D2*
X3161479D1*
X3175927D2*
X3206759D1*
X3262000D2*
X3271000D1*
X3304000D2*
X3349000D1*
X3359987D2*
X3391000D1*
X3400000D2*
X3405444D1*
X3464645D2*
X3469163D1*
X3009988Y315000D2*
X3037573D1*
X3055078D2*
X3083763D1*
X3106000D2*
X3140406D1*
X3145858D2*
X3160467D1*
X3175001D2*
X3204877D1*
X3257152D2*
X3275259D1*
X3307000D2*
X3349000D1*
X3360510D2*
X3391000D1*
X3400000D2*
X3403000D1*
X3469000D2*
D3*
X3012871Y312000D2*
X3046000D1*
X3055000D2*
X3083006D1*
X3106000D2*
X3139000D1*
X3145000D2*
X3159296D1*
X3173986D2*
X3202958D1*
X3252546D2*
X3278620D1*
X3304000D2*
D3*
X3310000D2*
X3349000D1*
X3360789D2*
X3391000D1*
X3015383Y309000D2*
X3082487D1*
X3106000D2*
X3157691D1*
X3172981D2*
X3200898D1*
X3248345D2*
X3281219D1*
X3305406D2*
X3349000D1*
X3360916D2*
X3391023D1*
X3017282Y306000D2*
X3082199D1*
X3106000D2*
X3156194D1*
X3172010D2*
X3198590D1*
X3244744D2*
X3282223D1*
X3298000D2*
D3*
X3307000D2*
X3349000D1*
X3360968D2*
X3391252D1*
X3018807Y303000D2*
X3081967D1*
X3106000D2*
X3155199D1*
X3170888D2*
X3196263D1*
X3241886D2*
X3283000D1*
X3289000D2*
X3292000D1*
X3298000D2*
X3349000D1*
X3361000D2*
X3391797D1*
X3424000D2*
X3442000D1*
X3020608Y300000D2*
X3081532D1*
X3106000D2*
X3155912D1*
X3169601D2*
X3194012D1*
X3239626D2*
X3349000D1*
X3361113D2*
X3394135D1*
X3418187D2*
X3445000D1*
X3023060Y297000D2*
X3080793D1*
X3106000D2*
X3157000D1*
X3168293D2*
X3191466D1*
X3238787D2*
X3349000D1*
X3361498D2*
X3397000D1*
X3412000D2*
X3440627D1*
X3025756Y294000D2*
X3080005D1*
X3106000D2*
X3154590D1*
X3167119D2*
X3188410D1*
X3238310D2*
X3349000D1*
X3362229D2*
X3436871D1*
X3028161Y291000D2*
X3079374D1*
X3106000D2*
X3152847D1*
X3166066D2*
X3185414D1*
X3262000D2*
X3349000D1*
X3363104D2*
X3433817D1*
X3028481Y288000D2*
X3078712D1*
X3106000D2*
X3151675D1*
X3164909D2*
X3183133D1*
X3261988D2*
X3349000D1*
X3364010D2*
X3431342D1*
X3027374Y285000D2*
X3077866D1*
X3106000D2*
X3151774D1*
X3163609D2*
X3181502D1*
X3261883D2*
X3349000D1*
X3365007D2*
X3429021D1*
X3026309Y282000D2*
X3077044D1*
X3106000D2*
X3152322D1*
X3162307D2*
X3180070D1*
X3261500D2*
X3349000D1*
X3365903D2*
X3426401D1*
X3025501Y279000D2*
X3076513D1*
X3106000D2*
X3152914D1*
X3161237D2*
X3178545D1*
X3260782D2*
X3349000D1*
X3366479D2*
X3423205D1*
X3024653Y276000D2*
X3076332D1*
X3106000D2*
X3153039D1*
X3160590D2*
X3176702D1*
X3260013D2*
X3349000D1*
X3366777D2*
X3419308D1*
X3023386Y273000D2*
X3076585D1*
X3106000D2*
X3152693D1*
X3160370D2*
X3174398D1*
X3259513D2*
X3283475D1*
X3292704D2*
X3349000D1*
X3366912D2*
X3415000D1*
X3021799Y270000D2*
X3077262D1*
X3106000D2*
X3152465D1*
X3160685D2*
X3171748D1*
X3259463D2*
X3281334D1*
X3293925D2*
X3349000D1*
X3366967D2*
X3416848D1*
X3020311Y267000D2*
X3043000D1*
X3049000D2*
X3078116D1*
X3106000D2*
X3152674D1*
X3161649D2*
X3168908D1*
X3259850D2*
X3279582D1*
X3296970D2*
X3349000D1*
X3366988D2*
X3418454D1*
X3019000Y264000D2*
X3025000D1*
X3049012D2*
X3079026D1*
X3106000D2*
X3154407D1*
X3163000D2*
X3166000D1*
X3178000D2*
X3181000D1*
X3223000D2*
X3235000D1*
X3262157D2*
X3278178D1*
X3300429D2*
X3349000D1*
X3366984D2*
X3419678D1*
X3049129Y261000D2*
X3080137D1*
X3106000D2*
X3158345D1*
X3173594D2*
X3183657D1*
X3223000D2*
X3235903D1*
X3265000D2*
X3277000D1*
X3304000D2*
X3349000D1*
X3366881D2*
X3420503D1*
X3049628Y258000D2*
X3081531D1*
X3106000D2*
X3163000D1*
X3169000D2*
X3186749D1*
X3223000D2*
X3236632D1*
X3300246D2*
X3349000D1*
X3366488D2*
X3421254D1*
X3050846Y255000D2*
X3083317D1*
X3106000D2*
X3190000D1*
X3223000D2*
X3236000D1*
X3294790D2*
X3349000D1*
X3365653D2*
X3422244D1*
X3052830Y252000D2*
X3085550D1*
X3106000D2*
X3188406D1*
X3222988D2*
X3235000D1*
X3285664D2*
X3349000D1*
X3364384D2*
X3423548D1*
X3055318Y249000D2*
X3088000D1*
X3106000D2*
X3169552D1*
X3175000D2*
X3187000D1*
X3222848D2*
X3241000D1*
X3256000D2*
D3*
X3274000D2*
X3349000D1*
X3362643D2*
X3393525D1*
X3403000D2*
X3425167D1*
X3058000Y246000D2*
X3079000D1*
X3106000D2*
X3170604D1*
X3222496D2*
X3349000D1*
X3360380D2*
X3392664D1*
X3406000D2*
X3427000D1*
X3106000Y243000D2*
X3172000D1*
X3220615D2*
X3349000D1*
X3357761D2*
X3391352D1*
X3106000Y240000D2*
X3170787D1*
X3215677D2*
X3349000D1*
X3355000D2*
X3389692D1*
X3106000Y237000D2*
X3170774D1*
X3209303D2*
X3349000D1*
X3359103D2*
X3385718D1*
X3106000Y234000D2*
X3170785D1*
X3202564D2*
X3349000D1*
X3364208D2*
X3379942D1*
X3106000Y231000D2*
X3170411D1*
X3196893D2*
X3349000D1*
X3370000D2*
X3373000D1*
X3106012Y228000D2*
X3169846D1*
X3192901D2*
X3348988D1*
X3106117Y225000D2*
X3169421D1*
X3190264D2*
X3348883D1*
X3106511Y222000D2*
X3169197D1*
X3188609D2*
X3348489D1*
X3107347Y219000D2*
X3169192D1*
X3187727D2*
X3347653D1*
X3108616Y216000D2*
X3169539D1*
X3187445D2*
X3346384D1*
X3110357Y213000D2*
X3170357D1*
X3187571D2*
X3344643D1*
X3112622Y210000D2*
X3171607D1*
X3189313D2*
X3342378D1*
X3115272Y207000D2*
X3173229D1*
X3193129D2*
X3339728D1*
X3118230Y204000D2*
X3175006D1*
X3197159D2*
X3336782D1*
X3121677Y201000D2*
X3176540D1*
X3200494D2*
X3333440D1*
X3125977Y198000D2*
X3177860D1*
X3203066D2*
X3329523D1*
X3131349Y195000D2*
X3179333D1*
X3204163D2*
X3324869D1*
X3137692Y192000D2*
X3181000D1*
X3187000D2*
X3190000D1*
X3201815D2*
X3319295D1*
X3144760Y189000D2*
X3190000D1*
X3199000D2*
X3312750D1*
X3152523Y186000D2*
X3305242D1*
X3161139Y183000D2*
X3296484D1*
X3170472Y180000D2*
X3285912D1*
X3179961Y177000D2*
X3273082D1*
X3188921Y174000D2*
X3258882D1*
X3196968Y171000D2*
X3245440D1*
X3204172Y168000D2*
X3233779D1*
X3211000Y165000D2*
X3223000D1*
X3581500Y1197000D2*
X3582897Y1194000D1*
X3583864Y1191000D1*
X3584682Y1188000D1*
X3585594Y1185000D1*
X3586441Y1182000D1*
X3586994Y1179000D1*
X3587284Y1176000D1*
X3587420Y1173000D1*
X3587500Y1170000D1*
X3584500Y1197000D2*
X3586103Y1194000D1*
X3588136Y1191000D1*
X3590318Y1188000D1*
X3592394Y1185000D1*
X3594442Y1182000D1*
X3596506Y1179000D1*
X3598487Y1176000D1*
X3600482Y1173000D1*
X3602522Y1170000D1*
X3604505Y1167000D1*
X3606589Y1164000D1*
X3608905Y1161000D1*
X3611224Y1158000D1*
X3613358Y1155000D1*
X3615428Y1152000D1*
X3617502Y1149000D1*
X3619486Y1146000D1*
X3621481Y1143000D1*
X3623522Y1140000D1*
X3625505Y1137000D1*
X3627589Y1134000D1*
X3629905Y1131000D1*
X3632212Y1128000D1*
X3634253Y1125000D1*
X3636046Y1122000D1*
X3637783Y1119000D1*
X3639716Y1116000D1*
X3641958Y1113000D1*
X3644244Y1110000D1*
X3646366Y1107000D1*
X3648431Y1104000D1*
X3650503Y1101000D1*
X3652486Y1098000D1*
X3654481Y1095000D1*
X3656522Y1092000D1*
X3658493Y1089000D1*
X3660475Y1086000D1*
X3662430Y1083000D1*
X3664089Y1080000D1*
X3665500Y1077000D1*
X3515500Y1170000D2*
Y1167000D1*
Y1164000D1*
Y1161000D1*
Y1158000D1*
Y1155000D1*
Y1152000D1*
Y1149000D1*
Y1146000D1*
Y1143000D1*
Y1140000D1*
Y1137000D1*
Y1134000D1*
Y1131000D1*
Y1128000D1*
Y1125000D1*
Y1122000D1*
X3686500Y1167000D2*
X3687526Y1164000D1*
X3688430Y1161000D1*
X3689104Y1158000D1*
X3689792Y1155000D1*
X3690749Y1152000D1*
X3691954Y1149000D1*
X3693229Y1146000D1*
X3694389Y1143000D1*
X3695424Y1140000D1*
X3696486Y1137000D1*
X3697518Y1134000D1*
X3698567Y1131000D1*
X3699910Y1128000D1*
X3701500Y1125000D1*
X3842500Y1167000D2*
Y1164000D1*
Y1161000D1*
Y1158000D1*
Y1155000D1*
Y1152000D1*
Y1149000D1*
Y1146000D1*
Y1143000D1*
Y1140000D1*
Y1137000D1*
Y1134000D1*
Y1131000D1*
Y1128000D1*
Y1125000D1*
Y1122000D1*
Y1119000D1*
Y1116000D1*
Y1113000D1*
Y1110000D1*
Y1107000D1*
Y1104000D1*
Y1101000D1*
Y1098000D1*
Y1095000D1*
Y1092000D1*
Y1089000D1*
Y1086000D1*
Y1083000D1*
Y1080000D1*
Y1077000D1*
Y1074000D1*
Y1071000D1*
Y1068000D1*
Y1065000D1*
Y1062000D1*
Y1059000D1*
Y1056000D1*
Y1053000D1*
Y1050000D1*
Y1047000D1*
Y1044000D1*
Y1041000D1*
Y1038000D1*
Y1035000D1*
Y1032000D1*
Y1029000D1*
Y1026000D1*
Y1023000D1*
Y1020000D1*
Y1017000D1*
Y1014000D1*
Y1011000D1*
Y1008000D1*
Y1005000D1*
Y1002000D1*
Y999000D1*
Y996000D1*
Y993000D1*
Y990000D1*
Y987000D1*
Y984000D1*
Y981000D1*
Y978000D1*
Y975000D1*
Y972000D1*
Y969000D1*
Y966000D1*
Y963000D1*
Y960000D1*
Y957000D1*
Y954000D1*
Y951000D1*
Y948000D1*
Y945000D1*
X4046500Y1167000D2*
Y1164000D1*
Y1161000D1*
Y1158000D1*
Y1155000D1*
Y1152000D1*
Y1149000D1*
Y1146000D1*
Y1143000D1*
Y1140000D1*
Y1137000D1*
Y1134000D1*
Y1131000D1*
Y1128000D1*
Y1125000D1*
Y1122000D1*
Y1119000D1*
Y1116000D1*
Y1113000D1*
Y1110000D1*
Y1107000D1*
Y1104000D1*
Y1101000D1*
Y1098000D1*
Y1095000D1*
Y1092000D1*
Y1089000D1*
X4082500Y1167000D2*
Y1164000D1*
Y1161000D1*
Y1158000D1*
Y1155000D1*
Y1152000D1*
Y1149000D1*
Y1146000D1*
Y1143000D1*
Y1140000D1*
Y1137000D1*
Y1134000D1*
Y1131000D1*
Y1128000D1*
Y1125000D1*
Y1122000D1*
Y1119000D1*
Y1116000D1*
Y1113000D1*
Y1110000D1*
Y1107000D1*
Y1104000D1*
Y1101000D1*
Y1098000D1*
Y1095000D1*
Y1092000D1*
Y1089000D1*
Y1086000D1*
Y1083000D1*
Y1080000D1*
Y1077000D1*
Y1074000D1*
Y1071000D1*
Y1068000D1*
Y1065000D1*
Y1062000D1*
Y1059000D1*
Y1056000D1*
Y1053000D1*
Y1050000D1*
Y1047000D1*
Y1044000D1*
Y1041000D1*
Y1038000D1*
Y1035000D1*
Y1032000D1*
Y1029000D1*
Y1026000D1*
Y1023000D1*
Y1020000D1*
Y1017000D1*
Y1014000D1*
Y1011000D1*
Y1008000D1*
Y1005000D1*
Y1002000D1*
Y999000D1*
Y996000D1*
Y993000D1*
Y990000D1*
Y987000D1*
Y984000D1*
Y981000D1*
Y978000D1*
Y975000D1*
Y972000D1*
Y969000D1*
Y966000D1*
Y963000D1*
Y960000D1*
Y957000D1*
Y954000D1*
Y951000D1*
Y948000D1*
Y945000D1*
X4445500Y1167000D2*
Y1164000D1*
Y1161000D1*
Y1158000D1*
Y1155000D1*
Y1152000D1*
Y1149000D1*
Y1146000D1*
Y1143000D1*
Y1140000D1*
Y1137000D1*
Y1134000D1*
Y1131000D1*
Y1128000D1*
Y1125000D1*
Y1122000D1*
Y1119000D1*
Y1116000D1*
Y1113000D1*
Y1110000D1*
Y1107000D1*
Y1104000D1*
Y1101000D1*
Y1098000D1*
X4508500Y1167000D2*
Y1164000D1*
Y1161000D1*
Y1158000D1*
Y1155000D1*
Y1152000D1*
Y1149000D1*
Y1146000D1*
Y1143000D1*
Y1140000D1*
Y1137000D1*
Y1134000D1*
Y1131000D1*
Y1128000D1*
Y1125000D1*
Y1122000D1*
Y1119000D1*
Y1116000D1*
Y1113000D1*
Y1110000D1*
Y1107000D1*
Y1104000D1*
Y1101000D1*
Y1098000D1*
Y1095000D1*
Y1092000D1*
Y1089000D1*
Y1086000D1*
Y1083000D1*
Y1080000D1*
Y1077000D1*
Y1074000D1*
Y1071000D1*
Y1068000D1*
Y1065000D1*
Y1062000D1*
Y1059000D1*
Y1056000D1*
Y1053000D1*
Y1050000D1*
Y1047000D1*
Y1044000D1*
Y1041000D1*
Y1038000D1*
Y1035000D1*
Y1032000D1*
Y1029000D1*
Y1026000D1*
Y1023000D1*
Y1020000D1*
Y1017000D1*
Y1014000D1*
Y1011000D1*
Y1008000D1*
Y1005000D1*
Y1002000D1*
Y999000D1*
Y996000D1*
Y993000D1*
Y990000D1*
Y987000D1*
Y984000D1*
Y981000D1*
Y978000D1*
Y975000D1*
Y972000D1*
Y969000D1*
Y966000D1*
Y963000D1*
Y960000D1*
Y957000D1*
Y954000D1*
Y951000D1*
Y948000D1*
Y945000D1*
X4544500Y1167000D2*
Y1164000D1*
Y1161000D1*
Y1158000D1*
Y1155000D1*
Y1152000D1*
Y1149000D1*
Y1146000D1*
Y1143000D1*
Y1140000D1*
Y1137000D1*
Y1134000D1*
Y1131000D1*
Y1128000D1*
Y1125000D1*
Y1122000D1*
Y1119000D1*
Y1116000D1*
Y1113000D1*
Y1110000D1*
Y1107000D1*
Y1104000D1*
Y1101000D1*
Y1098000D1*
Y1095000D1*
Y1092000D1*
Y1089000D1*
Y1086000D1*
Y1083000D1*
Y1080000D1*
Y1077000D1*
Y1074000D1*
Y1071000D1*
Y1068000D1*
Y1065000D1*
Y1062000D1*
Y1059000D1*
Y1056000D1*
Y1053000D1*
Y1050000D1*
Y1047000D1*
Y1044000D1*
Y1041000D1*
Y1038000D1*
Y1035000D1*
Y1032000D1*
Y1029000D1*
Y1026000D1*
Y1023000D1*
Y1020000D1*
Y1017000D1*
Y1014000D1*
Y1011000D1*
Y1008000D1*
Y1005000D1*
Y1002000D1*
Y999000D1*
Y996000D1*
Y993000D1*
Y990000D1*
Y987000D1*
Y984000D1*
Y981000D1*
Y978000D1*
Y975000D1*
Y972000D1*
Y969000D1*
Y966000D1*
Y963000D1*
Y960000D1*
Y957000D1*
Y954000D1*
Y951000D1*
Y948000D1*
Y945000D1*
X4448500Y1164000D2*
X4451500Y1161000D1*
X4454500Y1158000D1*
X4457512Y1155000D1*
X4460605Y1152000D1*
X4463882Y1149000D1*
X4467230Y1146000D1*
X4470375Y1143000D1*
X4473394Y1140000D1*
X4476368Y1137000D1*
X4478768Y1134000D1*
X4480510Y1131000D1*
X4481035Y1128000D1*
X4481308Y1125000D1*
X4481427Y1122000D1*
X4481474Y1119000D1*
X4481491Y1116000D1*
X4481497Y1113000D1*
X4481499Y1110000D1*
X4481500Y1107000D1*
Y1104000D1*
Y1101000D1*
Y1098000D1*
Y1095000D1*
Y1092000D1*
Y1089000D1*
Y1086000D1*
Y1083000D1*
Y1080000D1*
Y1077000D1*
Y1074000D1*
Y1071000D1*
Y1068000D1*
Y1065000D1*
Y1062000D1*
Y1059000D1*
Y1056000D1*
Y1053000D1*
Y1050000D1*
Y1047000D1*
Y1044000D1*
Y1041000D1*
Y1038000D1*
Y1035000D1*
Y1032000D1*
Y1029000D1*
Y1026000D1*
Y1023000D1*
Y1020000D1*
Y1017000D1*
Y1014000D1*
Y1011000D1*
Y1008000D1*
Y1005000D1*
Y1002000D1*
Y999000D1*
Y996000D1*
Y993000D1*
Y990000D1*
Y987000D1*
Y984000D1*
Y981000D1*
Y978000D1*
X4481488Y975000D1*
X4481383Y972000D1*
X4481000Y969000D1*
X4480270Y966000D1*
X4479384Y963000D1*
X4478361Y960000D1*
X4476853Y957000D1*
X4474598Y954000D1*
X4471308Y951000D1*
X4466365Y948000D1*
X4459474Y945000D1*
X4451500Y942000D1*
X4781500Y1164000D2*
X4774127Y1161000D1*
X4767371Y1158000D1*
X4761329Y1155000D1*
X4755971Y1152000D1*
X4751173Y1149000D1*
X4746990Y1146000D1*
X4743627Y1143000D1*
X4740980Y1140000D1*
X4738601Y1137000D1*
X4736165Y1134000D1*
X4733813Y1131000D1*
X4731756Y1128000D1*
X4729968Y1125000D1*
X4728347Y1122000D1*
X4726889Y1119000D1*
X4725654Y1116000D1*
X4724591Y1113000D1*
X4723531Y1110000D1*
X4722633Y1107000D1*
X4722011Y1104000D1*
X4722572Y1101000D1*
X4725458Y1098000D1*
X4732036Y1095000D1*
X4739979Y1092000D1*
X4748500Y1089000D1*
X4835500Y1164000D2*
X4842885Y1161000D1*
X4849735Y1158000D1*
X4856054Y1155000D1*
X4861747Y1152000D1*
X4866608Y1149000D1*
X4870650Y1146000D1*
X4874150Y1143000D1*
X4877365Y1140000D1*
X4880451Y1137000D1*
X4883471Y1134000D1*
X4886377Y1131000D1*
X4888999Y1128000D1*
X4891270Y1125000D1*
X4893395Y1122000D1*
X4895478Y1119000D1*
X4897376Y1116000D1*
X4899086Y1113000D1*
X4900674Y1110000D1*
X4902119Y1107000D1*
X4903348Y1104000D1*
X4904410Y1101000D1*
X4905470Y1098000D1*
X4906390Y1095000D1*
X4906974Y1092000D1*
X4907276Y1089000D1*
X4907412Y1086000D1*
X4907467Y1083000D1*
X4907488Y1080000D1*
X4907496Y1077000D1*
X4907499Y1074000D1*
X4907500Y1071000D1*
Y1068000D1*
Y1065000D1*
Y1062000D1*
Y1059000D1*
Y1056000D1*
Y1053000D1*
Y1050000D1*
Y1047000D1*
Y1044000D1*
Y1041000D1*
Y1038000D1*
Y1035000D1*
Y1032000D1*
Y1029000D1*
Y1026000D1*
Y1023000D1*
Y1020000D1*
X4907488Y1017000D1*
X4907383Y1014000D1*
X4907000Y1011000D1*
X4906270Y1008000D1*
X4905396Y1005000D1*
X4904478Y1002000D1*
X4903376Y999000D1*
X4902086Y996000D1*
X4900674Y993000D1*
X4899119Y990000D1*
X4897348Y987000D1*
X4895410Y984000D1*
X4893470Y981000D1*
X4891402Y978000D1*
X4889080Y975000D1*
X4886658Y972000D1*
X4884130Y969000D1*
X4881236Y966000D1*
X4878000Y963000D1*
X4874645Y960000D1*
X4870997Y957000D1*
X4866694Y954000D1*
X4861546Y951000D1*
X4855410Y948000D1*
X4847945Y945000D1*
X4839086Y942000D1*
X4829500Y939000D1*
X4799500Y1128000D2*
X4793512Y1125000D1*
X4787629Y1122000D1*
X4782128Y1119000D1*
X4777358Y1116000D1*
X4773451Y1113000D1*
X4770355Y1110000D1*
X4767968Y1107000D1*
X4766047Y1104000D1*
X4764374Y1101000D1*
X4762909Y1098000D1*
X4761766Y1095000D1*
X4761031Y1092000D1*
X4760500Y1089000D1*
X4814500Y1128000D2*
X4822899Y1125000D1*
X4830536Y1122000D1*
X4837041Y1119000D1*
X4842310Y1116000D1*
X4846522Y1113000D1*
X4849990Y1110000D1*
X4852851Y1107000D1*
X4855216Y1104000D1*
X4857365Y1101000D1*
X4859366Y1098000D1*
X4860980Y1095000D1*
X4862261Y1092000D1*
X4863522Y1089000D1*
X4864865Y1086000D1*
X4866184Y1083000D1*
X4867260Y1080000D1*
X4867933Y1077000D1*
X4868373Y1074000D1*
X4868904Y1071000D1*
X4869682Y1068000D1*
X4870475Y1065000D1*
X4871006Y1062000D1*
X4871287Y1059000D1*
X4871415Y1056000D1*
X4871468Y1053000D1*
X4871477Y1050000D1*
X4871379Y1047000D1*
X4870999Y1044000D1*
X4870282Y1041000D1*
X4869513Y1038000D1*
X4868978Y1035000D1*
X4868594Y1032000D1*
X4868085Y1029000D1*
X4867302Y1026000D1*
X4866407Y1023000D1*
X4865482Y1020000D1*
X4864377Y1017000D1*
X4863086Y1014000D1*
X4861674Y1011000D1*
X4860119Y1008000D1*
X4858337Y1005000D1*
X4856305Y1002000D1*
X4854076Y999000D1*
X4851543Y996000D1*
X4848577Y993000D1*
X4844883Y990000D1*
X4840048Y987000D1*
X4833818Y984000D1*
X4826086Y981000D1*
X4817500Y978000D1*
X3791500Y1125000D2*
Y1122000D1*
Y1119000D1*
Y1116000D1*
Y1113000D1*
Y1110000D1*
Y1107000D1*
Y1104000D1*
Y1101000D1*
Y1098000D1*
Y1095000D1*
Y1092000D1*
Y1089000D1*
Y1086000D1*
Y1083000D1*
Y1080000D1*
Y1077000D1*
X3626500Y1122000D2*
Y1119000D1*
Y1116000D1*
Y1113000D1*
Y1110000D1*
Y1107000D1*
Y1104000D1*
Y1101000D1*
Y1098000D1*
Y1095000D1*
Y1092000D1*
Y1089000D1*
Y1086000D1*
Y1083000D1*
Y1080000D1*
Y1077000D1*
X3983500Y1101000D2*
X3975308Y1098000D1*
X3968737Y1095000D1*
X3963583Y1092000D1*
X3959385Y1089000D1*
X3956072Y1086000D1*
X3953569Y1083000D1*
X3951585Y1080000D1*
X3949881Y1077000D1*
X3948308Y1074000D1*
X3946885Y1071000D1*
X3945766Y1068000D1*
X3945077Y1065000D1*
X3944631Y1062000D1*
X3944098Y1059000D1*
X3943318Y1056000D1*
X3942526Y1053000D1*
X3941994Y1050000D1*
X3941713Y1047000D1*
X3941585Y1044000D1*
X3941532Y1041000D1*
X3941511Y1038000D1*
X3941504Y1035000D1*
X3941501Y1032000D1*
X3941500Y1029000D1*
Y1026000D1*
Y1023000D1*
Y1020000D1*
Y1017000D1*
Y1014000D1*
Y1011000D1*
Y1008000D1*
Y1005000D1*
Y1002000D1*
Y999000D1*
Y996000D1*
Y993000D1*
Y990000D1*
Y987000D1*
Y984000D1*
Y981000D1*
Y978000D1*
Y975000D1*
Y972000D1*
Y969000D1*
Y966000D1*
Y963000D1*
Y960000D1*
Y957000D1*
Y954000D1*
Y951000D1*
Y948000D1*
Y945000D1*
X4013500Y1101000D2*
X4021804Y1098000D1*
X4028764Y1095000D1*
X4034781Y1092000D1*
X4040500Y1089000D1*
X4142500Y1101000D2*
X4134565Y1098000D1*
X4127671Y1095000D1*
X4121943Y1092000D1*
X4117199Y1089000D1*
X4113266Y1086000D1*
X4109926Y1083000D1*
X4107118Y1080000D1*
X4104773Y1077000D1*
X4102631Y1074000D1*
X4100632Y1071000D1*
X4099011Y1068000D1*
X4097657Y1065000D1*
X4096173Y1062000D1*
X4094500Y1059000D1*
X4098553Y1056000D1*
X4103543Y1053000D1*
X4109319Y1050000D1*
X4115380Y1047000D1*
X4121500Y1044000D1*
X4178500Y1101000D2*
X4187820Y1098000D1*
X4195575Y1095000D1*
X4201740Y1092000D1*
X4206688Y1089000D1*
X4210805Y1086000D1*
X4214558Y1083000D1*
X4218095Y1080000D1*
X4221213Y1077000D1*
X4223890Y1074000D1*
X4226262Y1071000D1*
X4228290Y1068000D1*
X4230054Y1065000D1*
X4231663Y1062000D1*
X4233115Y1059000D1*
X4234347Y1056000D1*
X4235410Y1053000D1*
X4236470Y1050000D1*
X4237390Y1047000D1*
X4237986Y1044000D1*
X4238393Y1041000D1*
X4238911Y1038000D1*
X4239685Y1035000D1*
X4240475Y1032000D1*
X4241006Y1029000D1*
X4241287Y1026000D1*
X4241415Y1023000D1*
X4241457Y1020000D1*
X4241372Y1017000D1*
X4240997Y1014000D1*
X4240281Y1011000D1*
X4239512Y1008000D1*
X4238989Y1005000D1*
X4238700Y1002000D1*
X4238467Y999000D1*
X4238020Y996000D1*
X4237176Y993000D1*
X4236017Y990000D1*
X4234761Y987000D1*
X4233596Y984000D1*
X4232457Y981000D1*
X4231014Y978000D1*
X4229261Y975000D1*
X4227409Y972000D1*
X4225367Y969000D1*
X4222966Y966000D1*
X4220261Y963000D1*
X4217293Y960000D1*
X4213944Y957000D1*
X4210012Y954000D1*
X4205253Y951000D1*
X4199316Y948000D1*
X4192186Y945000D1*
X4184500Y942000D1*
X4310500Y1101000D2*
X4301845Y1098000D1*
X4294518Y1095000D1*
X4288482Y1092000D1*
X4283376Y1089000D1*
X4279066Y1086000D1*
X4275654Y1083000D1*
X4273001Y1080000D1*
X4270709Y1077000D1*
X4268560Y1074000D1*
X4266637Y1071000D1*
X4264919Y1068000D1*
X4263327Y1065000D1*
X4261893Y1062000D1*
X4260757Y1059000D1*
X4259972Y1056000D1*
X4259249Y1053000D1*
X4258379Y1050000D1*
X4257537Y1047000D1*
X4256885Y1044000D1*
X4256216Y1041000D1*
X4255368Y1038000D1*
X4254545Y1035000D1*
X4254001Y1032000D1*
X4253715Y1029000D1*
X4253585Y1026000D1*
X4253532Y1023000D1*
X4253511Y1020000D1*
X4253504Y1017000D1*
X4253501Y1014000D1*
X4253500Y1011000D1*
X4346500Y1101000D2*
X4355820Y1098000D1*
X4363575Y1095000D1*
X4369740Y1092000D1*
X4374688Y1089000D1*
X4378805Y1086000D1*
X4382558Y1083000D1*
X4386095Y1080000D1*
X4389213Y1077000D1*
X4391890Y1074000D1*
X4394262Y1071000D1*
X4396290Y1068000D1*
X4398054Y1065000D1*
X4399663Y1062000D1*
X4401115Y1059000D1*
X4402347Y1056000D1*
X4403410Y1053000D1*
X4404470Y1050000D1*
X4405390Y1047000D1*
X4405986Y1044000D1*
X4406393Y1041000D1*
X4406911Y1038000D1*
X4407685Y1035000D1*
X4408475Y1032000D1*
X4409006Y1029000D1*
X4409287Y1026000D1*
X4409415Y1023000D1*
X4409457Y1020000D1*
X4409372Y1017000D1*
X4408997Y1014000D1*
X4408281Y1011000D1*
X4407512Y1008000D1*
X4406989Y1005000D1*
X4406700Y1002000D1*
X4406467Y999000D1*
X4406020Y996000D1*
X4405176Y993000D1*
X4404005Y990000D1*
X4402656Y987000D1*
X4401213Y984000D1*
X4399727Y981000D1*
X4398139Y978000D1*
X4396356Y975000D1*
X4394413Y972000D1*
X4392471Y969000D1*
X4390379Y966000D1*
X4387857Y963000D1*
X4384765Y960000D1*
X4381065Y957000D1*
X4376828Y954000D1*
X4371880Y951000D1*
X4365697Y948000D1*
X4358029Y945000D1*
X4349500Y942000D1*
X4616500Y1101000D2*
X4607180Y1098000D1*
X4599425Y1095000D1*
X4593260Y1092000D1*
X4588335Y1089000D1*
X4584429Y1086000D1*
X4581441Y1083000D1*
X4579353Y1080000D1*
X4577879Y1077000D1*
X4576642Y1074000D1*
X4575651Y1071000D1*
X4575028Y1068000D1*
X4574603Y1065000D1*
X4574000Y1062000D1*
X4572916Y1059000D1*
X4571500Y1056000D1*
X4572885Y1053000D1*
X4573746Y1050000D1*
X4574182Y1047000D1*
X4574376Y1044000D1*
X4574454Y1041000D1*
X4574484Y1038000D1*
X4574494Y1035000D1*
X4574498Y1032000D1*
X4574499Y1029000D1*
X4574500Y1026000D1*
Y1023000D1*
Y1020000D1*
Y1017000D1*
Y1014000D1*
Y1011000D1*
Y1008000D1*
Y1005000D1*
Y1002000D1*
Y999000D1*
Y996000D1*
Y993000D1*
Y990000D1*
Y987000D1*
Y984000D1*
X4574488Y981000D1*
X4574383Y978000D1*
X4574000Y975000D1*
X4573282Y972000D1*
X4572513Y969000D1*
X4571990Y966000D1*
X4571700Y963000D1*
X4571467Y960000D1*
X4571032Y957000D1*
X4570293Y954000D1*
X4569509Y951000D1*
X4568937Y948000D1*
X4568500Y945000D1*
X4658500Y1101000D2*
X4668169Y1098000D1*
X4676284Y1095000D1*
X4682506Y1092000D1*
X4687199Y1089000D1*
X4690966Y1086000D1*
X4694185Y1083000D1*
X4696918Y1080000D1*
X4699140Y1077000D1*
X4700993Y1074000D1*
X4702640Y1071000D1*
X4704095Y1068000D1*
X4705227Y1065000D1*
X4705909Y1062000D1*
X4706251Y1059000D1*
X4706403Y1056000D1*
X4706466Y1053000D1*
X4706500Y1050000D1*
X4409500Y1098000D2*
Y1095000D1*
Y1092000D1*
Y1089000D1*
Y1086000D1*
Y1083000D1*
Y1080000D1*
Y1077000D1*
Y1074000D1*
Y1071000D1*
X3524500Y1077000D2*
Y1074000D1*
Y1071000D1*
Y1068000D1*
Y1065000D1*
Y1062000D1*
Y1059000D1*
Y1056000D1*
Y1053000D1*
Y1050000D1*
Y1047000D1*
Y1044000D1*
Y1041000D1*
Y1038000D1*
Y1035000D1*
X3602500Y1077000D2*
X3604474Y1074000D1*
X3606570Y1071000D1*
X3608896Y1068000D1*
X3611219Y1065000D1*
X3613357Y1062000D1*
X3615428Y1059000D1*
X3617502Y1056000D1*
X3619486Y1053000D1*
X3621481Y1050000D1*
X3623522Y1047000D1*
X3625505Y1044000D1*
X3627589Y1041000D1*
X3629905Y1038000D1*
X3632212Y1035000D1*
X3634253Y1032000D1*
X3636046Y1029000D1*
X3637783Y1026000D1*
X3639716Y1023000D1*
X3641958Y1020000D1*
X3644244Y1017000D1*
X3646366Y1014000D1*
X3648431Y1011000D1*
X3650503Y1008000D1*
X3652486Y1005000D1*
X3654481Y1002000D1*
X3656522Y999000D1*
X3658505Y996000D1*
X3660589Y993000D1*
X3662905Y990000D1*
X3665224Y987000D1*
X3667358Y984000D1*
X3669428Y981000D1*
X3671502Y978000D1*
X3673486Y975000D1*
X3675481Y972000D1*
X3677522Y969000D1*
X3679505Y966000D1*
X3681589Y963000D1*
X3683905Y960000D1*
X3686224Y957000D1*
X3688358Y954000D1*
X3690420Y951000D1*
X3692409Y948000D1*
X3694082Y945000D1*
X3695500Y942000D1*
X3719500Y1077000D2*
X3719614Y1074000D1*
X3720010Y1071000D1*
X3720835Y1068000D1*
X3721987Y1065000D1*
X3723240Y1062000D1*
X3724393Y1059000D1*
X3725426Y1056000D1*
X3726487Y1053000D1*
X3727509Y1050000D1*
X3728475Y1047000D1*
X3729495Y1044000D1*
X3730407Y1041000D1*
X3731033Y1038000D1*
X3731500Y1035000D1*
X4643500Y1074000D2*
X4632919Y1071000D1*
X4624308Y1068000D1*
X4618354Y1065000D1*
X4614065Y1062000D1*
X4612059Y1059000D1*
X4611506Y1056000D1*
X4611369Y1053000D1*
X4617619Y1050000D1*
X4626790Y1047000D1*
X4638642Y1044000D1*
X4651572Y1041000D1*
X4663712Y1038000D1*
X4674076Y1035000D1*
X4682442Y1032000D1*
X4689047Y1029000D1*
X4694429Y1026000D1*
X4698858Y1023000D1*
X4702306Y1020000D1*
X4704884Y1017000D1*
X4706893Y1014000D1*
X4708603Y1011000D1*
X4710094Y1008000D1*
X4711340Y1005000D1*
X4712407Y1002000D1*
X4713469Y999000D1*
X4714390Y996000D1*
X4714963Y993000D1*
X4715159Y990000D1*
X4714912Y987000D1*
X4714249Y984000D1*
X4713489Y981000D1*
X4712868Y978000D1*
X4712199Y975000D1*
X4711248Y972000D1*
X4710033Y969000D1*
X4708654Y966000D1*
X4707100Y963000D1*
X4705229Y960000D1*
X4702898Y957000D1*
X4700111Y954000D1*
X4696649Y951000D1*
X4692039Y948000D1*
X4686119Y945000D1*
X4679500Y942000D1*
X4631500Y1074000D2*
X4644130Y1071000D1*
X4654031Y1068000D1*
X4661579Y1065000D1*
X4664653Y1062000D1*
X4666702Y1059000D1*
X4668225Y1056000D1*
X4669453Y1053000D1*
X4670500Y1050000D1*
X4322500Y1071000D2*
X4316626Y1068000D1*
X4311139Y1065000D1*
X4306463Y1062000D1*
X4302845Y1059000D1*
X4300179Y1056000D1*
X4298119Y1053000D1*
X4296278Y1050000D1*
X4294302Y1047000D1*
X4291991Y1044000D1*
X4289500Y1041000D1*
X4331500Y1071000D2*
X4339784Y1068000D1*
X4347037Y1065000D1*
X4352812Y1062000D1*
X4357206Y1059000D1*
X4360512Y1056000D1*
X4362972Y1053000D1*
X4364819Y1050000D1*
X4366129Y1047000D1*
X4366932Y1044000D1*
X4367500Y1041000D1*
X4445500Y1071000D2*
Y1068000D1*
Y1065000D1*
Y1062000D1*
Y1059000D1*
Y1056000D1*
Y1053000D1*
Y1050000D1*
Y1047000D1*
Y1044000D1*
Y1041000D1*
Y1038000D1*
Y1035000D1*
Y1032000D1*
Y1029000D1*
Y1026000D1*
Y1023000D1*
Y1020000D1*
Y1017000D1*
Y1014000D1*
Y1011000D1*
Y1008000D1*
Y1005000D1*
Y1002000D1*
Y999000D1*
X4445488Y996000D1*
X4445383Y993000D1*
X4444989Y990000D1*
X4444048Y987000D1*
X4442604Y984000D1*
X4436059Y981000D1*
X4424457Y978000D1*
X4409500Y975000D1*
Y972000D1*
Y969000D1*
Y966000D1*
Y963000D1*
Y960000D1*
Y957000D1*
Y954000D1*
Y951000D1*
Y948000D1*
Y945000D1*
X4427500Y942000D1*
X4157500Y1068000D2*
X4151626Y1065000D1*
X4146128Y1062000D1*
X4141358Y1059000D1*
X4137451Y1056000D1*
X4134346Y1053000D1*
X4131878Y1050000D1*
X4129684Y1047000D1*
X4127500Y1044000D1*
X4166500Y1068000D2*
X4172374Y1065000D1*
X4177872Y1062000D1*
X4182642Y1059000D1*
X4186549Y1056000D1*
X4189645Y1053000D1*
X4192032Y1050000D1*
X4193953Y1047000D1*
X4195626Y1044000D1*
X4197090Y1041000D1*
X4198237Y1038000D1*
X4199026Y1035000D1*
X4199751Y1032000D1*
X4200621Y1029000D1*
X4201451Y1026000D1*
X4201986Y1023000D1*
X4202167Y1020000D1*
X4201915Y1017000D1*
X4201238Y1014000D1*
X4200384Y1011000D1*
X4199486Y1008000D1*
X4198480Y1005000D1*
X4197479Y1002000D1*
X4196510Y999000D1*
X4195376Y996000D1*
X4193961Y993000D1*
X4192047Y990000D1*
X4189262Y987000D1*
X4185410Y984000D1*
X4180653Y981000D1*
X4175500Y978000D1*
X4001500Y1065000D2*
X3996101Y1062000D1*
X3991452Y1059000D1*
X3987842Y1056000D1*
X3985190Y1053000D1*
X3983248Y1050000D1*
X3981905Y1047000D1*
X3981139Y1044000D1*
X3980766Y1041000D1*
X3980603Y1038000D1*
X3980538Y1035000D1*
X3980513Y1032000D1*
X3980505Y1029000D1*
X3980502Y1026000D1*
X3980500Y1023000D1*
Y1020000D1*
Y1017000D1*
Y1014000D1*
Y1011000D1*
Y1008000D1*
Y1005000D1*
Y1002000D1*
Y999000D1*
Y996000D1*
Y993000D1*
Y990000D1*
Y987000D1*
Y984000D1*
Y981000D1*
Y978000D1*
Y975000D1*
Y972000D1*
Y969000D1*
Y966000D1*
Y963000D1*
Y960000D1*
Y957000D1*
Y954000D1*
Y951000D1*
Y948000D1*
Y945000D1*
X4016500Y1065000D2*
X4021910Y1062000D1*
X4026665Y1059000D1*
X4030658Y1056000D1*
X4034028Y1053000D1*
X4036751Y1050000D1*
X4038722Y1047000D1*
X4040149Y1044000D1*
X4041380Y1041000D1*
X4042470Y1038000D1*
X4043461Y1035000D1*
X4044489Y1032000D1*
X4045397Y1029000D1*
X4045977Y1026000D1*
X4046277Y1023000D1*
X4046412Y1020000D1*
X4046467Y1017000D1*
X4046488Y1014000D1*
X4046496Y1011000D1*
X4046499Y1008000D1*
X4046500Y1005000D1*
Y1002000D1*
Y999000D1*
Y996000D1*
Y993000D1*
Y990000D1*
Y987000D1*
Y984000D1*
Y981000D1*
Y978000D1*
Y975000D1*
Y972000D1*
Y969000D1*
Y966000D1*
Y963000D1*
Y960000D1*
Y957000D1*
Y954000D1*
Y951000D1*
Y948000D1*
Y945000D1*
X3626500Y1035000D2*
Y1032000D1*
Y1029000D1*
Y1026000D1*
Y1023000D1*
Y1020000D1*
Y1017000D1*
Y1014000D1*
Y1011000D1*
Y1008000D1*
Y1005000D1*
Y1002000D1*
Y999000D1*
Y996000D1*
Y993000D1*
Y990000D1*
Y987000D1*
X3791500Y1035000D2*
Y1032000D1*
Y1029000D1*
Y1026000D1*
Y1023000D1*
Y1020000D1*
Y1017000D1*
Y1014000D1*
Y1011000D1*
Y1008000D1*
Y1005000D1*
Y1002000D1*
Y999000D1*
Y996000D1*
Y993000D1*
Y990000D1*
Y987000D1*
X4751500Y1020000D2*
X4745139Y1017000D1*
X4738698Y1014000D1*
X4732492Y1011000D1*
X4727028Y1008000D1*
X4722366Y1005000D1*
X4720420Y1002000D1*
X4720279Y999000D1*
X4721227Y996000D1*
X4722442Y993000D1*
X4723823Y990000D1*
X4725286Y987000D1*
X4726865Y984000D1*
X4728646Y981000D1*
X4730588Y978000D1*
X4732530Y975000D1*
X4734610Y972000D1*
X4737025Y969000D1*
X4739724Y966000D1*
X4742600Y963000D1*
X4745650Y960000D1*
X4749035Y957000D1*
X4752980Y954000D1*
X4757745Y951000D1*
X4763703Y948000D1*
X4770950Y945000D1*
X4779057Y942000D1*
X4787500Y939000D1*
X4754500Y1020000D2*
X4756348Y1017000D1*
X4757966Y1014000D1*
X4759295Y1011000D1*
X4760514Y1008000D1*
X4762089Y1005000D1*
X4764221Y1002000D1*
X4766702Y999000D1*
X4769237Y996000D1*
X4771837Y993000D1*
X4774910Y990000D1*
X4778988Y987000D1*
X4784829Y984000D1*
X4792985Y981000D1*
X4802500Y978000D1*
X4610500Y1020000D2*
Y1017000D1*
Y1014000D1*
Y1011000D1*
Y1008000D1*
Y1005000D1*
X4610512Y1002000D1*
X4610617Y999000D1*
X4611011Y996000D1*
X4611847Y993000D1*
X4613127Y990000D1*
X4614986Y987000D1*
X4617750Y984000D1*
X4621594Y981000D1*
X4626348Y978000D1*
X4631500Y975000D1*
X4610500Y1020000D2*
X4620644Y1017000D1*
X4631783Y1014000D1*
X4643264Y1011000D1*
X4653506Y1008000D1*
X4661507Y1005000D1*
X4667090Y1002000D1*
X4671084Y999000D1*
X4672345Y996000D1*
X4673004Y993000D1*
X4673195Y990000D1*
X4672909Y987000D1*
X4672006Y984000D1*
X4670317Y981000D1*
X4667703Y978000D1*
X4664500Y975000D1*
X4373500Y1014000D2*
X4371078Y1011000D1*
X4369218Y1008000D1*
X4367819Y1005000D1*
X4366508Y1002000D1*
X4365134Y999000D1*
X4363679Y996000D1*
X4361996Y993000D1*
X4359722Y990000D1*
X4356567Y987000D1*
X4352668Y984000D1*
X4348230Y981000D1*
X4343500Y978000D1*
X4124500Y1005000D2*
X4118500Y1002000D1*
X4112512Y999000D1*
X4106626Y996000D1*
X4101090Y993000D1*
X4096115Y990000D1*
X4091500Y987000D1*
X4093360Y984000D1*
X4095083Y981000D1*
X4096795Y978000D1*
X4098720Y975000D1*
X4100959Y972000D1*
X4103244Y969000D1*
X4105378Y966000D1*
X4107560Y963000D1*
X4110119Y960000D1*
X4113239Y957000D1*
X4117061Y954000D1*
X4121775Y951000D1*
X4127694Y948000D1*
X4134818Y945000D1*
X4142500Y942000D1*
X4127500Y1002000D2*
X4128652Y999000D1*
X4130046Y996000D1*
X4131833Y993000D1*
X4134126Y990000D1*
X4136883Y987000D1*
X4140190Y984000D1*
X4144150Y981000D1*
X4148500Y978000D1*
X4280500Y996000D2*
X4275526Y993000D1*
X4270442Y990000D1*
X4265245Y987000D1*
X4260550Y984000D1*
X4256621Y981000D1*
X4255149Y978000D1*
X4255474Y975000D1*
X4256999Y972000D1*
X4258812Y969000D1*
X4261172Y966000D1*
X4264278Y963000D1*
X4267836Y960000D1*
X4271624Y957000D1*
X4275810Y954000D1*
X4280797Y951000D1*
X4287245Y948000D1*
X4295420Y945000D1*
X4304500Y942000D1*
X4283500Y996000D2*
X4286614Y993000D1*
X4290022Y990000D1*
X4293970Y987000D1*
X4298674Y984000D1*
X4304294Y981000D1*
X4310500Y978000D1*
X3515500Y987000D2*
Y984000D1*
Y981000D1*
Y978000D1*
Y975000D1*
Y972000D1*
Y969000D1*
Y966000D1*
Y963000D1*
Y960000D1*
Y957000D1*
Y954000D1*
Y951000D1*
Y948000D1*
Y945000D1*
Y942000D1*
X3692500Y987000D2*
X3693999Y984000D1*
X3695257Y981000D1*
X3696517Y978000D1*
X3697874Y975000D1*
X3699300Y972000D1*
X3700759Y969000D1*
X3702150Y966000D1*
X3703360Y963000D1*
X3704426Y960000D1*
X3705588Y957000D1*
X3706890Y954000D1*
X3708204Y951000D1*
X3709380Y948000D1*
X3710433Y945000D1*
X3711591Y942000D1*
X3712891Y939000D1*
X3714205Y936000D1*
X3715380Y933000D1*
X3716421Y930000D1*
X3717485Y927000D1*
X3718509Y924000D1*
X3719486Y921000D1*
X3720611Y918000D1*
X3721901Y915000D1*
X3723225Y912000D1*
X3724434Y909000D1*
X3725500Y906000D1*
X4607500Y954000D2*
Y951000D1*
Y948000D1*
Y945000D1*
X4613500Y954000D2*
X4619623Y951000D1*
X4626089Y948000D1*
X4633115Y945000D1*
X4640500Y942000D1*
X3716500Y945000D2*
X3718910Y942000D1*
X3720665Y939000D1*
X3721670Y936000D1*
X3722169Y933000D1*
X3722485Y930000D1*
X3722951Y927000D1*
X3723701Y924000D1*
X3724481Y921000D1*
X3725009Y918000D1*
X3725288Y915000D1*
X3725416Y912000D1*
X3725470Y909000D1*
X3725500Y906000D1*
X3199000Y747000D2*
X3195812Y744000D1*
X3193000Y741000D1*
X3197594Y738000D1*
X3202000Y735000D1*
X3205000Y747000D2*
X3211000Y744000D1*
X3217000Y747000D2*
Y744000D1*
X3223000Y747000D2*
X3226796Y744000D1*
X3229853Y741000D1*
X3231064Y738000D1*
X3232000Y735000D1*
X3247000D1*
X3247466Y732000D1*
X3248235Y729000D1*
X3249135Y726000D1*
X3250000Y723000D1*
X3193000Y735000D2*
X3187000Y732000D1*
X3181000Y729000D1*
X3183525Y726000D1*
X3185687Y723000D1*
X3187716Y720000D1*
X3189934Y717000D1*
X3196408Y714000D1*
X3206914Y711000D1*
X3220000Y708000D1*
X3217114Y705000D1*
X3214510Y702000D1*
X3212335Y699000D1*
X3210498Y696000D1*
X3208857Y693000D1*
X3207393Y690000D1*
X3206156Y687000D1*
X3205091Y684000D1*
X3204031Y681000D1*
X3203110Y678000D1*
X3202526Y675000D1*
X3202224Y672000D1*
X3202088Y669000D1*
X3202033Y666000D1*
X3202012Y663000D1*
X3202016Y660000D1*
X3202119Y657000D1*
X3202500Y654000D1*
X3203218Y651000D1*
X3203987Y648000D1*
X3204510Y645000D1*
X3204789Y642000D1*
X3204904Y639000D1*
X3204851Y636000D1*
X3204489Y633000D1*
X3203778Y630000D1*
X3203012Y627000D1*
X3202489Y624000D1*
X3202200Y621000D1*
X3201967Y618000D1*
X3201532Y615000D1*
X3200793Y612000D1*
X3200005Y609000D1*
X3199362Y606000D1*
X3198595Y603000D1*
X3197343Y600000D1*
X3195574Y597000D1*
X3193324Y594000D1*
X3190403Y591000D1*
X3187000Y588000D1*
X3196000Y735000D2*
X3202000Y732000D2*
X3205000Y735000D2*
X3208000Y732000D1*
X3256000Y723000D2*
X3259000D2*
X3260963Y720000D1*
X3262964Y717000D1*
X3265060Y714000D1*
X3267470Y711000D1*
X3271109Y708000D1*
X3276499Y705000D1*
X3282542Y702000D1*
X3287721Y699000D1*
X3291919Y696000D1*
X3293651Y693000D1*
X3295000Y690000D1*
X3253000Y693000D2*
X3268000Y690000D1*
X3283000Y687000D1*
X3281699Y684000D1*
X3280058Y681000D1*
X3276190Y678000D1*
X3271400Y675000D1*
X3267124Y672000D1*
X3263909Y669000D1*
X3262899Y666000D1*
X3262372Y663000D1*
X3262142Y660000D1*
X3262051Y657000D1*
X3262018Y654000D1*
X3262006Y651000D1*
X3262002Y648000D1*
X3262001Y645000D1*
X3262000Y642000D1*
Y639000D1*
Y636000D1*
Y633000D1*
Y630000D1*
X3262012Y627000D1*
X3262117Y624000D1*
X3262500Y621000D1*
X3263218Y618000D1*
X3263999Y615000D1*
X3264628Y612000D1*
X3265300Y609000D1*
X3266251Y606000D1*
X3267455Y603000D1*
X3268729Y600000D1*
X3269913Y597000D1*
X3271206Y594000D1*
X3272899Y591000D1*
X3277200Y588000D1*
X3282416Y585000D1*
X3287468Y582000D1*
X3292000Y579000D1*
X3286000Y576000D1*
X3289000Y693000D2*
X3292000Y690000D1*
X3262000D2*
X3259000Y687000D1*
X3262000Y690000D2*
X3265000Y687000D1*
X3055000Y678000D2*
X3053615Y675000D1*
X3052754Y672000D1*
X3052329Y669000D1*
X3052253Y666000D1*
X3052663Y663000D1*
X3053757Y660000D1*
X3055480Y657000D1*
X3057881Y654000D1*
X3061562Y651000D1*
X3066851Y648000D1*
X3073000Y645000D1*
X3071615Y642000D1*
X3070765Y639000D1*
X3070435Y636000D1*
X3070635Y633000D1*
X3071381Y630000D1*
X3072491Y627000D1*
X3073617Y624000D1*
X3074550Y621000D1*
X3074265Y618000D1*
X3073670Y615000D1*
X3072899Y612000D1*
X3071971Y609000D1*
X3071202Y606000D1*
X3071016Y603000D1*
X3071439Y600000D1*
X3072075Y597000D1*
X3072543Y594000D1*
X3072800Y591000D1*
X3072920Y588000D1*
X3072970Y585000D1*
X3072989Y582000D1*
X3072996Y579000D1*
X3072987Y576000D1*
X3072882Y573000D1*
X3072489Y570000D1*
X3071665Y567000D1*
X3070502Y564000D1*
X3069145Y561000D1*
X3067626Y558000D1*
X3065899Y555000D1*
X3064000Y552000D1*
X3058000Y675000D2*
X3061000Y672000D1*
X3088000Y675000D2*
X3082000Y672000D1*
X3100000Y675000D2*
X3112798Y672000D1*
X3122604Y669000D1*
X3129554Y666000D1*
X3134417Y663000D1*
X3137798Y660000D1*
X3140314Y657000D1*
X3141298Y654000D1*
X3142152Y651000D1*
X3143071Y648000D1*
X3143820Y645000D1*
X3143993Y642000D1*
X3143553Y639000D1*
X3142810Y636000D1*
X3141946Y633000D1*
X3140853Y630000D1*
X3139476Y627000D1*
X3137791Y624000D1*
X3135888Y621000D1*
X3133962Y618000D1*
X3131896Y615000D1*
X3129529Y612000D1*
X3127000Y609000D1*
X3352000Y660000D2*
X3344960Y657000D1*
X3339771Y654000D1*
X3336288Y651000D1*
X3333871Y648000D1*
X3331995Y645000D1*
X3330453Y642000D1*
X3329289Y639000D1*
X3328596Y636000D1*
X3328250Y633000D1*
X3328098Y630000D1*
X3328036Y627000D1*
X3328025Y624000D1*
X3328122Y621000D1*
X3328513Y618000D1*
X3329336Y615000D1*
X3330487Y612000D1*
X3331740Y609000D1*
X3332902Y606000D1*
X3334018Y603000D1*
X3335392Y600000D1*
X3337000Y597000D1*
X3361000Y660000D2*
X3380969Y657000D1*
X3400000Y654000D1*
X3412000D2*
X3421000D2*
X3419615Y651000D1*
X3418742Y648000D1*
X3418189Y645000D1*
X3417461Y642000D1*
X3416321Y639000D1*
X3412928Y636000D1*
X3408665Y633000D1*
X3404761Y630000D1*
X3401794Y627000D1*
X3400846Y624000D1*
X3400339Y621000D1*
X3400017Y618000D1*
X3399537Y615000D1*
X3398672Y612000D1*
X3397421Y609000D1*
X3395823Y606000D1*
X3394000Y603000D1*
X3395385Y600000D1*
X3396246Y597000D1*
X3396682Y594000D1*
X3396864Y591000D1*
X3396837Y588000D1*
X3396484Y585000D1*
X3395776Y582000D1*
X3395011Y579000D1*
X3394489Y576000D1*
X3394211Y573000D1*
X3394072Y570000D1*
X3393914Y567000D1*
X3393523Y564000D1*
X3392903Y561000D1*
X3392514Y558000D1*
X3392720Y555000D1*
X3393316Y552000D1*
X3394096Y549000D1*
X3395066Y546000D1*
X3396071Y543000D1*
X3397000Y540000D1*
X3013000Y618000D2*
X3012536Y615000D1*
X3011793Y612000D1*
X3011004Y609000D1*
X3010373Y606000D1*
X3009712Y603000D1*
X3008878Y600000D1*
X3008162Y597000D1*
X3008003Y594000D1*
X3008460Y591000D1*
X3009218Y588000D1*
X3010000Y585000D1*
X3016000Y615000D2*
X3020128Y612000D1*
X3024294Y609000D1*
X3028145Y606000D1*
X3031322Y603000D1*
X3034000Y600000D1*
X3043000Y615000D2*
X3046000Y612000D1*
X3044492Y609000D1*
X3043161Y606000D1*
X3041677Y603000D1*
X3040000Y600000D1*
X3046000Y615000D2*
X3048525Y612000D1*
X3050664Y609000D1*
X3052387Y606000D1*
X3053644Y603000D1*
X3054378Y600000D1*
X3054752Y597000D1*
X3055016Y594000D1*
X3055462Y591000D1*
X3056193Y588000D1*
X3056866Y585000D1*
X3057009Y582000D1*
X3056570Y579000D1*
X3055929Y576000D1*
X3055458Y573000D1*
X3055212Y570000D1*
X3055197Y567000D1*
X3055530Y564000D1*
X3056229Y561000D1*
X3056999Y558000D1*
X3057565Y555000D1*
X3058000Y552000D1*
X3145000Y612000D2*
X3133000Y609000D1*
X3148000Y612000D2*
X3146397Y609000D1*
X3144364Y606000D1*
X3142182Y603000D1*
X3140094Y600000D1*
X3137941Y597000D1*
X3135482Y594000D1*
X3132666Y591000D1*
X3129415Y588000D1*
X3125750Y585000D1*
X3122001Y582000D1*
X3118483Y579000D1*
X3115192Y576000D1*
X3112000Y573000D1*
X3115000Y570000D1*
X3112230Y567000D1*
X3110179Y564000D1*
X3109551Y561000D1*
X3109211Y558000D1*
X3109000Y555000D1*
X3457000Y600000D2*
X3452511Y597000D1*
X3447873Y594000D1*
X3443518Y591000D1*
X3439638Y588000D1*
X3436000Y585000D1*
X3322000Y597000D2*
X3323499Y594000D1*
X3324757Y591000D1*
X3326029Y588000D1*
X3327503Y585000D1*
X3329428Y582000D1*
X3332117Y579000D1*
X3335590Y576000D1*
X3339598Y573000D1*
X3343882Y570000D1*
X3348288Y567000D1*
X3352649Y564000D1*
X3356755Y561000D1*
X3360475Y558000D1*
X3364000Y555000D1*
X3331000Y597000D2*
X3418000D2*
X3416860Y594000D1*
X3415583Y591000D1*
X3414283Y588000D1*
X3413115Y585000D1*
X3412077Y582000D1*
X3411026Y579000D1*
X3410108Y576000D1*
X3409525Y573000D1*
X3409224Y570000D1*
X3409088Y567000D1*
X3409033Y564000D1*
X3409023Y561000D1*
X3409130Y558000D1*
X3409591Y555000D1*
X3410616Y552000D1*
X3412000Y549000D1*
X3410053Y546000D1*
X3408073Y543000D1*
X3406000Y540000D1*
X3457000Y597000D2*
X3458037Y594000D1*
X3459036Y591000D1*
X3459975Y588000D1*
X3460882Y585000D1*
X3461646Y582000D1*
X3461310Y579000D1*
X3460679Y576000D1*
X3459814Y573000D1*
X3458548Y570000D1*
X3457000Y567000D1*
X3421000Y594000D2*
X3422947Y591000D1*
X3424927Y588000D1*
X3427000Y585000D1*
X2980000Y588000D2*
X2982988Y585000D1*
X2985883Y582000D1*
X2988500Y579000D1*
X2990770Y576000D1*
X2992896Y573000D1*
X2994990Y570000D1*
X2996982Y567000D1*
X2998980Y564000D1*
X3001022Y561000D1*
X3003005Y558000D1*
X3005101Y555000D1*
X3007522Y552000D1*
X3010223Y549000D1*
X3013088Y546000D1*
X3016021Y543000D1*
X3018883Y540000D1*
X3021376Y537000D1*
X3023155Y534000D1*
X3024179Y531000D1*
X3024773Y528000D1*
X3025367Y525000D1*
X3026169Y522000D1*
X3026982Y519000D1*
X3027622Y516000D1*
X3028286Y513000D1*
X3029122Y510000D1*
X3029830Y507000D1*
X3030199Y504000D1*
X3029260Y501000D1*
X3028000Y498000D1*
X2992000Y588000D2*
X3004000Y585000D1*
X3166000Y588000D2*
X3167198Y585000D1*
X3168626Y582000D1*
X3171748Y579000D1*
X3178780Y576000D1*
X3187000Y573000D1*
X3181356Y570000D1*
X3177135Y567000D1*
X3174004Y564000D1*
X3172837Y561000D1*
X3171778Y558000D1*
X3170311Y555000D1*
X3168224Y552000D1*
X3165676Y549000D1*
X3162874Y546000D1*
X3159954Y543000D1*
X3156972Y540000D1*
X3153877Y537000D1*
X3150499Y534000D1*
X3146770Y531000D1*
X3142895Y528000D1*
X3138967Y525000D1*
X3134747Y522000D1*
X3129910Y519000D1*
X3123826Y516000D1*
X3115448Y513000D1*
X3104125Y510000D1*
X3091000Y507000D1*
X3208000Y582000D2*
X3205000Y579000D1*
X3202000Y576000D1*
X3232000Y573000D1*
X3220000Y582000D2*
X3223000Y579000D1*
X3247000Y582000D2*
X3244000Y579000D1*
X3250000Y582000D2*
X3253000Y579000D1*
X3256000Y576000D1*
X3202000Y573000D2*
X3241000D2*
X3250000D2*
X3261767Y570000D1*
X3271938Y567000D1*
X3279796Y564000D1*
X3285057Y561000D1*
X3289000Y558000D1*
X3283000Y555000D1*
X3286464Y552000D1*
X3290219Y549000D1*
X3294090Y546000D1*
X3297892Y543000D1*
X3301507Y540000D1*
X3304685Y537000D1*
X3307480Y534000D1*
X3310138Y531000D1*
X3312496Y528000D1*
X3314216Y525000D1*
X3315265Y522000D1*
X3316000Y519000D1*
X3322000D1*
X3324291Y516000D1*
X3326963Y513000D1*
X3330050Y510000D1*
X3333523Y507000D1*
X3337435Y504000D1*
X3342282Y501000D1*
X3348315Y498000D1*
X3355000Y495000D1*
X3481000Y567000D2*
X3484000D2*
X3482397Y564000D1*
X3480364Y561000D1*
X3478182Y558000D1*
X3476094Y555000D1*
X3473941Y552000D1*
X3471506Y549000D1*
X3468900Y546000D1*
X3466414Y543000D1*
X3464174Y540000D1*
X3461859Y537000D1*
X3458995Y534000D1*
X3455464Y531000D1*
X3451546Y528000D1*
X3447751Y525000D1*
X3444560Y522000D1*
X3442174Y519000D1*
X3440481Y516000D1*
X3439206Y513000D1*
X3437960Y510000D1*
X3436627Y507000D1*
X3435301Y504000D1*
X3434122Y501000D1*
X3433079Y498000D1*
X3432015Y495000D1*
X3430992Y492000D1*
X3430014Y489000D1*
X3428889Y486000D1*
X3427590Y483000D1*
X3426187Y480000D1*
X3424725Y477000D1*
X3423231Y474000D1*
X3421629Y471000D1*
X3419727Y468000D1*
X3417296Y465000D1*
X3414251Y462000D1*
X3410658Y459000D1*
X3406828Y456000D1*
X3403000Y453000D1*
X3124000Y558000D2*
X3115000Y555000D1*
X3136000Y558000D2*
X3134385Y555000D1*
X3132235Y552000D1*
X3129565Y549000D1*
X3126374Y546000D1*
X3122709Y543000D1*
X3118846Y540000D1*
X3115000Y537000D1*
X3124000Y534000D1*
X3352000Y558000D2*
X3352911Y555000D1*
X3353665Y552000D1*
X3353306Y549000D1*
X3352676Y546000D1*
X3352000Y543000D1*
X3355000Y558000D2*
X3358000Y555000D1*
X3325000Y549000D2*
X3325464Y546000D1*
X3326219Y543000D1*
X3327125Y540000D1*
X3328263Y537000D1*
X3329809Y534000D1*
X3333189Y531000D1*
X3337000Y528000D1*
X3332219Y525000D1*
X3328000Y522000D1*
X3330089Y519000D1*
X3332615Y516000D1*
X3336117Y513000D1*
X3341080Y510000D1*
X3347984Y507000D1*
X3356442Y504000D1*
X3364943Y501000D1*
X3372363Y498000D1*
X3379000Y495000D1*
X3328000Y549000D2*
X3337375Y546000D1*
X3346000Y543000D1*
X3130000Y534000D2*
Y531000D2*
X3126399Y528000D1*
X3122036Y525000D1*
X3116529Y522000D1*
X3109728Y519000D1*
X3101910Y516000D1*
X3094132Y513000D1*
X3087567Y510000D1*
X3082000Y507000D1*
X2983000Y501000D2*
X2971000Y498000D1*
X2974000Y495000D1*
X2977000Y492000D1*
X2980000Y489000D1*
X2983000Y486000D1*
X2992000Y501000D2*
X3007000Y498000D1*
X3034000D2*
X3031000Y495000D1*
X3034000Y498000D2*
X3037000Y495000D1*
X2968000Y492000D2*
Y489000D1*
Y486000D1*
X2968012Y483000D1*
X2968129Y480000D1*
X2968640Y477000D1*
X2969611Y474000D1*
X2972493Y471000D1*
X2976744Y468000D1*
X2982487Y465000D1*
X2989000Y462000D1*
X2986590Y459000D1*
X2984835Y456000D1*
X2983830Y453000D1*
X2983343Y450000D1*
X2983132Y447000D1*
X2983046Y444000D1*
X2983000Y441000D1*
X3145000Y495000D2*
X3142000Y492000D1*
X3139000Y489000D1*
X3157000Y495000D2*
X3151000Y492000D1*
X3145000Y489000D1*
X3172000Y495000D2*
X3169601Y492000D1*
X3167608Y489000D1*
X3166991Y486000D1*
X3167362Y483000D1*
X3167598Y480000D1*
X3167311Y477000D1*
X3166683Y474000D1*
X3166000Y471000D1*
X3175000Y495000D2*
X3177296Y492000D1*
X3179075Y489000D1*
X3179042Y486000D1*
X3178566Y483000D1*
X3177735Y480000D1*
X3176330Y477000D1*
X3174351Y474000D1*
X3172181Y471000D1*
X3170106Y468000D1*
X3168059Y465000D1*
X3166006Y462000D1*
X3164118Y459000D1*
X3162413Y456000D1*
X3160825Y453000D1*
X3159393Y450000D1*
X3158269Y447000D1*
X3157589Y444000D1*
X3157248Y441000D1*
X3157097Y438000D1*
X3157034Y435000D1*
X3157000Y432000D1*
X2971000Y489000D2*
X2974000Y486000D1*
X3031000Y492000D2*
X3034000Y489000D1*
X3037000Y486000D1*
X3040000Y483000D1*
X3043012Y480000D1*
X3046129Y477000D1*
X3049640Y474000D1*
X3054057Y471000D1*
X3060343Y468000D1*
X3070305Y465000D1*
X3085184Y462000D1*
X3103000Y459000D1*
X3097103Y456000D1*
X3089242Y453000D1*
X3079809Y450000D1*
X3070800Y447000D1*
X3063744Y444000D1*
X3058000Y441000D1*
X3061501Y438000D1*
X3064468Y435000D1*
X3067000Y432000D1*
X3043000Y492000D2*
X3043951Y489000D1*
X3045661Y486000D1*
X3048108Y483000D1*
X3051201Y480000D1*
X3054921Y477000D1*
X3059157Y474000D1*
X3064033Y471000D1*
X3069741Y468000D1*
X3076000Y465000D1*
X3286000Y492000D2*
X3283000Y489000D1*
X3280012Y486000D1*
X3277117Y483000D1*
X3274500Y480000D1*
X3272219Y477000D1*
X3269995Y474000D1*
X3267564Y471000D1*
X3265000Y468000D1*
X3267422Y465000D1*
X3269282Y462000D1*
X3270669Y459000D1*
X3271875Y456000D1*
X3272866Y453000D1*
X3273579Y450000D1*
X3274271Y447000D1*
X3275128Y444000D1*
X3275954Y441000D1*
X3276501Y438000D1*
X3276803Y435000D1*
X3277000Y432000D1*
X3289000Y492000D2*
X3288536Y489000D1*
X3287793Y486000D1*
X3287016Y483000D1*
X3286502Y480000D1*
X3286329Y477000D1*
X3286586Y474000D1*
X3287277Y471000D1*
X3288149Y468000D1*
X3289000Y465000D1*
X3304000Y486000D2*
X3307464Y483000D1*
X3311208Y480000D1*
X3314992Y477000D1*
X3318563Y474000D1*
X3322000Y471000D1*
X3313000Y486000D2*
X3316000Y483000D1*
X3319000Y480000D1*
X3322000Y477000D1*
X3325000Y474000D1*
X3328000Y471000D1*
X3451000Y480000D2*
X3433000Y477000D1*
X3431848Y474000D1*
X3430454Y471000D1*
X3428667Y468000D1*
X3426374Y465000D1*
X3423614Y462000D1*
X3420166Y459000D1*
X3414983Y456000D1*
X3405850Y453000D1*
X3391142Y450000D1*
X3373000Y447000D1*
X3475000Y480000D2*
X3482594Y477000D1*
X3490000Y474000D1*
X3486534Y471000D1*
X3482765Y468000D1*
X3478865Y465000D1*
X3475000Y462000D1*
X3124000Y480000D2*
X3120513Y477000D1*
X3116464Y474000D1*
X3111005Y471000D1*
X3102280Y468000D1*
X3088995Y465000D1*
X3073000Y462000D1*
X3103000Y459000D1*
X3097103Y456000D1*
X3089242Y453000D1*
X3079809Y450000D1*
X3070800Y447000D1*
X3063744Y444000D1*
X3058000Y441000D1*
X3061501Y438000D1*
X3064468Y435000D1*
X3067000Y432000D1*
X3130000Y480000D2*
X3127114Y477000D1*
X3124510Y474000D1*
X3122347Y471000D1*
X3120615Y468000D1*
X3119348Y465000D1*
X3118560Y462000D1*
X3118000Y459000D1*
X3013000Y477000D2*
X3010000Y474000D1*
X3007000Y471000D1*
X3004000Y468000D1*
X3016000Y477000D2*
Y474000D1*
Y471000D1*
Y468000D1*
Y465000D1*
Y462000D1*
Y459000D1*
Y456000D1*
Y453000D1*
X3016012Y450000D1*
X3016129Y447000D1*
X3016640Y444000D1*
X3017611Y441000D1*
X3020330Y438000D1*
X3023910Y435000D1*
X3028000Y432000D1*
X3157000Y474000D2*
X3157452Y471000D1*
X3158078Y468000D1*
X3158653Y465000D1*
X3157861Y462000D1*
X3156566Y459000D1*
X3155224Y456000D1*
X3154000Y453000D1*
X3157000Y474000D2*
X3161695Y471000D1*
X3165467Y468000D1*
X3166961Y465000D1*
X3165432Y462000D1*
X3163862Y459000D1*
X3162309Y456000D1*
X3160787Y453000D1*
X3159379Y450000D1*
X3158264Y447000D1*
X3157588Y444000D1*
X3157248Y441000D1*
X3157097Y438000D1*
X3157034Y435000D1*
X3157000Y432000D1*
X3010000Y468000D2*
X3295000Y471000D2*
X3292000Y468000D1*
X3289000Y465000D1*
X3298000Y471000D2*
Y468000D1*
Y465000D1*
Y462000D1*
Y459000D1*
Y456000D1*
Y453000D1*
Y450000D1*
Y447000D1*
X3010000Y465000D2*
X3009988Y462000D1*
X3009874Y459000D1*
X3009410Y456000D1*
X3008385Y453000D1*
X3007000Y450000D1*
X3008511Y447000D1*
X3009874Y444000D1*
X3011529Y441000D1*
X3013706Y438000D1*
X3016274Y435000D1*
X3019000Y432000D1*
X3325000Y468000D2*
X3327988Y465000D1*
X3330871Y462000D1*
X3333372Y459000D1*
X3335154Y456000D1*
X3336170Y453000D1*
X3336682Y450000D1*
X3337000Y447000D1*
X3331000Y468000D2*
X3334452Y465000D1*
X3338090Y462000D1*
X3341473Y459000D1*
X3344186Y456000D1*
X3346419Y453000D1*
X3348722Y450000D1*
X3351797Y447000D1*
X3356435Y444000D1*
X3363288Y441000D1*
X3372374Y438000D1*
X3382907Y435000D1*
X3394000Y432000D1*
X3490000Y465000D2*
X3487000Y462000D1*
X3004000Y465000D2*
X3001552Y462000D1*
X2999604Y459000D1*
X2998000Y456000D1*
X3010000Y465000D2*
X3007552Y462000D1*
X3005604Y459000D1*
X3004000Y456000D1*
X3490000Y462000D2*
X3489874Y459000D1*
X3489372Y456000D1*
X3488142Y453000D1*
X3486049Y450000D1*
X3483154Y447000D1*
X3479622Y444000D1*
X3475816Y441000D1*
X3472000Y438000D1*
X3473385Y435000D1*
X3474246Y432000D1*
X3474682Y429000D1*
X3474876Y426000D1*
X3474957Y423000D1*
X3475000Y420000D1*
X3127000Y462000D2*
X3124000Y459000D1*
X3136000Y462000D2*
X3133012Y459000D1*
X3130129Y456000D1*
X3127628Y453000D1*
X3125835Y450000D1*
X3124754Y447000D1*
X3124000Y444000D1*
X3439000Y462000D2*
X3439012Y459000D1*
X3439129Y456000D1*
X3439617Y453000D1*
X3440718Y450000D1*
X3442205Y447000D1*
X3443498Y444000D1*
X3444287Y441000D1*
X3444587Y438000D1*
X3444373Y435000D1*
X3443610Y432000D1*
X3442346Y429000D1*
X3440386Y426000D1*
X3437199Y423000D1*
X3432530Y420000D1*
X3427000Y417000D1*
X3439000Y462000D2*
X3444760Y459000D1*
X3449874Y456000D1*
X3453924Y453000D1*
X3457050Y450000D1*
X3459517Y447000D1*
X3461244Y444000D1*
X3462319Y441000D1*
X3463170Y438000D1*
X3464091Y435000D1*
X3464952Y432000D1*
X3465620Y429000D1*
X3466373Y426000D1*
X3467535Y423000D1*
X3469000Y420000D1*
X3055000Y459000D2*
X3051639Y456000D1*
X3048186Y453000D1*
X3044863Y450000D1*
X3041888Y447000D1*
X3039581Y444000D1*
X3038161Y441000D1*
X3037125Y438000D1*
X3035926Y435000D1*
X3032348Y432000D1*
X3028000Y429000D1*
X3058000Y459000D2*
X3057988Y456000D1*
X3057883Y453000D1*
X3057500Y450000D1*
X3056782Y447000D1*
X3055989Y444000D1*
X3055232Y441000D1*
X3054331Y438000D1*
X3051508Y435000D1*
X3047546Y432000D1*
X3043000Y429000D1*
X3142000Y456000D2*
X3141631Y453000D1*
X3140805Y450000D1*
X3137298Y447000D1*
X3133000Y444000D1*
X3148000Y456000D2*
X3151000Y453000D1*
X3355000Y456000D2*
X3352645Y453000D1*
X3350594Y450000D1*
X3352302Y447000D1*
X3356778Y444000D1*
X3363451Y441000D1*
X3372441Y438000D1*
X3382931Y435000D1*
X3394000Y432000D1*
X3445000Y453000D2*
X3446848Y450000D1*
X3448454Y447000D1*
X3449667Y444000D1*
X3450385Y441000D1*
X3450731Y438000D1*
X3450771Y435000D1*
X3450346Y432000D1*
X3449246Y429000D1*
X3447533Y426000D1*
X3445244Y423000D1*
X3442008Y420000D1*
X3437634Y417000D1*
X3432473Y414000D1*
X3427000Y411000D1*
X3448000Y453000D2*
X3450874Y450000D1*
X3453372Y447000D1*
X3455165Y444000D1*
X3456284Y441000D1*
X3457155Y438000D1*
X3458074Y435000D1*
X3458821Y432000D1*
X3458994Y429000D1*
X3458565Y426000D1*
X3457927Y423000D1*
X3457446Y420000D1*
X3457083Y417000D1*
X3456581Y414000D1*
X3455812Y411000D1*
X3455024Y408000D1*
X3454493Y405000D1*
X3454213Y402000D1*
X3454085Y399000D1*
X3454032Y396000D1*
X3454023Y393000D1*
X3454121Y390000D1*
X3454513Y387000D1*
X3455347Y384000D1*
X3456627Y381000D1*
X3458474Y378000D1*
X3461122Y375000D1*
X3464478Y372000D1*
X3468100Y369000D1*
X3471665Y366000D1*
X3475301Y363000D1*
X3479139Y360000D1*
X3482965Y357000D1*
X3486554Y354000D1*
X3490000Y351000D1*
X3477156Y348000D1*
X3463000Y345000D1*
X3465422Y342000D1*
X3467282Y339000D1*
X3468657Y336000D1*
X3469758Y333000D1*
X3470621Y330000D1*
X3470310Y327000D1*
X3469801Y324000D1*
X3469402Y321000D1*
X3469163Y318000D1*
X3469000Y315000D1*
X2995000Y453000D2*
Y450000D1*
Y447000D1*
Y444000D1*
Y441000D1*
X3001000Y453000D2*
Y450000D1*
Y447000D1*
Y444000D1*
Y441000D1*
X3001012Y438000D1*
X3001117Y435000D1*
X3001488Y432000D1*
X3002101Y429000D1*
X3002488Y426000D1*
X3002292Y423000D1*
X3001801Y420000D1*
X3001394Y417000D1*
X3001063Y414000D1*
X3000573Y411000D1*
X2999810Y408000D1*
X2999011Y405000D1*
X2998376Y402000D1*
X2997701Y399000D1*
X2996726Y396000D1*
X2995287Y393000D1*
X2993038Y390000D1*
X2989652Y387000D1*
X2985407Y384000D1*
X2980797Y381000D1*
X2976069Y378000D1*
X2971630Y375000D1*
X2968016Y372000D1*
X2965000Y369000D1*
X2975594Y366000D1*
X2986000Y363000D1*
X2983590Y360000D1*
X2981835Y357000D1*
X2980830Y354000D1*
X2980343Y351000D1*
X2980144Y348000D1*
X2980174Y345000D1*
X2980607Y342000D1*
X2981621Y339000D1*
X2983000Y336000D1*
X3205000Y453000D2*
X3199704Y450000D1*
X3195346Y447000D1*
X3192177Y444000D1*
X3189958Y441000D1*
X3188480Y438000D1*
X3187606Y435000D1*
X3187000Y432000D1*
X3208000Y453000D2*
X3213399Y450000D1*
X3218036Y447000D1*
X3221541Y444000D1*
X3224204Y441000D1*
X3225136Y438000D1*
X3225661Y435000D1*
X3226000Y432000D1*
X3307000Y453000D2*
X3304000Y450000D1*
X3301000Y447000D1*
X3313000Y453000D2*
Y450000D1*
X3313012Y447000D1*
X3313129Y444000D1*
X3313628Y441000D1*
X3314835Y438000D1*
X3316754Y435000D1*
X3319000Y432000D1*
Y453000D2*
X3321525Y450000D1*
X3323664Y447000D1*
X3325387Y444000D1*
X3326644Y441000D1*
X3327381Y438000D1*
X3327761Y435000D1*
X3328000Y432000D1*
X3349000D1*
Y429000D1*
Y426000D1*
Y423000D1*
Y420000D1*
X3349012Y417000D1*
X3349126Y414000D1*
X3349590Y411000D1*
X3350615Y408000D1*
X3352000Y405000D1*
X3322000Y453000D2*
X3328000Y450000D1*
X3334000Y447000D1*
X3352000Y450000D2*
X3355000Y453000D2*
X3358000Y450000D1*
X3361000Y453000D2*
Y450000D1*
Y447000D1*
X3091000D2*
X3087886Y444000D1*
X3084499Y441000D1*
X3080755Y438000D1*
X3076862Y435000D1*
X3073000Y432000D1*
X3091000Y444000D2*
X3092140Y441000D1*
X3093406Y438000D1*
X3094588Y435000D1*
X3095546Y432000D1*
X3095149Y429000D1*
X3094159Y426000D1*
X3092561Y423000D1*
X3090407Y420000D1*
X3088000Y417000D1*
X2989000Y444000D2*
X2986000Y441000D1*
X2989000Y444000D2*
X2992000Y441000D1*
X3403000D2*
X3402448Y438000D1*
X3401396Y435000D1*
X3400000Y432000D1*
X3409000Y441000D2*
X3411886Y438000D1*
X3414490Y435000D1*
X3416653Y432000D1*
X3418384Y429000D1*
X3419643Y426000D1*
X3420380Y423000D1*
X3420761Y420000D1*
X3421000Y417000D1*
X3364000Y435000D2*
X3363536Y432000D1*
X3362793Y429000D1*
X3362016Y426000D1*
X3361490Y423000D1*
X3361223Y420000D1*
X3361213Y417000D1*
X3361659Y414000D1*
X3362846Y411000D1*
X3364757Y408000D1*
X3367000Y405000D1*
X3106000Y432000D2*
X3105977Y429000D1*
X3105748Y426000D1*
X3105203Y423000D1*
X3102865Y420000D1*
X3100000Y417000D1*
X3367000Y432000D2*
X3370000Y429000D1*
X3373000Y426000D1*
X3376000Y423000D1*
X3379000Y420000D1*
X3382000Y417000D1*
X3397000Y426000D2*
X3395396Y423000D1*
X3393323Y420000D1*
X3391000Y417000D1*
X3400000Y426000D2*
X3401615Y423000D1*
X3403754Y420000D1*
X3406317Y417000D1*
X3409116Y414000D1*
X3412000Y411000D1*
X3199000Y426000D2*
X3193716Y423000D1*
X3189463Y420000D1*
X3186192Y417000D1*
X3184941Y414000D1*
X3183947Y411000D1*
X3182967Y408000D1*
X3182202Y405000D1*
X3181806Y402000D1*
X3182743Y399000D1*
X3184000Y396000D1*
X3182615Y393000D1*
X3181754Y390000D1*
X3181318Y387000D1*
X3181136Y384000D1*
X3181163Y381000D1*
X3181518Y378000D1*
X3182251Y375000D1*
X3183140Y372000D1*
X3184000Y369000D1*
X3205000Y426000D2*
Y423000D1*
Y420000D1*
Y417000D1*
X3223000D1*
X3227039Y414000D1*
X3232382Y411000D1*
X3238240Y408000D1*
X3244000Y405000D1*
X3238794Y402000D1*
X3232415Y399000D1*
X3225938Y396000D1*
X3220000Y393000D1*
X3224554Y390000D1*
X3228541Y387000D1*
X3232000Y384000D1*
X3228812Y381000D1*
X3226000Y378000D1*
X3230396Y375000D1*
X3234323Y372000D1*
X3238000Y369000D1*
X3292000Y417000D2*
X3289000Y414000D1*
X3286000Y411000D1*
X3295000Y417000D2*
Y414000D1*
Y411000D1*
Y408000D1*
X3100000Y414000D2*
X3099988Y411000D1*
X3099871Y408000D1*
X3099372Y405000D1*
X3098142Y402000D1*
X3096049Y399000D1*
X3093154Y396000D1*
X3089622Y393000D1*
X3085816Y390000D1*
X3082000Y387000D1*
X3084886Y384000D1*
X3087490Y381000D1*
X3089653Y378000D1*
X3091396Y375000D1*
X3092760Y372000D1*
X3093877Y369000D1*
X3094958Y366000D1*
X3095886Y363000D1*
X3096473Y360000D1*
X3096775Y357000D1*
X3096900Y354000D1*
X3096850Y351000D1*
X3096489Y348000D1*
X3095778Y345000D1*
X3095011Y342000D1*
X3094489Y339000D1*
X3094211Y336000D1*
X3094084Y333000D1*
X3094030Y330000D1*
X3094000Y327000D1*
X3106000Y414000D2*
Y411000D1*
Y408000D1*
Y405000D1*
Y402000D1*
Y399000D1*
Y396000D1*
Y393000D1*
Y390000D1*
Y387000D1*
Y384000D1*
Y381000D1*
Y378000D1*
Y375000D1*
Y372000D1*
Y369000D1*
Y366000D1*
Y363000D1*
Y360000D1*
Y357000D1*
Y354000D1*
Y351000D1*
Y348000D1*
Y345000D1*
Y342000D1*
Y339000D1*
Y336000D1*
Y333000D1*
Y330000D1*
Y327000D1*
Y324000D1*
Y321000D1*
Y318000D1*
Y315000D1*
Y312000D1*
Y309000D1*
Y306000D1*
Y303000D1*
Y300000D1*
Y297000D1*
Y294000D1*
Y291000D1*
Y288000D1*
Y285000D1*
Y282000D1*
Y279000D1*
Y276000D1*
Y273000D1*
Y270000D1*
Y267000D1*
Y264000D1*
Y261000D1*
Y258000D1*
Y255000D1*
Y252000D1*
Y249000D1*
Y246000D1*
Y243000D1*
Y240000D1*
Y237000D1*
Y234000D1*
Y231000D1*
X3106012Y228000D1*
X3106117Y225000D1*
X3106511Y222000D1*
X3107347Y219000D1*
X3108616Y216000D1*
X3110357Y213000D1*
X3112622Y210000D1*
X3115272Y207000D1*
X3118230Y204000D1*
X3121677Y201000D1*
X3125977Y198000D1*
X3131349Y195000D1*
X3137692Y192000D1*
X3144760Y189000D1*
X3152523Y186000D1*
X3161139Y183000D1*
X3170472Y180000D1*
X3179961Y177000D1*
X3188921Y174000D1*
X3196968Y171000D1*
X3204172Y168000D1*
X3211000Y165000D1*
X3283000Y414000D2*
X3280000Y411000D1*
X3277000Y408000D1*
X3278947Y405000D1*
X3280927Y402000D1*
X3283000Y399000D1*
X3279536Y396000D1*
X3275793Y393000D1*
X3272016Y390000D1*
X3268502Y387000D1*
X3265329Y384000D1*
X3262584Y381000D1*
X3260250Y378000D1*
X3258007Y375000D1*
X3255568Y372000D1*
X3253000Y369000D1*
X3301000Y414000D2*
X3298000Y411000D1*
X3295000Y408000D1*
X3304000Y414000D2*
X3304229Y411000D1*
X3304727Y408000D1*
X3306422Y405000D1*
X3308259Y402000D1*
X3310000Y399000D1*
X3303216Y396000D1*
X3297706Y393000D1*
X3293647Y390000D1*
X3290674Y387000D1*
X3288060Y384000D1*
X3285205Y381000D1*
X3282210Y378000D1*
X3279654Y375000D1*
X3277678Y372000D1*
X3275816Y369000D1*
X3273867Y366000D1*
X3271847Y363000D1*
X3269512Y360000D1*
X3266882Y357000D1*
X3264634Y354000D1*
X3262970Y351000D1*
X3262570Y348000D1*
X3262699Y345000D1*
X3263419Y342000D1*
X3264653Y339000D1*
X3266483Y336000D1*
X3269136Y333000D1*
X3272605Y330000D1*
X3276686Y327000D1*
X3281214Y324000D1*
X3286000Y321000D1*
X3349000Y399000D2*
Y396000D1*
Y393000D1*
Y390000D1*
Y387000D1*
Y384000D1*
Y381000D1*
Y378000D1*
Y375000D1*
Y372000D1*
Y369000D1*
Y366000D1*
Y363000D1*
Y360000D1*
Y357000D1*
Y354000D1*
Y351000D1*
Y348000D1*
Y345000D1*
Y342000D1*
Y339000D1*
Y336000D1*
Y333000D1*
Y330000D1*
Y327000D1*
Y324000D1*
Y321000D1*
Y318000D1*
Y315000D1*
Y312000D1*
Y309000D1*
Y306000D1*
Y303000D1*
Y300000D1*
Y297000D1*
Y294000D1*
Y291000D1*
Y288000D1*
Y285000D1*
Y282000D1*
Y279000D1*
Y276000D1*
Y273000D1*
Y270000D1*
Y267000D1*
Y264000D1*
Y261000D1*
Y258000D1*
Y255000D1*
Y252000D1*
Y249000D1*
Y246000D1*
Y243000D1*
Y240000D1*
Y237000D1*
Y234000D1*
Y231000D1*
X3348988Y228000D1*
X3348883Y225000D1*
X3348489Y222000D1*
X3347653Y219000D1*
X3346384Y216000D1*
X3344643Y213000D1*
X3342378Y210000D1*
X3339728Y207000D1*
X3336782Y204000D1*
X3333440Y201000D1*
X3329523Y198000D1*
X3324869Y195000D1*
X3319295Y192000D1*
X3312750Y189000D1*
X3305242Y186000D1*
X3296484Y183000D1*
X3285912Y180000D1*
X3273082Y177000D1*
X3258882Y174000D1*
X3245440Y171000D1*
X3233779Y168000D1*
X3223000Y165000D1*
X3355000Y399000D2*
X3355578Y396000D1*
X3356730Y393000D1*
X3358460Y390000D1*
X3360752Y387000D1*
X3363972Y384000D1*
X3368235Y381000D1*
X3373000Y378000D1*
X3370012Y375000D1*
X3367129Y372000D1*
X3364617Y369000D1*
X3362729Y366000D1*
X3361334Y363000D1*
X3360126Y360000D1*
X3359145Y357000D1*
X3358538Y354000D1*
X3358228Y351000D1*
X3358090Y348000D1*
X3358033Y345000D1*
X3358012Y342000D1*
X3358004Y339000D1*
X3358001Y336000D1*
X3358000Y333000D1*
X3358012Y330000D1*
X3358117Y327000D1*
X3358500Y324000D1*
X3359218Y321000D1*
X3359987Y318000D1*
X3360510Y315000D1*
X3360789Y312000D1*
X3360916Y309000D1*
X3360968Y306000D1*
X3361000Y303000D1*
X3361113Y300000D1*
X3361498Y297000D1*
X3362229Y294000D1*
X3363104Y291000D1*
X3364010Y288000D1*
X3365007Y285000D1*
X3365903Y282000D1*
X3366479Y279000D1*
X3366777Y276000D1*
X3366912Y273000D1*
X3366967Y270000D1*
X3366988Y267000D1*
X3366984Y264000D1*
X3366881Y261000D1*
X3366488Y258000D1*
X3365653Y255000D1*
X3364384Y252000D1*
X3362643Y249000D1*
X3360380Y246000D1*
X3357761Y243000D1*
X3355000Y240000D1*
X3359103Y237000D1*
X3364208Y234000D1*
X3370000Y231000D1*
X3232000Y396000D2*
X3229000Y393000D1*
X3238000Y396000D2*
X3241000Y393000D1*
X3019000Y387000D2*
X3019464Y384000D1*
X3020219Y381000D1*
X3021101Y378000D1*
X3022009Y375000D1*
X3023006Y372000D1*
X3023903Y369000D1*
X3024467Y366000D1*
X3024660Y363000D1*
X3024401Y360000D1*
X3023620Y357000D1*
X3022373Y354000D1*
X3020648Y351000D1*
X3018439Y348000D1*
X3016000Y345000D1*
X3019000Y387000D2*
X3024296Y384000D1*
X3028654Y381000D1*
X3031823Y378000D1*
X3034041Y375000D1*
X3035511Y372000D1*
X3036329Y369000D1*
X3036735Y366000D1*
X3037010Y363000D1*
X3037460Y360000D1*
X3038216Y357000D1*
X3039100Y354000D1*
X3040020Y351000D1*
X3041135Y348000D1*
X3042531Y345000D1*
X3044316Y342000D1*
X3046550Y339000D1*
X3049000Y336000D1*
X3148000Y375000D2*
X3145126Y372000D1*
X3142628Y369000D1*
X3140846Y366000D1*
X3139834Y363000D1*
X3139344Y360000D1*
X3139121Y357000D1*
X3138931Y354000D1*
X3138518Y351000D1*
X3137776Y348000D1*
X3136898Y345000D1*
X3135991Y342000D1*
X3134993Y339000D1*
X3134089Y336000D1*
X3133466Y333000D1*
X3133000Y330000D1*
X3142000D1*
X3139343Y327000D1*
X3136251Y324000D1*
X3133000Y321000D1*
X3163000Y375000D2*
X3165988Y372000D1*
X3168883Y369000D1*
X3171489Y366000D1*
X3173653Y363000D1*
X3175384Y360000D1*
X3176655Y357000D1*
X3177495Y354000D1*
X3178240Y351000D1*
X3179117Y348000D1*
X3179950Y345000D1*
X3180486Y342000D1*
X3180667Y339000D1*
X3180415Y336000D1*
X3179750Y333000D1*
X3178990Y330000D1*
X3178368Y327000D1*
X3177711Y324000D1*
X3176854Y321000D1*
X3175927Y318000D1*
X3175001Y315000D1*
X3173986Y312000D1*
X3172981Y309000D1*
X3172010Y306000D1*
X3170888Y303000D1*
X3169601Y300000D1*
X3168293Y297000D1*
X3167119Y294000D1*
X3166066Y291000D1*
X3164909Y288000D1*
X3163609Y285000D1*
X3162307Y282000D1*
X3161237Y279000D1*
X3160590Y276000D1*
X3160370Y273000D1*
X3160685Y270000D1*
X3161649Y267000D1*
X3163000Y264000D1*
X3151000Y369000D2*
X3149152Y366000D1*
X3147546Y363000D1*
X3146333Y360000D1*
X3145615Y357000D1*
X3145258Y354000D1*
X3145100Y351000D1*
X3145037Y348000D1*
X3145025Y345000D1*
X3145122Y342000D1*
X3145501Y339000D1*
X3146218Y336000D1*
X3146987Y333000D1*
X3147510Y330000D1*
X3147777Y327000D1*
X3147799Y324000D1*
X3147467Y321000D1*
X3146743Y318000D1*
X3145858Y315000D1*
X3145000Y312000D1*
X3160000Y369000D2*
X3162886Y366000D1*
X3165490Y363000D1*
X3167653Y360000D1*
X3169384Y357000D1*
X3170643Y354000D1*
X3171378Y351000D1*
X3171740Y348000D1*
X3171899Y345000D1*
X3171963Y342000D1*
X3171987Y339000D1*
X3171996Y336000D1*
X3172000Y333000D1*
X3190000Y369000D2*
Y366000D2*
X3193348Y363000D1*
X3196211Y360000D1*
X3198684Y357000D1*
X3200760Y354000D1*
X3202554Y351000D1*
X3204276Y348000D1*
X3206101Y345000D1*
X3207947Y342000D1*
X3209397Y339000D1*
X3210262Y336000D1*
X3210680Y333000D1*
X3210763Y330000D1*
X3210445Y327000D1*
X3209637Y324000D1*
X3208391Y321000D1*
X3206759Y318000D1*
X3204877Y315000D1*
X3202958Y312000D1*
X3200898Y309000D1*
X3198590Y306000D1*
X3196263Y303000D1*
X3194012Y300000D1*
X3191466Y297000D1*
X3188410Y294000D1*
X3185414Y291000D1*
X3183133Y288000D1*
X3181502Y285000D1*
X3180070Y282000D1*
X3178545Y279000D1*
X3176702Y276000D1*
X3174398Y273000D1*
X3171748Y270000D1*
X3168908Y267000D1*
X3166000Y264000D1*
X3430000Y369000D2*
X3427012Y366000D1*
X3424129Y363000D1*
X3421628Y360000D1*
X3419835Y357000D1*
X3418716Y354000D1*
X3417845Y351000D1*
X3416903Y348000D1*
X3415944Y345000D1*
X3415007Y342000D1*
X3413999Y339000D1*
X3413087Y336000D1*
X3412405Y333000D1*
X3411712Y330000D1*
X3410741Y327000D1*
X3409418Y324000D1*
X3407664Y321000D1*
X3405444Y318000D1*
X3403000Y315000D1*
X3433000Y369000D2*
X3432988Y366000D1*
X3432883Y363000D1*
X3432500Y360000D1*
X3431782Y357000D1*
X3431013Y354000D1*
X3430490Y351000D1*
X3430211Y348000D1*
X3430096Y345000D1*
X3430149Y342000D1*
X3430522Y339000D1*
X3431348Y336000D1*
X3432586Y333000D1*
X3434180Y330000D1*
X3436000Y327000D1*
X3052000Y360000D2*
Y357000D1*
Y354000D1*
X3051988Y351000D1*
X3051883Y348000D1*
X3051498Y345000D1*
X3050755Y342000D1*
X3049862Y339000D1*
X3049000Y336000D1*
X3058000Y360000D2*
X3061012Y357000D1*
X3064129Y354000D1*
X3067628Y351000D1*
X3071823Y348000D1*
X3076588Y345000D1*
X3081204Y342000D1*
X3084951Y339000D1*
X3087726Y336000D1*
X3089916Y333000D1*
X3091936Y330000D1*
X3094000Y327000D1*
X3004000Y354000D2*
X3001235Y351000D1*
X2998210Y348000D1*
X2994548Y345000D1*
X2990521Y342000D1*
X2986678Y339000D1*
X2983000Y336000D1*
X3010000Y354000D2*
X3010552Y351000D1*
X3011604Y348000D1*
X3013000Y345000D1*
X3058000Y348000D2*
Y345000D1*
Y342000D1*
Y339000D1*
X3057988Y336000D1*
X3057883Y333000D1*
X3057500Y330000D1*
X3056782Y327000D1*
X3056013Y324000D1*
X3055490Y321000D1*
X3055211Y318000D1*
X3055078Y315000D1*
X3055000Y312000D1*
X3061000Y345000D2*
X3066312Y342000D1*
X3071650Y339000D1*
X3076522Y336000D1*
X3080266Y333000D1*
X3083107Y330000D1*
X3084088Y327000D1*
X3084602Y324000D1*
X3084732Y321000D1*
X3084445Y318000D1*
X3083763Y315000D1*
X3083006Y312000D1*
X3082487Y309000D1*
X3082199Y306000D1*
X3081967Y303000D1*
X3081532Y300000D1*
X3080793Y297000D1*
X3080005Y294000D1*
X3079374Y291000D1*
X3078712Y288000D1*
X3077866Y285000D1*
X3077044Y282000D1*
X3076513Y279000D1*
X3076332Y276000D1*
X3076585Y273000D1*
X3077262Y270000D1*
X3078116Y267000D1*
X3079026Y264000D1*
X3080137Y261000D1*
X3081531Y258000D1*
X3083317Y255000D1*
X3085550Y252000D1*
X3088000Y249000D1*
X3079000Y246000D1*
X3394000Y342000D2*
X3388114Y339000D1*
X3382510Y336000D1*
X3377347Y333000D1*
X3372615Y330000D1*
X3368348Y327000D1*
X3364560Y324000D1*
X3361000Y321000D1*
X3400000Y342000D2*
Y339000D1*
Y336000D1*
Y333000D1*
Y330000D1*
Y327000D1*
Y324000D1*
Y321000D1*
Y318000D1*
Y315000D1*
X3445000Y339000D2*
X3442466Y336000D1*
X3440235Y333000D1*
X3438135Y330000D1*
X3436000Y327000D1*
X3445000Y339000D2*
X3447536Y336000D1*
X3449793Y333000D1*
X3452016Y330000D1*
X3454502Y327000D1*
X3457338Y324000D1*
X3460674Y321000D1*
X3464645Y318000D1*
X3469000Y315000D1*
X3166000Y336000D2*
X3165988Y333000D1*
X3165871Y330000D1*
X3165383Y327000D1*
X3164282Y324000D1*
X3162795Y321000D1*
X3161479Y318000D1*
X3160467Y315000D1*
X3159296Y312000D1*
X3157691Y309000D1*
X3156194Y306000D1*
X3155199Y303000D1*
X3155912Y300000D1*
X3157000Y297000D1*
X3154590Y294000D1*
X3152847Y291000D1*
X3151675Y288000D1*
X3151774Y285000D1*
X3152322Y282000D1*
X3152914Y279000D1*
X3153039Y276000D1*
X3152693Y273000D1*
X3152465Y270000D1*
X3152674Y267000D1*
X3154407Y264000D1*
X3158345Y261000D1*
X3163000Y258000D1*
X3388000Y333000D2*
X3383026Y330000D1*
X3377927Y327000D1*
X3372542Y324000D1*
X3367000Y321000D1*
X3391000Y333000D2*
Y330000D1*
Y327000D1*
Y324000D1*
Y321000D1*
Y318000D1*
Y315000D1*
Y312000D1*
X3391023Y309000D1*
X3391252Y306000D1*
X3391797Y303000D1*
X3394135Y300000D1*
X3397000Y297000D1*
X3001000Y324000D2*
X3004000Y321000D1*
X3007000Y318000D1*
X3009988Y315000D1*
X3012871Y312000D1*
X3015383Y309000D1*
X3017282Y306000D1*
X3018807Y303000D1*
X3020608Y300000D1*
X3023060Y297000D1*
X3025756Y294000D1*
X3028161Y291000D1*
X3028481Y288000D1*
X3027374Y285000D1*
X3026309Y282000D1*
X3025501Y279000D1*
X3024653Y276000D1*
X3023386Y273000D1*
X3021799Y270000D1*
X3020311Y267000D1*
X3019000Y264000D1*
X3010000Y324000D2*
X3019919Y321000D1*
X3029015Y318000D1*
X3037573Y315000D1*
X3046000Y312000D1*
X3142000Y321000D2*
X3295000Y324000D2*
X3292000Y321000D1*
X3298000Y324000D2*
X3301000Y321000D1*
X3304000Y318000D1*
X3307000Y315000D1*
X3310000Y312000D1*
X3142000Y318000D2*
X3140406Y315000D1*
X3139000Y312000D1*
X3262000Y318000D2*
X3257152Y315000D1*
X3252546Y312000D1*
X3248345Y309000D1*
X3244744Y306000D1*
X3241886Y303000D1*
X3239626Y300000D1*
X3238787Y297000D1*
X3238310Y294000D1*
X3238000Y291000D1*
X3262000D1*
X3261988Y288000D1*
X3261883Y285000D1*
X3261500Y282000D1*
X3260782Y279000D1*
X3260013Y276000D1*
X3259513Y273000D1*
X3259463Y270000D1*
X3259850Y267000D1*
X3262157Y264000D1*
X3265000Y261000D1*
X3271000Y318000D2*
X3275259Y315000D1*
X3278620Y312000D1*
X3281219Y309000D1*
X3282223Y306000D1*
X3283000Y303000D1*
X3304000Y312000D2*
X3305406Y309000D1*
X3307000Y306000D1*
X3298000D2*
Y303000D1*
X3289000D2*
X3292000D2*
X3424000D2*
X3418187Y300000D1*
X3412000Y297000D1*
X3442000Y303000D2*
X3445000Y300000D1*
X3440627Y297000D1*
X3436871Y294000D1*
X3433817Y291000D1*
X3431342Y288000D1*
X3429021Y285000D1*
X3426401Y282000D1*
X3423205Y279000D1*
X3419308Y276000D1*
X3415000Y273000D1*
X3416848Y270000D1*
X3418454Y267000D1*
X3419678Y264000D1*
X3420503Y261000D1*
X3421254Y258000D1*
X3422244Y255000D1*
X3423548Y252000D1*
X3425167Y249000D1*
X3427000Y246000D1*
X3286000Y276000D2*
X3283475Y273000D1*
X3281334Y270000D1*
X3279582Y267000D1*
X3278178Y264000D1*
X3277000Y261000D1*
X3292000Y276000D2*
X3292704Y273000D1*
X3293925Y270000D1*
X3296970Y267000D1*
X3300429Y264000D1*
X3304000Y261000D1*
X3300246Y258000D1*
X3294790Y255000D1*
X3285664Y252000D1*
X3274000Y249000D1*
X3061000Y270000D2*
X3043000Y267000D1*
X3025000Y264000D1*
X3049000Y270000D2*
Y267000D1*
X3049012Y264000D1*
X3049129Y261000D1*
X3049628Y258000D1*
X3050846Y255000D1*
X3052830Y252000D1*
X3055318Y249000D1*
X3058000Y246000D1*
X3178000Y264000D2*
X3173594Y261000D1*
X3169000Y258000D1*
X3181000Y264000D2*
X3183657Y261000D1*
X3186749Y258000D1*
X3190000Y255000D1*
X3188406Y252000D1*
X3187000Y249000D1*
X3223000Y264000D2*
Y261000D1*
Y258000D1*
Y255000D1*
X3222988Y252000D1*
X3222848Y249000D1*
X3222496Y246000D1*
X3220615Y243000D1*
X3215677Y240000D1*
X3209303Y237000D1*
X3202564Y234000D1*
X3196893Y231000D1*
X3192901Y228000D1*
X3190264Y225000D1*
X3188609Y222000D1*
X3187727Y219000D1*
X3187445Y216000D1*
X3187571Y213000D1*
X3189313Y210000D1*
X3193129Y207000D1*
X3197159Y204000D1*
X3200494Y201000D1*
X3203066Y198000D1*
X3204163Y195000D1*
X3201815Y192000D1*
X3199000Y189000D1*
X3235000Y264000D2*
X3235903Y261000D1*
X3236632Y258000D1*
X3236000Y255000D1*
X3235000Y252000D1*
X3241000Y249000D1*
X3169000Y252000D2*
X3169552Y249000D1*
X3170604Y246000D1*
X3172000Y243000D1*
X3170787Y240000D1*
X3170774Y237000D1*
X3170785Y234000D1*
X3170411Y231000D1*
X3169846Y228000D1*
X3169421Y225000D1*
X3169197Y222000D1*
X3169192Y219000D1*
X3169539Y216000D1*
X3170357Y213000D1*
X3171607Y210000D1*
X3173229Y207000D1*
X3175006Y204000D1*
X3176540Y201000D1*
X3177860Y198000D1*
X3179333Y195000D1*
X3181000Y192000D1*
X3172000Y252000D2*
X3175000Y249000D1*
X3256000D2*
X3394000Y252000D2*
X3393525Y249000D1*
X3392664Y246000D1*
X3391352Y243000D1*
X3389692Y240000D1*
X3385718Y237000D1*
X3379942Y234000D1*
X3373000Y231000D1*
X3400000Y252000D2*
X3403000Y249000D1*
X3406000Y246000D1*
X3187000Y192000D2*
X3190000D2*
Y189000D1*
X2394399Y1395236D2*
D119*
X2395825Y1398088D1*
X2398710Y1400973D1*
X2401562Y1402399D1*
X2407299D1*
X2410184Y1400973D1*
X2413036Y1398088D1*
X2414495Y1395236D1*
X2415921Y1390925D1*
Y1383729D1*
X2414495Y1379451D1*
X2413036Y1376566D1*
X2410184Y1373714D1*
X2407299Y1372255D1*
X2401562D1*
X2398710Y1373714D1*
X2395825Y1376566D1*
X2394399Y1379451D1*
X2381275Y1396629D2*
X2378390Y1398088D1*
X2374079Y1402366D1*
Y1372255D1*
X3310849Y1395236D2*
X3312275Y1398088D1*
X3315160Y1400973D1*
X3318012Y1402399D1*
X3323749D1*
X3326634Y1400973D1*
X3329486Y1398088D1*
X3330945Y1395236D1*
X3332371Y1390925D1*
Y1383729D1*
X3330945Y1379451D1*
X3329486Y1376566D1*
X3326634Y1373714D1*
X3323749Y1372255D1*
X3318012D1*
X3315160Y1373714D1*
X3312275Y1376566D1*
X3310849Y1379451D1*
X3296266Y1395203D2*
Y1396629D1*
X3294840Y1399514D1*
X3293414Y1400940D1*
X3290529Y1402366D1*
X3284792D1*
X3281940Y1400940D1*
X3280514Y1399514D1*
X3279055Y1396629D1*
Y1393777D1*
X3280514Y1390892D1*
X3283366Y1386614D1*
X3297725Y1372255D1*
X3277629D1*
X4772264Y620849D2*
X4769412Y622275D1*
X4766527Y625160D1*
X4765101Y628012D1*
Y633749D1*
X4766527Y636634D1*
X4769412Y639486D1*
X4772264Y640945D1*
X4776575Y642371D1*
X4783771D1*
X4788049Y640945D1*
X4790934Y639486D1*
X4793786Y636634D1*
X4795245Y633749D1*
Y628012D1*
X4793786Y625160D1*
X4790934Y622275D1*
X4788049Y620849D1*
X4765134Y604840D2*
Y589089D1*
X4776608Y597677D1*
Y593366D1*
X4778034Y590515D1*
X4779460Y589089D1*
X4783771Y587629D1*
X4786623D1*
X4790934Y589089D1*
X4793819Y591940D1*
X4795245Y596251D1*
Y600562D1*
X4793819Y604840D1*
X4792360Y606266D1*
X4789508Y607725D1*
X2949062Y932736D2*
X2950488Y935588D1*
X2953373Y938473D1*
X2956225Y939899D1*
X2961962D1*
X2964847Y938473D1*
X2967699Y935588D1*
X2969158Y932736D1*
X2970584Y928425D1*
Y921229D1*
X2969158Y916951D1*
X2967699Y914066D1*
X2964847Y911214D1*
X2961962Y909755D1*
X2956225D1*
X2953373Y911214D1*
X2950488Y914066D1*
X2949062Y916951D1*
X2921579Y909755D2*
Y939866D1*
X2935938Y919803D1*
X2914416D1*
X1342098Y370236D2*
X1343524Y373088D1*
X1346409Y375973D1*
X1349261Y377399D1*
X1354998D1*
X1357883Y375973D1*
X1360735Y373088D1*
X1362194Y370236D1*
X1363620Y365925D1*
Y358729D1*
X1362194Y354451D1*
X1360735Y351566D1*
X1357883Y348714D1*
X1354998Y347255D1*
X1349261D1*
X1346409Y348714D1*
X1343524Y351566D1*
X1342098Y354451D1*
X1311764Y377366D2*
X1326090D1*
X1327516Y364466D1*
X1326090Y365892D1*
X1321779Y367351D1*
X1317501D1*
X1313190Y365892D1*
X1310305Y363040D1*
X1308879Y358729D1*
Y355877D1*
X1310305Y351566D1*
X1313190Y348681D1*
X1317501Y347255D1*
X1321779D1*
X1326090Y348681D1*
X1327516Y350140D1*
X1328975Y352992D1*
X4110119Y395236D2*
X4111545Y398088D1*
X4114430Y400973D1*
X4117282Y402399D1*
X4123019D1*
X4125904Y400973D1*
X4128756Y398088D1*
X4130215Y395236D1*
X4131641Y390925D1*
Y383729D1*
X4130215Y379451D1*
X4128756Y376566D1*
X4125904Y373714D1*
X4123019Y372255D1*
X4117282D1*
X4114430Y373714D1*
X4111545Y376566D1*
X4110119Y379451D1*
X4079785Y398088D2*
X4081211Y400940D1*
X4085522Y402366D1*
X4088374D1*
X4092685Y400940D1*
X4095570Y396629D1*
X4096996Y389466D1*
Y382303D1*
X4095570Y376566D1*
X4092685Y373681D1*
X4088374Y372255D1*
X4086948D1*
X4082670Y373681D1*
X4079785Y376566D1*
X4078359Y380877D1*
Y382303D1*
X4079785Y386614D1*
X4082670Y389466D1*
X4086948Y390892D1*
X4088374D1*
X4092685Y389466D1*
X4095570Y386614D1*
X4096996Y382303D1*
X2150849Y795236D2*
X2152275Y798088D1*
X2155160Y800973D1*
X2158012Y802399D1*
X2163749D1*
X2166634Y800973D1*
X2169486Y798088D1*
X2170945Y795236D1*
X2172371Y790925D1*
Y783729D1*
X2170945Y779451D1*
X2169486Y776566D1*
X2166634Y773714D1*
X2163749Y772255D1*
X2158012D1*
X2155160Y773714D1*
X2152275Y776566D1*
X2150849Y779451D1*
X2131988Y772255D2*
X2117629Y802366D1*
X2137725D1*
X2275832Y232736D2*
X2277258Y235588D1*
X2280143Y238473D1*
X2282995Y239899D1*
X2288732D1*
X2291617Y238473D1*
X2294469Y235588D1*
X2295928Y232736D1*
X2297354Y228425D1*
Y221229D1*
X2295928Y216951D1*
X2294469Y214066D1*
X2291617Y211214D1*
X2288732Y209755D1*
X2282995D1*
X2280143Y211214D1*
X2277258Y214066D1*
X2275832Y216951D1*
X2255546Y239866D2*
X2259824Y238440D1*
X2261283Y235588D1*
Y232703D1*
X2259824Y229851D1*
X2256972Y228392D1*
X2251235Y226966D1*
X2246924Y225540D1*
X2244072Y222655D1*
X2242646Y219803D1*
Y215492D1*
X2244072Y212640D1*
X2245498Y211181D1*
X2249809Y209755D1*
X2255546D1*
X2259824Y211181D1*
X2261283Y212640D1*
X2262709Y215492D1*
Y219803D1*
X2261283Y222655D1*
X2258398Y225540D1*
X2254120Y226966D1*
X2248383Y228392D1*
X2245498Y229851D1*
X2244072Y232703D1*
Y235588D1*
X2245498Y238440D1*
X2249809Y239866D1*
X2255546D1*
X2550101Y1147208D2*
X2580245D1*
Y1137160D1*
X2578786Y1132849D1*
X2575934Y1129964D1*
X2573049Y1128538D1*
X2568771Y1127112D1*
X2561575D1*
X2557264Y1128538D1*
X2554412Y1129964D1*
X2551527Y1132849D1*
X2550101Y1137160D1*
Y1147208D1*
X2555871Y1113988D2*
X2554412Y1111103D1*
X2550134Y1106792D1*
X2580245D1*
X2319158Y1213040D2*
X2306258D1*
X2301947Y1214499D1*
X2300488Y1215925D1*
X2299062Y1218777D1*
Y1221662D1*
X2300488Y1224514D1*
X2301947Y1225973D1*
X2306258Y1227399D1*
X2319158D1*
Y1197255D1*
X2309110Y1213040D2*
X2299062Y1197255D1*
X2284479Y1220203D2*
Y1221629D1*
X2283053Y1224514D1*
X2281627Y1225940D1*
X2278742Y1227366D1*
X2273005D1*
X2270153Y1225940D1*
X2268727Y1224514D1*
X2267268Y1221629D1*
Y1218777D1*
X2268727Y1215892D1*
X2271579Y1211614D1*
X2285938Y1197255D1*
X2265842D1*
X3669871Y300540D2*
X3656971D1*
X3652660Y301999D1*
X3651201Y303425D1*
X3649775Y306277D1*
Y309162D1*
X3651201Y312014D1*
X3652660Y313473D1*
X3656971Y314899D1*
X3669871D1*
Y284755D1*
X3659823Y300540D2*
X3649775Y284755D1*
X3622292D2*
Y314866D1*
X3636651Y294803D1*
X3615129D1*
X2319158Y950540D2*
X2306258D1*
X2301947Y951999D1*
X2300488Y953425D1*
X2299062Y956277D1*
Y959162D1*
X2300488Y962014D1*
X2301947Y963473D1*
X2306258Y964899D1*
X2319158D1*
Y934755D1*
X2309110Y950540D2*
X2299062Y934755D1*
X2268727Y964866D2*
X2283053D1*
X2284479Y951966D1*
X2283053Y953392D1*
X2278742Y954851D1*
X2274464D1*
X2270153Y953392D1*
X2267268Y950540D1*
X2265842Y946229D1*
Y943377D1*
X2267268Y939066D1*
X2270153Y936181D1*
X2274464Y934755D1*
X2278742D1*
X2283053Y936181D1*
X2284479Y937640D1*
X2285938Y940492D1*
X3668428Y488040D2*
X3655528D1*
X3651217Y489499D1*
X3649758Y490925D1*
X3648332Y493777D1*
Y496662D1*
X3649758Y499514D1*
X3651217Y500973D1*
X3655528Y502399D1*
X3668428D1*
Y472255D1*
X3658380Y488040D2*
X3648332Y472255D1*
X3617998Y498088D2*
X3619424Y500940D1*
X3623735Y502366D1*
X3626587D1*
X3630898Y500940D1*
X3633783Y496629D1*
X3635209Y489466D1*
Y482303D1*
X3633783Y476566D1*
X3630898Y473681D1*
X3626587Y472255D1*
X3625161D1*
X3620883Y473681D1*
X3617998Y476566D1*
X3616572Y480877D1*
Y482303D1*
X3617998Y486614D1*
X3620883Y489466D1*
X3625161Y490892D1*
X3626587D1*
X3630898Y489466D1*
X3633783Y486614D1*
X3635209Y482303D1*
X3669141Y675540D2*
X3656241D1*
X3651930Y676999D1*
X3650471Y678425D1*
X3649045Y681277D1*
Y684162D1*
X3650471Y687014D1*
X3651930Y688473D1*
X3656241Y689899D1*
X3669141D1*
Y659755D1*
X3659093Y675540D2*
X3649045Y659755D1*
X3628759Y689866D2*
X3633037Y688440D1*
X3634496Y685588D1*
Y682703D1*
X3633037Y679851D1*
X3630185Y678392D1*
X3624448Y676966D1*
X3620137Y675540D1*
X3617285Y672655D1*
X3615859Y669803D1*
Y665492D1*
X3617285Y662640D1*
X3618711Y661181D1*
X3623022Y659755D1*
X3628759D1*
X3633037Y661181D1*
X3634496Y662640D1*
X3635922Y665492D1*
Y669803D1*
X3634496Y672655D1*
X3631611Y675540D1*
X3627333Y676966D1*
X3621596Y678392D1*
X3618711Y679851D1*
X3617285Y682703D1*
Y685588D1*
X3618711Y688440D1*
X3623022Y689866D1*
X3628759D1*
X2031817Y375540D2*
X2018917D1*
X2014606Y376999D1*
X2013147Y378425D1*
X2011721Y381277D1*
Y384162D1*
X2013147Y387014D1*
X2014606Y388473D1*
X2018917Y389899D1*
X2031817D1*
Y359755D1*
X2021769Y375540D2*
X2011721Y359755D1*
X1998598Y384129D2*
X1995713Y385588D1*
X1991402Y389866D1*
Y359755D1*
X1969657Y389866D2*
X1973968Y388440D1*
X1976853Y384129D1*
X1978279Y376966D1*
Y372655D1*
X1976853Y365492D1*
X1973968Y361181D1*
X1969657Y359755D1*
X1966805D1*
X1962494Y361181D1*
X1959642Y365492D1*
X1958183Y372655D1*
Y376966D1*
X1959642Y384129D1*
X1962494Y388440D1*
X1966805Y389866D1*
X1969657D1*
X1959642Y384129D2*
X1976853Y365492D1*
X1925367Y225540D2*
X1912468D1*
X1908157Y226999D1*
X1906697Y228425D1*
X1905271Y231277D1*
Y234162D1*
X1906697Y237014D1*
X1908157Y238473D1*
X1912468Y239899D1*
X1925367D1*
Y209755D1*
X1915319Y225540D2*
X1905271Y209755D1*
X1892148Y234129D2*
X1889263Y235588D1*
X1884952Y239866D1*
Y209755D1*
X1871829Y234129D2*
X1868944Y235588D1*
X1864633Y239866D1*
Y209755D1*
X3341817Y1213040D2*
X3328917D1*
X3324606Y1214499D1*
X3323147Y1215925D1*
X3321721Y1218777D1*
Y1221662D1*
X3323147Y1224514D1*
X3324606Y1225973D1*
X3328917Y1227399D1*
X3341817D1*
Y1197255D1*
X3331769Y1213040D2*
X3321721Y1197255D1*
X3308598Y1221629D2*
X3305713Y1223088D1*
X3301402Y1227366D1*
Y1197255D1*
X3286819Y1220203D2*
Y1221629D1*
X3285394Y1224514D1*
X3283968Y1225940D1*
X3281083Y1227366D1*
X3275346D1*
X3272494Y1225940D1*
X3271068Y1224514D1*
X3269609Y1221629D1*
Y1218777D1*
X3271068Y1215892D1*
X3273920Y1211614D1*
X3288279Y1197255D1*
X3268183D1*
X1674460Y381817D2*
Y368918D1*
X1673001Y364607D1*
X1671575Y363147D1*
X1668723Y361721D1*
X1665838D1*
X1662986Y363147D1*
X1661527Y364607D1*
X1660101Y368918D1*
Y381817D1*
X1690245D1*
X1674460Y371769D2*
X1690245Y361721D1*
X1665871Y348598D2*
X1664412Y345713D1*
X1660134Y341402D1*
X1690245D1*
X1660134Y325394D2*
Y309642D1*
X1671608Y318231D1*
Y313920D1*
X1673034Y311068D1*
X1674460Y309642D1*
X1678771Y308183D1*
X1681623D1*
X1685934Y309642D1*
X1688819Y312494D1*
X1690245Y316805D1*
Y321116D1*
X1688819Y325394D1*
X1687360Y326820D1*
X1684508Y328279D1*
X4532530Y475540D2*
X4519630D1*
X4515319Y476999D1*
X4513860Y478425D1*
X4512434Y481277D1*
Y484162D1*
X4513860Y487014D1*
X4515319Y488473D1*
X4519630Y489899D1*
X4532530D1*
Y459755D1*
X4522482Y475540D2*
X4512434Y459755D1*
X4499311Y484129D2*
X4496426Y485588D1*
X4492115Y489866D1*
Y459755D1*
X4464633D2*
Y489866D1*
X4478992Y469803D1*
X4457470D1*
X1031817Y725540D2*
X1018917D1*
X1014606Y726999D1*
X1013147Y728425D1*
X1011721Y731277D1*
Y734162D1*
X1013147Y737014D1*
X1014606Y738473D1*
X1018917Y739899D1*
X1031817D1*
Y709755D1*
X1021769Y725540D2*
X1011721Y709755D1*
X998598Y734129D2*
X995713Y735588D1*
X991402Y739866D1*
Y709755D1*
X961068Y739866D2*
X975394D1*
X976819Y726966D1*
X975394Y728392D1*
X971083Y729851D1*
X966805D1*
X962494Y728392D1*
X959609Y725540D1*
X958183Y721229D1*
Y718377D1*
X959609Y714066D1*
X962494Y711181D1*
X966805Y709755D1*
X971083D1*
X975394Y711181D1*
X976819Y712640D1*
X978279Y715492D1*
X1022339Y550540D2*
X1009439D1*
X1005128Y551999D1*
X1003668Y553425D1*
X1002243Y556277D1*
Y559162D1*
X1003668Y562014D1*
X1005128Y563473D1*
X1009439Y564899D1*
X1022339D1*
Y534755D1*
X1012291Y550540D2*
X1002243Y534755D1*
X989119Y559129D2*
X986234Y560588D1*
X981923Y564866D1*
Y534755D1*
X951589Y560588D2*
X953015Y563440D1*
X957326Y564866D1*
X960178D1*
X964489Y563440D1*
X967374Y559129D1*
X968800Y551966D1*
Y544803D1*
X967374Y539066D1*
X964489Y536181D1*
X960178Y534755D1*
X958752D1*
X954474Y536181D1*
X951589Y539066D1*
X950163Y543377D1*
Y544803D1*
X951589Y549114D1*
X954474Y551966D1*
X958752Y553392D1*
X960178D1*
X964489Y551966D1*
X967374Y549114D1*
X968800Y544803D1*
M02*
