G04 DipTrace 3.3.0.0*
G04 Bottom.gbr*
%MOIN*%
G04 #@! TF.FileFunction,Copper,L2,Bot*
G04 #@! TF.Part,Single*
G04 #@! TA.AperFunction,Conductor*
%ADD14C,0.013*%
G04 #@! TA.AperFunction,CopperBalancing*
%ADD15C,0.02*%
G04 #@! TA.AperFunction,ViaPad*
%ADD16C,0.04*%
G04 #@! TA.AperFunction,Conductor*
%ADD18C,0.05*%
G04 #@! TA.AperFunction,ViaPad*
%ADD19C,0.03*%
G04 #@! TA.AperFunction,CopperBalancing*
%ADD20C,0.025*%
G04 #@! TA.AperFunction,Conductor*
%ADD23C,0.052*%
G04 #@! TA.AperFunction,ViaPad*
%ADD24C,0.08*%
%ADD25C,0.06*%
G04 #@! TA.AperFunction,Conductor*
%ADD26C,0.01*%
%ADD31R,0.06X0.05*%
%ADD32R,0.09X0.13*%
G04 #@! TA.AperFunction,ComponentPad*
%ADD35C,0.065*%
%ADD36R,0.065X0.065*%
%ADD37C,0.06*%
%ADD38R,0.098425X0.098425*%
%ADD39C,0.098425*%
%ADD40C,0.04*%
%ADD41R,0.04X0.04*%
%ADD44R,0.175X0.175*%
%ADD46C,0.062*%
%ADD47R,0.05X0.06*%
G04 #@! TA.AperFunction,ComponentPad*
%ADD49C,0.07*%
G04 #@! TA.AperFunction,ViaPad*
%ADD56C,0.259801*%
%ADD58C,0.135*%
%FSLAX26Y26*%
G04*
G70*
G90*
G75*
G01*
G04 Bottom*
%LPD*%
X3250000Y987500D2*
D14*
X4025000D1*
X4062500Y1025000D1*
X4200000D1*
X4225000Y1050000D1*
Y1250000D1*
X4062500Y925000D2*
X4200000D1*
X4225000Y900000D1*
Y850000D1*
X4325000D2*
Y950000D1*
X4300000Y975000D1*
X4062500D1*
X2440000Y1312500D2*
X2587500D1*
X2625000Y1350000D1*
X2687500D1*
X2787500Y1250000D1*
X2687500Y1350000D2*
D3*
X5187500Y581251D2*
D18*
Y475000D1*
X5037500Y525000D2*
X5137500D1*
X5187500Y475000D1*
X5037500Y425000D2*
X5137500D1*
X5187500Y475000D1*
X5037500Y525000D2*
Y425000D1*
X2150000Y150000D2*
D19*
X2100000Y200000D1*
X1475000Y287500D2*
X1381249D1*
X1475000D2*
Y362500D1*
X1187500Y650000D1*
X1125000D1*
X2100000Y200000D2*
Y287500D1*
X2087500Y300000D1*
X2040000D1*
X1040000Y650000D2*
D18*
X1095000D1*
D16*
X1125000D1*
X2000000Y712500D2*
D19*
X2100000D1*
X2137500Y1137500D2*
D15*
X2247500D1*
X3500000Y512500D2*
D19*
Y450000D1*
X3537500Y412500D1*
X3597500D1*
X2247500Y875000D2*
X2162500D1*
X2000000Y712500D1*
X2987500Y850000D2*
X3125000D1*
X3150000Y875000D1*
X3500000Y512500D2*
Y550000D1*
X3550000Y600000D1*
X3597500D1*
X3500000Y450000D2*
Y262500D1*
X3537500Y225000D1*
X3597500D1*
X4150000Y312500D2*
X4312500D1*
X5037500Y1075000D2*
D23*
X4937500D1*
X4875000Y1012500D1*
Y737500D1*
X4025000Y1250000D2*
D14*
X4075000Y1300000D1*
X4700000D1*
X4750000Y1250000D1*
X4525000Y725000D2*
X4537500D1*
X4625000Y812500D1*
Y850000D1*
X4450000Y700000D2*
Y825000D1*
X4425000Y850000D1*
X4375000Y675000D2*
Y737500D1*
X4350000Y762500D1*
X4075000D1*
X4025000Y812500D1*
Y850000D1*
X3925000Y762500D2*
X3887500D1*
X3875000Y750000D1*
X3087500D1*
X2862500Y525000D1*
Y512500D1*
X3900000Y725000D2*
X3100000D1*
X2912500Y537500D1*
Y512500D1*
X3875000Y687500D2*
X3862500Y700000D1*
X3112500D1*
X2962500Y550000D1*
Y512500D1*
X3850000Y650000D2*
X3825000Y675000D1*
X3125000D1*
X3012500Y562500D1*
Y512500D1*
X3350000Y1312500D2*
D26*
Y1137500D1*
X3062500Y1000000D2*
D14*
X3087500Y1025000D1*
X3312500D1*
X3350000Y1062500D1*
Y1137500D1*
X3100000D2*
D26*
X3260000D1*
X4312500Y462500D2*
D20*
X4375000Y400000D1*
X4450000D1*
X4540000D2*
X4612500D1*
X4625000Y387500D1*
Y275000D1*
X3687500Y225000D2*
D15*
X3787500D1*
Y412500D2*
X3687500D1*
Y600000D2*
X3787500D1*
X1775000Y525000D2*
D14*
Y487500D1*
X1750000Y462500D1*
Y390000D1*
X1850000Y150000D2*
Y225000D1*
X1825000Y250000D1*
Y437500D1*
X1775000Y487500D1*
X1940000Y150000D2*
Y215000D1*
X1950000Y225000D1*
Y300000D1*
X1875000Y525000D2*
Y325000D1*
X1900000Y300000D1*
X1950000D1*
X2612500Y450000D2*
X1962500D1*
X1925000Y487500D1*
X2575000Y400000D2*
X2700000D1*
X2937500Y637500D1*
Y650000D1*
X1575000Y125000D2*
X1625000D1*
X1700000Y200000D1*
X2462500Y650000D2*
X2512500D1*
X2725000Y862500D1*
X2637500Y825000D2*
X2500000Y687500D1*
X2487500D1*
X950000Y650000D2*
D18*
X895000D1*
X850000Y605000D1*
Y500000D1*
X875000Y475000D1*
X941251D1*
X2812500Y562500D2*
D15*
X2787500Y587500D1*
X2437500D1*
X2412500Y612500D1*
X1662500D1*
Y637500D1*
X725000Y650000D2*
D18*
X895000D1*
X1525000Y387500D2*
D15*
Y500000D1*
X1662500Y637500D1*
X3100000Y950000D2*
X1300000D1*
X1250000Y900000D1*
X2350000Y1312500D2*
D26*
Y1285883D1*
D14*
Y1150000D1*
D26*
X2337500Y1137500D1*
X2425000Y1225000D2*
X2410883D1*
D14*
X2350000Y1285883D1*
X2612500Y618751D2*
X2450000D1*
X2418751Y650000D1*
Y793751D1*
X2450000Y825000D1*
X2337500Y875000D2*
X2387500D1*
X2437500Y825000D1*
X2450000D1*
D19*
X3925000Y762500D3*
X3900000Y725000D3*
X3875000Y687500D3*
X3850000Y650000D3*
D16*
X850000Y1025000D3*
D56*
X950000Y1300000D3*
D16*
X1975000Y525000D3*
X1118751Y475000D3*
X1125000Y650000D3*
X1456249Y475000D3*
X2200000Y237500D3*
X2100000Y200000D3*
D19*
X2862500Y512500D3*
X2912500D3*
X2962500D3*
X3012500D3*
X3787500Y600000D3*
Y412500D3*
Y225000D3*
D16*
X2687500Y1350000D3*
D19*
X1925000Y487500D3*
X2612500Y450000D3*
D16*
X1525000Y387500D3*
X2000000Y712500D3*
D19*
X2575000Y400000D3*
X2812500Y562500D3*
X2937500Y650000D3*
X2462500D3*
D16*
X4062500Y975000D3*
Y925000D3*
X3250000Y987500D3*
X4750000Y1250000D3*
X1775000Y525000D3*
X1875000D3*
D19*
X2450000Y825000D3*
X2725000Y862500D3*
X3062500Y562500D3*
D25*
X2887500Y737500D3*
X3000000D3*
D19*
X2487500Y687500D3*
X2637500Y825000D3*
D16*
X2450000Y900000D3*
X2425000Y1225000D3*
D19*
X3100000Y1137500D3*
D16*
X1662500Y637500D3*
X1250000Y900000D3*
X3100000Y950000D3*
X2137500Y1137500D3*
D19*
X2612500Y618751D3*
D16*
X3500000Y512500D3*
X3062500Y1000000D3*
X1475000Y287500D3*
D19*
X1575000Y125000D3*
X1700000Y200000D3*
D16*
X3150000Y875000D3*
D58*
X500000Y750000D3*
X100000D3*
D56*
X950000Y200000D3*
X5100000D3*
D16*
X3887500Y362500D3*
X4312500Y312500D3*
D24*
X100000Y887500D3*
X350000Y612500D3*
D16*
X4312500Y462500D3*
X4525000Y725000D3*
D19*
X2650000Y362500D3*
D56*
X5100000Y1300000D3*
D25*
X4025000Y175000D3*
X4175000D3*
D24*
X350000Y887500D3*
X100000Y612500D3*
D16*
X4450000Y700000D3*
X4375000Y675000D3*
X832803Y1412631D2*
D20*
X5234991D1*
X807935Y1387762D2*
X2739677D1*
X3049011D2*
X5234991D1*
X783068Y1362894D2*
X2291017D1*
X2499014D2*
X2727440D1*
X3049011D2*
X3201004D1*
X3409001D2*
X5234991D1*
X765018Y1338025D2*
X2291017D1*
X2499014D2*
X2727225D1*
X3049011D2*
X3201004D1*
X3409001D2*
X5234991D1*
X765018Y1313156D2*
X2291017D1*
X2499014D2*
X2738923D1*
X3049011D2*
X3201004D1*
X3409001D2*
X4038971D1*
X4735998D2*
X5234991D1*
X765018Y1288287D2*
X2291017D1*
X2499014D2*
X2740107D1*
X3034872D2*
X3201004D1*
X3409001D2*
X3896116D1*
X3953902D2*
X3996126D1*
X4778879D2*
X5234991D1*
X765018Y1263419D2*
X2291017D1*
X2499014D2*
X2727548D1*
X3047467D2*
X3201004D1*
X3409001D2*
X3877995D1*
X4672016D2*
X4687399D1*
X4797037D2*
X5234991D1*
X765018Y1238550D2*
X1254825D1*
X1345158D2*
X1454843D1*
X1545176D2*
X1754835D1*
X1845168D2*
X1954854D1*
X2045150D2*
X2314485D1*
X2471993D2*
X2727117D1*
X3047862D2*
X3316013D1*
X3383989D2*
X3877421D1*
X4672555D2*
X4702434D1*
X4797575D2*
X5234991D1*
X765018Y1213681D2*
X1241655D1*
X1358363D2*
X1441638D1*
X1558346D2*
X1741666D1*
X1858337D2*
X1941648D1*
X2058356D2*
X2314485D1*
X2472603D2*
X2738493D1*
X3036487D2*
X3316013D1*
X3383989D2*
X3893461D1*
X3956522D2*
X3993470D1*
X4056531D2*
X4093479D1*
X4156540D2*
X4189506D1*
X4260497D2*
X4293462D1*
X4356523D2*
X4393471D1*
X4456532D2*
X4493445D1*
X4556541D2*
X4593454D1*
X4656550D2*
X4718474D1*
X4781535D2*
X5234991D1*
X765018Y1188812D2*
X1241081D1*
X1358901D2*
X1441100D1*
X1558884D2*
X1741092D1*
X1858911D2*
X1941110D1*
X2058894D2*
X2188496D1*
X2456706D2*
X3201004D1*
X3409001D2*
X4189506D1*
X4260497D2*
X5234991D1*
X765018Y1163944D2*
X1252708D1*
X1347275D2*
X1452726D1*
X1547293D2*
X1752718D1*
X1847285D2*
X1952701D1*
X2047303D2*
X2096740D1*
X2396492D2*
X3065505D1*
X3409001D2*
X4189506D1*
X4260497D2*
X5234991D1*
X765018Y1139075D2*
X1355301D1*
X1444700D2*
X1855311D1*
X1944675D2*
X2088522D1*
X2396492D2*
X3056032D1*
X3409001D2*
X4189506D1*
X4260497D2*
X5234991D1*
X765018Y1114206D2*
X1341772D1*
X1458229D2*
X1841783D1*
X1958203D2*
X2094766D1*
X2396492D2*
X3063137D1*
X3409001D2*
X4189506D1*
X4260497D2*
X4900084D1*
X765018Y1089337D2*
X1340983D1*
X1459018D2*
X1840993D1*
X1958992D2*
X2188496D1*
X2396492D2*
X3201004D1*
X3409001D2*
X4189506D1*
X4260497D2*
X4875109D1*
X765018Y1064469D2*
X1352286D1*
X1447715D2*
X1852297D1*
X1947725D2*
X3302807D1*
X3385497D2*
X4189506D1*
X4260497D2*
X4850205D1*
X765018Y1039600D2*
X3035614D1*
X3376274D2*
X4027919D1*
X4258810D2*
X4827526D1*
X765018Y1014731D2*
X3015877D1*
X4238894D2*
X4820062D1*
X4953994D2*
X4994818D1*
X765018Y989862D2*
X3014621D1*
X3126449D2*
X3201076D1*
X4334310D2*
X4819991D1*
X4929988D2*
X4980501D1*
X765018Y964993D2*
X1260889D1*
X3146508D2*
X3206817D1*
X4356881D2*
X4819991D1*
X4929988D2*
X4979388D1*
X765018Y940125D2*
X1224000D1*
X3147943D2*
X4016041D1*
X4234050D2*
X4285711D1*
X4360506D2*
X4819991D1*
X4929988D2*
X4990548D1*
X765018Y915256D2*
X1203582D1*
X3175789D2*
X4014534D1*
X4256765D2*
X4289515D1*
X4360506D2*
X4819991D1*
X4929988D2*
X5071001D1*
X767027Y890387D2*
X1202003D1*
X1298006D2*
X2116691D1*
X2421288D2*
X2691771D1*
X2758241D2*
X2838502D1*
X3196387D2*
X3875985D1*
X3973997D2*
X3999463D1*
X4150547D2*
X4185451D1*
X4260497D2*
X4289515D1*
X4360506D2*
X4399464D1*
X4450539D2*
X4499437D1*
X4550548D2*
X4599446D1*
X4650558D2*
X4819991D1*
X4929988D2*
X5109325D1*
X5190686D2*
X5234991D1*
X781812Y865518D2*
X1216285D1*
X1283688D2*
X2091824D1*
X2461479D2*
X2626032D1*
X2648974D2*
X2678853D1*
X2768899D2*
X2838502D1*
X3198038D2*
X3875985D1*
X4671335D2*
X4819991D1*
X4929988D2*
X5083524D1*
X5216451D2*
X5234991D1*
X783211Y840650D2*
X2066956D1*
X2490940D2*
X2596571D1*
X2762798D2*
X2838502D1*
X3183827D2*
X3875985D1*
X4673057D2*
X4819991D1*
X4929988D2*
X5073405D1*
X5226571D2*
X5234991D1*
X772446Y815781D2*
X2042088D1*
X2164465D2*
X2391672D1*
X2492949D2*
X2579095D1*
X2727452D2*
X2838502D1*
X3150993D2*
X3875985D1*
X3973997D2*
X3989487D1*
X4070884D2*
X4091003D1*
X4158980D2*
X4191013D1*
X4258989D2*
X4291022D1*
X4358999D2*
X4391031D1*
X4558981D2*
X4579100D1*
X4660498D2*
X4801008D1*
X4949006D2*
X5072364D1*
X766453Y790912D2*
X2017220D1*
X2139598D2*
X2383239D1*
X2476155D2*
X2554227D1*
X2702585D2*
X2866563D1*
X2908416D2*
X2979060D1*
X3020913D2*
X3868199D1*
X3957742D2*
X3997525D1*
X4369297D2*
X4414499D1*
X4485490D2*
X4554232D1*
X4652460D2*
X4801008D1*
X4949006D2*
X5079900D1*
X5220111D2*
X5234991D1*
X781668Y766043D2*
X1992353D1*
X2114730D2*
X2383239D1*
X2454266D2*
X2529360D1*
X2677717D2*
X2836241D1*
X2938774D2*
X2948738D1*
X3968866D2*
X4022285D1*
X4395636D2*
X4414499D1*
X4485490D2*
X4500657D1*
X4627699D2*
X4801008D1*
X4949006D2*
X5099995D1*
X5200016D2*
X5234991D1*
X783319Y741175D2*
X1960882D1*
X2249008D2*
X2383239D1*
X2454266D2*
X2504492D1*
X2652849D2*
X2828634D1*
X3963088D2*
X4047153D1*
X4602832D2*
X4801008D1*
X4949006D2*
X5071790D1*
X772841Y716306D2*
X1951158D1*
X2249008D2*
X2383239D1*
X2627981D2*
X2832617D1*
X3943065D2*
X4339501D1*
X4577964D2*
X4801008D1*
X4949006D2*
X5071790D1*
X1192291Y691437D2*
X1956038D1*
X2249008D2*
X2383239D1*
X2603114D2*
X2852281D1*
X2922734D2*
X2932698D1*
X2942311D2*
X2964778D1*
X3926917D2*
X4328987D1*
X4559699D2*
X4801008D1*
X4949006D2*
X5071790D1*
X1232122Y666568D2*
X1623714D1*
X1701308D2*
X1990236D1*
X2009733D2*
X2041012D1*
X2249008D2*
X2383239D1*
X2578246D2*
X2896957D1*
X3913317D2*
X4326763D1*
X4484809D2*
X4801008D1*
X4949006D2*
X5071790D1*
X1256990Y641699D2*
X1612590D1*
X2649584D2*
X2892543D1*
X3140874D2*
X3538495D1*
X3746491D2*
X3806837D1*
X3893150D2*
X4340040D1*
X4409954D2*
X5071790D1*
X1281858Y616831D2*
X1587723D1*
X2811708D2*
X2867676D1*
X3116006D2*
X3505625D1*
X3877433D2*
X4577414D1*
X4672591D2*
X5071790D1*
X765018Y591962D2*
X796010D1*
X912287D2*
X1184348D1*
X1306726D2*
X1562855D1*
X3094225D2*
X3480757D1*
X3830712D2*
X4563383D1*
X4686621D2*
X5234991D1*
X765018Y567093D2*
X796010D1*
X903997D2*
X1209216D1*
X1331593D2*
X1537987D1*
X1646226D2*
X1752754D1*
X1797262D2*
X1852727D1*
X1897272D2*
X2403801D1*
X3106246D2*
X3459693D1*
X3815281D2*
X4561517D1*
X4688487D2*
X4801008D1*
X4949006D2*
X4997294D1*
X765018Y542224D2*
X796010D1*
X903997D2*
X1234084D1*
X1356461D2*
X1513119D1*
X1621358D2*
X1729322D1*
X1820695D2*
X1829295D1*
X1920704D2*
X2773803D1*
X3101222D2*
X3455997D1*
X3553399D2*
X4570452D1*
X4679552D2*
X4801008D1*
X4949006D2*
X4981182D1*
X765018Y517356D2*
X796010D1*
X1090236D2*
X1258952D1*
X1381329D2*
X1490405D1*
X1596490D2*
X1726630D1*
X1956337D2*
X2768169D1*
X3056223D2*
X3451260D1*
X3548734D2*
X4601061D1*
X4648943D2*
X4801008D1*
X4949006D2*
X4979029D1*
X765018Y492487D2*
X796548D1*
X1090236D2*
X1283819D1*
X1406197D2*
X1485991D1*
X1571623D2*
X1730829D1*
X1819188D2*
X1839271D1*
X1969184D2*
X2743301D1*
X3051343D2*
X3455530D1*
X3544463D2*
X4274443D1*
X4350530D2*
X4801008D1*
X4949006D2*
X4988790D1*
X765018Y467618D2*
X807457D1*
X1090236D2*
X1308687D1*
X1431064D2*
X1485991D1*
X1564015D2*
X1714896D1*
X2652562D2*
X2718433D1*
X2816804D2*
X3455997D1*
X3543997D2*
X4263786D1*
X4365027D2*
X4801008D1*
X4949006D2*
X4997904D1*
X765018Y442749D2*
X831930D1*
X1090236D2*
X1333555D1*
X1455932D2*
X1485991D1*
X1564015D2*
X1695985D1*
X1910513D2*
X1920584D1*
X2655863D2*
X2693566D1*
X2791936D2*
X3455997D1*
X3818403D2*
X4267912D1*
X4598992D2*
X4801008D1*
X4949006D2*
X4981362D1*
X765018Y417881D2*
X1358423D1*
X1564015D2*
X1695985D1*
X1910513D2*
X1952414D1*
X2767033D2*
X3455997D1*
X3831142D2*
X4296907D1*
X4652280D2*
X4801008D1*
X4949006D2*
X4978958D1*
X765018Y393012D2*
X1383290D1*
X1573668D2*
X1695985D1*
X1910513D2*
X2531584D1*
X2742165D2*
X3455997D1*
X3826657D2*
X4324322D1*
X4666095D2*
X4988431D1*
X765018Y368143D2*
X1408158D1*
X1569793D2*
X1695985D1*
X1910513D2*
X2545902D1*
X2711125D2*
X3455997D1*
X3746491D2*
X4350015D1*
X4666490D2*
X5071001D1*
X765018Y343274D2*
X1431016D1*
X1541875D2*
X1695985D1*
X2099013D2*
X3455997D1*
X3543997D2*
X4001006D1*
X4349848D2*
X4583514D1*
X4666490D2*
X5234991D1*
X765018Y318406D2*
X1232254D1*
X1519016D2*
X1695985D1*
X2130268D2*
X3455997D1*
X3543997D2*
X4001006D1*
X4361116D2*
X4578921D1*
X4671083D2*
X5234991D1*
X765018Y293537D2*
X1232254D1*
X1523610D2*
X1695985D1*
X2143545D2*
X3455997D1*
X3543997D2*
X4001006D1*
X4357456D2*
X4563849D1*
X4686155D2*
X5234991D1*
X765018Y268668D2*
X1232254D1*
X1520021D2*
X1695985D1*
X1860490D2*
X1887140D1*
X2144011D2*
X3455997D1*
X3746491D2*
X4001006D1*
X4209003D2*
X4294467D1*
X4330507D2*
X4561337D1*
X4688667D2*
X5234991D1*
X765018Y243799D2*
X1232254D1*
X1440251D2*
X1456602D1*
X1493395D2*
X1695985D1*
X1879617D2*
X1914484D1*
X1985511D2*
X2056011D1*
X2144011D2*
X3460447D1*
X3827016D2*
X4569519D1*
X4680485D2*
X5234991D1*
X765018Y218930D2*
X1660567D1*
X1739417D2*
X1806903D1*
X1885502D2*
X1904723D1*
X1984937D2*
X2055042D1*
X2144980D2*
X3482372D1*
X3831070D2*
X3986975D1*
X4063026D2*
X4597222D1*
X4652782D2*
X5234991D1*
X765018Y194062D2*
X1644886D1*
X1743580D2*
X1791007D1*
X1999003D2*
X2051382D1*
X2298995D2*
X3507347D1*
X3817650D2*
X3969320D1*
X4080681D2*
X5234991D1*
X765018Y169193D2*
X1620018D1*
X1730303D2*
X1791007D1*
X1999003D2*
X2062686D1*
X2298995D2*
X3966306D1*
X4083695D2*
X5234991D1*
X765018Y144324D2*
X1535762D1*
X1693485D2*
X1791007D1*
X1999003D2*
X2090998D1*
X2298995D2*
X3975062D1*
X4074939D2*
X5234991D1*
X792111Y119455D2*
X1531384D1*
X1668618D2*
X1791007D1*
X1999003D2*
X2090998D1*
X2298995D2*
X4012166D1*
X4037835D2*
X5234991D1*
X820531Y94587D2*
X1544267D1*
X1640305D2*
X5234991D1*
X848951Y69718D2*
X5234991D1*
X2302686Y1364000D2*
X2496500D1*
Y1261000D1*
X2454437D1*
X2460359Y1255199D1*
X2464648Y1249296D1*
X2467960Y1242795D1*
X2470215Y1235855D1*
X2471357Y1228648D1*
Y1221352D1*
X2470215Y1214145D1*
X2467960Y1207205D1*
X2464648Y1200704D1*
X2460359Y1194801D1*
X2455199Y1189641D1*
X2449296Y1185352D1*
X2442795Y1182040D1*
X2435855Y1179785D1*
X2428648Y1178643D1*
X2421352D1*
X2414145Y1179785D1*
X2407205Y1182040D1*
X2400704Y1185352D1*
X2394801Y1189641D1*
X2389641Y1194801D1*
X2385352Y1200704D1*
X2383001Y1205120D1*
X2383000Y1189032D1*
X2394000Y1189000D1*
Y1086000D1*
X2191000D1*
Y1101035D1*
X2166294Y1101000D1*
X2161796Y1097852D1*
X2155295Y1094540D1*
X2148355Y1092285D1*
X2141148Y1091143D1*
X2133852D1*
X2126645Y1092285D1*
X2119705Y1094540D1*
X2113204Y1097852D1*
X2107301Y1102141D1*
X2102141Y1107301D1*
X2097852Y1113204D1*
X2094540Y1119705D1*
X2092285Y1126645D1*
X2091143Y1133852D1*
Y1141148D1*
X2092285Y1148355D1*
X2094540Y1155295D1*
X2097852Y1161796D1*
X2102141Y1167699D1*
X2107301Y1172859D1*
X2113204Y1177148D1*
X2119705Y1180460D1*
X2126645Y1182715D1*
X2133852Y1183857D1*
X2141148D1*
X2148355Y1182715D1*
X2155295Y1180460D1*
X2161796Y1177148D1*
X2166254Y1173998D1*
X2191003Y1174000D1*
X2191000Y1189000D1*
X2316992D1*
X2317000Y1260990D1*
X2293500Y1261000D1*
Y1364000D1*
X2302686D1*
X3302686D2*
X3406500D1*
Y1261000D1*
X3381489D1*
X3381500Y1189023D1*
X3406500Y1189000D1*
Y1086000D1*
X3382996D1*
X3382898Y1059911D1*
X3382088Y1054796D1*
X3380488Y1049871D1*
X3378137Y1045257D1*
X3375093Y1041068D1*
X3354685Y1020516D1*
X4011355Y1020500D1*
X4041068Y1050093D1*
X4045258Y1053137D1*
X4049871Y1055488D1*
X4054796Y1057088D1*
X4059911Y1057898D1*
X4126804Y1058000D1*
X4186336D1*
X4192017Y1063686D1*
X4192000Y1217256D1*
X4187381Y1222668D1*
X4183568Y1228889D1*
X4180776Y1235631D1*
X4179072Y1242726D1*
X4178500Y1250000D1*
X4179072Y1257274D1*
X4180776Y1264369D1*
X4181748Y1267005D1*
X4168304Y1267000D1*
X4170215Y1260855D1*
X4171357Y1253648D1*
Y1246352D1*
X4170215Y1239145D1*
X4167960Y1232205D1*
X4164648Y1225704D1*
X4160359Y1219801D1*
X4155199Y1214641D1*
X4149296Y1210352D1*
X4142795Y1207040D1*
X4135855Y1204785D1*
X4128648Y1203643D1*
X4121352D1*
X4114145Y1204785D1*
X4107205Y1207040D1*
X4100704Y1210352D1*
X4094801Y1214641D1*
X4089641Y1219801D1*
X4085352Y1225704D1*
X4082040Y1232205D1*
X4079785Y1239145D1*
X4078643Y1246352D1*
Y1253648D1*
X4079103Y1257428D1*
X4071514Y1249845D1*
X4070928Y1242726D1*
X4069224Y1235631D1*
X4066432Y1228889D1*
X4062619Y1222668D1*
X4057880Y1217120D1*
X4052332Y1212381D1*
X4046111Y1208568D1*
X4039369Y1205776D1*
X4032274Y1204072D1*
X4025000Y1203500D1*
X4017726Y1204072D1*
X4010631Y1205776D1*
X4003889Y1208568D1*
X3997668Y1212381D1*
X3992120Y1217120D1*
X3987381Y1222668D1*
X3983568Y1228889D1*
X3980776Y1235631D1*
X3979072Y1242726D1*
X3978500Y1250000D1*
X3979072Y1257274D1*
X3980776Y1264369D1*
X3983568Y1271111D1*
X3987381Y1277332D1*
X3992120Y1282880D1*
X3997668Y1287619D1*
X4003889Y1291432D1*
X4010631Y1294224D1*
X4017726Y1295928D1*
X4024815Y1296493D1*
X4053568Y1325093D1*
X4057758Y1328137D1*
X4062371Y1330488D1*
X4067296Y1332088D1*
X4072411Y1332898D1*
X4139304Y1333000D1*
X4702589Y1332898D1*
X4707704Y1332088D1*
X4712629Y1330488D1*
X4717242Y1328137D1*
X4721432Y1325093D1*
X4750155Y1296514D1*
X4757274Y1295928D1*
X4764369Y1294224D1*
X4771111Y1291432D1*
X4777332Y1287619D1*
X4782880Y1282880D1*
X4787619Y1277332D1*
X4791432Y1271111D1*
X4794224Y1264369D1*
X4795928Y1257274D1*
X4796500Y1250000D1*
X4795928Y1242726D1*
X4794224Y1235631D1*
X4791432Y1228889D1*
X4787619Y1222668D1*
X4782880Y1217120D1*
X4777332Y1212381D1*
X4771111Y1208568D1*
X4764369Y1205776D1*
X4757274Y1204072D1*
X4750000Y1203500D1*
X4742726Y1204072D1*
X4735631Y1205776D1*
X4728889Y1208568D1*
X4722668Y1212381D1*
X4717120Y1217120D1*
X4712381Y1222668D1*
X4708568Y1228889D1*
X4705776Y1235631D1*
X4704072Y1242726D1*
X4703507Y1249815D1*
X4686346Y1266985D1*
X4668314Y1267000D1*
X4670215Y1260855D1*
X4671357Y1253648D1*
Y1246352D1*
X4670215Y1239145D1*
X4667960Y1232205D1*
X4664648Y1225704D1*
X4660359Y1219801D1*
X4655199Y1214641D1*
X4649296Y1210352D1*
X4642795Y1207040D1*
X4635855Y1204785D1*
X4628648Y1203643D1*
X4621352D1*
X4614145Y1204785D1*
X4607205Y1207040D1*
X4600704Y1210352D1*
X4594801Y1214641D1*
X4589641Y1219801D1*
X4585352Y1225704D1*
X4582040Y1232205D1*
X4579785Y1239145D1*
X4578643Y1246352D1*
Y1253648D1*
X4579785Y1260855D1*
X4581748Y1267005D1*
X4568269Y1267000D1*
X4570215Y1260855D1*
X4571357Y1253648D1*
Y1246352D1*
X4570215Y1239145D1*
X4567960Y1232205D1*
X4564648Y1225704D1*
X4560359Y1219801D1*
X4555199Y1214641D1*
X4549296Y1210352D1*
X4542795Y1207040D1*
X4535855Y1204785D1*
X4528648Y1203643D1*
X4521352D1*
X4514145Y1204785D1*
X4507205Y1207040D1*
X4500704Y1210352D1*
X4494801Y1214641D1*
X4489641Y1219801D1*
X4485352Y1225704D1*
X4482040Y1232205D1*
X4479785Y1239145D1*
X4478643Y1246352D1*
Y1253648D1*
X4479785Y1260855D1*
X4481748Y1267005D1*
X4468296Y1267000D1*
X4470215Y1260855D1*
X4471357Y1253648D1*
Y1246352D1*
X4470215Y1239145D1*
X4467960Y1232205D1*
X4464648Y1225704D1*
X4460359Y1219801D1*
X4455199Y1214641D1*
X4449296Y1210352D1*
X4442795Y1207040D1*
X4435855Y1204785D1*
X4428648Y1203643D1*
X4421352D1*
X4414145Y1204785D1*
X4407205Y1207040D1*
X4400704Y1210352D1*
X4394801Y1214641D1*
X4389641Y1219801D1*
X4385352Y1225704D1*
X4382040Y1232205D1*
X4379785Y1239145D1*
X4378643Y1246352D1*
Y1253648D1*
X4379785Y1260855D1*
X4381748Y1267005D1*
X4368251Y1267000D1*
X4370215Y1260855D1*
X4371357Y1253648D1*
Y1246352D1*
X4370215Y1239145D1*
X4367960Y1232205D1*
X4364648Y1225704D1*
X4360359Y1219801D1*
X4355199Y1214641D1*
X4349296Y1210352D1*
X4342795Y1207040D1*
X4335855Y1204785D1*
X4328648Y1203643D1*
X4321352D1*
X4314145Y1204785D1*
X4307205Y1207040D1*
X4300704Y1210352D1*
X4294801Y1214641D1*
X4289641Y1219801D1*
X4285352Y1225704D1*
X4282040Y1232205D1*
X4279785Y1239145D1*
X4278643Y1246352D1*
Y1253648D1*
X4279785Y1260855D1*
X4281748Y1267005D1*
X4268277Y1267000D1*
X4270215Y1260855D1*
X4271357Y1253648D1*
Y1246352D1*
X4270215Y1239145D1*
X4267960Y1232205D1*
X4264648Y1225704D1*
X4260359Y1219801D1*
X4258006Y1217256D1*
X4257898Y1047411D1*
X4257088Y1042296D1*
X4255488Y1037371D1*
X4253137Y1032758D1*
X4250093Y1028568D1*
X4229685Y1008016D1*
X4302589Y1007898D1*
X4307704Y1007088D1*
X4312629Y1005488D1*
X4317243Y1003137D1*
X4321432Y1000093D1*
X4348335Y973335D1*
X4351698Y969397D1*
X4354403Y964982D1*
X4356385Y960198D1*
X4357594Y955162D1*
X4358000Y949990D1*
Y882789D1*
X4362619Y877332D1*
X4366432Y871111D1*
X4369224Y864369D1*
X4370928Y857274D1*
X4371500Y850000D1*
X4370928Y842726D1*
X4369224Y835631D1*
X4366432Y828889D1*
X4362619Y822668D1*
X4357880Y817120D1*
X4352332Y812381D1*
X4346111Y808568D1*
X4339369Y805776D1*
X4332274Y804072D1*
X4325000Y803500D1*
X4317726Y804072D1*
X4310631Y805776D1*
X4303889Y808568D1*
X4297668Y812381D1*
X4292120Y817120D1*
X4287381Y822668D1*
X4283568Y828889D1*
X4280776Y835631D1*
X4279072Y842726D1*
X4278500Y850000D1*
X4279072Y857274D1*
X4280776Y864369D1*
X4283568Y871111D1*
X4287381Y877332D1*
X4291994Y882744D1*
X4292000Y936301D1*
X4286314Y942017D1*
X4229830Y941839D1*
X4250093Y921432D1*
X4253137Y917242D1*
X4255488Y912629D1*
X4257088Y907704D1*
X4257898Y902589D1*
X4258000Y882740D1*
X4262619Y877332D1*
X4266432Y871111D1*
X4269224Y864369D1*
X4270928Y857274D1*
X4271500Y850000D1*
X4270928Y842726D1*
X4269224Y835631D1*
X4266432Y828889D1*
X4262619Y822668D1*
X4257880Y817120D1*
X4252332Y812381D1*
X4246111Y808568D1*
X4239369Y805776D1*
X4232274Y804072D1*
X4225000Y803500D1*
X4217726Y804072D1*
X4210631Y805776D1*
X4203889Y808568D1*
X4197668Y812381D1*
X4192120Y817120D1*
X4187381Y822668D1*
X4183568Y828889D1*
X4180776Y835631D1*
X4179072Y842726D1*
X4178500Y850000D1*
X4179072Y857274D1*
X4180776Y864369D1*
X4183568Y871111D1*
X4187381Y877332D1*
X4191994Y882744D1*
X4188674Y889657D1*
X4186314Y892017D1*
X4144990Y892000D1*
X4152332Y887619D1*
X4157880Y882880D1*
X4162619Y877332D1*
X4166432Y871111D1*
X4169224Y864369D1*
X4170928Y857274D1*
X4171500Y850000D1*
X4170928Y842726D1*
X4169224Y835631D1*
X4166432Y828889D1*
X4162619Y822668D1*
X4157880Y817120D1*
X4152332Y812381D1*
X4146111Y808568D1*
X4139369Y805776D1*
X4132274Y804072D1*
X4125000Y803500D1*
X4117726Y804072D1*
X4110631Y805776D1*
X4103889Y808568D1*
X4097668Y812381D1*
X4092120Y817120D1*
X4087381Y822668D1*
X4083568Y828889D1*
X4080776Y835631D1*
X4079072Y842726D1*
X4078500Y850000D1*
X4079072Y857274D1*
X4080776Y864369D1*
X4083568Y871111D1*
X4087381Y877332D1*
X4092120Y882880D1*
X4097668Y887619D1*
X4103889Y891432D1*
X4105120Y891999D1*
X4095254Y892000D1*
X4089832Y887381D1*
X4083611Y883568D1*
X4076869Y880776D1*
X4069774Y879072D1*
X4061716Y878531D1*
X4064648Y874296D1*
X4067960Y867795D1*
X4070215Y860855D1*
X4071357Y853648D1*
Y846352D1*
X4070215Y839145D1*
X4067960Y832205D1*
X4064648Y825704D1*
X4062134Y822052D1*
X4088654Y795515D1*
X4352589Y795398D1*
X4357704Y794588D1*
X4362629Y792988D1*
X4367243Y790637D1*
X4371432Y787593D1*
X4398335Y760835D1*
X4401698Y756897D1*
X4404403Y752482D1*
X4406385Y747698D1*
X4407594Y742662D1*
X4408000Y737490D1*
Y719953D1*
X4410352Y724296D1*
X4414641Y730199D1*
X4416994Y732744D1*
X4417000Y804172D1*
X4410631Y805776D1*
X4403889Y808568D1*
X4397668Y812381D1*
X4392120Y817120D1*
X4387381Y822668D1*
X4383568Y828889D1*
X4380776Y835631D1*
X4379072Y842726D1*
X4378500Y850000D1*
X4379072Y857274D1*
X4380776Y864369D1*
X4383568Y871111D1*
X4387381Y877332D1*
X4392120Y882880D1*
X4397668Y887619D1*
X4403889Y891432D1*
X4410631Y894224D1*
X4417726Y895928D1*
X4425000Y896500D1*
X4432274Y895928D1*
X4439369Y894224D1*
X4446111Y891432D1*
X4452332Y887619D1*
X4457880Y882880D1*
X4462619Y877332D1*
X4466432Y871111D1*
X4469224Y864369D1*
X4470928Y857274D1*
X4471493Y850185D1*
X4476698Y844397D1*
X4479408Y839973D1*
X4478500Y850000D1*
X4479072Y857274D1*
X4480776Y864369D1*
X4483568Y871111D1*
X4487381Y877332D1*
X4492120Y882880D1*
X4497668Y887619D1*
X4503889Y891432D1*
X4510631Y894224D1*
X4517726Y895928D1*
X4525000Y896500D1*
X4532274Y895928D1*
X4539369Y894224D1*
X4546111Y891432D1*
X4552332Y887619D1*
X4557880Y882880D1*
X4562619Y877332D1*
X4566432Y871111D1*
X4569224Y864369D1*
X4570928Y857274D1*
X4571500Y850000D1*
X4570928Y842726D1*
X4569224Y835631D1*
X4566432Y828889D1*
X4562619Y822668D1*
X4557880Y817120D1*
X4552332Y812381D1*
X4546111Y808568D1*
X4539369Y805776D1*
X4532274Y804072D1*
X4525000Y803500D1*
X4517726Y804072D1*
X4510631Y805776D1*
X4503889Y808568D1*
X4497668Y812381D1*
X4492120Y817120D1*
X4487381Y822668D1*
X4483568Y828889D1*
X4482344Y831545D1*
X4483000Y824990D1*
Y744942D1*
X4485352Y749296D1*
X4489641Y755199D1*
X4494801Y760359D1*
X4500704Y764648D1*
X4507205Y767960D1*
X4514145Y770215D1*
X4521352Y771357D1*
X4528648D1*
X4536006Y770173D1*
X4587877Y822046D1*
X4585352Y825704D1*
X4582040Y832205D1*
X4579785Y839145D1*
X4578643Y846352D1*
Y853648D1*
X4579785Y860855D1*
X4582040Y867795D1*
X4585352Y874296D1*
X4589641Y880199D1*
X4594801Y885359D1*
X4600704Y889648D1*
X4607205Y892960D1*
X4614145Y895215D1*
X4621352Y896357D1*
X4628648D1*
X4635855Y895215D1*
X4642795Y892960D1*
X4649296Y889648D1*
X4655199Y885359D1*
X4660359Y880199D1*
X4664648Y874296D1*
X4667960Y867795D1*
X4670215Y860855D1*
X4671357Y853648D1*
Y846352D1*
X4670215Y839145D1*
X4667960Y832205D1*
X4664648Y825704D1*
X4660359Y819801D1*
X4658006Y817256D1*
X4657898Y809911D1*
X4657088Y804796D1*
X4655488Y799871D1*
X4653137Y795258D1*
X4650093Y791068D1*
X4602864Y743695D1*
X4568939Y709770D1*
X4566432Y703889D1*
X4562619Y697668D1*
X4557880Y692120D1*
X4552332Y687381D1*
X4546111Y683568D1*
X4539369Y680776D1*
X4532274Y679072D1*
X4525000Y678500D1*
X4517726Y679072D1*
X4510631Y680776D1*
X4503889Y683568D1*
X4497668Y687381D1*
X4495215Y689145D1*
X4492960Y682205D1*
X4489648Y675704D1*
X4485359Y669801D1*
X4480199Y664641D1*
X4474296Y660352D1*
X4467795Y657040D1*
X4460855Y654785D1*
X4453648Y653643D1*
X4446352D1*
X4439145Y654785D1*
X4432205Y657040D1*
X4425704Y660352D1*
X4420260Y664279D1*
X4417960Y657205D1*
X4414648Y650704D1*
X4410359Y644801D1*
X4405199Y639641D1*
X4399296Y635352D1*
X4392795Y632040D1*
X4385855Y629785D1*
X4378648Y628643D1*
X4371352D1*
X4364145Y629785D1*
X4357205Y632040D1*
X4350704Y635352D1*
X4344801Y639641D1*
X4339641Y644801D1*
X4335352Y650704D1*
X4332040Y657205D1*
X4329785Y664145D1*
X4328643Y671352D1*
Y678648D1*
X4329785Y685855D1*
X4332040Y692795D1*
X4335352Y699296D1*
X4339641Y705199D1*
X4341994Y707744D1*
X4342000Y723838D1*
X4336314Y729517D1*
X4072411Y729602D1*
X4067296Y730412D1*
X4062371Y732012D1*
X4057757Y734363D1*
X4053568Y737407D1*
X4006195Y784636D1*
X3999907Y791068D1*
X3996863Y795257D1*
X3994512Y799871D1*
X3992912Y804796D1*
X3992102Y809911D1*
X3992000Y817273D1*
X3987381Y822668D1*
X3983568Y828889D1*
X3980776Y835631D1*
X3979072Y842726D1*
X3978500Y850000D1*
X3979072Y857274D1*
X3980776Y864369D1*
X3983568Y871111D1*
X3987381Y877332D1*
X3992120Y882880D1*
X3997668Y887619D1*
X4003889Y891432D1*
X4010631Y894224D1*
X4017726Y895928D1*
X4025784Y896469D1*
X4022852Y900704D1*
X4019540Y907205D1*
X4017285Y914145D1*
X4016143Y921352D1*
Y928648D1*
X4017285Y935855D1*
X4019540Y942795D1*
X4023304Y949972D1*
X4020788Y954498D1*
X3282736Y954500D1*
X3277332Y949881D1*
X3271111Y946068D1*
X3264369Y943276D1*
X3257274Y941572D1*
X3250000Y941000D1*
X3242726Y941572D1*
X3235631Y943276D1*
X3228889Y946068D1*
X3222668Y949881D1*
X3217120Y954620D1*
X3212381Y960168D1*
X3208568Y966389D1*
X3205776Y973131D1*
X3204072Y980226D1*
X3203500Y987500D1*
X3203746Y992012D1*
X3119981Y992000D1*
X3124296Y989648D1*
X3130199Y985359D1*
X3135359Y980199D1*
X3139648Y974296D1*
X3142960Y967795D1*
X3145215Y960855D1*
X3146357Y953648D1*
Y946352D1*
X3145215Y939145D1*
X3142960Y932205D1*
X3139648Y925704D1*
X3135359Y919801D1*
X3134459Y918827D1*
X3139145Y920215D1*
X3146352Y921357D1*
X3153648D1*
X3160855Y920215D1*
X3167795Y917960D1*
X3174296Y914648D1*
X3180199Y910359D1*
X3185359Y905199D1*
X3189648Y899296D1*
X3192960Y892795D1*
X3195215Y885855D1*
X3196357Y878648D1*
Y871352D1*
X3195215Y864145D1*
X3192960Y857205D1*
X3189648Y850704D1*
X3185359Y844801D1*
X3180199Y839641D1*
X3174296Y835352D1*
X3167795Y832040D1*
X3164516Y830830D1*
X3151952Y818443D1*
X3146684Y814615D1*
X3140881Y811659D1*
X3134688Y809647D1*
X3128256Y808628D1*
X3088255Y808500D1*
X3044009D1*
X3044000Y798500D1*
X2841000D1*
Y901500D1*
X3044000D1*
Y891488D1*
X3106528Y891500D1*
X3108568Y896111D1*
X3112381Y902332D1*
X3115541Y906173D1*
X3110855Y904785D1*
X3103648Y903643D1*
X3096352D1*
X3089145Y904785D1*
X3082205Y907040D1*
X3075704Y910352D1*
X3071246Y913502D1*
X2393979Y913500D1*
X2394000Y907374D1*
X2400129Y905488D1*
X2404742Y903137D1*
X2408932Y900093D1*
X2443237Y865932D1*
X2450000Y866500D1*
X2456492Y865989D1*
X2462824Y864469D1*
X2468841Y861977D1*
X2474393Y858574D1*
X2479345Y854345D1*
X2483574Y849393D1*
X2486977Y843841D1*
X2489469Y837824D1*
X2490989Y831492D1*
X2491500Y825000D1*
X2490989Y818508D1*
X2489469Y812176D1*
X2486977Y806159D1*
X2483574Y800607D1*
X2479345Y795655D1*
X2474393Y791426D1*
X2468841Y788023D1*
X2462824Y785531D1*
X2455569Y783902D1*
X2451741Y780072D1*
X2451751Y708597D1*
X2455943Y714452D1*
X2460548Y719057D1*
X2465816Y722885D1*
X2471619Y725841D1*
X2477812Y727853D1*
X2484244Y728872D1*
X2490756D1*
X2494254Y728437D1*
X2596354Y830523D1*
X2598031Y837824D1*
X2600523Y843841D1*
X2603926Y849393D1*
X2608155Y854345D1*
X2613107Y858574D1*
X2618659Y861977D1*
X2624676Y864469D1*
X2631008Y865989D1*
X2637500Y866500D1*
X2643992Y865989D1*
X2650324Y864469D1*
X2656341Y861977D1*
X2661893Y858574D1*
X2666845Y854345D1*
X2668443Y852616D1*
X2683860Y868029D1*
X2685531Y875324D1*
X2688023Y881341D1*
X2691426Y886893D1*
X2695655Y891845D1*
X2700607Y896074D1*
X2706159Y899477D1*
X2712176Y901969D1*
X2718508Y903489D1*
X2725000Y904000D1*
X2731492Y903489D1*
X2737824Y901969D1*
X2743841Y899477D1*
X2749393Y896074D1*
X2754345Y891845D1*
X2758574Y886893D1*
X2761977Y881341D1*
X2764469Y875324D1*
X2765989Y868992D1*
X2766500Y862500D1*
X2765989Y856008D1*
X2764469Y849676D1*
X2761977Y843659D1*
X2758574Y838107D1*
X2754345Y833155D1*
X2749393Y828926D1*
X2743841Y825523D1*
X2737824Y823031D1*
X2730569Y821402D1*
X2560897Y651728D1*
X2587329Y651751D1*
X2593659Y655727D1*
X2599676Y658220D1*
X2606008Y659740D1*
X2612500Y660251D1*
X2618992Y659740D1*
X2625324Y658220D1*
X2631341Y655727D1*
X2636893Y652325D1*
X2641845Y648096D1*
X2646074Y643144D1*
X2649477Y637591D1*
X2651969Y631575D1*
X2653489Y625243D1*
X2653637Y623991D1*
X2790364Y623888D1*
X2796021Y622992D1*
X2801468Y621222D1*
X2806571Y618621D1*
X2811205Y615255D1*
X2824347Y602272D1*
X2831341Y599477D1*
X2836893Y596074D1*
X2841845Y591845D1*
X2843443Y590116D1*
X2896581Y643251D1*
X2896000Y650000D1*
X2896511Y656492D1*
X2898031Y662824D1*
X2900523Y668841D1*
X2903926Y674393D1*
X2908155Y679345D1*
X2913107Y683574D1*
X2918659Y686977D1*
X2924676Y689469D1*
X2931008Y690989D1*
X2937500Y691500D1*
X2943992Y690989D1*
X2950324Y689469D1*
X2956341Y686977D1*
X2961893Y683574D1*
X2966845Y679345D1*
X2968443Y677616D1*
X2976819Y685988D1*
X2970479Y689326D1*
X2963306Y694537D1*
X2957037Y700806D1*
X2951826Y707979D1*
X2947801Y715878D1*
X2945061Y724310D1*
X2943762Y732327D1*
X2942439Y724310D1*
X2939699Y715878D1*
X2935674Y707979D1*
X2930463Y700806D1*
X2924194Y694537D1*
X2917021Y689326D1*
X2909122Y685301D1*
X2900690Y682561D1*
X2891933Y681174D1*
X2883067D1*
X2874310Y682561D1*
X2865878Y685301D1*
X2857979Y689326D1*
X2850806Y694537D1*
X2844537Y700806D1*
X2839326Y707979D1*
X2835301Y715878D1*
X2832561Y724310D1*
X2831174Y733067D1*
Y741933D1*
X2832561Y750690D1*
X2835301Y759122D1*
X2839326Y767021D1*
X2844537Y774194D1*
X2850806Y780463D1*
X2857979Y785674D1*
X2865878Y789699D1*
X2874310Y792439D1*
X2883067Y793826D1*
X2891933D1*
X2900690Y792439D1*
X2909122Y789699D1*
X2917021Y785674D1*
X2924194Y780463D1*
X2930463Y774194D1*
X2935674Y767021D1*
X2939699Y759122D1*
X2942439Y750690D1*
X2943738Y742673D1*
X2945061Y750690D1*
X2947801Y759122D1*
X2951826Y767021D1*
X2957037Y774194D1*
X2963306Y780463D1*
X2970479Y785674D1*
X2978378Y789699D1*
X2986810Y792439D1*
X2995567Y793826D1*
X3004433D1*
X3013190Y792439D1*
X3021622Y789699D1*
X3029521Y785674D1*
X3036694Y780463D1*
X3042963Y774194D1*
X3048174Y767021D1*
X3051495Y760648D1*
X3066068Y775094D1*
X3070257Y778137D1*
X3074871Y780488D1*
X3079796Y782088D1*
X3084911Y782898D1*
X3151804Y783000D1*
X3861342D1*
X3866068Y787593D1*
X3870257Y790637D1*
X3874871Y792988D1*
X3879796Y794588D1*
X3884911Y795398D1*
X3899808Y795500D1*
X3906159Y799477D1*
X3912176Y801969D1*
X3918596Y803500D1*
X3878500D1*
Y896500D1*
X3971500D1*
Y803500D1*
X3931492Y803489D1*
X3937824Y801969D1*
X3943841Y799477D1*
X3949393Y796074D1*
X3954345Y791845D1*
X3958574Y786893D1*
X3961977Y781341D1*
X3964469Y775324D1*
X3965989Y768992D1*
X3966500Y762500D1*
X3965989Y756008D1*
X3964469Y749676D1*
X3961977Y743659D1*
X3958574Y738107D1*
X3954345Y733155D1*
X3949393Y728926D1*
X3943841Y725523D1*
X3941494Y724441D1*
X3940989Y718508D1*
X3939469Y712176D1*
X3936977Y706159D1*
X3933574Y700607D1*
X3929345Y695655D1*
X3924393Y691426D1*
X3918841Y688023D1*
X3916494Y686941D1*
X3915989Y681008D1*
X3914469Y674676D1*
X3911977Y668659D1*
X3908574Y663107D1*
X3904345Y658155D1*
X3899393Y653926D1*
X3893841Y650523D1*
X3891494Y649441D1*
X3890989Y643508D1*
X3889469Y637176D1*
X3886977Y631159D1*
X3883574Y625607D1*
X3879345Y620655D1*
X3874393Y616426D1*
X3868841Y613023D1*
X3862824Y610531D1*
X3856492Y609011D1*
X3850000Y608500D1*
X3843508Y609011D1*
X3837176Y610531D1*
X3831159Y613023D1*
X3825617Y616419D1*
X3827853Y609688D1*
X3828872Y603256D1*
Y596744D1*
X3827853Y590312D1*
X3825841Y584119D1*
X3822885Y578316D1*
X3819057Y573048D1*
X3814452Y568443D1*
X3809184Y564615D1*
X3803381Y561659D1*
X3797188Y559647D1*
X3790756Y558628D1*
X3784244D1*
X3777812Y559647D1*
X3771619Y561659D1*
X3767804Y563502D1*
X3743972Y563500D1*
X3744000Y548500D1*
X3557221D1*
X3541715Y533025D1*
X3544224Y526869D1*
X3545928Y519774D1*
X3546500Y512500D1*
X3545928Y505226D1*
X3544224Y498131D1*
X3541497Y491532D1*
X3541500Y467178D1*
X3544696Y463994D1*
X3744000Y464000D1*
Y448964D1*
X3767773Y449000D1*
X3774676Y451969D1*
X3781008Y453489D1*
X3787500Y454000D1*
X3793992Y453489D1*
X3800324Y451969D1*
X3806341Y449477D1*
X3811893Y446074D1*
X3816845Y441845D1*
X3821074Y436893D1*
X3824477Y431341D1*
X3826969Y425324D1*
X3828489Y418992D1*
X3829000Y412500D1*
X3828489Y406008D1*
X3826969Y399676D1*
X3824477Y393659D1*
X3821074Y388107D1*
X3816845Y383155D1*
X3811893Y378926D1*
X3806341Y375523D1*
X3800324Y373031D1*
X3793992Y371511D1*
X3787500Y371000D1*
X3781008Y371511D1*
X3774676Y373031D1*
X3767804Y376002D1*
X3743972Y376000D1*
X3744000Y361000D1*
X3541508D1*
X3541500Y279658D1*
X3544696Y276494D1*
X3744000Y276500D1*
Y261464D1*
X3767773Y261500D1*
X3774676Y264469D1*
X3781008Y265989D1*
X3787500Y266500D1*
X3793992Y265989D1*
X3800324Y264469D1*
X3806341Y261977D1*
X3811893Y258574D1*
X3816845Y254345D1*
X3821074Y249393D1*
X3824477Y243841D1*
X3826969Y237824D1*
X3828489Y231492D1*
X3829000Y225000D1*
X3828489Y218508D1*
X3826969Y212176D1*
X3824477Y206159D1*
X3821074Y200607D1*
X3816845Y195655D1*
X3811893Y191426D1*
X3806341Y188023D1*
X3800324Y185531D1*
X3793992Y184011D1*
X3787500Y183500D1*
X3781008Y184011D1*
X3774676Y185531D1*
X3767804Y188502D1*
X3743972Y188500D1*
X3744000Y173500D1*
X3541000D1*
Y183512D1*
X3534244Y183628D1*
X3527812Y184647D1*
X3521619Y186659D1*
X3515816Y189615D1*
X3510548Y193443D1*
X3482172Y221638D1*
X3468443Y235548D1*
X3464615Y240816D1*
X3461659Y246619D1*
X3459647Y252812D1*
X3458628Y259244D1*
X3458500Y299245D1*
Y491518D1*
X3455776Y498131D1*
X3454072Y505226D1*
X3453500Y512500D1*
X3454072Y519774D1*
X3455776Y526869D1*
X3458503Y533468D1*
X3458628Y553256D1*
X3459647Y559688D1*
X3461659Y565881D1*
X3464615Y571684D1*
X3468443Y576952D1*
X3496638Y605328D1*
X3523048Y631557D1*
X3528316Y635385D1*
X3534119Y638341D1*
X3540324Y640356D1*
X3540223Y642000D1*
X3138643D1*
X3090152Y593483D1*
X3094057Y589452D1*
X3097885Y584184D1*
X3100841Y578381D1*
X3102853Y572188D1*
X3103872Y565756D1*
Y559244D1*
X3102853Y552812D1*
X3100841Y546619D1*
X3097885Y540816D1*
X3094057Y535548D1*
X3089452Y530943D1*
X3084184Y527115D1*
X3078381Y524159D1*
X3072188Y522147D1*
X3065756Y521128D1*
X3059244D1*
X3052874Y522134D1*
X3053872Y515756D1*
Y509244D1*
X3052853Y502812D1*
X3050841Y496619D1*
X3047885Y490816D1*
X3044057Y485548D1*
X3039452Y480943D1*
X3034184Y477115D1*
X3028381Y474159D1*
X3022188Y472147D1*
X3015756Y471128D1*
X3009244D1*
X3002812Y472147D1*
X2996619Y474159D1*
X2990816Y477115D1*
X2987517Y479391D1*
X2981341Y475523D1*
X2975324Y473031D1*
X2968992Y471511D1*
X2962500Y471000D1*
X2956008Y471511D1*
X2949676Y473031D1*
X2943659Y475523D1*
X2937517Y479391D1*
X2931341Y475523D1*
X2925324Y473031D1*
X2918992Y471511D1*
X2912500Y471000D1*
X2906008Y471511D1*
X2899676Y473031D1*
X2893659Y475523D1*
X2887517Y479391D1*
X2881341Y475523D1*
X2875324Y473031D1*
X2868992Y471511D1*
X2862500Y471000D1*
X2856008Y471511D1*
X2849676Y473031D1*
X2843659Y475523D1*
X2838107Y478926D1*
X2833155Y483155D1*
X2831557Y484884D1*
X2721432Y374906D1*
X2717243Y371863D1*
X2712629Y369512D1*
X2707704Y367912D1*
X2702589Y367102D1*
X2635696Y367000D1*
X2600134D1*
X2593841Y363023D1*
X2587824Y360531D1*
X2581492Y359011D1*
X2575000Y358500D1*
X2568508Y359011D1*
X2562176Y360531D1*
X2556159Y363023D1*
X2550607Y366426D1*
X2545655Y370655D1*
X2541426Y375607D1*
X2538023Y381159D1*
X2535531Y387176D1*
X2534011Y393508D1*
X2533500Y400000D1*
X2534011Y406492D1*
X2535531Y412824D1*
X2537176Y417003D1*
X1959911Y417102D1*
X1954796Y417912D1*
X1949871Y419512D1*
X1945257Y421863D1*
X1941068Y424907D1*
X1919450Y446381D1*
X1912176Y448031D1*
X1907997Y449676D1*
X1908000Y351500D1*
X2096500D1*
Y340483D1*
X2103381Y338341D1*
X2109184Y335385D1*
X2114452Y331557D1*
X2129345Y316845D1*
X2133574Y311893D1*
X2136977Y306341D1*
X2139469Y300324D1*
X2140989Y293992D1*
X2141500Y287500D1*
Y221007D1*
X2144170Y214516D1*
X2157180Y201510D1*
X2296500Y201500D1*
Y98500D1*
X2093500D1*
Y147841D1*
X2085512Y155798D1*
X2078889Y158568D1*
X2072668Y162381D1*
X2067120Y167120D1*
X2062381Y172668D1*
X2058568Y178889D1*
X2055776Y185631D1*
X2054072Y192726D1*
X2053500Y200000D1*
X2054072Y207274D1*
X2055776Y214369D1*
X2058503Y220968D1*
X2058500Y248480D1*
X1983500Y248536D1*
X1983000Y244882D1*
X1982898Y222411D1*
X1982088Y217296D1*
X1980488Y212371D1*
X1978137Y207757D1*
X1975093Y203568D1*
X1973327Y201659D1*
X1996500Y201500D1*
Y98500D1*
X1793500D1*
Y201500D1*
X1817004D1*
X1817000Y211326D1*
X1799907Y228568D1*
X1796863Y232758D1*
X1794512Y237371D1*
X1792910Y242306D1*
X1792314Y243500D1*
X1698500D1*
Y446500D1*
X1716981D1*
X1717102Y465089D1*
X1717912Y470204D1*
X1719512Y475129D1*
X1721863Y479742D1*
X1724907Y483932D1*
X1737855Y497024D1*
X1733568Y503889D1*
X1730776Y510631D1*
X1729072Y517726D1*
X1728500Y525000D1*
X1729072Y532274D1*
X1730776Y539369D1*
X1733568Y546111D1*
X1737381Y552332D1*
X1742120Y557880D1*
X1747668Y562619D1*
X1753889Y566432D1*
X1760631Y569224D1*
X1767726Y570928D1*
X1775000Y571500D1*
X1782274Y570928D1*
X1789369Y569224D1*
X1796111Y566432D1*
X1802332Y562619D1*
X1807880Y557880D1*
X1812619Y552332D1*
X1816432Y546111D1*
X1819224Y539369D1*
X1820928Y532274D1*
X1821500Y525000D1*
X1820928Y517726D1*
X1819224Y510631D1*
X1816432Y503889D1*
X1812134Y497052D1*
X1842003Y467166D1*
X1842000Y492256D1*
X1837381Y497668D1*
X1833568Y503889D1*
X1830776Y510631D1*
X1829072Y517726D1*
X1828500Y525000D1*
X1829072Y532274D1*
X1830776Y539369D1*
X1833568Y546111D1*
X1837381Y552332D1*
X1842120Y557880D1*
X1847668Y562619D1*
X1853889Y566432D1*
X1860631Y569224D1*
X1867726Y570928D1*
X1875000Y571500D1*
X1882274Y570928D1*
X1889369Y569224D1*
X1896111Y566432D1*
X1902332Y562619D1*
X1907880Y557880D1*
X1912619Y552332D1*
X1916432Y546111D1*
X1919224Y539369D1*
X1920928Y532274D1*
X1921335Y528832D1*
X1928256Y528872D1*
X1934688Y527853D1*
X1940881Y525841D1*
X1946684Y522885D1*
X1951952Y519057D1*
X1956557Y514452D1*
X1960385Y509184D1*
X1963341Y503381D1*
X1965353Y497188D1*
X1966098Y493069D1*
X1976170Y482999D1*
X2587351Y483000D1*
X2593659Y486977D1*
X2599676Y489469D1*
X2606008Y490989D1*
X2612500Y491500D1*
X2618992Y490989D1*
X2625324Y489469D1*
X2631341Y486977D1*
X2636893Y483574D1*
X2641845Y479345D1*
X2646074Y474393D1*
X2649477Y468841D1*
X2651969Y462824D1*
X2653489Y456492D1*
X2654000Y450000D1*
X2653489Y443508D1*
X2651969Y437176D1*
X2650324Y432997D1*
X2686349Y433000D1*
X2784885Y531555D1*
X2780943Y535548D1*
X2777115Y540816D1*
X2774159Y546619D1*
X2772765Y550619D1*
X2769127Y551000D1*
X2434636Y551112D1*
X2428979Y552008D1*
X2423532Y553778D1*
X2418429Y556379D1*
X2413795Y559745D1*
X2397405Y575976D1*
X1659636Y576112D1*
X1653968Y577011D1*
X1642839Y566220D1*
X1561516Y484897D1*
X1561500Y416282D1*
X1564648Y411796D1*
X1567960Y405295D1*
X1570215Y398355D1*
X1571357Y391148D1*
Y383852D1*
X1570215Y376645D1*
X1567960Y369705D1*
X1564648Y363204D1*
X1560359Y357301D1*
X1555199Y352141D1*
X1549296Y347852D1*
X1542795Y344540D1*
X1535855Y342285D1*
X1528648Y341143D1*
X1521352D1*
X1516509Y341815D1*
X1516500Y308494D1*
X1519224Y301869D1*
X1520928Y294774D1*
X1521500Y287500D1*
X1520928Y280226D1*
X1519224Y273131D1*
X1516432Y266389D1*
X1512619Y260168D1*
X1507880Y254620D1*
X1502332Y249881D1*
X1496111Y246068D1*
X1489369Y243276D1*
X1482274Y241572D1*
X1475000Y241000D1*
X1467726Y241572D1*
X1460631Y243276D1*
X1454032Y246003D1*
X1437716Y246000D1*
X1437749Y236000D1*
X1234750D1*
Y339000D1*
X1433514D1*
X1433500Y345309D1*
X1170322Y608488D1*
X1145982Y608500D1*
X1139369Y605776D1*
X1132274Y604072D1*
X1125000Y603500D1*
X1117141D1*
X1110914Y601021D1*
X1103056Y599134D1*
X1095000Y598500D1*
X916305D1*
X901500Y583668D1*
Y526521D1*
X1087751Y526500D1*
Y423500D1*
X870959Y423659D1*
X862978Y424923D1*
X855292Y427420D1*
X848091Y431089D1*
X841553Y435839D1*
X819097Y458071D1*
X810839Y466553D1*
X806089Y473091D1*
X802420Y480292D1*
X799923Y487978D1*
X798659Y495959D1*
X798500Y527559D1*
Y598502D1*
X762480Y598500D1*
X762500Y143177D1*
X854722Y62478D1*
X5237522Y62500D1*
X5237500Y361008D1*
X5073500Y361000D1*
Y381461D1*
X5067643Y377212D1*
X5061190Y373706D1*
X5054337Y371067D1*
X5047199Y369339D1*
X5039898Y368551D1*
X5032556Y368717D1*
X5025297Y369834D1*
X5018245Y371882D1*
X5011518Y374829D1*
X5005230Y378622D1*
X4999487Y383200D1*
X4994386Y388484D1*
X4990014Y394384D1*
X4986444Y400802D1*
X4983737Y407629D1*
X4981938Y414749D1*
X4981077Y422042D1*
X4981170Y429385D1*
X4982215Y436655D1*
X4984194Y443727D1*
X4987073Y450483D1*
X4990804Y456808D1*
X4995324Y462596D1*
X5000557Y467749D1*
X5006414Y472180D1*
X5011189Y474999D1*
X5005230Y478622D1*
X4999487Y483200D1*
X4994386Y488484D1*
X4990014Y494384D1*
X4986444Y500802D1*
X4983737Y507629D1*
X4981938Y514749D1*
X4981077Y522042D1*
X4981170Y529385D1*
X4982215Y536655D1*
X4984194Y543727D1*
X4987073Y550483D1*
X4990804Y556808D1*
X4995324Y562596D1*
X5000557Y567749D1*
X5006414Y572180D1*
X5012796Y575813D1*
X5019596Y578588D1*
X5026698Y580458D1*
X5033982Y581390D1*
X5041326Y581370D1*
X5048605Y580398D1*
X5055697Y578490D1*
X5062481Y575677D1*
X5068843Y572009D1*
X5073500Y568612D1*
Y589000D1*
X5237498D1*
X5237500Y910969D1*
X5073500Y911000D1*
Y931490D1*
X5067021Y926826D1*
X5059122Y922801D1*
X5050690Y920061D1*
X5041933Y918674D1*
X5033067D1*
X5024310Y920061D1*
X5015878Y922801D1*
X5007979Y926826D1*
X5000806Y932037D1*
X4994537Y938306D1*
X4989326Y945479D1*
X4985301Y953378D1*
X4982561Y961810D1*
X4981174Y970567D1*
Y979433D1*
X4982561Y988190D1*
X4985301Y996622D1*
X4989326Y1004521D1*
X4994537Y1011694D1*
X5000806Y1017963D1*
X5006956Y1022491D1*
X4959237Y1022500D1*
X4927504Y990757D1*
X4927500Y829024D1*
X4946500Y829000D1*
Y646000D1*
X4803500D1*
Y829000D1*
X4822483D1*
X4822662Y1016619D1*
X4823951Y1024756D1*
X4826496Y1032591D1*
X4830236Y1039931D1*
X4835079Y1046596D1*
X4857364Y1069110D1*
X4903404Y1114921D1*
X4910069Y1119764D1*
X4917409Y1123504D1*
X4925244Y1126050D1*
X4933381Y1127338D1*
X4965059Y1127500D1*
X5016625D1*
X5024310Y1129939D1*
X5033067Y1131326D1*
X5041933D1*
X5050690Y1129939D1*
X5059122Y1127199D1*
X5067021Y1123174D1*
X5073500Y1118510D1*
Y1139000D1*
X5237527D1*
X5237500Y1437534D1*
X855164Y1437500D1*
X762494Y1344816D1*
X762500Y892266D1*
X767963Y886694D1*
X773174Y879521D1*
X777199Y871622D1*
X779939Y863190D1*
X781326Y854433D1*
Y845567D1*
X779939Y836810D1*
X777199Y828378D1*
X773174Y820479D1*
X767963Y813306D1*
X762496Y807778D1*
X762500Y792293D1*
X767963Y786694D1*
X773174Y779521D1*
X777199Y771622D1*
X779939Y763190D1*
X781326Y754433D1*
Y745567D1*
X779939Y736810D1*
X777199Y728378D1*
X773174Y720479D1*
X767963Y713306D1*
X762496Y707778D1*
X762500Y701506D1*
X1095000Y701500D1*
X1103056Y700866D1*
X1110914Y698979D1*
X1117046Y696502D1*
X1128648Y696357D1*
X1135855Y695215D1*
X1142808Y692954D1*
X1152559Y691500D1*
X1190756Y691372D1*
X1197188Y690353D1*
X1203381Y688341D1*
X1209184Y685385D1*
X1214452Y681557D1*
X1242828Y653362D1*
X1484972Y411218D1*
X1488502Y416254D1*
X1488612Y502864D1*
X1489508Y508521D1*
X1491278Y513968D1*
X1493879Y519071D1*
X1497245Y523705D1*
X1531669Y558288D1*
X1616342Y642961D1*
X1617285Y648355D1*
X1619540Y655295D1*
X1622852Y661796D1*
X1627141Y667699D1*
X1632301Y672859D1*
X1638204Y677148D1*
X1644705Y680460D1*
X1651645Y682715D1*
X1658852Y683857D1*
X1666148D1*
X1673355Y682715D1*
X1680295Y680460D1*
X1686796Y677148D1*
X1692699Y672859D1*
X1697859Y667699D1*
X1702148Y661796D1*
X1705460Y655295D1*
X1707533Y649000D1*
X2385746D1*
X2385852Y796340D1*
X2386662Y801454D1*
X2388263Y806379D1*
X2390613Y810993D1*
X2393657Y815182D1*
X2397065Y818735D1*
X2392318Y823512D1*
X2191000Y823500D1*
Y833512D1*
X2179715Y833500D1*
X2110166Y763976D1*
X2246500Y764000D1*
Y661000D1*
X2043500D1*
Y671011D1*
X2020947Y671000D1*
X2014369Y668276D1*
X2007274Y666572D1*
X2000000Y666000D1*
X1992726Y666572D1*
X1985631Y668276D1*
X1978889Y671068D1*
X1972668Y674881D1*
X1967120Y679620D1*
X1962381Y685168D1*
X1958568Y691389D1*
X1955776Y698131D1*
X1954072Y705226D1*
X1953500Y712500D1*
X1954072Y719774D1*
X1955776Y726869D1*
X1958568Y733611D1*
X1962381Y739832D1*
X1967120Y745380D1*
X1972668Y750119D1*
X1978889Y753932D1*
X1985484Y756670D1*
X2135548Y906557D1*
X2140816Y910385D1*
X2146631Y913345D1*
X2126247Y913500D1*
X1315085D1*
X1296198Y894579D1*
X1295215Y889145D1*
X1292960Y882205D1*
X1289648Y875704D1*
X1285359Y869801D1*
X1280199Y864641D1*
X1274296Y860352D1*
X1267795Y857040D1*
X1260855Y854785D1*
X1253648Y853643D1*
X1246352D1*
X1239145Y854785D1*
X1232205Y857040D1*
X1225704Y860352D1*
X1219801Y864641D1*
X1214641Y869801D1*
X1210352Y875704D1*
X1207040Y882205D1*
X1204785Y889145D1*
X1203643Y896352D1*
Y903648D1*
X1204785Y910855D1*
X1207040Y917795D1*
X1210352Y924296D1*
X1214641Y930199D1*
X1219801Y935359D1*
X1225704Y939648D1*
X1232205Y942960D1*
X1239145Y945215D1*
X1244525Y946140D1*
X1276295Y977755D1*
X1280929Y981122D1*
X1286032Y983722D1*
X1291479Y985492D1*
X1297136Y986388D1*
X1345932Y986500D1*
X3018027D1*
X3016572Y992726D1*
X3016000Y1000000D1*
X3016572Y1007274D1*
X3018276Y1014369D1*
X3021068Y1021111D1*
X3024881Y1027332D1*
X3029620Y1032880D1*
X3035168Y1037619D1*
X3041389Y1041432D1*
X3048131Y1044224D1*
X3055226Y1045928D1*
X3062315Y1046493D1*
X3068103Y1051698D1*
X3072518Y1054403D1*
X3077302Y1056385D1*
X3082338Y1057594D1*
X3087500Y1058000D1*
X3298822D1*
X3317001Y1076170D1*
X3317000Y1086004D1*
X3203500Y1086000D1*
Y1105987D1*
X3126952Y1105943D1*
X3121684Y1102115D1*
X3115881Y1099159D1*
X3109688Y1097147D1*
X3103256Y1096128D1*
X3096744D1*
X3090312Y1097147D1*
X3084119Y1099159D1*
X3078316Y1102115D1*
X3073048Y1105943D1*
X3068443Y1110548D1*
X3064615Y1115816D1*
X3061659Y1121619D1*
X3059647Y1127812D1*
X3058628Y1134244D1*
Y1140756D1*
X3059647Y1147188D1*
X3061659Y1153381D1*
X3064615Y1159184D1*
X3068443Y1164452D1*
X3073048Y1169057D1*
X3078316Y1172885D1*
X3084119Y1175841D1*
X3090312Y1177853D1*
X3096744Y1178872D1*
X3103256D1*
X3109688Y1177853D1*
X3115881Y1175841D1*
X3121684Y1172885D1*
X3127018Y1168996D1*
X3203526Y1169000D1*
X3203500Y1189000D1*
X3318512D1*
X3318500Y1260977D1*
X3203500Y1261000D1*
Y1364000D1*
X3302686D1*
X4805337Y579000D2*
X4946500D1*
Y396000D1*
X4803500D1*
Y579000D1*
X4805337D1*
X4102687Y364000D2*
X4206500D1*
Y353988D1*
X4291491Y354000D1*
X4298131Y356724D1*
X4305226Y358428D1*
X4312500Y359000D1*
X4319774Y358428D1*
X4326869Y356724D1*
X4333611Y353932D1*
X4339832Y350119D1*
X4345380Y345380D1*
X4350119Y339832D1*
X4353932Y333611D1*
X4356724Y326869D1*
X4358428Y319774D1*
X4359000Y312500D1*
X4358428Y305226D1*
X4356724Y298131D1*
X4353932Y291389D1*
X4350119Y285168D1*
X4345380Y279620D1*
X4339832Y274881D1*
X4333611Y271068D1*
X4326869Y268276D1*
X4319774Y266572D1*
X4312500Y266000D1*
X4305226Y266572D1*
X4298131Y268276D1*
X4291532Y271003D1*
X4206534Y271000D1*
X4206500Y261000D1*
X4003500D1*
Y364000D1*
X4102687D1*
X3046318Y1245371D2*
X3044870Y1236227D1*
X3042009Y1227422D1*
X3037806Y1219173D1*
X3032364Y1211683D1*
X3025817Y1205136D1*
X3018327Y1199694D1*
X3010078Y1195491D1*
X3001273Y1192630D1*
X2992129Y1191182D1*
X2982871D1*
X2973727Y1192630D1*
X2964922Y1195491D1*
X2956673Y1199694D1*
X2949183Y1205136D1*
X2942636Y1211683D1*
X2937506Y1218706D1*
X2932364Y1211683D1*
X2925817Y1205136D1*
X2918327Y1199694D1*
X2910078Y1195491D1*
X2901273Y1192630D1*
X2892129Y1191182D1*
X2882871D1*
X2873727Y1192630D1*
X2864922Y1195491D1*
X2856673Y1199694D1*
X2849183Y1205136D1*
X2842636Y1211683D1*
X2837506Y1218706D1*
X2833188Y1212668D1*
X2828196Y1207282D1*
X2822573Y1202557D1*
X2816407Y1198567D1*
X2809793Y1195374D1*
X2802834Y1193027D1*
X2795637Y1191564D1*
X2788313Y1191006D1*
X2780978Y1191362D1*
X2773743Y1192626D1*
X2766722Y1194780D1*
X2760022Y1197789D1*
X2753748Y1201608D1*
X2747998Y1206176D1*
X2742859Y1211423D1*
X2738412Y1217268D1*
X2734726Y1223620D1*
X2731857Y1230381D1*
X2729851Y1237446D1*
X2728738Y1244706D1*
X2728536Y1252047D1*
X2729247Y1259357D1*
X2730861Y1266522D1*
X2733352Y1273431D1*
X2736683Y1279976D1*
X2740800Y1286058D1*
X2745642Y1291580D1*
X2751132Y1296458D1*
X2756180Y1299993D1*
X2749183Y1305136D1*
X2742636Y1311683D1*
X2737194Y1319173D1*
X2732991Y1327422D1*
X2730130Y1336227D1*
X2728682Y1345371D1*
Y1354629D1*
X2730130Y1363773D1*
X2732991Y1372578D1*
X2737194Y1380827D1*
X2742636Y1388317D1*
X2749183Y1394864D1*
X2756673Y1400306D1*
X2764922Y1404509D1*
X2773727Y1407370D1*
X2782871Y1408818D1*
X2792129D1*
X2801273Y1407370D1*
X2810078Y1404509D1*
X2818327Y1400306D1*
X2825817Y1394864D1*
X2832364Y1388317D1*
X2837494Y1381294D1*
X2842636Y1388317D1*
X2849183Y1394864D1*
X2856673Y1400306D1*
X2864922Y1404509D1*
X2873727Y1407370D1*
X2882871Y1408818D1*
X2892129D1*
X2901273Y1407370D1*
X2910078Y1404509D1*
X2918327Y1400306D1*
X2925817Y1394864D1*
X2928488Y1392395D1*
X2928500Y1409000D1*
X3046500D1*
Y1291000D1*
X3029958D1*
X3035232Y1284679D1*
X3040069Y1276785D1*
X3043612Y1268232D1*
X3045774Y1259230D1*
X3046500Y1250000D1*
X3046318Y1245371D1*
X2856206Y1300006D2*
X2849183Y1305136D1*
X2842636Y1311683D1*
X2837506Y1318706D1*
X2832364Y1311683D1*
X2825817Y1305136D1*
X2818794Y1300006D1*
X2824363Y1296067D1*
X2829800Y1291130D1*
X2834582Y1285556D1*
X2837497Y1281317D1*
X2842636Y1288317D1*
X2849183Y1294864D1*
X2856206Y1299994D1*
X5076125Y750712D2*
X5135384D1*
X5126604Y752993D1*
X5121026Y755051D1*
X5115627Y757540D1*
X5110440Y760444D1*
X5105497Y763747D1*
X5100829Y767428D1*
X5096463Y771463D1*
X5092428Y775829D1*
X5088747Y780497D1*
X5085444Y785440D1*
X5082540Y790627D1*
X5080051Y796026D1*
X5077993Y801604D1*
X5076379Y807325D1*
X5075220Y813156D1*
X5074521Y819060D1*
X5074287Y825000D1*
X5074521Y830940D1*
X5075220Y836844D1*
X5076379Y842675D1*
X5077993Y848396D1*
X5080051Y853974D1*
X5082540Y859373D1*
X5085444Y864560D1*
X5088747Y869503D1*
X5092428Y874171D1*
X5096463Y878537D1*
X5100829Y882572D1*
X5105497Y886253D1*
X5110440Y889556D1*
X5115627Y892460D1*
X5121026Y894949D1*
X5126604Y897007D1*
X5132325Y898621D1*
X5138156Y899780D1*
X5144060Y900479D1*
X5150000Y900713D1*
X5155940Y900479D1*
X5161844Y899780D1*
X5167675Y898621D1*
X5173396Y897007D1*
X5178974Y894949D1*
X5184373Y892460D1*
X5189560Y889556D1*
X5194503Y886253D1*
X5199171Y882572D1*
X5203537Y878537D1*
X5207572Y874171D1*
X5211253Y869503D1*
X5214556Y864560D1*
X5217460Y859373D1*
X5219949Y853974D1*
X5222007Y848396D1*
X5223621Y842675D1*
X5224780Y836844D1*
X5225479Y830940D1*
X5225713Y825000D1*
X5225479Y819060D1*
X5224780Y813156D1*
X5223621Y807325D1*
X5222007Y801604D1*
X5219949Y796026D1*
X5217460Y790627D1*
X5214556Y785440D1*
X5211253Y780497D1*
X5207572Y775829D1*
X5203537Y771463D1*
X5199171Y767428D1*
X5194503Y763747D1*
X5189560Y760444D1*
X5184373Y757540D1*
X5178974Y755051D1*
X5173396Y752993D1*
X5164327Y750713D1*
X5225713Y750712D1*
Y599287D1*
X5074288D1*
Y750712D1*
X5076125D1*
X3971357Y1246352D2*
X3970215Y1239145D1*
X3967960Y1232205D1*
X3964648Y1225704D1*
X3960359Y1219801D1*
X3955199Y1214641D1*
X3949296Y1210352D1*
X3942795Y1207040D1*
X3935855Y1204785D1*
X3928648Y1203643D1*
X3921352D1*
X3914145Y1204785D1*
X3907205Y1207040D1*
X3900704Y1210352D1*
X3894801Y1214641D1*
X3889641Y1219801D1*
X3885352Y1225704D1*
X3882040Y1232205D1*
X3879785Y1239145D1*
X3878643Y1246352D1*
Y1253648D1*
X3879785Y1260855D1*
X3882040Y1267795D1*
X3885352Y1274296D1*
X3889641Y1280199D1*
X3894801Y1285359D1*
X3900704Y1289648D1*
X3907205Y1292960D1*
X3914145Y1295215D1*
X3921352Y1296357D1*
X3928648D1*
X3935855Y1295215D1*
X3942795Y1292960D1*
X3949296Y1289648D1*
X3955199Y1285359D1*
X3960359Y1280199D1*
X3964648Y1274296D1*
X3967960Y1267795D1*
X3970215Y1260855D1*
X3971357Y1253648D1*
Y1246352D1*
X2057323Y1195489D2*
X2055911Y1186577D1*
X2053123Y1177996D1*
X2049027Y1169956D1*
X2043723Y1162657D1*
X2037343Y1156277D1*
X2030044Y1150973D1*
X2022004Y1146877D1*
X2013423Y1144089D1*
X2004511Y1142677D1*
X1995489D1*
X1986577Y1144089D1*
X1977996Y1146877D1*
X1969956Y1150973D1*
X1962657Y1156277D1*
X1956277Y1162657D1*
X1950973Y1169956D1*
X1946877Y1177996D1*
X1944089Y1186577D1*
X1942677Y1195489D1*
Y1204511D1*
X1944089Y1213423D1*
X1946877Y1222004D1*
X1950973Y1230044D1*
X1956277Y1237343D1*
X1962657Y1243723D1*
X1969956Y1249027D1*
X1977996Y1253123D1*
X1986577Y1255911D1*
X1995489Y1257323D1*
X2004511D1*
X2013423Y1255911D1*
X2022004Y1253123D1*
X2030044Y1249027D1*
X2037343Y1243723D1*
X2043723Y1237343D1*
X2049027Y1230044D1*
X2053123Y1222004D1*
X2055911Y1213423D1*
X2057323Y1204511D1*
Y1195489D1*
X1857471Y1198163D2*
X1856768Y1190853D1*
X1855139Y1183692D1*
X1852610Y1176796D1*
X1849224Y1170280D1*
X1845034Y1164248D1*
X1840110Y1158800D1*
X1834531Y1154023D1*
X1828389Y1149997D1*
X1821784Y1146786D1*
X1814823Y1144444D1*
X1807621Y1143007D1*
X1800295Y1142501D1*
X1792963Y1142932D1*
X1785747Y1144295D1*
X1778762Y1146566D1*
X1772125Y1149709D1*
X1765942Y1153672D1*
X1760315Y1158391D1*
X1755335Y1163789D1*
X1751083Y1169777D1*
X1747630Y1176259D1*
X1745031Y1183128D1*
X1743329Y1190272D1*
X1742551Y1197574D1*
X1742711Y1204917D1*
X1743805Y1212179D1*
X1745815Y1219242D1*
X1748710Y1225992D1*
X1752441Y1232317D1*
X1756948Y1238116D1*
X1762158Y1243292D1*
X1767985Y1247763D1*
X1774334Y1251454D1*
X1781102Y1254306D1*
X1788178Y1256272D1*
X1795447Y1257319D1*
X1802790Y1257432D1*
X1810088Y1256608D1*
X1817221Y1254861D1*
X1824073Y1252218D1*
X1830532Y1248724D1*
X1836494Y1244435D1*
X1841860Y1239421D1*
X1846543Y1233764D1*
X1850467Y1227556D1*
X1853568Y1220898D1*
X1855795Y1213900D1*
X1857111Y1206675D1*
X1857500Y1200000D1*
X1857471Y1198163D1*
X1957323Y1095489D2*
X1955911Y1086577D1*
X1953123Y1077996D1*
X1949027Y1069956D1*
X1943723Y1062657D1*
X1937343Y1056277D1*
X1930044Y1050973D1*
X1922004Y1046877D1*
X1913423Y1044089D1*
X1904511Y1042677D1*
X1895489D1*
X1886577Y1044089D1*
X1877996Y1046877D1*
X1869956Y1050973D1*
X1862657Y1056277D1*
X1856277Y1062657D1*
X1850973Y1069956D1*
X1846877Y1077996D1*
X1844089Y1086577D1*
X1842677Y1095489D1*
Y1104511D1*
X1844089Y1113423D1*
X1846877Y1122004D1*
X1850973Y1130044D1*
X1856277Y1137343D1*
X1862657Y1143723D1*
X1869956Y1149027D1*
X1877996Y1153123D1*
X1886577Y1155911D1*
X1895489Y1157323D1*
X1904511D1*
X1913423Y1155911D1*
X1922004Y1153123D1*
X1930044Y1149027D1*
X1937343Y1143723D1*
X1943723Y1137343D1*
X1949027Y1130044D1*
X1953123Y1122004D1*
X1955911Y1113423D1*
X1957323Y1104511D1*
Y1095489D1*
X1557323Y1195489D2*
X1555911Y1186577D1*
X1553123Y1177996D1*
X1549027Y1169956D1*
X1543723Y1162657D1*
X1537343Y1156277D1*
X1530044Y1150973D1*
X1522004Y1146877D1*
X1513423Y1144089D1*
X1504511Y1142677D1*
X1495489D1*
X1486577Y1144089D1*
X1477996Y1146877D1*
X1469956Y1150973D1*
X1462657Y1156277D1*
X1456277Y1162657D1*
X1450973Y1169956D1*
X1446877Y1177996D1*
X1444089Y1186577D1*
X1442677Y1195489D1*
Y1204511D1*
X1444089Y1213423D1*
X1446877Y1222004D1*
X1450973Y1230044D1*
X1456277Y1237343D1*
X1462657Y1243723D1*
X1469956Y1249027D1*
X1477996Y1253123D1*
X1486577Y1255911D1*
X1495489Y1257323D1*
X1504511D1*
X1513423Y1255911D1*
X1522004Y1253123D1*
X1530044Y1249027D1*
X1537343Y1243723D1*
X1543723Y1237343D1*
X1549027Y1230044D1*
X1553123Y1222004D1*
X1555911Y1213423D1*
X1557323Y1204511D1*
Y1195489D1*
X1357471Y1198163D2*
X1356768Y1190853D1*
X1355139Y1183692D1*
X1352610Y1176796D1*
X1349224Y1170280D1*
X1345034Y1164248D1*
X1340110Y1158800D1*
X1334531Y1154023D1*
X1328389Y1149997D1*
X1321784Y1146786D1*
X1314823Y1144444D1*
X1307621Y1143007D1*
X1300295Y1142501D1*
X1292963Y1142932D1*
X1285747Y1144295D1*
X1278762Y1146566D1*
X1272125Y1149709D1*
X1265942Y1153672D1*
X1260315Y1158391D1*
X1255335Y1163789D1*
X1251083Y1169777D1*
X1247630Y1176259D1*
X1245031Y1183128D1*
X1243329Y1190272D1*
X1242551Y1197574D1*
X1242711Y1204917D1*
X1243805Y1212179D1*
X1245815Y1219242D1*
X1248710Y1225992D1*
X1252441Y1232317D1*
X1256948Y1238116D1*
X1262158Y1243292D1*
X1267985Y1247763D1*
X1274334Y1251454D1*
X1281102Y1254306D1*
X1288178Y1256272D1*
X1295447Y1257319D1*
X1302790Y1257432D1*
X1310088Y1256608D1*
X1317221Y1254861D1*
X1324073Y1252218D1*
X1330532Y1248724D1*
X1336494Y1244435D1*
X1341860Y1239421D1*
X1346543Y1233764D1*
X1350467Y1227556D1*
X1353568Y1220898D1*
X1355795Y1213900D1*
X1357111Y1206675D1*
X1357500Y1200000D1*
X1357471Y1198163D1*
X1457323Y1095489D2*
X1455911Y1086577D1*
X1453123Y1077996D1*
X1449027Y1069956D1*
X1443723Y1062657D1*
X1437343Y1056277D1*
X1430044Y1050973D1*
X1422004Y1046877D1*
X1413423Y1044089D1*
X1404511Y1042677D1*
X1395489D1*
X1386577Y1044089D1*
X1377996Y1046877D1*
X1369956Y1050973D1*
X1362657Y1056277D1*
X1356277Y1062657D1*
X1350973Y1069956D1*
X1346877Y1077996D1*
X1344089Y1086577D1*
X1342677Y1095489D1*
Y1104511D1*
X1344089Y1113423D1*
X1346877Y1122004D1*
X1350973Y1130044D1*
X1356277Y1137343D1*
X1362657Y1143723D1*
X1369956Y1149027D1*
X1377996Y1153123D1*
X1386577Y1155911D1*
X1395489Y1157323D1*
X1404511D1*
X1413423Y1155911D1*
X1422004Y1153123D1*
X1430044Y1149027D1*
X1437343Y1143723D1*
X1443723Y1137343D1*
X1449027Y1130044D1*
X1453123Y1122004D1*
X1455911Y1113423D1*
X1457323Y1104511D1*
Y1095489D1*
X1916969Y248500D2*
X1893500D1*
Y267626D1*
X1887371Y269512D1*
X1882757Y271863D1*
X1878568Y274907D1*
X1858016Y295315D1*
X1858000Y263641D1*
X1875093Y246432D1*
X1878137Y242242D1*
X1880488Y237629D1*
X1882088Y232704D1*
X1882898Y227589D1*
X1883000Y201496D1*
X1906500Y201464D1*
X1907000Y205118D1*
X1907102Y217589D1*
X1907912Y222704D1*
X1909512Y227629D1*
X1911863Y232242D1*
X1914907Y236432D1*
X1917001Y238671D1*
X1917000Y248504D1*
X4402687Y451500D2*
X4596500D1*
Y438976D1*
X4615560Y438880D1*
X4621604Y437923D1*
X4627425Y436031D1*
X4632878Y433253D1*
X4637829Y429656D1*
X4652577Y415077D1*
X4656552Y410424D1*
X4659749Y405206D1*
X4662091Y399552D1*
X4663520Y393601D1*
X4664000Y387500D1*
Y322586D1*
X4668487Y318487D1*
X4674755Y311149D1*
X4679797Y302920D1*
X4683490Y294005D1*
X4685743Y284621D1*
X4686500Y275000D1*
X4685743Y265379D1*
X4683490Y255995D1*
X4679797Y247080D1*
X4674755Y238851D1*
X4668487Y231513D1*
X4661149Y225245D1*
X4652920Y220203D1*
X4644005Y216510D1*
X4634621Y214257D1*
X4625000Y213500D1*
X4615379Y214257D1*
X4605995Y216510D1*
X4597080Y220203D1*
X4588851Y225245D1*
X4581513Y231513D1*
X4575245Y238851D1*
X4570203Y247080D1*
X4566510Y255995D1*
X4564257Y265379D1*
X4563500Y275000D1*
X4564257Y284621D1*
X4566510Y294005D1*
X4570203Y302920D1*
X4575245Y311149D1*
X4581513Y318487D1*
X4585992Y322501D1*
X4586000Y348527D1*
X4393500Y348500D1*
Y361023D1*
X4371940Y361120D1*
X4365896Y362077D1*
X4360075Y363969D1*
X4354622Y366747D1*
X4349671Y370344D1*
X4314944Y404901D1*
X4302841Y417005D1*
X4294705Y419540D1*
X4288204Y422852D1*
X4282301Y427141D1*
X4277141Y432301D1*
X4272852Y438204D1*
X4269540Y444705D1*
X4267285Y451645D1*
X4266143Y458852D1*
Y466148D1*
X4267285Y473355D1*
X4269540Y480295D1*
X4272852Y486796D1*
X4277141Y492699D1*
X4282301Y497859D1*
X4288204Y502148D1*
X4294705Y505460D1*
X4301645Y507715D1*
X4308852Y508857D1*
X4316148D1*
X4323355Y507715D1*
X4330295Y505460D1*
X4336796Y502148D1*
X4342699Y497859D1*
X4347859Y492699D1*
X4352148Y486796D1*
X4355460Y480295D1*
X4357715Y473355D1*
X4357941Y472222D1*
X4391155Y438999D1*
X4393480Y439000D1*
X4393500Y451500D1*
X4402687D1*
X4686310Y570175D2*
X4684801Y560643D1*
X4681819Y551465D1*
X4677437Y542866D1*
X4671765Y535059D1*
X4664941Y528235D1*
X4657134Y522563D1*
X4648535Y518181D1*
X4639357Y515199D1*
X4629825Y513690D1*
X4620175D1*
X4610643Y515199D1*
X4601465Y518181D1*
X4592866Y522563D1*
X4585059Y528235D1*
X4578235Y535059D1*
X4572563Y542866D1*
X4568181Y551465D1*
X4565199Y560643D1*
X4563690Y570175D1*
Y579825D1*
X4565199Y589357D1*
X4568181Y598535D1*
X4572563Y607134D1*
X4578235Y614941D1*
X4585059Y621765D1*
X4592866Y627437D1*
X4601465Y631819D1*
X4610643Y634801D1*
X4620175Y636310D1*
X4629825D1*
X4639357Y634801D1*
X4648535Y631819D1*
X4657134Y627437D1*
X4664941Y621765D1*
X4671765Y614941D1*
X4677437Y607134D1*
X4681819Y598535D1*
X4684801Y589357D1*
X4686310Y579825D1*
Y570175D1*
X3767804Y636498D2*
X3771619Y638341D1*
X3777812Y640353D1*
X3784244Y641372D1*
X3790756D1*
X3797188Y640353D1*
X3803381Y638341D1*
X3809184Y635385D1*
X3811883Y633581D1*
X3809647Y640312D1*
X3809311Y641997D1*
X3744009Y642000D1*
X3751804Y636500D1*
X3767773D1*
X1600123Y92001D2*
X1596684Y89615D1*
X1590881Y86659D1*
X1584688Y84647D1*
X1578256Y83628D1*
X1571744D1*
X1565312Y84647D1*
X1559119Y86659D1*
X1553316Y89615D1*
X1548048Y93443D1*
X1543443Y98048D1*
X1539615Y103316D1*
X1536659Y109119D1*
X1534647Y115312D1*
X1533628Y121744D1*
Y128256D1*
X1534647Y134688D1*
X1536659Y140881D1*
X1539615Y146684D1*
X1543443Y151952D1*
X1548048Y156557D1*
X1553316Y160385D1*
X1559119Y163341D1*
X1565312Y165353D1*
X1571744Y166372D1*
X1578256D1*
X1584688Y165353D1*
X1590881Y163341D1*
X1596684Y160385D1*
X1600123Y157999D1*
X1611351Y158000D1*
X1658884Y205553D1*
X1660531Y212824D1*
X1663023Y218841D1*
X1666426Y224393D1*
X1670655Y229345D1*
X1675607Y233574D1*
X1681159Y236977D1*
X1687176Y239469D1*
X1693508Y240989D1*
X1700000Y241500D1*
X1706492Y240989D1*
X1712824Y239469D1*
X1718841Y236977D1*
X1724393Y233574D1*
X1729345Y229345D1*
X1733574Y224393D1*
X1736977Y218841D1*
X1739469Y212824D1*
X1740989Y206492D1*
X1741500Y200000D1*
X1740989Y193508D1*
X1739469Y187176D1*
X1736977Y181159D1*
X1733574Y175607D1*
X1729345Y170655D1*
X1724393Y166426D1*
X1718841Y163023D1*
X1712824Y160531D1*
X1705569Y158902D1*
X1646432Y99907D1*
X1642242Y96863D1*
X1637629Y94512D1*
X1632704Y92912D1*
X1627589Y92102D1*
X1600132Y92000D1*
X4081326Y170567D2*
X4079939Y161810D1*
X4077199Y153378D1*
X4073174Y145479D1*
X4067963Y138306D1*
X4061694Y132037D1*
X4054521Y126826D1*
X4046622Y122801D1*
X4038190Y120061D1*
X4029433Y118674D1*
X4020567D1*
X4011810Y120061D1*
X4003378Y122801D1*
X3995479Y126826D1*
X3988306Y132037D1*
X3982037Y138306D1*
X3976826Y145479D1*
X3972801Y153378D1*
X3970061Y161810D1*
X3968674Y170567D1*
Y179433D1*
X3970061Y188190D1*
X3972801Y196622D1*
X3976826Y204521D1*
X3982037Y211694D1*
X3988306Y217963D1*
X3995479Y223174D1*
X4003378Y227199D1*
X4011810Y229939D1*
X4020567Y231326D1*
X4029433D1*
X4038190Y229939D1*
X4046622Y227199D1*
X4054521Y223174D1*
X4061694Y217963D1*
X4067963Y211694D1*
X4073174Y204521D1*
X4077199Y196622D1*
X4079939Y188190D1*
X4081326Y179433D1*
Y170567D1*
X2440000Y1363964D2*
D15*
Y1312500D1*
X2496464D1*
X3260000Y1363964D2*
Y1261036D1*
X3203536Y1312500D2*
X3260000D1*
X4875000Y578964D2*
Y396036D1*
X4803536Y487500D2*
X4946464D1*
X2897500Y901464D2*
Y798536D1*
X2841036Y850000D2*
X2897500D1*
X1291249Y338964D2*
Y236036D1*
X1234785Y287500D2*
X1291249D1*
X4060000Y363964D2*
Y261036D1*
X4003536Y312500D2*
X4060000D1*
X2190000Y763964D2*
Y661036D1*
Y712500D2*
X2246464D1*
X2240000Y201464D2*
Y98536D1*
Y150000D2*
X2296464D1*
X2787500Y1250000D2*
Y1191036D1*
X2728536Y1250000D2*
X2787500D1*
X5037500Y425000D2*
Y368536D1*
X4981036Y425000D2*
X5037500D1*
X5150000Y675000D2*
Y599323D1*
X5074324Y675000D2*
X5225677D1*
X5037500Y581464D2*
Y525000D1*
X4981036D2*
X5037500D1*
X5187500Y588964D2*
Y361036D1*
X1800000Y1257464D2*
Y1142536D1*
X1742536Y1200000D2*
X1857464D1*
X1300000Y1257464D2*
Y1142536D1*
X1242536Y1200000D2*
X1357464D1*
X1750000Y300000D2*
Y243536D1*
X1698536Y300000D2*
X1750000D1*
X1031251Y526464D2*
Y423536D1*
Y475000D2*
X1087715D1*
D31*
X2350000Y1312500D3*
X2440000D3*
X3350000D3*
X3260000D3*
D32*
X4875000Y737500D3*
Y487500D3*
D31*
X2987500Y850000D3*
X2897500D3*
X1381249Y287500D3*
X1291249D3*
X4150000Y312500D3*
X4060000D3*
X2100000Y712500D3*
X2190000D3*
X2150000Y150000D3*
X2240000D3*
D35*
X2987500Y1250000D3*
X2887500Y1350000D3*
X2787500D3*
D36*
X2987500D3*
D35*
X2787500Y1250000D3*
X2887500D3*
D37*
X300000Y750000D3*
X5037500Y1075000D3*
Y425000D3*
D38*
X5150000Y675000D3*
D39*
Y825000D3*
D37*
X5037500Y975000D3*
Y525000D3*
D40*
X3925000Y1250000D3*
X4025000D3*
X4125000D3*
X4225000D3*
X4325000D3*
X4425000D3*
X4525000D3*
X4625000D3*
Y850000D3*
X4525000D3*
X4425000D3*
X4325000D3*
X4225000D3*
X4125000D3*
X4025000D3*
D41*
X3925000D3*
D44*
X5187500Y1025000D3*
Y475000D3*
D31*
X2337500Y1137500D3*
X2247500D3*
X3687500Y225000D3*
X3597500D3*
X2337500Y875000D3*
X2247500D3*
X3687500Y412500D3*
X3597500D3*
D46*
X2000000Y1200000D3*
X1800000D3*
X1900000Y1100000D3*
D31*
X3687500Y600000D3*
X3597500D3*
D46*
X1500000Y1200000D3*
X1300000D3*
X1400000Y1100000D3*
D31*
X1950000Y300000D3*
X2040000D3*
X1850000Y150000D3*
X1940000D3*
X3350000Y1137500D3*
X3260000D3*
D47*
X1750000Y300000D3*
Y390000D3*
D31*
X4450000Y400000D3*
X4540000D3*
X950000Y650000D3*
X1040000D3*
X1031251Y475000D3*
X941251D3*
D49*
X4625000Y275000D3*
Y575000D3*
D37*
X725000Y650000D3*
Y750000D3*
Y850000D3*
M02*
