G04 DipTrace 3.3.0.0*
G04 Bottom.gbr*
%MOIN*%
G04 #@! TF.FileFunction,Copper,L2,Bot*
G04 #@! TF.Part,Single*
G04 #@! TA.AperFunction,Conductor*
%ADD13C,0.013*%
G04 #@! TA.AperFunction,CopperBalancing*
%ADD14C,0.02*%
G04 #@! TA.AperFunction,ViaPad*
%ADD15C,0.04*%
G04 #@! TA.AperFunction,Conductor*
%ADD17C,0.05*%
G04 #@! TA.AperFunction,ViaPad*
%ADD18C,0.03*%
%ADD22C,0.06*%
G04 #@! TA.AperFunction,Conductor*
%ADD23C,0.01*%
G04 #@! TA.AperFunction,CopperBalancing*
%ADD24C,0.025*%
%ADD28R,0.06X0.05*%
%ADD29R,0.05X0.06*%
G04 #@! TA.AperFunction,ComponentPad*
%ADD32C,0.065*%
%ADD33R,0.065X0.065*%
%ADD34C,0.06*%
%ADD35C,0.04*%
%ADD36R,0.04X0.04*%
%ADD39C,0.062*%
%ADD41C,0.07*%
G04 #@! TA.AperFunction,ViaPad*
%ADD47C,0.12*%
%FSLAX26Y26*%
G04*
G70*
G90*
G75*
G01*
G04 Bottom*
%LPD*%
X3250000Y987500D2*
D13*
X4025000D1*
X4062500Y1025000D1*
X4200000D1*
X4250000Y1075000D1*
Y1250000D1*
X4087500Y925000D2*
X4225000D1*
X4250000Y900000D1*
Y850000D1*
X4350000D2*
Y950000D1*
X4325000Y975000D1*
X4087500D1*
X2440000Y1312500D2*
X2587500D1*
X2625000Y1350000D1*
X2687500D1*
X2787500Y1250000D1*
X2687500Y1350000D2*
D3*
X2150000Y150000D2*
D18*
X2100000Y200000D1*
X1475000Y287500D2*
X1381249D1*
X1475000D2*
Y362500D1*
X1187500Y650000D1*
X1125000D1*
X2100000Y200000D2*
Y287500D1*
X2087500Y300000D1*
X2040000D1*
X1040000Y650000D2*
D17*
X1095000D1*
D15*
X1125000D1*
X4100000Y400000D2*
D18*
X4037500D1*
X4000000Y362500D1*
Y300000D1*
X2000000Y712500D2*
X2100000D1*
X5350000Y800000D2*
D17*
Y855000D1*
X5305000Y900000D1*
X5200000D1*
X2137500Y1137500D2*
D14*
X2247500D1*
X3587500Y512500D2*
D18*
Y450000D1*
X3625000Y412500D1*
X3710000D1*
X2247500Y875000D2*
X2162500D1*
X2000000Y712500D1*
X2987500Y850000D2*
X3125000D1*
X3150000Y875000D1*
X3587500Y512500D2*
Y550000D1*
X3637500Y600000D1*
X3710000D1*
X3587500Y450000D2*
Y262500D1*
X3625000Y225000D1*
X3710000D1*
X4050000Y1250000D2*
D13*
X4100000Y1300000D1*
X4700000D1*
X4750000Y1250000D1*
X4700000Y600000D2*
X4550000Y750000D1*
X3087500D1*
X2862500Y525000D1*
Y512500D1*
X4600000Y600000D2*
X4475000Y725000D1*
X3100000D1*
X2912500Y537500D1*
Y512500D1*
X4500000Y600000D2*
X4400000Y700000D1*
X3112500D1*
X2962500Y550000D1*
Y512500D1*
X4400000Y600000D2*
X4325000Y675000D1*
X3125000D1*
X3012500Y562500D1*
Y512500D1*
X3350000Y1312500D2*
D23*
Y1137500D1*
X3062500Y1000000D2*
D13*
X3087500Y1025000D1*
X3312500D1*
X3350000Y1062500D1*
Y1137500D1*
X3100000D2*
D23*
X3260000D1*
X4887500Y400000D2*
D14*
X4400000D1*
X4300000Y300000D1*
X4977500Y400000D2*
X5050000D1*
X5200000Y550000D1*
Y600000D1*
X3800000Y225000D2*
X3900000D1*
Y412500D2*
X3800000D1*
Y600000D2*
X3900000D1*
X1775000Y525000D2*
D13*
Y487500D1*
X1750000Y462500D1*
Y390000D1*
X1850000Y150000D2*
Y225000D1*
X1825000Y250000D1*
Y437500D1*
X1775000Y487500D1*
X1940000Y150000D2*
Y215000D1*
X1950000Y225000D1*
Y300000D1*
X1875000Y525000D2*
Y325000D1*
X1900000Y300000D1*
X1950000D1*
X2612500Y450000D2*
X2337500D1*
X2300000Y487500D1*
X2575000Y400000D2*
X2700000D1*
X2937500Y637500D1*
Y650000D1*
X1575000Y125000D2*
X1625000D1*
X1700000Y200000D1*
X2475000Y662500D2*
X2525000D1*
X2725000Y862500D1*
X2637500Y825000D2*
X2512500Y700000D1*
X950000Y650000D2*
D17*
X895000D1*
X850000Y605000D1*
Y500000D1*
X875000Y475000D1*
X941251D1*
X2812500Y562500D2*
D14*
X2800000Y575000D1*
X1725000D1*
X1662500Y637500D1*
X725000Y650000D2*
D17*
X895000D1*
X1525000Y387500D2*
D14*
Y500000D1*
X1662500Y637500D1*
X3100000Y950000D2*
X1300000D1*
X1250000Y900000D1*
X2350000Y1312500D2*
D23*
Y1285883D1*
Y1150000D1*
X2337500Y1137500D1*
X2425000Y1225000D2*
X2410883D1*
X2350000Y1285883D1*
X2612500Y618751D2*
D13*
X2450000D1*
X2418751Y650000D1*
Y793751D1*
X2450000Y825000D1*
X2337500Y875000D2*
X2387500D1*
X2437500Y825000D1*
X2450000D1*
D15*
X850000Y1025000D3*
X1975000Y525000D3*
X1118751Y475000D3*
X1125000Y650000D3*
X1456249Y475000D3*
X2200000Y75000D3*
X2100000Y200000D3*
D18*
X2862500Y512500D3*
X2912500D3*
X2962500D3*
X3012500D3*
X3900000Y600000D3*
Y412500D3*
Y225000D3*
D15*
X2687500Y1350000D3*
D18*
X2300000Y487500D3*
X2612500Y450000D3*
D15*
X1525000Y387500D3*
X2000000Y712500D3*
D18*
X2575000Y400000D3*
X2812500Y562500D3*
X2937500Y650000D3*
X2475000Y662500D3*
D15*
X4087500Y975000D3*
Y925000D3*
X3250000Y987500D3*
X4750000Y1250000D3*
X1775000Y525000D3*
X1875000D3*
D18*
X2450000Y825000D3*
X2725000Y862500D3*
X3062500Y562500D3*
D22*
X2887500Y737500D3*
X3000000D3*
D18*
X2512500Y700000D3*
X2637500Y825000D3*
D15*
X2450000Y900000D3*
X2425000Y1225000D3*
D18*
X3100000Y1137500D3*
D15*
X1662500Y637500D3*
X1250000Y900000D3*
X3100000Y950000D3*
X2137500Y1137500D3*
D18*
X2612500Y618751D3*
D15*
X3587500Y512500D3*
X3062500Y1000000D3*
X1475000Y287500D3*
D18*
X1575000Y125000D3*
X1700000Y200000D3*
D15*
X3150000Y875000D3*
D47*
X500000Y750000D3*
X100000D3*
D22*
X5000000Y1375000D3*
Y1225000D3*
X5350000Y1075000D3*
Y425000D3*
X100000Y875000D3*
Y625000D3*
X325000Y875000D3*
Y625000D3*
D18*
X2650000Y362500D3*
X1164983Y1412631D2*
D24*
X4955346D1*
X5044638D2*
X5134982D1*
X1164983Y1387762D2*
X2739677D1*
X3049011D2*
X4942463D1*
X5057556D2*
X5134982D1*
X1164983Y1362894D2*
X2291017D1*
X2499014D2*
X2727440D1*
X3049011D2*
X3201004D1*
X3409001D2*
X4942320D1*
X5057700D2*
X5134982D1*
X1164983Y1338025D2*
X2291017D1*
X2499014D2*
X2727225D1*
X3049011D2*
X3201004D1*
X3409001D2*
X4954772D1*
X5045212D2*
X5134982D1*
X1164983Y1313156D2*
X2291017D1*
X2499014D2*
X2738923D1*
X3049011D2*
X3201004D1*
X3409001D2*
X4063983D1*
X4735998D2*
X5134982D1*
X1164983Y1288287D2*
X2291017D1*
X2499014D2*
X2740107D1*
X3034872D2*
X3201004D1*
X3409001D2*
X3921128D1*
X3978877D2*
X4021101D1*
X4778879D2*
X5134982D1*
X1164983Y1263419D2*
X2291017D1*
X2499014D2*
X2727548D1*
X3047467D2*
X3201004D1*
X3409001D2*
X3902970D1*
X4797037D2*
X5134982D1*
X1164983Y1238550D2*
X1254825D1*
X1345158D2*
X1454843D1*
X1545176D2*
X1754835D1*
X1845168D2*
X1954854D1*
X2045150D2*
X2315992D1*
X2471993D2*
X2727117D1*
X3047862D2*
X3316013D1*
X3383989D2*
X3902432D1*
X4797575D2*
X5134982D1*
X1164983Y1213681D2*
X1241655D1*
X1358363D2*
X1441638D1*
X1558346D2*
X1741666D1*
X1858337D2*
X1941648D1*
X2058356D2*
X2315992D1*
X2472603D2*
X2738493D1*
X3036487D2*
X3316013D1*
X3383989D2*
X3918472D1*
X3981533D2*
X4018446D1*
X4081542D2*
X4118455D1*
X4181551D2*
X4214517D1*
X4285508D2*
X4318473D1*
X4381534D2*
X4418447D1*
X4481543D2*
X4518456D1*
X4581552D2*
X4618465D1*
X4681526D2*
X4718474D1*
X4781535D2*
X5134982D1*
X1164983Y1188812D2*
X1241081D1*
X1358901D2*
X1441100D1*
X1558884D2*
X1741092D1*
X1858911D2*
X1941110D1*
X2058894D2*
X2188496D1*
X2456706D2*
X3201004D1*
X3409001D2*
X4214517D1*
X4285508D2*
X5134982D1*
X1164983Y1163944D2*
X1252708D1*
X1347275D2*
X1452726D1*
X1547293D2*
X1752718D1*
X1847285D2*
X1952701D1*
X2047303D2*
X2096740D1*
X2396492D2*
X3065505D1*
X3409001D2*
X4214517D1*
X4285508D2*
X5134982D1*
X1164983Y1139075D2*
X1355301D1*
X1444700D2*
X1855311D1*
X1944675D2*
X2088522D1*
X2396492D2*
X3056032D1*
X3409001D2*
X4214517D1*
X4285508D2*
X5134982D1*
X1164983Y1114206D2*
X1341772D1*
X1458229D2*
X1841783D1*
X1958203D2*
X2094766D1*
X2396492D2*
X3063137D1*
X3409001D2*
X4214517D1*
X4285508D2*
X5134982D1*
X1159026Y1089337D2*
X1340983D1*
X1459018D2*
X1840993D1*
X1958992D2*
X2188496D1*
X2396492D2*
X3201004D1*
X3409001D2*
X4214517D1*
X4285508D2*
X5140975D1*
X765018Y1064469D2*
X1352286D1*
X1447715D2*
X1852297D1*
X1947725D2*
X3302807D1*
X3385497D2*
X4190295D1*
X4283785D2*
X5291975D1*
X765018Y1039600D2*
X3035614D1*
X3376274D2*
X4027919D1*
X4263762D2*
X5303458D1*
X765018Y1014731D2*
X3015877D1*
X4238894D2*
X5484996D1*
X765018Y989862D2*
X3014621D1*
X3126449D2*
X3201076D1*
X4359322D2*
X5484996D1*
X765018Y964993D2*
X1260889D1*
X3146508D2*
X3206817D1*
X4381893D2*
X5484996D1*
X765018Y940125D2*
X1224000D1*
X3147943D2*
X4041017D1*
X4259061D2*
X4310722D1*
X4385517D2*
X5150879D1*
X5339785D2*
X5484996D1*
X765018Y915256D2*
X1203582D1*
X3175789D2*
X4039546D1*
X4281776D2*
X4314490D1*
X4385517D2*
X5137925D1*
X5365084D2*
X5484996D1*
X767027Y890387D2*
X1202003D1*
X1298006D2*
X2116691D1*
X2421288D2*
X2691771D1*
X2758241D2*
X2838502D1*
X3196387D2*
X3900997D1*
X3999008D2*
X4024438D1*
X4175559D2*
X4210426D1*
X4285508D2*
X4314490D1*
X4385517D2*
X4424439D1*
X4475550D2*
X4524449D1*
X4575560D2*
X4624458D1*
X4675533D2*
X5136740D1*
X5389915D2*
X5484996D1*
X781812Y865518D2*
X1216285D1*
X1283688D2*
X2091824D1*
X2461479D2*
X2626032D1*
X2648974D2*
X2678853D1*
X2768899D2*
X2838502D1*
X3198038D2*
X3900997D1*
X4696346D2*
X5146573D1*
X5402905D2*
X5484996D1*
X783211Y840650D2*
X2066956D1*
X2490940D2*
X2596571D1*
X2762798D2*
X2838502D1*
X3183827D2*
X3900997D1*
X4698032D2*
X5181380D1*
X5218604D2*
X5289033D1*
X5404018D2*
X5484996D1*
X772446Y815781D2*
X2042088D1*
X2164465D2*
X2391672D1*
X2492949D2*
X2579095D1*
X2727452D2*
X2838502D1*
X3150993D2*
X3900997D1*
X3999008D2*
X4016005D1*
X4083982D2*
X4116015D1*
X4183991D2*
X4216024D1*
X4284001D2*
X4315997D1*
X4383974D2*
X4416007D1*
X4483983D2*
X4516016D1*
X4583992D2*
X4616025D1*
X4684002D2*
X5295994D1*
X5404018D2*
X5484996D1*
X766453Y790912D2*
X2017220D1*
X2139598D2*
X2383239D1*
X2476155D2*
X2554227D1*
X2702585D2*
X2866563D1*
X2908416D2*
X2979060D1*
X3020913D2*
X5295994D1*
X5404018D2*
X5484996D1*
X781668Y766043D2*
X1992353D1*
X2114730D2*
X2383239D1*
X2454266D2*
X2529360D1*
X2677717D2*
X2836241D1*
X2938774D2*
X2948738D1*
X4583131D2*
X5295994D1*
X5404018D2*
X5484996D1*
X783319Y741175D2*
X1960882D1*
X2249008D2*
X2383239D1*
X2454266D2*
X2504492D1*
X2652849D2*
X2828634D1*
X4607999D2*
X5295994D1*
X5404018D2*
X5484996D1*
X772841Y716306D2*
X1951158D1*
X2249008D2*
X2383239D1*
X2454266D2*
X2471837D1*
X2627981D2*
X2832617D1*
X4632867D2*
X5295994D1*
X5404018D2*
X5484996D1*
X1192291Y691437D2*
X1956038D1*
X2249008D2*
X2383239D1*
X2603114D2*
X2852281D1*
X2922734D2*
X2932698D1*
X2942311D2*
X2964778D1*
X4657734D2*
X5295994D1*
X5404018D2*
X5484996D1*
X1232122Y666568D2*
X1623714D1*
X1701308D2*
X1990236D1*
X2009733D2*
X2041012D1*
X2249008D2*
X2383239D1*
X2578246D2*
X2896957D1*
X4682602D2*
X5295994D1*
X5404018D2*
X5484996D1*
X1256990Y641699D2*
X1612590D1*
X1712432D2*
X2384316D1*
X2649584D2*
X2892543D1*
X3140874D2*
X3650992D1*
X3858988D2*
X3976928D1*
X4023087D2*
X4076937D1*
X4123060D2*
X4176910D1*
X4223069D2*
X4276919D1*
X4748988D2*
X5152278D1*
X5247706D2*
X5484996D1*
X1281858Y616831D2*
X1587723D1*
X1737300D2*
X2402760D1*
X2656473D2*
X2867676D1*
X3116006D2*
X3593146D1*
X3940445D2*
X3954141D1*
X4045837D2*
X4054134D1*
X4145847D2*
X4154177D1*
X4245856D2*
X4254169D1*
X4748988D2*
X5138355D1*
X5261665D2*
X5484996D1*
X765018Y591962D2*
X796010D1*
X912287D2*
X1184348D1*
X1306726D2*
X1562855D1*
X3094225D2*
X3568278D1*
X3943209D2*
X3951701D1*
X4748988D2*
X5136525D1*
X5263460D2*
X5484996D1*
X765018Y567093D2*
X796010D1*
X903997D2*
X1209216D1*
X1331593D2*
X1537987D1*
X1646226D2*
X1678797D1*
X3106246D2*
X3547179D1*
X3927778D2*
X3964655D1*
X4035359D2*
X4064629D1*
X4135368D2*
X4164638D1*
X4235342D2*
X4264647D1*
X4335351D2*
X4364656D1*
X4435360D2*
X4464630D1*
X4535369D2*
X4564639D1*
X4635343D2*
X4651012D1*
X4748988D2*
X5145532D1*
X5254453D2*
X5484996D1*
X765018Y542224D2*
X796010D1*
X903997D2*
X1234084D1*
X1356461D2*
X1513119D1*
X1621358D2*
X1706427D1*
X3101222D2*
X3543483D1*
X3640920D2*
X5138104D1*
X5238161D2*
X5484996D1*
X765018Y517356D2*
X796010D1*
X1090236D2*
X1258952D1*
X1381329D2*
X1490405D1*
X1596490D2*
X1726630D1*
X1923359D2*
X2268661D1*
X2331327D2*
X2768169D1*
X3056223D2*
X3538746D1*
X3636255D2*
X5113236D1*
X5221475D2*
X5484996D1*
X765018Y492487D2*
X796548D1*
X1090236D2*
X1283819D1*
X1406197D2*
X1485991D1*
X1571623D2*
X1730829D1*
X1819188D2*
X1839271D1*
X1910728D2*
X2256317D1*
X2344173D2*
X2743301D1*
X3051343D2*
X3543016D1*
X3631985D2*
X5088368D1*
X5196607D2*
X5484996D1*
X765018Y467618D2*
X807457D1*
X1090236D2*
X1308687D1*
X1431064D2*
X1485991D1*
X1564015D2*
X1714896D1*
X1910513D2*
X2261089D1*
X2652562D2*
X2718433D1*
X2816804D2*
X3543483D1*
X3631483D2*
X5063501D1*
X5171740D2*
X5410393D1*
X765018Y442749D2*
X831930D1*
X1090236D2*
X1333555D1*
X1455932D2*
X1485991D1*
X1564015D2*
X1695985D1*
X1910513D2*
X2295574D1*
X2655863D2*
X2693566D1*
X2791936D2*
X3543483D1*
X3930900D2*
X4041017D1*
X4249014D2*
X4828495D1*
X5146872D2*
X5393851D1*
X765018Y417881D2*
X1358423D1*
X1564015D2*
X1695985D1*
X1910513D2*
X2327439D1*
X2767033D2*
X3543483D1*
X3943639D2*
X3994188D1*
X4249014D2*
X4363759D1*
X5122004D2*
X5391446D1*
X1164983Y393012D2*
X1383290D1*
X1573668D2*
X1695985D1*
X1910513D2*
X2531584D1*
X2742165D2*
X3543483D1*
X3939154D2*
X3969320D1*
X4249014D2*
X4338891D1*
X5097136D2*
X5134982D1*
X1164983Y368143D2*
X1408158D1*
X1569793D2*
X1695985D1*
X1910513D2*
X2545902D1*
X2711125D2*
X3543483D1*
X3631483D2*
X3650992D1*
X3858988D2*
X3956402D1*
X4249014D2*
X4314024D1*
X5070331D2*
X5134982D1*
X1164983Y343274D2*
X1431016D1*
X1541875D2*
X1695985D1*
X2099013D2*
X3543483D1*
X3631483D2*
X3956007D1*
X4044007D2*
X4080489D1*
X4119508D2*
X4180499D1*
X4219517D2*
X4280472D1*
X4419499D2*
X4480490D1*
X4519509D2*
X4580500D1*
X4619518D2*
X4680473D1*
X4719527D2*
X5134982D1*
X1164983Y318406D2*
X1232254D1*
X1519016D2*
X1695985D1*
X2130268D2*
X3543483D1*
X3631483D2*
X3954787D1*
X4045191D2*
X4054822D1*
X4145201D2*
X4154806D1*
X4245210D2*
X4254815D1*
X4445192D2*
X4454797D1*
X4545202D2*
X4554807D1*
X4645211D2*
X4654811D1*
X4745220D2*
X5134982D1*
X1164983Y293537D2*
X1232254D1*
X1523610D2*
X1695985D1*
X2143545D2*
X3543483D1*
X3631483D2*
X3951450D1*
X4748557D2*
X5134982D1*
X1164983Y268668D2*
X1232254D1*
X1520021D2*
X1695985D1*
X1860490D2*
X1887140D1*
X2144011D2*
X3543483D1*
X3642535D2*
X3651017D1*
X3858988D2*
X3963148D1*
X4036866D2*
X4063157D1*
X4136876D2*
X4163131D1*
X4236849D2*
X4263140D1*
X4336858D2*
X4363149D1*
X4436867D2*
X4463158D1*
X4536877D2*
X4563132D1*
X4636850D2*
X4663141D1*
X4736859D2*
X5134982D1*
X1164983Y243799D2*
X1232254D1*
X1440251D2*
X1456602D1*
X1493395D2*
X1695985D1*
X1879617D2*
X1914484D1*
X1985511D2*
X2056011D1*
X2144011D2*
X3547968D1*
X3939512D2*
X5134982D1*
X1164983Y218930D2*
X1660567D1*
X1739417D2*
X1806903D1*
X1885502D2*
X1904723D1*
X1984937D2*
X2055042D1*
X2144980D2*
X3569893D1*
X3943567D2*
X5134982D1*
X1164983Y194062D2*
X1644886D1*
X1743580D2*
X1791007D1*
X1999003D2*
X2051382D1*
X2298995D2*
X3594833D1*
X3930147D2*
X5134982D1*
X1164983Y169193D2*
X1620018D1*
X1730303D2*
X1791007D1*
X1999003D2*
X2062686D1*
X2298995D2*
X5134982D1*
X1164983Y144324D2*
X1535762D1*
X1693485D2*
X1791007D1*
X1999003D2*
X2090998D1*
X2298995D2*
X5134982D1*
X1164983Y119455D2*
X1531384D1*
X1668618D2*
X1791007D1*
X1999003D2*
X2090998D1*
X2298995D2*
X5134982D1*
X1164983Y94587D2*
X1544267D1*
X1640305D2*
X5134982D1*
X1164983Y69718D2*
X5134982D1*
X2302686Y1364000D2*
X2496500D1*
Y1261000D1*
X2454437D1*
X2460359Y1255199D1*
X2464648Y1249296D1*
X2467960Y1242795D1*
X2470215Y1235855D1*
X2471357Y1228648D1*
Y1221352D1*
X2470215Y1214145D1*
X2467960Y1207205D1*
X2464648Y1200704D1*
X2460359Y1194801D1*
X2455199Y1189641D1*
X2449296Y1185352D1*
X2442795Y1182040D1*
X2435855Y1179785D1*
X2428648Y1178643D1*
X2421352D1*
X2414145Y1179785D1*
X2407205Y1182040D1*
X2400704Y1185352D1*
X2394801Y1189641D1*
X2389641Y1194801D1*
X2385352Y1200704D1*
X2382040Y1207205D1*
X2381502Y1208664D1*
X2381500Y1189032D1*
X2394000Y1189000D1*
Y1086000D1*
X2191000D1*
Y1101035D1*
X2166294Y1101000D1*
X2161796Y1097852D1*
X2155295Y1094540D1*
X2148355Y1092285D1*
X2141148Y1091143D1*
X2133852D1*
X2126645Y1092285D1*
X2119705Y1094540D1*
X2113204Y1097852D1*
X2107301Y1102141D1*
X2102141Y1107301D1*
X2097852Y1113204D1*
X2094540Y1119705D1*
X2092285Y1126645D1*
X2091143Y1133852D1*
Y1141148D1*
X2092285Y1148355D1*
X2094540Y1155295D1*
X2097852Y1161796D1*
X2102141Y1167699D1*
X2107301Y1172859D1*
X2113204Y1177148D1*
X2119705Y1180460D1*
X2126645Y1182715D1*
X2133852Y1183857D1*
X2141148D1*
X2148355Y1182715D1*
X2155295Y1180460D1*
X2161796Y1177148D1*
X2166254Y1173998D1*
X2191003Y1174000D1*
X2191000Y1189000D1*
X2318499D1*
X2318500Y1260990D1*
X2293500Y1261000D1*
Y1364000D1*
X2302686D1*
X3302686D2*
X3406500D1*
Y1261000D1*
X3381489D1*
X3381500Y1189023D1*
X3406500Y1189000D1*
Y1086000D1*
X3382996D1*
X3382898Y1059911D1*
X3382088Y1054796D1*
X3380488Y1049871D1*
X3378137Y1045258D1*
X3375093Y1041068D1*
X3354685Y1020516D1*
X4011355Y1020500D1*
X4041068Y1050093D1*
X4045258Y1053137D1*
X4049871Y1055488D1*
X4054796Y1057088D1*
X4059911Y1057898D1*
X4126804Y1058000D1*
X4186336D1*
X4216985Y1088654D1*
X4217000Y1217209D1*
X4212381Y1222668D1*
X4208568Y1228889D1*
X4205776Y1235631D1*
X4204072Y1242726D1*
X4203500Y1250000D1*
X4204072Y1257274D1*
X4205776Y1264369D1*
X4206748Y1267005D1*
X4193279Y1267000D1*
X4195215Y1260855D1*
X4196357Y1253648D1*
Y1246352D1*
X4195215Y1239145D1*
X4192960Y1232205D1*
X4189648Y1225704D1*
X4185359Y1219801D1*
X4180199Y1214641D1*
X4174296Y1210352D1*
X4167795Y1207040D1*
X4160855Y1204785D1*
X4153648Y1203643D1*
X4146352D1*
X4139145Y1204785D1*
X4132205Y1207040D1*
X4125704Y1210352D1*
X4119801Y1214641D1*
X4114641Y1219801D1*
X4110352Y1225704D1*
X4107040Y1232205D1*
X4104785Y1239145D1*
X4103643Y1246352D1*
Y1253648D1*
X4104103Y1257428D1*
X4096514Y1249845D1*
X4095928Y1242726D1*
X4094224Y1235631D1*
X4091432Y1228889D1*
X4087619Y1222668D1*
X4082880Y1217120D1*
X4077332Y1212381D1*
X4071111Y1208568D1*
X4064369Y1205776D1*
X4057274Y1204072D1*
X4050000Y1203500D1*
X4042726Y1204072D1*
X4035631Y1205776D1*
X4028889Y1208568D1*
X4022668Y1212381D1*
X4017120Y1217120D1*
X4012381Y1222668D1*
X4008568Y1228889D1*
X4005776Y1235631D1*
X4004072Y1242726D1*
X4003500Y1250000D1*
X4004072Y1257274D1*
X4005776Y1264369D1*
X4008568Y1271111D1*
X4012381Y1277332D1*
X4017120Y1282880D1*
X4022668Y1287619D1*
X4028889Y1291432D1*
X4035631Y1294224D1*
X4042726Y1295928D1*
X4049815Y1296493D1*
X4078568Y1325093D1*
X4082758Y1328137D1*
X4087371Y1330488D1*
X4092296Y1332088D1*
X4097411Y1332898D1*
X4164304Y1333000D1*
X4702589Y1332898D1*
X4707704Y1332088D1*
X4712629Y1330488D1*
X4717242Y1328137D1*
X4721432Y1325093D1*
X4750155Y1296514D1*
X4757274Y1295928D1*
X4764369Y1294224D1*
X4771111Y1291432D1*
X4777332Y1287619D1*
X4782880Y1282880D1*
X4787619Y1277332D1*
X4791432Y1271111D1*
X4794224Y1264369D1*
X4795928Y1257274D1*
X4796500Y1250000D1*
X4795928Y1242726D1*
X4794224Y1235631D1*
X4791432Y1228889D1*
X4787619Y1222668D1*
X4782880Y1217120D1*
X4777332Y1212381D1*
X4771111Y1208568D1*
X4764369Y1205776D1*
X4757274Y1204072D1*
X4750000Y1203500D1*
X4742726Y1204072D1*
X4735631Y1205776D1*
X4728889Y1208568D1*
X4722668Y1212381D1*
X4717120Y1217120D1*
X4712381Y1222668D1*
X4708568Y1228889D1*
X4705776Y1235631D1*
X4704072Y1242726D1*
X4703507Y1249815D1*
X4695928Y1257274D1*
X4696500Y1250000D1*
X4695928Y1242726D1*
X4694224Y1235631D1*
X4691432Y1228889D1*
X4687619Y1222668D1*
X4682880Y1217120D1*
X4677332Y1212381D1*
X4671111Y1208568D1*
X4664369Y1205776D1*
X4657274Y1204072D1*
X4650000Y1203500D1*
X4642726Y1204072D1*
X4635631Y1205776D1*
X4628889Y1208568D1*
X4622668Y1212381D1*
X4617120Y1217120D1*
X4612381Y1222668D1*
X4608568Y1228889D1*
X4605776Y1235631D1*
X4604072Y1242726D1*
X4603500Y1250000D1*
X4604072Y1257274D1*
X4605776Y1264369D1*
X4606748Y1267005D1*
X4593316Y1267000D1*
X4595215Y1260855D1*
X4596357Y1253648D1*
Y1246352D1*
X4595215Y1239145D1*
X4592960Y1232205D1*
X4589648Y1225704D1*
X4585359Y1219801D1*
X4580199Y1214641D1*
X4574296Y1210352D1*
X4567795Y1207040D1*
X4560855Y1204785D1*
X4553648Y1203643D1*
X4546352D1*
X4539145Y1204785D1*
X4532205Y1207040D1*
X4525704Y1210352D1*
X4519801Y1214641D1*
X4514641Y1219801D1*
X4510352Y1225704D1*
X4507040Y1232205D1*
X4504785Y1239145D1*
X4503643Y1246352D1*
Y1253648D1*
X4504785Y1260855D1*
X4506748Y1267005D1*
X4493271Y1267000D1*
X4495215Y1260855D1*
X4496357Y1253648D1*
Y1246352D1*
X4495215Y1239145D1*
X4492960Y1232205D1*
X4489648Y1225704D1*
X4485359Y1219801D1*
X4480199Y1214641D1*
X4474296Y1210352D1*
X4467795Y1207040D1*
X4460855Y1204785D1*
X4453648Y1203643D1*
X4446352D1*
X4439145Y1204785D1*
X4432205Y1207040D1*
X4425704Y1210352D1*
X4419801Y1214641D1*
X4414641Y1219801D1*
X4410352Y1225704D1*
X4407040Y1232205D1*
X4404785Y1239145D1*
X4403643Y1246352D1*
Y1253648D1*
X4404785Y1260855D1*
X4406748Y1267005D1*
X4393298Y1267000D1*
X4395215Y1260855D1*
X4396357Y1253648D1*
Y1246352D1*
X4395215Y1239145D1*
X4392960Y1232205D1*
X4389648Y1225704D1*
X4385359Y1219801D1*
X4380199Y1214641D1*
X4374296Y1210352D1*
X4367795Y1207040D1*
X4360855Y1204785D1*
X4353648Y1203643D1*
X4346352D1*
X4339145Y1204785D1*
X4332205Y1207040D1*
X4325704Y1210352D1*
X4319801Y1214641D1*
X4314641Y1219801D1*
X4310352Y1225704D1*
X4307040Y1232205D1*
X4304785Y1239145D1*
X4303643Y1246352D1*
Y1253648D1*
X4304785Y1260855D1*
X4306748Y1267005D1*
X4293253Y1267000D1*
X4295215Y1260855D1*
X4296357Y1253648D1*
Y1246352D1*
X4295215Y1239145D1*
X4292960Y1232205D1*
X4289648Y1225704D1*
X4285359Y1219801D1*
X4283006Y1217256D1*
X4282898Y1072411D1*
X4282088Y1067296D1*
X4280488Y1062371D1*
X4278137Y1057758D1*
X4275093Y1053568D1*
X4229666Y1007997D1*
X4327589Y1007898D1*
X4332704Y1007088D1*
X4337629Y1005488D1*
X4342243Y1003137D1*
X4346432Y1000093D1*
X4373335Y973335D1*
X4376698Y969397D1*
X4379403Y964982D1*
X4381385Y960198D1*
X4382594Y955162D1*
X4383000Y949990D1*
Y882789D1*
X4387619Y877332D1*
X4391432Y871111D1*
X4394224Y864369D1*
X4395928Y857274D1*
X4396500Y850000D1*
X4395928Y842726D1*
X4394224Y835631D1*
X4391432Y828889D1*
X4387619Y822668D1*
X4382880Y817120D1*
X4377332Y812381D1*
X4371111Y808568D1*
X4364369Y805776D1*
X4357274Y804072D1*
X4350000Y803500D1*
X4342726Y804072D1*
X4335631Y805776D1*
X4328889Y808568D1*
X4322668Y812381D1*
X4317120Y817120D1*
X4312381Y822668D1*
X4308568Y828889D1*
X4305776Y835631D1*
X4304072Y842726D1*
X4303500Y850000D1*
X4304072Y857274D1*
X4305776Y864369D1*
X4308568Y871111D1*
X4312381Y877332D1*
X4316994Y882744D1*
X4317000Y936301D1*
X4311314Y942017D1*
X4254830Y941839D1*
X4275093Y921432D1*
X4278137Y917242D1*
X4280488Y912629D1*
X4282088Y907704D1*
X4282898Y902589D1*
X4283000Y882740D1*
X4287619Y877332D1*
X4291432Y871111D1*
X4294224Y864369D1*
X4295928Y857274D1*
X4296500Y850000D1*
X4295928Y842726D1*
X4294224Y835631D1*
X4291432Y828889D1*
X4287619Y822668D1*
X4282880Y817120D1*
X4277332Y812381D1*
X4271111Y808568D1*
X4264369Y805776D1*
X4257274Y804072D1*
X4250000Y803500D1*
X4242726Y804072D1*
X4235631Y805776D1*
X4228889Y808568D1*
X4222668Y812381D1*
X4217120Y817120D1*
X4212381Y822668D1*
X4208568Y828889D1*
X4205776Y835631D1*
X4204072Y842726D1*
X4203500Y850000D1*
X4204072Y857274D1*
X4205776Y864369D1*
X4208568Y871111D1*
X4212381Y877332D1*
X4216994Y882744D1*
X4213674Y889657D1*
X4211314Y892017D1*
X4169990Y892000D1*
X4177332Y887619D1*
X4182880Y882880D1*
X4187619Y877332D1*
X4191432Y871111D1*
X4194224Y864369D1*
X4195928Y857274D1*
X4196500Y850000D1*
X4195928Y842726D1*
X4194224Y835631D1*
X4191432Y828889D1*
X4187619Y822668D1*
X4182880Y817120D1*
X4177332Y812381D1*
X4171111Y808568D1*
X4164369Y805776D1*
X4157274Y804072D1*
X4150000Y803500D1*
X4142726Y804072D1*
X4135631Y805776D1*
X4128889Y808568D1*
X4122668Y812381D1*
X4117120Y817120D1*
X4112381Y822668D1*
X4108568Y828889D1*
X4105776Y835631D1*
X4104072Y842726D1*
X4103500Y850000D1*
X4104072Y857274D1*
X4105776Y864369D1*
X4108568Y871111D1*
X4112381Y877332D1*
X4117120Y882880D1*
X4122668Y887619D1*
X4128889Y891432D1*
X4130120Y891999D1*
X4120254Y892000D1*
X4114832Y887381D1*
X4108611Y883568D1*
X4101869Y880776D1*
X4094774Y879072D1*
X4086716Y878531D1*
X4089648Y874296D1*
X4092960Y867795D1*
X4095215Y860855D1*
X4096357Y853648D1*
Y846352D1*
X4095215Y839145D1*
X4092960Y832205D1*
X4089648Y825704D1*
X4085359Y819801D1*
X4080199Y814641D1*
X4074296Y810352D1*
X4067795Y807040D1*
X4060855Y804785D1*
X4053648Y803643D1*
X4046352D1*
X4039145Y804785D1*
X4032205Y807040D1*
X4025704Y810352D1*
X4019801Y814641D1*
X4014641Y819801D1*
X4010352Y825704D1*
X4007040Y832205D1*
X4004785Y839145D1*
X4003643Y846352D1*
Y853648D1*
X4004785Y860855D1*
X4007040Y867795D1*
X4010352Y874296D1*
X4014641Y880199D1*
X4019801Y885359D1*
X4025704Y889648D1*
X4032205Y892960D1*
X4039145Y895215D1*
X4046352Y896357D1*
X4050784Y896469D1*
X4047852Y900704D1*
X4044540Y907205D1*
X4042285Y914145D1*
X4041143Y921352D1*
Y928648D1*
X4042285Y935855D1*
X4044540Y942795D1*
X4048304Y949972D1*
X4044540Y957205D1*
X4043459Y960136D1*
X4037629Y957012D1*
X4032704Y955412D1*
X4027589Y954602D1*
X3960696Y954500D1*
X3282736D1*
X3277332Y949881D1*
X3271111Y946068D1*
X3264369Y943276D1*
X3257274Y941572D1*
X3250000Y941000D1*
X3242726Y941572D1*
X3235631Y943276D1*
X3228889Y946068D1*
X3222668Y949881D1*
X3217120Y954620D1*
X3212381Y960168D1*
X3208568Y966389D1*
X3205776Y973131D1*
X3204072Y980226D1*
X3203500Y987500D1*
X3203746Y992012D1*
X3119981Y992000D1*
X3124296Y989648D1*
X3130199Y985359D1*
X3135359Y980199D1*
X3139648Y974296D1*
X3142960Y967795D1*
X3145215Y960855D1*
X3146357Y953648D1*
Y946352D1*
X3145215Y939145D1*
X3142960Y932205D1*
X3139648Y925704D1*
X3135359Y919801D1*
X3134459Y918827D1*
X3139145Y920215D1*
X3146352Y921357D1*
X3153648D1*
X3160855Y920215D1*
X3167795Y917960D1*
X3174296Y914648D1*
X3180199Y910359D1*
X3185359Y905199D1*
X3189648Y899296D1*
X3192960Y892795D1*
X3195215Y885855D1*
X3196357Y878648D1*
Y871352D1*
X3195215Y864145D1*
X3192960Y857205D1*
X3189648Y850704D1*
X3185359Y844801D1*
X3180199Y839641D1*
X3174296Y835352D1*
X3167795Y832040D1*
X3164516Y830830D1*
X3151952Y818443D1*
X3146684Y814615D1*
X3140881Y811659D1*
X3134688Y809647D1*
X3128256Y808628D1*
X3088255Y808500D1*
X3044009D1*
X3044000Y798500D1*
X2841000D1*
Y901500D1*
X3044000D1*
Y891488D1*
X3106528Y891500D1*
X3108568Y896111D1*
X3112381Y902332D1*
X3115541Y906173D1*
X3110855Y904785D1*
X3103648Y903643D1*
X3096352D1*
X3089145Y904785D1*
X3082205Y907040D1*
X3075704Y910352D1*
X3071246Y913502D1*
X2393979Y913500D1*
X2394000Y907374D1*
X2400129Y905488D1*
X2404743Y903137D1*
X2408932Y900094D1*
X2443237Y865932D1*
X2450000Y866500D1*
X2456492Y865989D1*
X2462824Y864469D1*
X2468841Y861977D1*
X2474393Y858574D1*
X2479345Y854345D1*
X2483574Y849393D1*
X2486977Y843841D1*
X2489469Y837824D1*
X2490989Y831492D1*
X2491500Y825000D1*
X2490989Y818508D1*
X2489469Y812176D1*
X2486977Y806159D1*
X2483574Y800607D1*
X2479345Y795655D1*
X2474393Y791426D1*
X2468841Y788023D1*
X2462824Y785531D1*
X2455569Y783902D1*
X2451741Y780072D1*
X2451751Y696899D1*
X2456159Y699477D1*
X2462176Y701969D1*
X2468508Y703489D1*
X2471175Y703805D1*
X2472147Y709688D1*
X2474159Y715881D1*
X2477115Y721684D1*
X2480943Y726952D1*
X2485548Y731557D1*
X2490816Y735385D1*
X2496619Y738341D1*
X2502812Y740353D1*
X2506931Y741098D1*
X2596370Y830540D1*
X2598031Y837824D1*
X2600523Y843841D1*
X2603926Y849393D1*
X2608155Y854345D1*
X2613107Y858574D1*
X2618659Y861977D1*
X2624676Y864469D1*
X2631008Y865989D1*
X2637500Y866500D1*
X2643992Y865989D1*
X2650324Y864469D1*
X2656341Y861977D1*
X2661893Y858574D1*
X2666845Y854345D1*
X2668443Y852616D1*
X2683876Y868045D1*
X2685531Y875324D1*
X2688023Y881341D1*
X2691426Y886893D1*
X2695655Y891845D1*
X2700607Y896074D1*
X2706159Y899477D1*
X2712176Y901969D1*
X2718508Y903489D1*
X2725000Y904000D1*
X2731492Y903489D1*
X2737824Y901969D1*
X2743841Y899477D1*
X2749393Y896074D1*
X2754345Y891845D1*
X2758574Y886893D1*
X2761977Y881341D1*
X2764469Y875324D1*
X2765989Y868992D1*
X2766500Y862500D1*
X2765989Y856008D1*
X2764469Y849676D1*
X2761977Y843659D1*
X2758574Y838107D1*
X2754345Y833155D1*
X2749393Y828926D1*
X2743841Y825523D1*
X2737824Y823031D1*
X2730569Y821402D1*
X2560897Y651728D1*
X2587329Y651751D1*
X2593659Y655727D1*
X2599676Y658220D1*
X2606008Y659740D1*
X2612500Y660251D1*
X2618992Y659740D1*
X2625324Y658220D1*
X2631341Y655727D1*
X2636893Y652325D1*
X2641845Y648096D1*
X2646074Y643144D1*
X2649477Y637591D1*
X2651969Y631575D1*
X2653489Y625243D1*
X2654000Y618751D1*
X2653338Y611497D1*
X2802864Y611387D1*
X2808521Y610492D1*
X2813968Y608722D1*
X2819071Y606121D1*
X2823713Y602747D1*
X2831341Y599477D1*
X2836893Y596074D1*
X2841845Y591845D1*
X2843443Y590116D1*
X2896581Y643251D1*
X2896000Y650000D1*
X2896511Y656492D1*
X2898031Y662824D1*
X2900523Y668841D1*
X2903926Y674393D1*
X2908155Y679345D1*
X2913107Y683574D1*
X2918659Y686977D1*
X2924676Y689469D1*
X2931008Y690989D1*
X2937500Y691500D1*
X2943992Y690989D1*
X2950324Y689469D1*
X2956341Y686977D1*
X2961893Y683574D1*
X2966845Y679345D1*
X2968443Y677616D1*
X2976819Y685988D1*
X2970479Y689326D1*
X2963306Y694537D1*
X2957037Y700806D1*
X2951826Y707979D1*
X2947801Y715878D1*
X2945061Y724310D1*
X2943762Y732327D1*
X2942439Y724310D1*
X2939699Y715878D1*
X2935674Y707979D1*
X2930463Y700806D1*
X2924194Y694537D1*
X2917021Y689326D1*
X2909122Y685301D1*
X2900690Y682561D1*
X2891933Y681174D1*
X2883067D1*
X2874310Y682561D1*
X2865878Y685301D1*
X2857979Y689326D1*
X2850806Y694537D1*
X2844537Y700806D1*
X2839326Y707979D1*
X2835301Y715878D1*
X2832561Y724310D1*
X2831174Y733067D1*
Y741933D1*
X2832561Y750690D1*
X2835301Y759122D1*
X2839326Y767021D1*
X2844537Y774194D1*
X2850806Y780463D1*
X2857979Y785674D1*
X2865878Y789699D1*
X2874310Y792439D1*
X2883067Y793826D1*
X2891933D1*
X2900690Y792439D1*
X2909122Y789699D1*
X2917021Y785674D1*
X2924194Y780463D1*
X2930463Y774194D1*
X2935674Y767021D1*
X2939699Y759122D1*
X2942439Y750690D1*
X2943738Y742673D1*
X2945061Y750690D1*
X2947801Y759122D1*
X2951826Y767021D1*
X2957037Y774194D1*
X2963306Y780463D1*
X2970479Y785674D1*
X2978378Y789699D1*
X2986810Y792439D1*
X2995567Y793826D1*
X3004433D1*
X3013190Y792439D1*
X3021622Y789699D1*
X3029521Y785674D1*
X3036694Y780463D1*
X3042963Y774194D1*
X3048174Y767021D1*
X3051495Y760648D1*
X3066068Y775093D1*
X3070258Y778137D1*
X3074871Y780488D1*
X3079796Y782088D1*
X3084911Y782898D1*
X3151804Y783000D1*
X4552589Y782898D1*
X4557704Y782088D1*
X4562629Y780488D1*
X4567242Y778137D1*
X4571432Y775093D1*
X4618805Y727864D1*
X4700179Y646490D1*
X4746500Y646500D1*
Y553500D1*
X4653500D1*
Y599826D1*
X4645928Y607274D1*
X4646500Y600000D1*
X4645928Y592726D1*
X4644224Y585631D1*
X4641432Y578889D1*
X4637619Y572668D1*
X4632880Y567120D1*
X4627332Y562381D1*
X4621111Y558568D1*
X4614369Y555776D1*
X4607274Y554072D1*
X4600000Y553500D1*
X4592726Y554072D1*
X4585631Y555776D1*
X4578889Y558568D1*
X4572668Y562381D1*
X4567120Y567120D1*
X4562381Y572668D1*
X4558568Y578889D1*
X4555776Y585631D1*
X4554072Y592726D1*
X4553507Y599815D1*
X4545928Y607274D1*
X4546500Y600000D1*
X4545928Y592726D1*
X4544224Y585631D1*
X4541432Y578889D1*
X4537619Y572668D1*
X4532880Y567120D1*
X4527332Y562381D1*
X4521111Y558568D1*
X4514369Y555776D1*
X4507274Y554072D1*
X4500000Y553500D1*
X4492726Y554072D1*
X4485631Y555776D1*
X4478889Y558568D1*
X4472668Y562381D1*
X4467120Y567120D1*
X4462381Y572668D1*
X4458568Y578889D1*
X4455776Y585631D1*
X4454072Y592726D1*
X4453507Y599815D1*
X4445928Y607274D1*
X4446500Y600000D1*
X4445928Y592726D1*
X4444224Y585631D1*
X4441432Y578889D1*
X4437619Y572668D1*
X4432880Y567120D1*
X4427332Y562381D1*
X4421111Y558568D1*
X4414369Y555776D1*
X4407274Y554072D1*
X4400000Y553500D1*
X4392726Y554072D1*
X4385631Y555776D1*
X4378889Y558568D1*
X4372668Y562381D1*
X4367120Y567120D1*
X4362381Y572668D1*
X4358568Y578889D1*
X4355776Y585631D1*
X4354072Y592726D1*
X4353507Y599815D1*
X4345928Y607274D1*
X4346500Y600000D1*
X4345928Y592726D1*
X4344224Y585631D1*
X4341432Y578889D1*
X4337619Y572668D1*
X4332880Y567120D1*
X4327332Y562381D1*
X4321111Y558568D1*
X4314369Y555776D1*
X4307274Y554072D1*
X4300000Y553500D1*
X4292726Y554072D1*
X4285631Y555776D1*
X4278889Y558568D1*
X4272668Y562381D1*
X4267120Y567120D1*
X4262381Y572668D1*
X4258568Y578889D1*
X4255776Y585631D1*
X4254072Y592726D1*
X4253500Y600000D1*
X4254072Y607274D1*
X4255776Y614369D1*
X4258568Y621111D1*
X4262381Y627332D1*
X4267120Y632880D1*
X4272668Y637619D1*
X4278889Y641432D1*
X4280120Y641999D1*
X4219967Y642000D1*
X4225565Y638842D1*
X4231360Y634334D1*
X4236373Y628970D1*
X4240479Y622885D1*
X4243576Y616229D1*
X4245587Y609168D1*
X4246462Y601879D1*
X4246174Y594501D1*
X4244733Y587302D1*
X4242177Y580420D1*
X4238570Y574026D1*
X4234001Y568280D1*
X4228585Y563324D1*
X4222456Y559282D1*
X4215768Y556255D1*
X4208686Y554319D1*
X4201388Y553521D1*
X4194056Y553882D1*
X4186871Y555392D1*
X4180014Y558014D1*
X4173655Y561683D1*
X4167953Y566307D1*
X4163049Y571771D1*
X4159067Y577938D1*
X4156105Y584655D1*
X4154237Y591755D1*
X4153509Y599060D1*
X4153941Y606389D1*
X4155521Y613559D1*
X4158209Y620390D1*
X4161939Y626713D1*
X4166618Y632371D1*
X4172128Y637221D1*
X4178334Y641144D1*
X4180048Y642000D1*
X4119922D1*
X4125565Y638842D1*
X4131360Y634334D1*
X4136373Y628970D1*
X4140479Y622885D1*
X4143576Y616229D1*
X4145587Y609168D1*
X4146462Y601879D1*
X4146174Y594501D1*
X4144733Y587302D1*
X4142177Y580420D1*
X4138570Y574026D1*
X4134001Y568280D1*
X4128585Y563324D1*
X4122456Y559282D1*
X4115768Y556255D1*
X4108686Y554319D1*
X4101388Y553521D1*
X4094056Y553882D1*
X4086871Y555392D1*
X4080014Y558014D1*
X4073655Y561683D1*
X4067953Y566307D1*
X4063049Y571771D1*
X4059067Y577938D1*
X4056105Y584655D1*
X4054237Y591755D1*
X4053509Y599060D1*
X4053941Y606389D1*
X4055521Y613559D1*
X4058209Y620390D1*
X4061939Y626713D1*
X4066618Y632371D1*
X4072128Y637221D1*
X4078334Y641144D1*
X4080048Y642000D1*
X4019949D1*
X4025565Y638842D1*
X4031360Y634334D1*
X4036373Y628970D1*
X4040479Y622885D1*
X4043576Y616229D1*
X4045587Y609168D1*
X4046462Y601879D1*
X4046174Y594501D1*
X4044733Y587302D1*
X4042177Y580420D1*
X4038570Y574026D1*
X4034001Y568280D1*
X4028585Y563324D1*
X4022456Y559282D1*
X4015768Y556255D1*
X4008686Y554319D1*
X4001388Y553521D1*
X3994056Y553882D1*
X3986871Y555392D1*
X3980014Y558014D1*
X3973655Y561683D1*
X3967953Y566307D1*
X3963049Y571771D1*
X3959067Y577938D1*
X3956105Y584655D1*
X3954237Y591755D1*
X3953509Y599060D1*
X3953941Y606389D1*
X3955521Y613559D1*
X3958209Y620390D1*
X3961939Y626713D1*
X3966618Y632371D1*
X3972128Y637221D1*
X3978334Y641144D1*
X3980048Y642000D1*
X3856532D1*
X3864304Y636500D1*
X3880273D1*
X3887176Y639469D1*
X3893508Y640989D1*
X3900000Y641500D1*
X3906492Y640989D1*
X3912824Y639469D1*
X3918841Y636977D1*
X3924393Y633574D1*
X3929345Y629345D1*
X3933574Y624393D1*
X3936977Y618841D1*
X3939469Y612824D1*
X3940989Y606492D1*
X3941500Y600000D1*
X3940989Y593508D1*
X3939469Y587176D1*
X3936977Y581159D1*
X3933574Y575607D1*
X3929345Y570655D1*
X3924393Y566426D1*
X3918841Y563023D1*
X3912824Y560531D1*
X3906492Y559011D1*
X3900000Y558500D1*
X3893508Y559011D1*
X3887176Y560531D1*
X3880304Y563502D1*
X3856472Y563500D1*
X3856500Y548500D1*
X3653500D1*
Y557292D1*
X3629215Y533025D1*
X3631724Y526869D1*
X3633428Y519774D1*
X3634000Y512500D1*
X3633428Y505226D1*
X3631724Y498131D1*
X3628997Y491532D1*
X3629000Y467178D1*
X3642194Y453996D1*
X3653528Y454000D1*
X3653500Y464000D1*
X3856500D1*
Y448964D1*
X3880273Y449000D1*
X3887176Y451969D1*
X3893508Y453489D1*
X3900000Y454000D1*
X3906492Y453489D1*
X3912824Y451969D1*
X3918841Y449477D1*
X3924393Y446074D1*
X3929345Y441845D1*
X3933574Y436893D1*
X3936977Y431341D1*
X3939469Y425324D1*
X3940989Y418992D1*
X3941500Y412500D1*
X3940989Y406008D1*
X3939469Y399676D1*
X3936977Y393659D1*
X3933574Y388107D1*
X3929345Y383155D1*
X3924393Y378926D1*
X3918841Y375523D1*
X3912824Y373031D1*
X3906492Y371511D1*
X3900000Y371000D1*
X3893508Y371511D1*
X3887176Y373031D1*
X3880304Y376002D1*
X3856472Y376000D1*
X3856500Y361000D1*
X3653500D1*
Y371012D1*
X3629009Y371000D1*
X3629000Y279658D1*
X3642194Y266496D1*
X3653528Y266500D1*
X3653500Y276500D1*
X3856500D1*
Y261465D1*
X3880273Y261500D1*
X3887176Y264469D1*
X3893508Y265989D1*
X3900000Y266500D1*
X3906492Y265989D1*
X3912824Y264469D1*
X3918841Y261977D1*
X3924393Y258574D1*
X3929345Y254345D1*
X3933574Y249393D1*
X3936977Y243841D1*
X3939469Y237824D1*
X3940989Y231492D1*
X3941500Y225000D1*
X3940989Y218508D1*
X3939469Y212176D1*
X3936977Y206159D1*
X3933574Y200607D1*
X3929345Y195655D1*
X3924393Y191426D1*
X3918841Y188023D1*
X3912824Y185531D1*
X3906492Y184011D1*
X3900000Y183500D1*
X3893508Y184011D1*
X3887176Y185531D1*
X3880304Y188502D1*
X3856472Y188500D1*
X3856500Y173500D1*
X3653500D1*
Y183512D1*
X3621744Y183628D1*
X3615312Y184647D1*
X3609119Y186659D1*
X3603316Y189615D1*
X3598048Y193443D1*
X3569672Y221638D1*
X3555943Y235548D1*
X3552115Y240816D1*
X3549159Y246619D1*
X3547146Y252812D1*
X3546128Y259244D1*
X3546000Y299245D1*
Y491518D1*
X3543276Y498131D1*
X3541572Y505226D1*
X3541000Y512500D1*
X3541572Y519774D1*
X3543276Y526869D1*
X3546003Y533468D1*
X3546128Y553256D1*
X3547147Y559688D1*
X3549159Y565881D1*
X3552115Y571684D1*
X3555943Y576952D1*
X3584138Y605328D1*
X3610548Y631557D1*
X3615816Y635385D1*
X3621619Y638341D1*
X3627812Y640353D1*
X3634244Y641372D1*
X3653468Y641500D1*
X3645210Y642000D1*
X3138705D1*
X3090152Y593483D1*
X3094057Y589452D1*
X3097885Y584184D1*
X3100841Y578381D1*
X3102853Y572188D1*
X3103872Y565756D1*
Y559244D1*
X3102853Y552812D1*
X3100841Y546619D1*
X3097885Y540816D1*
X3094057Y535548D1*
X3089452Y530943D1*
X3084184Y527115D1*
X3078381Y524159D1*
X3072188Y522147D1*
X3065756Y521128D1*
X3059244D1*
X3052874Y522134D1*
X3053872Y515756D1*
Y509244D1*
X3052853Y502812D1*
X3050841Y496619D1*
X3047885Y490816D1*
X3044057Y485548D1*
X3039452Y480943D1*
X3034184Y477115D1*
X3028381Y474159D1*
X3022188Y472147D1*
X3015756Y471128D1*
X3009244D1*
X3002812Y472147D1*
X2996619Y474159D1*
X2990816Y477115D1*
X2987517Y479391D1*
X2981341Y475523D1*
X2975324Y473031D1*
X2968992Y471511D1*
X2962500Y471000D1*
X2956008Y471511D1*
X2949676Y473031D1*
X2943659Y475523D1*
X2937517Y479391D1*
X2931341Y475523D1*
X2925324Y473031D1*
X2918992Y471511D1*
X2912500Y471000D1*
X2906008Y471511D1*
X2899676Y473031D1*
X2893659Y475523D1*
X2887517Y479391D1*
X2881341Y475523D1*
X2875324Y473031D1*
X2868992Y471511D1*
X2862500Y471000D1*
X2856008Y471511D1*
X2849676Y473031D1*
X2843659Y475523D1*
X2838107Y478926D1*
X2833155Y483155D1*
X2831557Y484884D1*
X2721432Y374907D1*
X2717242Y371863D1*
X2712629Y369512D1*
X2707704Y367912D1*
X2702589Y367102D1*
X2635696Y367000D1*
X2600134D1*
X2593841Y363023D1*
X2587824Y360531D1*
X2581492Y359011D1*
X2575000Y358500D1*
X2568508Y359011D1*
X2562176Y360531D1*
X2556159Y363023D1*
X2550607Y366426D1*
X2545655Y370655D1*
X2541426Y375607D1*
X2538023Y381159D1*
X2535531Y387176D1*
X2534011Y393508D1*
X2533500Y400000D1*
X2534011Y406492D1*
X2535531Y412824D1*
X2537176Y417003D1*
X2334911Y417102D1*
X2329796Y417912D1*
X2324871Y419512D1*
X2320258Y421863D1*
X2316068Y424907D1*
X2294450Y446381D1*
X2287176Y448031D1*
X2281159Y450523D1*
X2275607Y453926D1*
X2270655Y458155D1*
X2266426Y463107D1*
X2263023Y468659D1*
X2260531Y474676D1*
X2259011Y481008D1*
X2258500Y487500D1*
X2259011Y493992D1*
X2260531Y500324D1*
X2263023Y506341D1*
X2266426Y511893D1*
X2270655Y516845D1*
X2275607Y521074D1*
X2281159Y524477D1*
X2287176Y526969D1*
X2293508Y528489D1*
X2300000Y529000D1*
X2306492Y528489D1*
X2312824Y526969D1*
X2318841Y524477D1*
X2324393Y521074D1*
X2329345Y516845D1*
X2333574Y511893D1*
X2336977Y506341D1*
X2339469Y500324D1*
X2341098Y493069D1*
X2351170Y482999D1*
X2587362Y483000D1*
X2593659Y486977D1*
X2599676Y489469D1*
X2606008Y490989D1*
X2612500Y491500D1*
X2618992Y490989D1*
X2625324Y489469D1*
X2631341Y486977D1*
X2636893Y483574D1*
X2641845Y479345D1*
X2646074Y474393D1*
X2649477Y468841D1*
X2651969Y462824D1*
X2653489Y456492D1*
X2654000Y450000D1*
X2653489Y443508D1*
X2651969Y437176D1*
X2650324Y432997D1*
X2686349Y433000D1*
X2784885Y531554D1*
X2780943Y535548D1*
X2778664Y538499D1*
X1919510Y538500D1*
X1920928Y532274D1*
X1921500Y525000D1*
X1920928Y517726D1*
X1919224Y510631D1*
X1916432Y503889D1*
X1912619Y497668D1*
X1908006Y492256D1*
X1908000Y351500D1*
X2096500D1*
Y340483D1*
X2103381Y338341D1*
X2109184Y335385D1*
X2114452Y331557D1*
X2129345Y316845D1*
X2133574Y311893D1*
X2136977Y306341D1*
X2139469Y300324D1*
X2140989Y293992D1*
X2141500Y287487D1*
Y221007D1*
X2144170Y214516D1*
X2157180Y201510D1*
X2296500Y201500D1*
Y98500D1*
X2093500D1*
Y147841D1*
X2085512Y155798D1*
X2078889Y158568D1*
X2072668Y162381D1*
X2067120Y167120D1*
X2062381Y172668D1*
X2058568Y178889D1*
X2055776Y185631D1*
X2054072Y192726D1*
X2053500Y200000D1*
X2054072Y207274D1*
X2055776Y214369D1*
X2058503Y220968D1*
X2058500Y248480D1*
X1983500Y248536D1*
X1983000Y244882D1*
X1982898Y222411D1*
X1982088Y217296D1*
X1980488Y212371D1*
X1978137Y207758D1*
X1975093Y203568D1*
X1973327Y201659D1*
X1996500Y201500D1*
Y98500D1*
X1793500D1*
Y201500D1*
X1817004D1*
X1817000Y211326D1*
X1799906Y228568D1*
X1796863Y232757D1*
X1794512Y237371D1*
X1792910Y242306D1*
X1792314Y243500D1*
X1698500D1*
Y446500D1*
X1716981D1*
X1717102Y465089D1*
X1717912Y470204D1*
X1719512Y475129D1*
X1721863Y479743D1*
X1724907Y483932D1*
X1737855Y497025D1*
X1733568Y503889D1*
X1730776Y510631D1*
X1729072Y517726D1*
X1728500Y525000D1*
X1729072Y532274D1*
X1730532Y538504D1*
X1722136Y538613D1*
X1716479Y539508D1*
X1711032Y541278D1*
X1705929Y543879D1*
X1701295Y547245D1*
X1662525Y585856D1*
X1561516Y484897D1*
X1561500Y416282D1*
X1564648Y411796D1*
X1567960Y405295D1*
X1570215Y398355D1*
X1571357Y391148D1*
Y383852D1*
X1570215Y376645D1*
X1567960Y369705D1*
X1564648Y363204D1*
X1560359Y357301D1*
X1555199Y352141D1*
X1549296Y347852D1*
X1542795Y344540D1*
X1535855Y342285D1*
X1528648Y341143D1*
X1521352D1*
X1516509Y341815D1*
X1516500Y308494D1*
X1519224Y301869D1*
X1520928Y294774D1*
X1521500Y287500D1*
X1520928Y280226D1*
X1519224Y273131D1*
X1516432Y266389D1*
X1512619Y260168D1*
X1507880Y254620D1*
X1502332Y249881D1*
X1496111Y246068D1*
X1489369Y243276D1*
X1482274Y241572D1*
X1475000Y241000D1*
X1467726Y241572D1*
X1460631Y243276D1*
X1454032Y246003D1*
X1437716Y246000D1*
X1437749Y236000D1*
X1234750D1*
Y339000D1*
X1433514D1*
X1433500Y345309D1*
X1170322Y608488D1*
X1145982Y608500D1*
X1139369Y605776D1*
X1132274Y604072D1*
X1125000Y603500D1*
X1117141D1*
X1110914Y601021D1*
X1103056Y599134D1*
X1096500Y598500D1*
X916323D1*
X901500Y583668D1*
Y526521D1*
X1087751Y526500D1*
Y423500D1*
X870959Y423659D1*
X862978Y424923D1*
X855292Y427420D1*
X848091Y431089D1*
X841553Y435839D1*
X819097Y458071D1*
X810839Y466553D1*
X806089Y473091D1*
X802420Y480292D1*
X799923Y487978D1*
X798659Y495959D1*
X798500Y527559D1*
Y598502D1*
X762480Y598500D1*
X762500Y412495D1*
X1151955Y412346D1*
X1154784Y411549D1*
X1157347Y410113D1*
X1159505Y408118D1*
X1161138Y405675D1*
X1162155Y402918D1*
X1162500Y400000D1*
Y62509D1*
X5137487Y62500D1*
X5137654Y401955D1*
X5138451Y404784D1*
X5139887Y407347D1*
X5141882Y409505D1*
X5144325Y411138D1*
X5147082Y412155D1*
X5150000Y412500D1*
X5394910D1*
X5393703Y420209D1*
X5393558Y427552D1*
X5394365Y434851D1*
X5396113Y441984D1*
X5398771Y448830D1*
X5402295Y455273D1*
X5406624Y461205D1*
X5411687Y466525D1*
X5417397Y471144D1*
X5423657Y474983D1*
X5430363Y477978D1*
X5437400Y480077D1*
X5444650Y481246D1*
X5451991Y481465D1*
X5459298Y480730D1*
X5466448Y479053D1*
X5473320Y476463D1*
X5479798Y473003D1*
X5485773Y468733D1*
X5487501Y467253D1*
X5487500Y1032746D1*
X5483210Y1029291D1*
X5475650Y1024658D1*
X5467459Y1021265D1*
X5458839Y1019196D1*
X5450000Y1018500D1*
X5441161Y1019196D1*
X5432541Y1021265D1*
X5424350Y1024658D1*
X5416790Y1029291D1*
X5410048Y1035048D1*
X5404291Y1041790D1*
X5400005Y1048730D1*
X5395709Y1041790D1*
X5389952Y1035048D1*
X5383210Y1029291D1*
X5375650Y1024658D1*
X5367459Y1021265D1*
X5358839Y1019196D1*
X5350000Y1018500D1*
X5341161Y1019196D1*
X5332541Y1021265D1*
X5324350Y1024658D1*
X5316790Y1029291D1*
X5310048Y1035048D1*
X5304291Y1041790D1*
X5299658Y1049350D1*
X5296265Y1057541D1*
X5294196Y1066161D1*
X5293500Y1075000D1*
X5294196Y1083839D1*
X5294922Y1087493D1*
X5148045Y1087654D1*
X5145216Y1088451D1*
X5142653Y1089887D1*
X5140495Y1091882D1*
X5138862Y1094325D1*
X5137845Y1097082D1*
X5137500Y1100000D1*
Y1437491D1*
X1162513Y1437500D1*
X1162346Y1098045D1*
X1161549Y1095216D1*
X1160113Y1092653D1*
X1158118Y1090495D1*
X1155675Y1088862D1*
X1152918Y1087845D1*
X1150000Y1087500D1*
X762487D1*
X762500Y892266D1*
X767963Y886694D1*
X773174Y879521D1*
X777199Y871622D1*
X779939Y863190D1*
X781326Y854433D1*
Y845567D1*
X779939Y836810D1*
X777199Y828378D1*
X773174Y820479D1*
X767963Y813306D1*
X762496Y807778D1*
X762500Y792293D1*
X767963Y786694D1*
X773174Y779521D1*
X777199Y771622D1*
X779939Y763190D1*
X781326Y754433D1*
Y745567D1*
X779939Y736810D1*
X777199Y728378D1*
X773174Y720479D1*
X767963Y713306D1*
X762496Y707778D1*
X762500Y701506D1*
X1095000Y701500D1*
X1103056Y700866D1*
X1110914Y698979D1*
X1117046Y696502D1*
X1128648Y696357D1*
X1135855Y695215D1*
X1142808Y692954D1*
X1152559Y691500D1*
X1190756Y691372D1*
X1197188Y690353D1*
X1203381Y688341D1*
X1209184Y685385D1*
X1214452Y681557D1*
X1242828Y653362D1*
X1484972Y411218D1*
X1488502Y416254D1*
X1488612Y502864D1*
X1489508Y508521D1*
X1491278Y513968D1*
X1493879Y519071D1*
X1497245Y523705D1*
X1531669Y558288D1*
X1616342Y642961D1*
X1617285Y648355D1*
X1619540Y655295D1*
X1622852Y661796D1*
X1627141Y667699D1*
X1632301Y672859D1*
X1638204Y677148D1*
X1644705Y680460D1*
X1651645Y682715D1*
X1658852Y683857D1*
X1666148D1*
X1673355Y682715D1*
X1680295Y680460D1*
X1686796Y677148D1*
X1692699Y672859D1*
X1697859Y667699D1*
X1702148Y661796D1*
X1705460Y655295D1*
X1707715Y648355D1*
X1708640Y642975D1*
X1740098Y611521D1*
X2410567Y611500D1*
X2393657Y628568D1*
X2390613Y632757D1*
X2388263Y637371D1*
X2386662Y642296D1*
X2385852Y647411D1*
X2385751Y714304D1*
X2385852Y796340D1*
X2386662Y801454D1*
X2388263Y806379D1*
X2390613Y810993D1*
X2393657Y815183D1*
X2397065Y818735D1*
X2392318Y823512D1*
X2191000Y823500D1*
Y833512D1*
X2179715Y833500D1*
X2110166Y763976D1*
X2246500Y764000D1*
Y661000D1*
X2043500D1*
Y671011D1*
X2020947Y671000D1*
X2014369Y668276D1*
X2007274Y666572D1*
X2000000Y666000D1*
X1992726Y666572D1*
X1985631Y668276D1*
X1978889Y671068D1*
X1972668Y674881D1*
X1967120Y679620D1*
X1962381Y685168D1*
X1958568Y691389D1*
X1955776Y698131D1*
X1954072Y705226D1*
X1953500Y712500D1*
X1954072Y719774D1*
X1955776Y726869D1*
X1958568Y733611D1*
X1962381Y739832D1*
X1967120Y745380D1*
X1972668Y750119D1*
X1978889Y753932D1*
X1985484Y756670D1*
X2135548Y906557D1*
X2140816Y910385D1*
X2146631Y913346D1*
X2126247Y913500D1*
X1315085D1*
X1296198Y894579D1*
X1295215Y889145D1*
X1292960Y882205D1*
X1289648Y875704D1*
X1285359Y869801D1*
X1280199Y864641D1*
X1274296Y860352D1*
X1267795Y857040D1*
X1260855Y854785D1*
X1253648Y853643D1*
X1246352D1*
X1239145Y854785D1*
X1232205Y857040D1*
X1225704Y860352D1*
X1219801Y864641D1*
X1214641Y869801D1*
X1210352Y875704D1*
X1207040Y882205D1*
X1204785Y889145D1*
X1203643Y896352D1*
Y903648D1*
X1204785Y910855D1*
X1207040Y917795D1*
X1210352Y924296D1*
X1214641Y930199D1*
X1219801Y935359D1*
X1225704Y939648D1*
X1232205Y942960D1*
X1239145Y945215D1*
X1244525Y946140D1*
X1276295Y977755D1*
X1280929Y981121D1*
X1286032Y983722D1*
X1291479Y985492D1*
X1297136Y986388D1*
X1345932Y986500D1*
X3018027D1*
X3016572Y992726D1*
X3016000Y1000000D1*
X3016572Y1007274D1*
X3018276Y1014369D1*
X3021068Y1021111D1*
X3024881Y1027332D1*
X3029620Y1032880D1*
X3035168Y1037619D1*
X3041389Y1041432D1*
X3048131Y1044224D1*
X3055226Y1045928D1*
X3062315Y1046493D1*
X3068103Y1051698D1*
X3072518Y1054403D1*
X3077302Y1056385D1*
X3082338Y1057594D1*
X3087500Y1058000D1*
X3298822D1*
X3317001Y1076170D1*
X3317000Y1086004D1*
X3203500Y1086000D1*
Y1105987D1*
X3126952Y1105943D1*
X3121684Y1102115D1*
X3115881Y1099159D1*
X3109688Y1097147D1*
X3103256Y1096128D1*
X3096744D1*
X3090312Y1097147D1*
X3084119Y1099159D1*
X3078316Y1102115D1*
X3073048Y1105943D1*
X3068443Y1110548D1*
X3064615Y1115816D1*
X3061659Y1121619D1*
X3059647Y1127812D1*
X3058628Y1134244D1*
Y1140756D1*
X3059647Y1147188D1*
X3061659Y1153381D1*
X3064615Y1159184D1*
X3068443Y1164452D1*
X3073048Y1169057D1*
X3078316Y1172885D1*
X3084119Y1175841D1*
X3090312Y1177853D1*
X3096744Y1178872D1*
X3103256D1*
X3109688Y1177853D1*
X3115881Y1175841D1*
X3121684Y1172885D1*
X3127018Y1168996D1*
X3203526Y1169000D1*
X3203500Y1189000D1*
X3318511D1*
X3318500Y1260977D1*
X3203500Y1261000D1*
Y1364000D1*
X3302686D1*
X5401477Y856500D2*
X5401500Y653500D1*
X5298500D1*
Y833695D1*
X5283668Y848500D1*
X5233626D1*
X5227920Y845203D1*
X5219005Y841510D1*
X5209621Y839257D1*
X5200000Y838500D1*
X5190379Y839257D1*
X5180995Y841510D1*
X5172080Y845203D1*
X5163851Y850245D1*
X5156513Y856513D1*
X5150245Y863851D1*
X5145203Y872080D1*
X5141510Y880995D1*
X5139257Y890379D1*
X5138500Y900000D1*
X5139257Y909621D1*
X5141510Y919005D1*
X5145203Y927920D1*
X5150245Y936149D1*
X5156513Y943487D1*
X5163851Y949755D1*
X5172080Y954797D1*
X5180995Y958490D1*
X5190379Y960743D1*
X5200000Y961500D1*
X5209621Y960743D1*
X5219005Y958490D1*
X5227920Y954797D1*
X5233530Y951505D1*
X5309041Y951341D1*
X5317022Y950077D1*
X5324708Y947580D1*
X5331909Y943911D1*
X5338447Y939161D1*
X5360903Y916929D1*
X5389161Y888447D1*
X5393911Y881909D1*
X5397580Y874708D1*
X5400077Y867022D1*
X5401342Y859025D1*
X4052687Y451500D2*
X4246500D1*
Y348500D1*
X4044699D1*
X4041500Y344127D1*
Y320982D1*
X4044224Y314369D1*
X4045928Y307274D1*
X4046500Y300000D1*
X4045928Y292726D1*
X4044224Y285631D1*
X4041432Y278889D1*
X4037619Y272668D1*
X4032880Y267120D1*
X4027332Y262381D1*
X4021111Y258568D1*
X4014369Y255776D1*
X4007274Y254072D1*
X4000000Y253500D1*
X3992726Y254072D1*
X3985631Y255776D1*
X3978889Y258568D1*
X3972668Y262381D1*
X3967120Y267120D1*
X3962381Y272668D1*
X3958568Y278889D1*
X3955776Y285631D1*
X3954072Y292726D1*
X3953500Y300000D1*
X3954072Y307274D1*
X3955776Y314369D1*
X3958503Y320968D1*
X3958628Y365756D1*
X3959647Y372188D1*
X3961659Y378381D1*
X3964615Y384184D1*
X3968443Y389452D1*
X3996638Y417828D1*
X4010548Y431557D1*
X4015816Y435385D1*
X4021619Y438341D1*
X4027812Y440353D1*
X4034244Y441372D1*
X4037513Y441500D1*
X4043500Y449550D1*
Y451500D1*
X4052687D1*
X3046318Y1245371D2*
X3044870Y1236227D1*
X3042009Y1227422D1*
X3037806Y1219173D1*
X3032364Y1211683D1*
X3025817Y1205136D1*
X3018327Y1199694D1*
X3010078Y1195491D1*
X3001273Y1192630D1*
X2992129Y1191182D1*
X2982871D1*
X2973727Y1192630D1*
X2964922Y1195491D1*
X2956673Y1199694D1*
X2949183Y1205136D1*
X2942636Y1211683D1*
X2937506Y1218706D1*
X2932364Y1211683D1*
X2925817Y1205136D1*
X2918327Y1199694D1*
X2910078Y1195491D1*
X2901273Y1192630D1*
X2892129Y1191182D1*
X2882871D1*
X2873727Y1192630D1*
X2864922Y1195491D1*
X2856673Y1199694D1*
X2849183Y1205136D1*
X2842636Y1211683D1*
X2837506Y1218706D1*
X2833188Y1212668D1*
X2828196Y1207282D1*
X2822573Y1202557D1*
X2816407Y1198567D1*
X2809793Y1195374D1*
X2802834Y1193027D1*
X2795637Y1191564D1*
X2788313Y1191006D1*
X2780978Y1191362D1*
X2773743Y1192626D1*
X2766722Y1194780D1*
X2760022Y1197789D1*
X2753748Y1201608D1*
X2747998Y1206176D1*
X2742859Y1211423D1*
X2738412Y1217268D1*
X2734726Y1223620D1*
X2731857Y1230381D1*
X2729851Y1237446D1*
X2728738Y1244706D1*
X2728536Y1252047D1*
X2729247Y1259357D1*
X2730861Y1266522D1*
X2733352Y1273431D1*
X2736683Y1279976D1*
X2740800Y1286058D1*
X2745642Y1291580D1*
X2751132Y1296458D1*
X2756180Y1299993D1*
X2749183Y1305136D1*
X2742636Y1311683D1*
X2737194Y1319173D1*
X2732991Y1327422D1*
X2730130Y1336227D1*
X2728682Y1345371D1*
Y1354629D1*
X2730130Y1363773D1*
X2732991Y1372578D1*
X2737194Y1380827D1*
X2742636Y1388317D1*
X2749183Y1394864D1*
X2756673Y1400306D1*
X2764922Y1404509D1*
X2773727Y1407370D1*
X2782871Y1408818D1*
X2792129D1*
X2801273Y1407370D1*
X2810078Y1404509D1*
X2818327Y1400306D1*
X2825817Y1394864D1*
X2832364Y1388317D1*
X2837494Y1381294D1*
X2842636Y1388317D1*
X2849183Y1394864D1*
X2856673Y1400306D1*
X2864922Y1404509D1*
X2873727Y1407370D1*
X2882871Y1408818D1*
X2892129D1*
X2901273Y1407370D1*
X2910078Y1404509D1*
X2918327Y1400306D1*
X2925817Y1394864D1*
X2928488Y1392395D1*
X2928500Y1409000D1*
X3046500D1*
Y1291000D1*
X3029958D1*
X3035232Y1284679D1*
X3040069Y1276785D1*
X3043612Y1268232D1*
X3045774Y1259230D1*
X3046500Y1250000D1*
X3046318Y1245371D1*
X2856206Y1300006D2*
X2849183Y1305136D1*
X2842636Y1311683D1*
X2837506Y1318706D1*
X2832364Y1311683D1*
X2825817Y1305136D1*
X2818794Y1300006D1*
X2824363Y1296067D1*
X2829800Y1291130D1*
X2834582Y1285556D1*
X2837497Y1281317D1*
X2842636Y1288317D1*
X2849183Y1294864D1*
X2856206Y1299994D1*
X3996357Y1246352D2*
X3995215Y1239145D1*
X3992960Y1232205D1*
X3989648Y1225704D1*
X3985359Y1219801D1*
X3980199Y1214641D1*
X3974296Y1210352D1*
X3967795Y1207040D1*
X3960855Y1204785D1*
X3953648Y1203643D1*
X3946352D1*
X3939145Y1204785D1*
X3932205Y1207040D1*
X3925704Y1210352D1*
X3919801Y1214641D1*
X3914641Y1219801D1*
X3910352Y1225704D1*
X3907040Y1232205D1*
X3904785Y1239145D1*
X3903643Y1246352D1*
Y1253648D1*
X3904785Y1260855D1*
X3907040Y1267795D1*
X3910352Y1274296D1*
X3914641Y1280199D1*
X3919801Y1285359D1*
X3925704Y1289648D1*
X3932205Y1292960D1*
X3939145Y1295215D1*
X3946352Y1296357D1*
X3953648D1*
X3960855Y1295215D1*
X3967795Y1292960D1*
X3974296Y1289648D1*
X3980199Y1285359D1*
X3985359Y1280199D1*
X3989648Y1274296D1*
X3992960Y1267795D1*
X3995215Y1260855D1*
X3996357Y1253648D1*
Y1246352D1*
X4696357Y846352D2*
X4695215Y839145D1*
X4692960Y832205D1*
X4689648Y825704D1*
X4685359Y819801D1*
X4680199Y814641D1*
X4674296Y810352D1*
X4667795Y807040D1*
X4660855Y804785D1*
X4653648Y803643D1*
X4646352D1*
X4639145Y804785D1*
X4632205Y807040D1*
X4625704Y810352D1*
X4619801Y814641D1*
X4614641Y819801D1*
X4610352Y825704D1*
X4607040Y832205D1*
X4604785Y839145D1*
X4603643Y846352D1*
Y853648D1*
X4604785Y860855D1*
X4607040Y867795D1*
X4610352Y874296D1*
X4614641Y880199D1*
X4619801Y885359D1*
X4625704Y889648D1*
X4632205Y892960D1*
X4639145Y895215D1*
X4646352Y896357D1*
X4653648D1*
X4660855Y895215D1*
X4667795Y892960D1*
X4674296Y889648D1*
X4680199Y885359D1*
X4685359Y880199D1*
X4689648Y874296D1*
X4692960Y867795D1*
X4695215Y860855D1*
X4696357Y853648D1*
Y846352D1*
X4596357D2*
X4595215Y839145D1*
X4592960Y832205D1*
X4589648Y825704D1*
X4585359Y819801D1*
X4580199Y814641D1*
X4574296Y810352D1*
X4567795Y807040D1*
X4560855Y804785D1*
X4553648Y803643D1*
X4546352D1*
X4539145Y804785D1*
X4532205Y807040D1*
X4525704Y810352D1*
X4519801Y814641D1*
X4514641Y819801D1*
X4510352Y825704D1*
X4507040Y832205D1*
X4504785Y839145D1*
X4503643Y846352D1*
Y853648D1*
X4504785Y860855D1*
X4507040Y867795D1*
X4510352Y874296D1*
X4514641Y880199D1*
X4519801Y885359D1*
X4525704Y889648D1*
X4532205Y892960D1*
X4539145Y895215D1*
X4546352Y896357D1*
X4553648D1*
X4560855Y895215D1*
X4567795Y892960D1*
X4574296Y889648D1*
X4580199Y885359D1*
X4585359Y880199D1*
X4589648Y874296D1*
X4592960Y867795D1*
X4595215Y860855D1*
X4596357Y853648D1*
Y846352D1*
X4496357D2*
X4495215Y839145D1*
X4492960Y832205D1*
X4489648Y825704D1*
X4485359Y819801D1*
X4480199Y814641D1*
X4474296Y810352D1*
X4467795Y807040D1*
X4460855Y804785D1*
X4453648Y803643D1*
X4446352D1*
X4439145Y804785D1*
X4432205Y807040D1*
X4425704Y810352D1*
X4419801Y814641D1*
X4414641Y819801D1*
X4410352Y825704D1*
X4407040Y832205D1*
X4404785Y839145D1*
X4403643Y846352D1*
Y853648D1*
X4404785Y860855D1*
X4407040Y867795D1*
X4410352Y874296D1*
X4414641Y880199D1*
X4419801Y885359D1*
X4425704Y889648D1*
X4432205Y892960D1*
X4439145Y895215D1*
X4446352Y896357D1*
X4453648D1*
X4460855Y895215D1*
X4467795Y892960D1*
X4474296Y889648D1*
X4480199Y885359D1*
X4485359Y880199D1*
X4489648Y874296D1*
X4492960Y867795D1*
X4495215Y860855D1*
X4496357Y853648D1*
Y846352D1*
X3912687Y896500D2*
X3996500D1*
Y803500D1*
X3903500D1*
Y896500D1*
X3912687D1*
X2057323Y1195489D2*
X2055911Y1186577D1*
X2053123Y1177996D1*
X2049027Y1169956D1*
X2043723Y1162657D1*
X2037343Y1156277D1*
X2030044Y1150973D1*
X2022004Y1146877D1*
X2013423Y1144089D1*
X2004511Y1142677D1*
X1995489D1*
X1986577Y1144089D1*
X1977996Y1146877D1*
X1969956Y1150973D1*
X1962657Y1156277D1*
X1956277Y1162657D1*
X1950973Y1169956D1*
X1946877Y1177996D1*
X1944089Y1186577D1*
X1942677Y1195489D1*
Y1204511D1*
X1944089Y1213423D1*
X1946877Y1222004D1*
X1950973Y1230044D1*
X1956277Y1237343D1*
X1962657Y1243723D1*
X1969956Y1249027D1*
X1977996Y1253123D1*
X1986577Y1255911D1*
X1995489Y1257323D1*
X2004511D1*
X2013423Y1255911D1*
X2022004Y1253123D1*
X2030044Y1249027D1*
X2037343Y1243723D1*
X2043723Y1237343D1*
X2049027Y1230044D1*
X2053123Y1222004D1*
X2055911Y1213423D1*
X2057323Y1204511D1*
Y1195489D1*
X1857471Y1198163D2*
X1856768Y1190853D1*
X1855139Y1183692D1*
X1852610Y1176796D1*
X1849224Y1170280D1*
X1845034Y1164248D1*
X1840110Y1158800D1*
X1834531Y1154023D1*
X1828389Y1149997D1*
X1821784Y1146786D1*
X1814823Y1144444D1*
X1807621Y1143007D1*
X1800295Y1142501D1*
X1792963Y1142932D1*
X1785747Y1144295D1*
X1778762Y1146566D1*
X1772125Y1149709D1*
X1765942Y1153672D1*
X1760315Y1158391D1*
X1755335Y1163789D1*
X1751083Y1169777D1*
X1747630Y1176259D1*
X1745031Y1183128D1*
X1743329Y1190272D1*
X1742551Y1197574D1*
X1742711Y1204917D1*
X1743805Y1212179D1*
X1745815Y1219242D1*
X1748710Y1225992D1*
X1752441Y1232317D1*
X1756948Y1238116D1*
X1762158Y1243292D1*
X1767985Y1247763D1*
X1774334Y1251454D1*
X1781102Y1254306D1*
X1788178Y1256272D1*
X1795447Y1257319D1*
X1802790Y1257432D1*
X1810088Y1256608D1*
X1817221Y1254861D1*
X1824073Y1252218D1*
X1830532Y1248724D1*
X1836494Y1244435D1*
X1841860Y1239421D1*
X1846543Y1233764D1*
X1850467Y1227556D1*
X1853568Y1220898D1*
X1855795Y1213900D1*
X1857111Y1206675D1*
X1857500Y1200000D1*
X1857471Y1198163D1*
X1957323Y1095489D2*
X1955911Y1086577D1*
X1953123Y1077996D1*
X1949027Y1069956D1*
X1943723Y1062657D1*
X1937343Y1056277D1*
X1930044Y1050973D1*
X1922004Y1046877D1*
X1913423Y1044089D1*
X1904511Y1042677D1*
X1895489D1*
X1886577Y1044089D1*
X1877996Y1046877D1*
X1869956Y1050973D1*
X1862657Y1056277D1*
X1856277Y1062657D1*
X1850973Y1069956D1*
X1846877Y1077996D1*
X1844089Y1086577D1*
X1842677Y1095489D1*
Y1104511D1*
X1844089Y1113423D1*
X1846877Y1122004D1*
X1850973Y1130044D1*
X1856277Y1137343D1*
X1862657Y1143723D1*
X1869956Y1149027D1*
X1877996Y1153123D1*
X1886577Y1155911D1*
X1895489Y1157323D1*
X1904511D1*
X1913423Y1155911D1*
X1922004Y1153123D1*
X1930044Y1149027D1*
X1937343Y1143723D1*
X1943723Y1137343D1*
X1949027Y1130044D1*
X1953123Y1122004D1*
X1955911Y1113423D1*
X1957323Y1104511D1*
Y1095489D1*
X1557323Y1195489D2*
X1555911Y1186577D1*
X1553123Y1177996D1*
X1549027Y1169956D1*
X1543723Y1162657D1*
X1537343Y1156277D1*
X1530044Y1150973D1*
X1522004Y1146877D1*
X1513423Y1144089D1*
X1504511Y1142677D1*
X1495489D1*
X1486577Y1144089D1*
X1477996Y1146877D1*
X1469956Y1150973D1*
X1462657Y1156277D1*
X1456277Y1162657D1*
X1450973Y1169956D1*
X1446877Y1177996D1*
X1444089Y1186577D1*
X1442677Y1195489D1*
Y1204511D1*
X1444089Y1213423D1*
X1446877Y1222004D1*
X1450973Y1230044D1*
X1456277Y1237343D1*
X1462657Y1243723D1*
X1469956Y1249027D1*
X1477996Y1253123D1*
X1486577Y1255911D1*
X1495489Y1257323D1*
X1504511D1*
X1513423Y1255911D1*
X1522004Y1253123D1*
X1530044Y1249027D1*
X1537343Y1243723D1*
X1543723Y1237343D1*
X1549027Y1230044D1*
X1553123Y1222004D1*
X1555911Y1213423D1*
X1557323Y1204511D1*
Y1195489D1*
X1357471Y1198163D2*
X1356768Y1190853D1*
X1355139Y1183692D1*
X1352610Y1176796D1*
X1349224Y1170280D1*
X1345034Y1164248D1*
X1340110Y1158800D1*
X1334531Y1154023D1*
X1328389Y1149997D1*
X1321784Y1146786D1*
X1314823Y1144444D1*
X1307621Y1143007D1*
X1300295Y1142501D1*
X1292963Y1142932D1*
X1285747Y1144295D1*
X1278762Y1146566D1*
X1272125Y1149709D1*
X1265942Y1153672D1*
X1260315Y1158391D1*
X1255335Y1163789D1*
X1251083Y1169777D1*
X1247630Y1176259D1*
X1245031Y1183128D1*
X1243329Y1190272D1*
X1242551Y1197574D1*
X1242711Y1204917D1*
X1243805Y1212179D1*
X1245815Y1219242D1*
X1248710Y1225992D1*
X1252441Y1232317D1*
X1256948Y1238116D1*
X1262158Y1243292D1*
X1267985Y1247763D1*
X1274334Y1251454D1*
X1281102Y1254306D1*
X1288178Y1256272D1*
X1295447Y1257319D1*
X1302790Y1257432D1*
X1310088Y1256608D1*
X1317221Y1254861D1*
X1324073Y1252218D1*
X1330532Y1248724D1*
X1336494Y1244435D1*
X1341860Y1239421D1*
X1346543Y1233764D1*
X1350467Y1227556D1*
X1353568Y1220898D1*
X1355795Y1213900D1*
X1357111Y1206675D1*
X1357500Y1200000D1*
X1357471Y1198163D1*
X1457323Y1095489D2*
X1455911Y1086577D1*
X1453123Y1077996D1*
X1449027Y1069956D1*
X1443723Y1062657D1*
X1437343Y1056277D1*
X1430044Y1050973D1*
X1422004Y1046877D1*
X1413423Y1044089D1*
X1404511Y1042677D1*
X1395489D1*
X1386577Y1044089D1*
X1377996Y1046877D1*
X1369956Y1050973D1*
X1362657Y1056277D1*
X1356277Y1062657D1*
X1350973Y1069956D1*
X1346877Y1077996D1*
X1344089Y1086577D1*
X1342677Y1095489D1*
Y1104511D1*
X1344089Y1113423D1*
X1346877Y1122004D1*
X1350973Y1130044D1*
X1356277Y1137343D1*
X1362657Y1143723D1*
X1369956Y1149027D1*
X1377996Y1153123D1*
X1386577Y1155911D1*
X1395489Y1157323D1*
X1404511D1*
X1413423Y1155911D1*
X1422004Y1153123D1*
X1430044Y1149027D1*
X1437343Y1143723D1*
X1443723Y1137343D1*
X1449027Y1130044D1*
X1453123Y1122004D1*
X1455911Y1113423D1*
X1457323Y1104511D1*
Y1095489D1*
X1916969Y248500D2*
X1893500D1*
Y267626D1*
X1887371Y269512D1*
X1882758Y271863D1*
X1878568Y274907D1*
X1858016Y295315D1*
X1858000Y263641D1*
X1875094Y246432D1*
X1878137Y242243D1*
X1880488Y237629D1*
X1882088Y232704D1*
X1882898Y227589D1*
X1883000Y201496D1*
X1906500Y201464D1*
X1907000Y205118D1*
X1907102Y217589D1*
X1907912Y222704D1*
X1909512Y227629D1*
X1911863Y232242D1*
X1914907Y236432D1*
X1917001Y238670D1*
X1917000Y248504D1*
X4840187Y451500D2*
X5034000D1*
Y436464D1*
X5037182Y438801D1*
X5155704Y557323D1*
X5150245Y563851D1*
X5145203Y572080D1*
X5141510Y580995D1*
X5139257Y590379D1*
X5138500Y600000D1*
X5139257Y609621D1*
X5141510Y619005D1*
X5145203Y627920D1*
X5150245Y636149D1*
X5156513Y643487D1*
X5163851Y649755D1*
X5172080Y654797D1*
X5180995Y658490D1*
X5190379Y660743D1*
X5200000Y661500D1*
X5209621Y660743D1*
X5219005Y658490D1*
X5227920Y654797D1*
X5236149Y649755D1*
X5243487Y643487D1*
X5249755Y636149D1*
X5254797Y627920D1*
X5258490Y619005D1*
X5260743Y609621D1*
X5261500Y600000D1*
X5260743Y590379D1*
X5258490Y580995D1*
X5254797Y572080D1*
X5249755Y563851D1*
X5243487Y556513D1*
X5236490Y550514D1*
X5236051Y544290D1*
X5234714Y538721D1*
X5232522Y533429D1*
X5229529Y528546D1*
X5225801Y524183D1*
X5073705Y372245D1*
X5069071Y368879D1*
X5063968Y366278D1*
X5058521Y364508D1*
X5052864Y363612D1*
X5034032Y363500D1*
X5034000Y348500D1*
X4831000D1*
Y363535D1*
X4415085Y363500D1*
X4398076Y346457D1*
X4403648Y346357D1*
X4410855Y345215D1*
X4417795Y342960D1*
X4424296Y339648D1*
X4430199Y335359D1*
X4435359Y330199D1*
X4439648Y324296D1*
X4442960Y317795D1*
X4445215Y310855D1*
X4446357Y303648D1*
Y296352D1*
X4445215Y289145D1*
X4442960Y282205D1*
X4439648Y275704D1*
X4435359Y269801D1*
X4430199Y264641D1*
X4424296Y260352D1*
X4417795Y257040D1*
X4410855Y254785D1*
X4403648Y253643D1*
X4396352D1*
X4389145Y254785D1*
X4382205Y257040D1*
X4375704Y260352D1*
X4369801Y264641D1*
X4364641Y269801D1*
X4360352Y275704D1*
X4357040Y282205D1*
X4354785Y289145D1*
X4353643Y296352D1*
X4353577Y301952D1*
X4346161Y294542D1*
X4345215Y289145D1*
X4342960Y282205D1*
X4339648Y275704D1*
X4335359Y269801D1*
X4330199Y264641D1*
X4324296Y260352D1*
X4317795Y257040D1*
X4310855Y254785D1*
X4303648Y253643D1*
X4296352D1*
X4289145Y254785D1*
X4282205Y257040D1*
X4275704Y260352D1*
X4269801Y264641D1*
X4264641Y269801D1*
X4260352Y275704D1*
X4257040Y282205D1*
X4254785Y289145D1*
X4253643Y296352D1*
Y303648D1*
X4254785Y310855D1*
X4257040Y317795D1*
X4260352Y324296D1*
X4264641Y330199D1*
X4269801Y335359D1*
X4275704Y339648D1*
X4282205Y342960D1*
X4289145Y345215D1*
X4294525Y346140D1*
X4376295Y427755D1*
X4380929Y431121D1*
X4386032Y433722D1*
X4391479Y435492D1*
X4397136Y436388D1*
X4445932Y436500D1*
X4831005D1*
X4831000Y451500D1*
X4840187D1*
X1821357Y521352D2*
X1820215Y514145D1*
X1817960Y507205D1*
X1814648Y500704D1*
X1812134Y497052D1*
X1842003Y467166D1*
X1842000Y492256D1*
X1837381Y497668D1*
X1833568Y503889D1*
X1830776Y510631D1*
X1829072Y517726D1*
X1828500Y525000D1*
X1829072Y532274D1*
X1830532Y538504D1*
X1819465Y538500D1*
X1820928Y532274D1*
X1821500Y525000D1*
X1821357Y521352D1*
X1600123Y92001D2*
X1596684Y89615D1*
X1590881Y86659D1*
X1584688Y84647D1*
X1578256Y83628D1*
X1571744D1*
X1565312Y84647D1*
X1559119Y86659D1*
X1553316Y89615D1*
X1548048Y93443D1*
X1543443Y98048D1*
X1539615Y103316D1*
X1536659Y109119D1*
X1534647Y115312D1*
X1533628Y121744D1*
Y128256D1*
X1534647Y134688D1*
X1536659Y140881D1*
X1539615Y146684D1*
X1543443Y151952D1*
X1548048Y156557D1*
X1553316Y160385D1*
X1559119Y163341D1*
X1565312Y165353D1*
X1571744Y166372D1*
X1578256D1*
X1584688Y165353D1*
X1590881Y163341D1*
X1596684Y160385D1*
X1600123Y157999D1*
X1611351Y158000D1*
X1658884Y205553D1*
X1660531Y212824D1*
X1663023Y218841D1*
X1666426Y224393D1*
X1670655Y229345D1*
X1675607Y233574D1*
X1681159Y236977D1*
X1687176Y239469D1*
X1693508Y240989D1*
X1700000Y241500D1*
X1706492Y240989D1*
X1712824Y239469D1*
X1718841Y236977D1*
X1724393Y233574D1*
X1729345Y229345D1*
X1733574Y224393D1*
X1736977Y218841D1*
X1739469Y212824D1*
X1740989Y206492D1*
X1741500Y200000D1*
X1740989Y193508D1*
X1739469Y187176D1*
X1736977Y181159D1*
X1733574Y175607D1*
X1729345Y170655D1*
X1724393Y166426D1*
X1718841Y163023D1*
X1712824Y160531D1*
X1705569Y158902D1*
X1646432Y99907D1*
X1642243Y96863D1*
X1637629Y94512D1*
X1632704Y92912D1*
X1627589Y92102D1*
X1600132Y92000D1*
X5056326Y1370567D2*
X5054939Y1361810D1*
X5052199Y1353378D1*
X5048174Y1345479D1*
X5042963Y1338306D1*
X5036694Y1332037D1*
X5029521Y1326826D1*
X5021622Y1322801D1*
X5013190Y1320061D1*
X5004433Y1318674D1*
X4995567D1*
X4986810Y1320061D1*
X4978378Y1322801D1*
X4970479Y1326826D1*
X4963306Y1332037D1*
X4957037Y1338306D1*
X4951826Y1345479D1*
X4947801Y1353378D1*
X4945061Y1361810D1*
X4943674Y1370567D1*
Y1379433D1*
X4945061Y1388190D1*
X4947801Y1396622D1*
X4951826Y1404521D1*
X4957037Y1411694D1*
X4963306Y1417963D1*
X4970479Y1423174D1*
X4978378Y1427199D1*
X4986810Y1429939D1*
X4995567Y1431326D1*
X5004433D1*
X5013190Y1429939D1*
X5021622Y1427199D1*
X5029521Y1423174D1*
X5036694Y1417963D1*
X5042963Y1411694D1*
X5048174Y1404521D1*
X5052199Y1396622D1*
X5054939Y1388190D1*
X5056326Y1379433D1*
Y1370567D1*
X4746357Y296352D2*
X4745215Y289145D1*
X4742960Y282205D1*
X4739648Y275704D1*
X4735359Y269801D1*
X4730199Y264641D1*
X4724296Y260352D1*
X4717795Y257040D1*
X4710855Y254785D1*
X4703648Y253643D1*
X4696352D1*
X4689145Y254785D1*
X4682205Y257040D1*
X4675704Y260352D1*
X4669801Y264641D1*
X4664641Y269801D1*
X4660352Y275704D1*
X4657040Y282205D1*
X4654785Y289145D1*
X4653643Y296352D1*
Y303648D1*
X4654785Y310855D1*
X4657040Y317795D1*
X4660352Y324296D1*
X4664641Y330199D1*
X4669801Y335359D1*
X4675704Y339648D1*
X4682205Y342960D1*
X4689145Y345215D1*
X4696352Y346357D1*
X4703648D1*
X4710855Y345215D1*
X4717795Y342960D1*
X4724296Y339648D1*
X4730199Y335359D1*
X4735359Y330199D1*
X4739648Y324296D1*
X4742960Y317795D1*
X4745215Y310855D1*
X4746357Y303648D1*
Y296352D1*
X4646357D2*
X4645215Y289145D1*
X4642960Y282205D1*
X4639648Y275704D1*
X4635359Y269801D1*
X4630199Y264641D1*
X4624296Y260352D1*
X4617795Y257040D1*
X4610855Y254785D1*
X4603648Y253643D1*
X4596352D1*
X4589145Y254785D1*
X4582205Y257040D1*
X4575704Y260352D1*
X4569801Y264641D1*
X4564641Y269801D1*
X4560352Y275704D1*
X4557040Y282205D1*
X4554785Y289145D1*
X4553643Y296352D1*
Y303648D1*
X4554785Y310855D1*
X4557040Y317795D1*
X4560352Y324296D1*
X4564641Y330199D1*
X4569801Y335359D1*
X4575704Y339648D1*
X4582205Y342960D1*
X4589145Y345215D1*
X4596352Y346357D1*
X4603648D1*
X4610855Y345215D1*
X4617795Y342960D1*
X4624296Y339648D1*
X4630199Y335359D1*
X4635359Y330199D1*
X4639648Y324296D1*
X4642960Y317795D1*
X4645215Y310855D1*
X4646357Y303648D1*
Y296352D1*
X4546357D2*
X4545215Y289145D1*
X4542960Y282205D1*
X4539648Y275704D1*
X4535359Y269801D1*
X4530199Y264641D1*
X4524296Y260352D1*
X4517795Y257040D1*
X4510855Y254785D1*
X4503648Y253643D1*
X4496352D1*
X4489145Y254785D1*
X4482205Y257040D1*
X4475704Y260352D1*
X4469801Y264641D1*
X4464641Y269801D1*
X4460352Y275704D1*
X4457040Y282205D1*
X4454785Y289145D1*
X4453643Y296352D1*
Y303648D1*
X4454785Y310855D1*
X4457040Y317795D1*
X4460352Y324296D1*
X4464641Y330199D1*
X4469801Y335359D1*
X4475704Y339648D1*
X4482205Y342960D1*
X4489145Y345215D1*
X4496352Y346357D1*
X4503648D1*
X4510855Y345215D1*
X4517795Y342960D1*
X4524296Y339648D1*
X4530199Y335359D1*
X4535359Y330199D1*
X4539648Y324296D1*
X4542960Y317795D1*
X4545215Y310855D1*
X4546357Y303648D1*
Y296352D1*
X4246357D2*
X4245215Y289145D1*
X4242960Y282205D1*
X4239648Y275704D1*
X4235359Y269801D1*
X4230199Y264641D1*
X4224296Y260352D1*
X4217795Y257040D1*
X4210855Y254785D1*
X4203648Y253643D1*
X4196352D1*
X4189145Y254785D1*
X4182205Y257040D1*
X4175704Y260352D1*
X4169801Y264641D1*
X4164641Y269801D1*
X4160352Y275704D1*
X4157040Y282205D1*
X4154785Y289145D1*
X4153643Y296352D1*
Y303648D1*
X4154785Y310855D1*
X4157040Y317795D1*
X4160352Y324296D1*
X4164641Y330199D1*
X4169801Y335359D1*
X4175704Y339648D1*
X4182205Y342960D1*
X4189145Y345215D1*
X4196352Y346357D1*
X4203648D1*
X4210855Y345215D1*
X4217795Y342960D1*
X4224296Y339648D1*
X4230199Y335359D1*
X4235359Y330199D1*
X4239648Y324296D1*
X4242960Y317795D1*
X4245215Y310855D1*
X4246357Y303648D1*
Y296352D1*
X4146357D2*
X4145215Y289145D1*
X4142960Y282205D1*
X4139648Y275704D1*
X4135359Y269801D1*
X4130199Y264641D1*
X4124296Y260352D1*
X4117795Y257040D1*
X4110855Y254785D1*
X4103648Y253643D1*
X4096352D1*
X4089145Y254785D1*
X4082205Y257040D1*
X4075704Y260352D1*
X4069801Y264641D1*
X4064641Y269801D1*
X4060352Y275704D1*
X4057040Y282205D1*
X4054785Y289145D1*
X4053643Y296352D1*
Y303648D1*
X4054785Y310855D1*
X4057040Y317795D1*
X4060352Y324296D1*
X4064641Y330199D1*
X4069801Y335359D1*
X4075704Y339648D1*
X4082205Y342960D1*
X4089145Y345215D1*
X4096352Y346357D1*
X4103648D1*
X4110855Y345215D1*
X4117795Y342960D1*
X4124296Y339648D1*
X4130199Y335359D1*
X4135359Y330199D1*
X4139648Y324296D1*
X4142960Y317795D1*
X4145215Y310855D1*
X4146357Y303648D1*
Y296352D1*
X4500185Y646493D2*
X4507428Y645897D1*
X4461341Y691990D1*
X4454654Y692000D1*
X4500192Y646477D1*
X4600185Y646493D2*
X4607428Y645897D1*
X4536322Y717009D1*
X4529654Y717000D1*
X4600160Y646509D1*
X2440000Y1363964D2*
D14*
Y1312500D1*
X2496464D1*
X3260000Y1363964D2*
Y1261036D1*
X3203536Y1312500D2*
X3260000D1*
X5350000Y710000D2*
Y653536D1*
X5298536Y710000D2*
X5401464D1*
X2897500Y901464D2*
Y798536D1*
X2841036Y850000D2*
X2897500D1*
X1291249Y338964D2*
Y236036D1*
X1234785Y287500D2*
X1291249D1*
X4190000Y451464D2*
Y348536D1*
Y400000D2*
X4246464D1*
X2190000Y763964D2*
Y661036D1*
Y712500D2*
X2246464D1*
X2240000Y201464D2*
Y98536D1*
Y150000D2*
X2296464D1*
X2787500Y1250000D2*
Y1191036D1*
X2728536Y1250000D2*
X2787500D1*
X5450000Y481464D2*
Y425000D1*
X5393536D2*
X5450000D1*
X1800000Y1257464D2*
Y1142536D1*
X1742536Y1200000D2*
X1857464D1*
X1300000Y1257464D2*
Y1142536D1*
X1242536Y1200000D2*
X1357464D1*
X1750000Y300000D2*
Y243536D1*
X1698536Y300000D2*
X1750000D1*
X1031251Y526464D2*
Y423536D1*
Y475000D2*
X1087715D1*
X4000000Y600000D2*
Y553536D1*
X3953536Y600000D2*
X4046464D1*
X4100000D2*
Y553536D1*
X4053536Y600000D2*
X4146464D1*
X4200000D2*
Y553536D1*
X4153536Y600000D2*
X4246464D1*
D28*
X2350000Y1312500D3*
X2440000D3*
X3350000D3*
X3260000D3*
D29*
X5350000Y800000D3*
Y710000D3*
D28*
X2987500Y850000D3*
X2897500D3*
X1381249Y287500D3*
X1291249D3*
X4100000Y400000D3*
X4190000D3*
X2100000Y712500D3*
X2190000D3*
X2150000Y150000D3*
X2240000D3*
D32*
X2987500Y1250000D3*
X2887500Y1350000D3*
X2787500D3*
D33*
X2987500D3*
D32*
X2787500Y1250000D3*
X2887500D3*
D34*
X300000Y750000D3*
X5450000Y1075000D3*
Y425000D3*
D35*
X3950000Y1250000D3*
X4050000D3*
X4150000D3*
X4250000D3*
X4350000D3*
X4450000D3*
X4550000D3*
X4650000D3*
Y850000D3*
X4550000D3*
X4450000D3*
X4350000D3*
X4250000D3*
X4150000D3*
X4050000D3*
D36*
X3950000D3*
D28*
X2337500Y1137500D3*
X2247500D3*
X3800000Y225000D3*
X3710000D3*
X2337500Y875000D3*
X2247500D3*
X3800000Y412500D3*
X3710000D3*
D39*
X2000000Y1200000D3*
X1800000D3*
X1900000Y1100000D3*
D28*
X3800000Y600000D3*
X3710000D3*
D39*
X1500000Y1200000D3*
X1300000D3*
X1400000Y1100000D3*
D28*
X1950000Y300000D3*
X2040000D3*
X1850000Y150000D3*
X1940000D3*
X3350000Y1137500D3*
X3260000D3*
D29*
X1750000Y300000D3*
Y390000D3*
D28*
X4887500Y400000D3*
X4977500D3*
X950000Y650000D3*
X1040000D3*
X1031251Y475000D3*
X941251D3*
D41*
X5200000Y600000D3*
Y900000D3*
D34*
X725000Y650000D3*
Y750000D3*
Y850000D3*
D35*
X4700000Y300000D3*
X4600000D3*
X4500000D3*
X4400000D3*
X4300000D3*
X4200000D3*
X4100000D3*
X4000000D3*
Y600000D3*
X4100000D3*
X4200000D3*
X4300000D3*
X4400000D3*
X4500000D3*
X4600000D3*
D36*
X4700000D3*
M02*
