M48
INCH
T01C0.015
T02C0.0191
T03C0.025
T04C0.028
T05C0.03
T06C0.035
T07C0.042
T08C0.082
T09C0.1457
%
T09
X+009500Y+002000
X+053500Y+013000
X+053500Y+002000
X+009500Y+013000
T07
X+029875Y+012500
X+028875Y+013500
X+027875Y+013500
X+029875Y+013500
X+027875Y+012500
X+028875Y+012500
X+003000Y+007500
X+054500Y+010750
X+054500Y+004250
T03
X+039500Y+012500
X+040500Y+012500
X+041500Y+012500
X+042500Y+012500
X+043500Y+012500
X+044500Y+012500
X+045500Y+012500
X+046500Y+012500
X+046500Y+008500
X+045500Y+008500
X+044500Y+008500
X+043500Y+008500
X+042500Y+008500
X+041500Y+008500
X+040500Y+008500
X+039500Y+008500
T04
X+020000Y+012000
X+018000Y+012000
X+019000Y+011000
X+015000Y+012000
X+013000Y+012000
X+014000Y+011000
T07
X+052000Y+006000
X+052000Y+009000
T02
X+008500Y+010250
X+019750Y+005250
X+011188Y+004750
X+011250Y+006500
X+014562Y+004750
X+022000Y+000750
X+021000Y+002000
T01
X+028625Y+005125
X+029125Y+005125
X+029625Y+005125
X+030125Y+005125
X+039000Y+006000
X+039000Y+004125
X+039000Y+002250
T02
X+026875Y+013500
T01
X+023000Y+004875
X+026125Y+004500
T02
X+015250Y+003875
X+020000Y+007125
T01
X+025750Y+004000
X+028125Y+005625
X+029375Y+006500
X+024750Y+006625
T02
X+040875Y+009750
X+040875Y+009250
X+032500Y+009875
X+047500Y+012500
X+017750Y+005250
X+018750Y+005250
T01
X+024500Y+008250
X+027250Y+008625
X+030625Y+005625
T05
X+028875Y+007375
X+030000Y+007375
T01
X+025125Y+007000
X+026375Y+008250
T02
X+024500Y+009000
X+024250Y+012250
T01
X+031000Y+011375
T02
X+016625Y+006375
X+012500Y+009000
X+031000Y+009500
X+021375Y+011375
T01
X+026125Y+006188
T02
X+035875Y+005125
X+030625Y+010000
X+014750Y+002875
T01
X+015750Y+001250
X+017000Y+002000
T02
X+031500Y+008750
T08
X+005000Y+007500
X+001000Y+007500
T07
X+050000Y+013750
X+050000Y+012250
X+053500Y+010750
X+053500Y+004250
X+001000Y+008750
X+001000Y+006250
X+003250Y+008750
X+003250Y+006250
T01
X+026500Y+003625
T06
X+007250Y+006500
X+007250Y+007500
X+007250Y+008500
T03
X+047000Y+003000
X+046000Y+003000
X+045000Y+003000
X+044000Y+003000
X+043000Y+003000
X+042000Y+003000
X+041000Y+003000
X+040000Y+003000
X+040000Y+006000
X+041000Y+006000
X+042000Y+006000
X+043000Y+006000
X+044000Y+006000
X+045000Y+006000
X+046000Y+006000
X+047000Y+006000
T00
M30
