M48
INCH
T01C0.015
T02C0.0191
T03C0.025
T04C0.028
T05C0.03
T06C0.035
T07C0.042
T08C0.062
T09C0.0669
T10C0.1
T11C0.1457
%
T07
X+029875Y+012500
X+028875Y+013500
X+027875Y+013500
X+029875Y+013500
X+027875Y+012500
X+028875Y+012500
X+003000Y+007500
T08
X+051875Y+010250
X+051875Y+004750
T09
X+051500Y+006750
X+051500Y+008250
T03
X+039250Y+012500
X+040250Y+012500
X+041250Y+012500
X+042250Y+012500
X+043250Y+012500
X+044250Y+012500
X+045250Y+012500
X+046250Y+012500
X+046250Y+008500
X+045250Y+008500
X+044250Y+008500
X+043250Y+008500
X+042250Y+008500
X+041250Y+008500
X+040250Y+008500
X+039250Y+008500
T04
X+020000Y+012000
X+018000Y+012000
X+019000Y+011000
X+015000Y+012000
X+013000Y+012000
X+014000Y+011000
T07
X+050375Y+010750
X+050375Y+009750
X+050375Y+005250
X+050375Y+004250
X+046250Y+002750
X+046250Y+005750
T02
X+008500Y+010250
T11
X+009500Y+013000
T02
X+019750Y+005250
X+011188Y+004750
X+011250Y+006500
X+014562Y+004750
X+021500Y+002375
X+020750Y+001875
T01
X+028625Y+005125
X+029125Y+005125
X+029625Y+005125
X+030125Y+005125
X+037875Y+006000
X+037875Y+004125
X+037875Y+002250
T02
X+026875Y+013500
T01
X+019250Y+004875
X+026125Y+004500
T02
X+015250Y+003875
X+020000Y+007125
T01
X+025750Y+004000
X+028125Y+005625
X+029375Y+006500
X+024625Y+006500
T02
X+040625Y+009750
X+040625Y+009250
X+032500Y+009875
X+047500Y+012500
X+017750Y+005250
X+018750Y+005250
T01
X+024500Y+008250
X+027250Y+008625
X+030625Y+005625
T05
X+028875Y+007375
X+030000Y+007375
T01
X+024938Y+006813
X+026375Y+008250
T02
X+024500Y+009000
X+024250Y+012250
T01
X+031000Y+011375
T02
X+016625Y+006375
X+012500Y+009000
X+031000Y+009500
X+021375Y+011375
T01
X+026125Y+006188
T02
X+035000Y+005125
X+030625Y+010000
X+014750Y+003250
T01
X+015750Y+001250
X+017000Y+002000
T02
X+031500Y+008750
T10
X+005000Y+007500
X+001000Y+007500
T11
X+009500Y+002000
X+051000Y+002000
T02
X+038875Y+003625
X+043125Y+003125
T08
X+001000Y+008875
X+003500Y+006125
T02
X+043125Y+004625
X+045250Y+007250
T01
X+027250Y+003750
T11
X+051000Y+013000
T07
X+040250Y+001750
X+041750Y+001750
T08
X+003500Y+008875
X+001000Y+006125
T02
X+044500Y+007000
X+043750Y+006750
X+025625Y+010500
T06
X+007250Y+006500
X+007250Y+007500
X+007250Y+008500
T01
X+039250Y+007625
X+039000Y+007250
X+038750Y+006875
X+038500Y+006500
T00
M30
