G04 DipTrace 3.3.0.0*
G04 Top.gbr*
%MOIN*%
G04 #@! TF.FileFunction,Copper,L1,Top*
G04 #@! TF.Part,Single*
%AMOUTLINE0*
4,1,16,
-0.025055,-0.011135,
-0.027386,-0.014844,
-0.027875,-0.019197,
-0.026429,-0.023332,
-0.023332,-0.026429,
-0.019197,-0.027875,
-0.014844,-0.027386,
-0.011135,-0.025055,
0.025055,0.011135,
0.027386,0.014844,
0.027875,0.019197,
0.026429,0.023332,
0.023332,0.026429,
0.019197,0.027875,
0.014844,0.027386,
0.011135,0.025055,
-0.025055,-0.011135,
0*%
%AMOUTLINE3*
4,1,16,
0.011135,-0.025055,
0.014844,-0.027386,
0.019197,-0.027875,
0.023332,-0.026429,
0.026429,-0.023332,
0.027875,-0.019197,
0.027386,-0.014844,
0.025055,-0.011135,
-0.011135,0.025055,
-0.014844,0.027386,
-0.019197,0.027875,
-0.023332,0.026429,
-0.026429,0.023332,
-0.027875,0.019197,
-0.027386,0.014844,
-0.025055,0.011135,
0.011135,-0.025055,
0*%
%AMOUTLINE6*
4,1,16,
-0.014849,0.03182,
-0.019371,0.034661,
-0.024678,0.035259,
-0.029719,0.033495,
-0.033495,0.029719,
-0.035259,0.024678,
-0.034661,0.019371,
-0.03182,0.014849,
0.014849,-0.03182,
0.019371,-0.034661,
0.024678,-0.035259,
0.029719,-0.033495,
0.033495,-0.029719,
0.035259,-0.024678,
0.034661,-0.019371,
0.03182,-0.014849,
-0.014849,0.03182,
0*%
%AMOUTLINE9*
4,1,16,
-0.03182,-0.014849,
-0.034661,-0.019371,
-0.035259,-0.024678,
-0.033495,-0.029719,
-0.029719,-0.033495,
-0.024678,-0.035259,
-0.019371,-0.034661,
-0.014849,-0.03182,
0.03182,0.014849,
0.034661,0.019371,
0.035259,0.024678,
0.033495,0.029719,
0.029719,0.033495,
0.024678,0.035259,
0.019371,0.034661,
0.014849,0.03182,
-0.03182,-0.014849,
0*%
%AMOUTLINE12*
4,1,8,
-0.034421,0.018741,
-0.034421,0.027927,
-0.027927,0.034421,
-0.018741,0.034421,
0.034421,-0.018741,
0.034421,-0.027927,
0.027927,-0.034421,
0.018741,-0.034421,
-0.034421,0.018741,
0*%
G04 #@! TA.AperFunction,Conductor*
%ADD14C,0.013*%
G04 #@! TA.AperFunction,CopperBalancing*
%ADD15C,0.02*%
G04 #@! TA.AperFunction,ViaPad*
%ADD16C,0.04*%
G04 #@! TA.AperFunction,Conductor*
%ADD17C,0.027*%
%ADD18C,0.05*%
G04 #@! TA.AperFunction,ViaPad*
%ADD19C,0.03*%
G04 #@! TA.AperFunction,CopperBalancing*
%ADD20C,0.025*%
G04 #@! TA.AperFunction,Conductor*
%ADD21C,0.024*%
%ADD22C,0.021*%
G04 #@! TA.AperFunction,ViaPad*
%ADD24C,0.08*%
%ADD25C,0.06*%
G04 #@! TA.AperFunction,Conductor*
%ADD26C,0.01*%
%ADD31R,0.06X0.05*%
%ADD33R,0.027X0.036*%
%ADD34R,0.036X0.027*%
G04 #@! TA.AperFunction,ComponentPad*
%ADD35C,0.065*%
%ADD36R,0.065X0.065*%
%ADD37C,0.06*%
%ADD38R,0.098425X0.098425*%
%ADD39C,0.098425*%
%ADD40C,0.04*%
%ADD41R,0.04X0.04*%
%ADD43R,0.06X0.065*%
G04 #@! TA.AperFunction,ComponentPad*
%ADD44R,0.175X0.175*%
%ADD46C,0.062*%
%ADD48O,0.024X0.08*%
G04 #@! TA.AperFunction,ComponentPad*
%ADD49C,0.07*%
%ADD50O,0.1X0.045*%
%ADD51O,0.08X0.024*%
%ADD52R,0.059055X0.090551*%
%ADD53R,0.090551X0.090551*%
G04 #@! TA.AperFunction,ViaPad*
%ADD56C,0.259801*%
%ADD58C,0.135*%
%ADD123OUTLINE0*%
%ADD126OUTLINE3*%
%ADD129OUTLINE6*%
%ADD132OUTLINE9*%
%ADD135OUTLINE12*%
%FSLAX26Y26*%
G04*
G70*
G90*
G75*
G01*
G04 Top*
%LPD*%
X2200000Y331102D2*
D14*
X2564730D1*
X2732748Y499121D1*
X2866373Y877728D2*
Y883627D1*
X2987500Y1350000D2*
X2937500Y1300000D1*
X2862500D1*
X2837500Y1275000D1*
Y1175000D1*
X2762500Y1100000D1*
Y981601D1*
X2866373Y877728D1*
X2888646Y900000D2*
X2787500Y1001146D1*
Y1087500D1*
X2887500Y1187500D1*
Y1250000D1*
X3250000Y880000D2*
Y793663D1*
X3178169Y721832D1*
X3350000Y880000D2*
Y804577D1*
X3222711Y677289D1*
X3400000Y880000D2*
Y687500D1*
X3262500Y550000D1*
X3238646D1*
X3222711Y565934D1*
X3500000Y880000D2*
Y712500D1*
X3287500Y500000D1*
X3199559D1*
X3178168Y521391D1*
X3550000Y880000D2*
Y725000D1*
X3300000Y475000D1*
X3180018D1*
X3155898Y499121D1*
X1925000Y825000D2*
D15*
Y1075000D1*
X1900000Y1100000D1*
X3200000D2*
D14*
Y1037500D1*
X3250000Y987500D1*
Y1100000D2*
Y1137500D1*
X3350000Y1237500D1*
X3825000D1*
X3887500Y1300000D1*
X4275000D1*
X4325000Y1250000D1*
X4087500Y925000D2*
X4075000D1*
X4037500Y962500D1*
X3350000D1*
X3300000Y1012500D1*
Y1100000D1*
X3350000D2*
Y1025000D1*
X3387500Y987500D1*
X4075000D1*
X4087500Y975000D1*
X3400000Y1100000D2*
Y1037500D1*
X3425000Y1012500D1*
X4125000D1*
Y850000D1*
X3450000Y1100000D2*
Y1137500D1*
X3525000Y1212500D1*
X3887500D1*
X3925000Y1250000D1*
X3500000Y1100000D2*
Y1137500D1*
X3550000Y1187500D1*
X4562500D1*
X4625000Y1250000D1*
X3550000Y1100000D2*
Y1137500D1*
X3575000Y1162500D1*
X4512500D1*
X4525000Y1150000D1*
Y850000D1*
X1975000Y525000D2*
D15*
Y605000D1*
X1118751Y475000D2*
D16*
X1073751D1*
D17*
X1050000D1*
X950000Y1025000D2*
D18*
X895000D1*
D16*
X850000D1*
X1456249Y475000D2*
D14*
X1366421D1*
X1332188Y509234D1*
X1456249Y475000D2*
X1437133D1*
X1367543Y544589D1*
X1456249Y475000D2*
X1548269D1*
X1583210Y509941D1*
X1456249Y475000D2*
X1477558D1*
X1547854Y545297D1*
X1456249Y475000D2*
Y528008D1*
X1403605Y580652D1*
X1456249Y475000D2*
Y524402D1*
X1512500Y580652D1*
X2200000Y150000D2*
D19*
Y75000D1*
X2535000Y1370000D2*
D14*
X2667500D1*
X2687500Y1350000D1*
X2450000Y900000D2*
D19*
X2465000D1*
X2535000Y970000D1*
X2650000Y362500D2*
D14*
Y371831D1*
X2755018Y476849D1*
X3887500Y362500D2*
D20*
X3940000D1*
D21*
X3992500D1*
Y412500D2*
X3937500D1*
D20*
X3887500Y362500D1*
X3992500Y312500D2*
D21*
X3937500D1*
D20*
X3887500Y362500D1*
X1475000Y287500D2*
D15*
X1483210D1*
X1547854Y222856D1*
X2100000Y200000D2*
D14*
Y112500D1*
X2062500Y75000D1*
X1695710D1*
X1547854Y222856D1*
X1975000Y825000D2*
D21*
Y770000D1*
D19*
Y737500D1*
X2000000Y712500D1*
X3150000Y875000D2*
D22*
X3162500Y862500D1*
Y795247D1*
X3133627Y766374D1*
X3150000Y875000D2*
D19*
Y1162500D1*
X3062500Y1250000D1*
X2987500D1*
X1999214Y150000D2*
D18*
Y331102D1*
X4212500Y312500D2*
D21*
X4267500D1*
D19*
X4312500D1*
X5037500Y1075000D2*
D18*
X5137500D1*
X5187500Y1025000D1*
X5037500Y975000D2*
X5137500D1*
X5187500Y1025000D1*
Y912500D2*
Y1025000D1*
X5037500Y1075000D2*
Y975000D1*
X4750000Y1250000D2*
D14*
Y825000D1*
X4687500Y762500D1*
X4325000D1*
X4287500Y725000D1*
Y675000D1*
X4275000Y662500D1*
X4212500D1*
Y612500D2*
X4275000D1*
X4312500Y650000D1*
Y712500D1*
X4337500Y737500D1*
X4500000D1*
X4512500Y725000D1*
X4525000D1*
X4212500Y562500D2*
X4275000D1*
X4337500Y625000D1*
Y700000D1*
X4350000Y712500D1*
X4425000D1*
X4437500Y700000D1*
X4450000D1*
X4212500Y512500D2*
X4262500D1*
X4362500Y612500D1*
Y675000D1*
X4375000D1*
X2862500Y512500D2*
Y450705D1*
X2821832Y410037D1*
X3992500Y662500D2*
X3962500D1*
X3937500Y687500D1*
Y737500D1*
X3925000Y750000D1*
Y762500D1*
X2912500Y512500D2*
Y456163D1*
X2844102Y387765D1*
X3992500Y612500D2*
X3962500D1*
X3912500Y662500D1*
Y712500D1*
X3900000Y725000D1*
X2962500Y512500D2*
Y461621D1*
X2866374Y365495D1*
X3992500Y562500D2*
X3962500D1*
X3887500Y637500D1*
Y675000D1*
X3875000Y687500D1*
X3012500Y512500D2*
Y467077D1*
X2888646Y343223D1*
X3992500Y512500D2*
X3962500D1*
X3862500Y612500D1*
Y637500D1*
X3850000Y650000D1*
X3066814Y410037D2*
Y408186D1*
X3100000Y375000D1*
X3237500D1*
X3537500Y675000D1*
X3775000D1*
X3837500Y612500D1*
Y587500D1*
X3962500Y462500D1*
X3992500D1*
X3200000Y880000D2*
Y788205D1*
X3155898Y744102D1*
X100000Y750000D2*
D24*
X205000D1*
D25*
X300000D1*
X500000D2*
D24*
X345000D1*
D25*
X300000D1*
X500000D2*
D24*
X655000D1*
D25*
X725000D1*
X3300000Y880000D2*
D14*
Y799119D1*
X3200440Y699560D1*
X3062500Y1000000D2*
Y917958D1*
X3022272Y877728D1*
X3100000Y1137500D2*
D26*
X3062500D1*
X3025000Y1100000D1*
Y925000D1*
X3000000Y900000D1*
X3450000Y880000D2*
D14*
Y700000D1*
X3275000Y525000D1*
X3219104D1*
X3200440Y543663D1*
X4212500Y462500D2*
D20*
X4312500D1*
X3687500Y225000D2*
D15*
X3787500D1*
X3687500Y412500D2*
X3787500D1*
X3687500Y600000D2*
X3787500D1*
X1825000Y825000D2*
Y1050000D1*
X1775000Y1100000D1*
X1400000D1*
X1775000Y525000D2*
D14*
Y605000D1*
X1875000Y525000D2*
Y605000D1*
X1654627Y329629D2*
Y326621D1*
X1693748Y287500D1*
X1725000D1*
X1862500Y425000D1*
X2525000D1*
X2665934Y565934D1*
X1654629Y438524D2*
X1663524D1*
X1700000Y475000D1*
X1725000D1*
X1750000Y450000D1*
X2362500D1*
X2612500Y700000D1*
X2643223D1*
X2665934Y677289D1*
X1618566Y474585D2*
X1656480Y512500D1*
X1725000D1*
X1762500Y475000D1*
X1925000D1*
Y487500D1*
X2612500Y450000D2*
Y467957D1*
X2688206Y543663D1*
X2575000Y400000D2*
X1900000D1*
X1700000Y200000D1*
X2937500Y650000D2*
X3000000Y712500D1*
Y737500D1*
X3015669D1*
X3089085Y810916D1*
X3000000Y737500D2*
Y766373D1*
X3066814Y833186D1*
X1575000Y125000D2*
X1512500Y187500D1*
X2025000Y825000D2*
Y800000D1*
X2087500Y737500D1*
X2506251D1*
X2525000Y756249D1*
X2681251D1*
X2710476Y727024D1*
Y721832D1*
X2075000Y825000D2*
Y787500D1*
X2100000Y762500D1*
X2493751D1*
X2512500Y781249D1*
X2693751D1*
X2730898Y744102D1*
X2732748D1*
X2075000Y605000D2*
Y650000D1*
X2100000Y675000D1*
X2437500D1*
X2462500Y650000D1*
X2725000Y862500D2*
X2747976D1*
X2799560Y810916D1*
X2637500Y825000D2*
X2696392D1*
X2755018Y766374D1*
X2487500Y687500D2*
X2462500D1*
X2450000Y700000D1*
X2087500D1*
X2025000Y637500D1*
Y605000D1*
X725000Y850000D2*
D18*
X947500D1*
X1875000Y825000D2*
D15*
Y737500D1*
X1894650Y717850D1*
X1925000Y687500D1*
Y605000D1*
X725000Y650000D2*
D18*
X775566D1*
X898894D1*
X950000D1*
X954000Y475000D2*
D17*
X893751D1*
D18*
X843751Y525000D1*
Y594857D1*
X898894Y650000D1*
X1583210Y258211D2*
D15*
Y260541D1*
X1525000Y318751D1*
Y387500D1*
X3133627Y476849D2*
D14*
X3123151D1*
X1662500Y637500D2*
D15*
Y700000D1*
X1644861Y717639D1*
X1637500Y725000D1*
D18*
X1612500Y750000D1*
X875566D1*
X775566Y650000D1*
X1775000Y750000D2*
D15*
Y737585D1*
X1794946Y717639D1*
X1825000Y687585D1*
Y605000D1*
X1775000Y750000D2*
Y825000D1*
X1644861Y717639D2*
D18*
X1794946D1*
X1894650Y717850D2*
X1794946Y717639D1*
X3062500Y562500D2*
D14*
X2812500D1*
X3062500D2*
Y547976D1*
X3133627Y476849D1*
X1618566Y293567D2*
D15*
Y293934D1*
X1525000Y387500D1*
X2887500Y1350000D2*
D14*
X2875000D1*
X2825000Y1300000D1*
X2762500D1*
X2737500Y1275000D1*
Y962059D1*
X2844102Y855457D1*
X1037500Y850000D2*
D18*
X1100000D1*
X1150000Y900000D1*
Y975000D1*
X1100000Y1025000D1*
X1040000D1*
X1250000Y900000D2*
D15*
X1150000D1*
X3100000Y950000D2*
Y910915D1*
X3044543Y855458D1*
X3562500Y225000D2*
D14*
X3337500D1*
X3262500Y300000D1*
X3043223D1*
X3000000Y343223D1*
X3562500Y412500D2*
X3350000D1*
X3262500Y325000D1*
X3062765D1*
X3022272Y365495D1*
X3562500Y600000D2*
X3500000D1*
X3250000Y350000D1*
X3082308D1*
X3044543Y387765D1*
X2787500Y1350000D2*
X2775000D1*
X2712500Y1287500D1*
Y942518D1*
X2821832Y833186D1*
X2535000Y1225000D2*
X2625000D1*
X2650000D1*
X2712500Y1287500D1*
X2625000Y1150000D2*
Y1225000D1*
X2535000D2*
X2425000D1*
X2450000Y825000D2*
X2535000D1*
X2612500Y618751D2*
X2712500D1*
X2731249Y637500D1*
Y656516D1*
X2688206Y699560D1*
D19*
X3925000Y762500D3*
X3900000Y725000D3*
X3875000Y687500D3*
X3850000Y650000D3*
D16*
X850000Y1025000D3*
D56*
X950000Y1300000D3*
D16*
X1975000Y525000D3*
X1118751Y475000D3*
X1125000Y650000D3*
X1456249Y475000D3*
X2200000Y75000D3*
X2100000Y200000D3*
D19*
X2862500Y512500D3*
X2912500D3*
X2962500D3*
X3012500D3*
X3787500Y600000D3*
Y412500D3*
Y225000D3*
D16*
X2687500Y1350000D3*
D19*
X1925000Y487500D3*
X2612500Y450000D3*
D16*
X1525000Y387500D3*
X2000000Y712500D3*
D19*
X2575000Y400000D3*
X2812500Y562500D3*
X2937500Y650000D3*
X2462500D3*
D16*
X4087500Y975000D3*
Y925000D3*
X3250000Y987500D3*
X4750000Y1250000D3*
X1775000Y525000D3*
X1875000D3*
D19*
X2450000Y825000D3*
X2725000Y862500D3*
X3062500Y562500D3*
D25*
X2887500Y737500D3*
X3000000D3*
D19*
X2487500Y687500D3*
X2637500Y825000D3*
D16*
X2450000Y900000D3*
X2425000Y1225000D3*
D19*
X3100000Y1137500D3*
D16*
X1662500Y637500D3*
X1250000Y900000D3*
X3100000Y950000D3*
X2137500Y1137500D3*
D19*
X2612500Y618751D3*
D16*
X3500000Y512500D3*
X3062500Y1000000D3*
X1475000Y287500D3*
D19*
X1575000Y125000D3*
X1700000Y200000D3*
D16*
X3150000Y875000D3*
D58*
X500000Y750000D3*
X100000D3*
D56*
X950000Y200000D3*
X5100000D3*
D16*
X3887500Y362500D3*
X4312500Y312500D3*
D24*
X100000Y887500D3*
X350000Y612500D3*
D16*
X4312500Y462500D3*
X4525000Y725000D3*
D19*
X2650000Y362500D3*
D56*
X5100000Y1300000D3*
D25*
X4025000Y175000D3*
X4175000D3*
D24*
X350000Y887500D3*
X100000Y612500D3*
D16*
X4450000Y700000D3*
X4375000Y675000D3*
X1164983Y1412631D2*
D20*
X2245839D1*
X2354149D2*
X2480844D1*
X2589155D2*
X4885013D1*
X1164983Y1387762D2*
X2224344D1*
X2375680D2*
X2459349D1*
X2717118D2*
X2739677D1*
X3049011D2*
X4885013D1*
X1164983Y1362894D2*
X2221509D1*
X2378479D2*
X2456515D1*
X3049011D2*
X4885013D1*
X1164983Y1338025D2*
X2232884D1*
X2367139D2*
X2467854D1*
X3049011D2*
X4885013D1*
X1164983Y1313156D2*
X2656641D1*
X3049011D2*
X3851476D1*
X4311021D2*
X4885013D1*
X1164983Y1288287D2*
X2664105D1*
X3034872D2*
X3826609D1*
X4353903D2*
X4396127D1*
X4453876D2*
X4496100D1*
X4553886D2*
X4596109D1*
X4653895D2*
X4721130D1*
X4778879D2*
X4885013D1*
X1164983Y1263419D2*
X2239595D1*
X2360429D2*
X2396301D1*
X2453692D2*
X2474600D1*
X2595399D2*
X2639237D1*
X3047467D2*
X3327065D1*
X4672016D2*
X4702972D1*
X4797037D2*
X4885013D1*
X1164983Y1238550D2*
X1254825D1*
X1345158D2*
X1454843D1*
X1545176D2*
X1754835D1*
X1845168D2*
X1954854D1*
X2045150D2*
X2222909D1*
X3047862D2*
X3301874D1*
X4672555D2*
X4702434D1*
X4797575D2*
X4885013D1*
X1164983Y1213681D2*
X1241655D1*
X1358363D2*
X1441638D1*
X1558346D2*
X1741666D1*
X1858337D2*
X1941648D1*
X2058356D2*
X2222334D1*
X3036487D2*
X3277007D1*
X4656550D2*
X4714491D1*
X4785518D2*
X4885013D1*
X1164983Y1188812D2*
X1241081D1*
X1358901D2*
X1441100D1*
X1558884D2*
X1741092D1*
X1858911D2*
X1941110D1*
X2058894D2*
X2236975D1*
X2363048D2*
X2393287D1*
X2456706D2*
X2471981D1*
X2667490D2*
X2676981D1*
X2922985D2*
X3252139D1*
X4612987D2*
X4714491D1*
X4785518D2*
X4885013D1*
X1164983Y1163944D2*
X1252708D1*
X1347275D2*
X1452726D1*
X1547293D2*
X1752718D1*
X1847285D2*
X1952701D1*
X2047303D2*
X2582504D1*
X2667490D2*
X2676981D1*
X2913117D2*
X3042898D1*
X3134487D2*
X3183708D1*
X3216303D2*
X3227271D1*
X4588119D2*
X4714491D1*
X4785518D2*
X4885013D1*
X1164983Y1139075D2*
X1355301D1*
X1444700D2*
X1855311D1*
X1944675D2*
X2582504D1*
X2667490D2*
X2676981D1*
X2888249D2*
X3017026D1*
X3143960D2*
X3160634D1*
X4560488D2*
X4714491D1*
X4785518D2*
X4885013D1*
X1164983Y1114206D2*
X1341772D1*
X1814917D2*
X1841783D1*
X1958203D2*
X2582504D1*
X2667490D2*
X2676981D1*
X2863382D2*
X2994383D1*
X3136855D2*
X3158983D1*
X3591005D2*
X4489497D1*
X4560488D2*
X4714491D1*
X4785518D2*
X4885013D1*
X1159026Y1089337D2*
X1340983D1*
X1961074D2*
X2582504D1*
X2667490D2*
X2676981D1*
X2838514D2*
X2991010D1*
X3061391D2*
X3158983D1*
X3591005D2*
X4489497D1*
X4560488D2*
X4714491D1*
X4785518D2*
X4890970D1*
X765018Y1064469D2*
X822923D1*
X1135594D2*
X1352286D1*
X1964016D2*
X2582504D1*
X2667490D2*
X2676981D1*
X2823012D2*
X2991010D1*
X3058986D2*
X3159737D1*
X3590252D2*
X4489497D1*
X4560488D2*
X4714491D1*
X4785518D2*
X4979496D1*
X765018Y1039600D2*
X803366D1*
X1160749D2*
X1781282D1*
X1964016D2*
X2582504D1*
X2667490D2*
X2676981D1*
X2823012D2*
X2991010D1*
X3089380D2*
X3164510D1*
X4146349D2*
X4489497D1*
X4560488D2*
X4714491D1*
X4785518D2*
X4990979D1*
X765018Y1014731D2*
X802146D1*
X1185616D2*
X1785983D1*
X1964016D2*
X2250001D1*
X2349987D2*
X2485007D1*
X2667490D2*
X2676981D1*
X2823084D2*
X2991010D1*
X3109117D2*
X3173624D1*
X4160416D2*
X4489497D1*
X4560488D2*
X4714491D1*
X4785518D2*
X4994818D1*
X765018Y989862D2*
X817038D1*
X1201800D2*
X1785983D1*
X1964016D2*
X2225205D1*
X2374783D2*
X2460211D1*
X2609788D2*
X2676987D1*
X2847951D2*
X2991010D1*
X3126449D2*
X3198456D1*
X4160487D2*
X4489497D1*
X4560488D2*
X4714491D1*
X4785518D2*
X4980501D1*
X765018Y964993D2*
X1084662D1*
X1203989D2*
X1785983D1*
X1964016D2*
X2221258D1*
X2378730D2*
X2456263D1*
X2613735D2*
X2676987D1*
X2872819D2*
X2991010D1*
X3146508D2*
X3206817D1*
X4160487D2*
X4489497D1*
X4560488D2*
X4714491D1*
X4785518D2*
X4979388D1*
X765018Y940125D2*
X1096002D1*
X1203989D2*
X1224000D1*
X1276009D2*
X1785983D1*
X1964016D2*
X2231162D1*
X2368826D2*
X2424004D1*
X2603831D2*
X2677095D1*
X2902424D2*
X2986237D1*
X3147943D2*
X3176280D1*
X4160487D2*
X4489497D1*
X4560488D2*
X4714491D1*
X4785518D2*
X4990548D1*
X765018Y915256D2*
X1089937D1*
X1296427D2*
X1785983D1*
X1964016D2*
X2403585D1*
X2541429D2*
X2690587D1*
X2927291D2*
X2961369D1*
X3139008D2*
X3159701D1*
X3590323D2*
X4035562D1*
X4160487D2*
X4489497D1*
X4560488D2*
X4714491D1*
X4785518D2*
X5071001D1*
X1298006Y890387D2*
X1763304D1*
X1986695D2*
X2013309D1*
X2036682D2*
X2063296D1*
X2086704D2*
X2402007D1*
X2516561D2*
X2691771D1*
X3132692D2*
X3158983D1*
X3591005D2*
X3875985D1*
X3973997D2*
X3999463D1*
X4160487D2*
X4199445D1*
X4250557D2*
X4299455D1*
X4350530D2*
X4399464D1*
X4450539D2*
X4489497D1*
X4560488D2*
X4599446D1*
X4650558D2*
X4714491D1*
X4785518D2*
X5109325D1*
X5190686D2*
X5234991D1*
X1283688Y865518D2*
X1736104D1*
X2113905D2*
X2242430D1*
X2357558D2*
X2416288D1*
X2592564D2*
X2626032D1*
X2648974D2*
X2681114D1*
X3120671D2*
X3158983D1*
X3591005D2*
X3875985D1*
X4671335D2*
X4714491D1*
X4785518D2*
X5083524D1*
X5216451D2*
X5234991D1*
X1165988Y840650D2*
X1733987D1*
X2115986D2*
X2223554D1*
X2376433D2*
X2409076D1*
X2917961D2*
X2970699D1*
X3144319D2*
X3160706D1*
X3589283D2*
X3875985D1*
X4673057D2*
X4714491D1*
X4785518D2*
X5073405D1*
X5226571D2*
X5234991D1*
X1141120Y815781D2*
X1733987D1*
X2115986D2*
X2221868D1*
X2378120D2*
X2407030D1*
X2893883D2*
X2994742D1*
X3585515D2*
X3875985D1*
X3973997D2*
X3991030D1*
X4058971D2*
X4091003D1*
X4158980D2*
X4191013D1*
X4258989D2*
X4291022D1*
X4358999D2*
X4391031D1*
X4458972D2*
X4491004D1*
X4558981D2*
X4591014D1*
X4658990D2*
X4691597D1*
X4784190D2*
X5072364D1*
X1646298Y790912D2*
X1734489D1*
X2908416D2*
X2975364D1*
X3585515D2*
X3892241D1*
X3957742D2*
X4305699D1*
X4765064D2*
X5079900D1*
X5220111D2*
X5234991D1*
X2938774Y766043D2*
X2948738D1*
X3585515D2*
X3881153D1*
X3968866D2*
X4279360D1*
X4740196D2*
X5099995D1*
X5200016D2*
X5234991D1*
X2819244Y741175D2*
X2828634D1*
X3335761D2*
X3364492D1*
X3585515D2*
X3859299D1*
X3972777D2*
X4256250D1*
X4715329D2*
X5071790D1*
X2792833Y716306D2*
X2832617D1*
X3054860D2*
X3095827D1*
X3310893D2*
X3364492D1*
X3584331D2*
X3842613D1*
X3972992D2*
X4252016D1*
X4573191D2*
X5071790D1*
X983086Y691437D2*
X1595725D1*
X2765023D2*
X2852281D1*
X3035231D2*
X3123638D1*
X3286026D2*
X3354768D1*
X3807746D2*
X3831202D1*
X4048385D2*
X4156600D1*
X4559699D2*
X5071790D1*
X1092999Y666568D2*
X1623499D1*
X2765167D2*
X2896957D1*
X3003222D2*
X3146819D1*
X3265895D2*
X3329900D1*
X4061268D2*
X4143717D1*
X4484809D2*
X5071790D1*
X1092999Y641699D2*
X1370336D1*
X1389252D2*
X1526863D1*
X1545758D2*
X1613703D1*
X1711320D2*
X1734991D1*
X2115878D2*
X2419339D1*
X2766746D2*
X2894338D1*
X2980651D2*
X3170287D1*
X3241027D2*
X3305032D1*
X4055383D2*
X4149602D1*
X4409954D2*
X5071790D1*
X1092999Y616831D2*
X1341808D1*
X1424390D2*
X1491732D1*
X1574314D2*
X1618332D1*
X1706655D2*
X1733987D1*
X2115986D2*
X2435056D1*
X2759461D2*
X2910055D1*
X2964934D2*
X3186686D1*
X3222582D2*
X3280164D1*
X4061268D2*
X4143753D1*
X4398005D2*
X4577414D1*
X4672591D2*
X5071790D1*
X765018Y591962D2*
X789766D1*
X916198D2*
X1311773D1*
X1449258D2*
X1466865D1*
X1604206D2*
X1650592D1*
X1674395D2*
X1733987D1*
X2115986D2*
X2455295D1*
X2734270D2*
X2780764D1*
X3094225D2*
X3159629D1*
X4055562D2*
X4149423D1*
X4390828D2*
X4563383D1*
X4686621D2*
X5234991D1*
X765018Y567093D2*
X789766D1*
X897754D2*
X1289561D1*
X1627387D2*
X1735314D1*
X2114694D2*
X2430427D1*
X2754509D2*
X2768743D1*
X3106246D2*
X3134152D1*
X4061232D2*
X4143789D1*
X4366247D2*
X4561517D1*
X4688487D2*
X4997294D1*
X765018Y542224D2*
X789766D1*
X901844D2*
X1269250D1*
X2044002D2*
X2055975D1*
X2094025D2*
X2405559D1*
X3491391D2*
X3503508D1*
X3746491D2*
X3833606D1*
X4055741D2*
X4149279D1*
X4341379D2*
X4570452D1*
X4679552D2*
X4981182D1*
X765018Y517356D2*
X790304D1*
X926712D2*
X1052043D1*
X1140438D2*
X1238175D1*
X2023369D2*
X2380691D1*
X2804137D2*
X2818801D1*
X3466523D2*
X3858474D1*
X4061196D2*
X4143825D1*
X4316512D2*
X4601061D1*
X4648943D2*
X4979029D1*
X765018Y492487D2*
X801321D1*
X1164337D2*
X1212410D1*
X2010737D2*
X2355824D1*
X3441655D2*
X3883342D1*
X4055885D2*
X4149100D1*
X4350530D2*
X4988790D1*
X765018Y467618D2*
X825794D1*
X1167172D2*
X1197590D1*
X3416788D2*
X3503508D1*
X3746491D2*
X3908209D1*
X4061160D2*
X4143825D1*
X4361223D2*
X4997904D1*
X765018Y442749D2*
X850661D1*
X1154756D2*
X1202542D1*
X3818403D2*
X3910398D1*
X4056064D2*
X4148956D1*
X4357097D2*
X4981362D1*
X765018Y417881D2*
X1225185D1*
X1343040D2*
X1487283D1*
X1562688D2*
X1573548D1*
X3831142D2*
X3885243D1*
X4061124D2*
X4143861D1*
X4281130D2*
X4296907D1*
X4328102D2*
X4978958D1*
X1164983Y393012D2*
X1250052D1*
X1318747D2*
X1476338D1*
X1573668D2*
X1597340D1*
X2720347D2*
X2749473D1*
X3826657D2*
X3849898D1*
X4056208D2*
X4148813D1*
X4276214D2*
X4885013D1*
X1164983Y368143D2*
X1243055D1*
X1322479D2*
X1480214D1*
X2695480D2*
X2773982D1*
X3354816D2*
X3503508D1*
X3746491D2*
X3838845D1*
X4061088D2*
X4143933D1*
X4281094D2*
X4885013D1*
X1164983Y343274D2*
X1218187D1*
X1351007D2*
X1485991D1*
X1892427D2*
X1940679D1*
X2057746D2*
X2141487D1*
X2689272D2*
X2798850D1*
X2940533D2*
X2948128D1*
X3329948D2*
X3842649D1*
X4056351D2*
X4148633D1*
X4276357D2*
X4885013D1*
X1164983Y318406D2*
X1199097D1*
X1370348D2*
X1485991D1*
X1867560D2*
X1940679D1*
X2057746D2*
X2141487D1*
X2601212D2*
X2823933D1*
X2917710D2*
X2970914D1*
X3305080D2*
X3870244D1*
X4061052D2*
X4143968D1*
X4281058D2*
X4578921D1*
X4671083D2*
X4885013D1*
X1164983Y293537D2*
X1199635D1*
X1394534D2*
X1496110D1*
X1842692D2*
X1940679D1*
X2057746D2*
X2141487D1*
X2258518D2*
X2850128D1*
X2890618D2*
X2998043D1*
X3318142D2*
X3898808D1*
X4056495D2*
X4148490D1*
X4276501D2*
X4563849D1*
X4686155D2*
X4885013D1*
X1164983Y268668D2*
X1227840D1*
X1425108D2*
X1490799D1*
X1817824D2*
X1940679D1*
X2057746D2*
X2141487D1*
X2258518D2*
X3030375D1*
X3343010D2*
X3503508D1*
X3746491D2*
X4561337D1*
X4688667D2*
X4885013D1*
X1164983Y243799D2*
X1244132D1*
X1449329D2*
X1466793D1*
X1671991D2*
X1694622D1*
X1792956D2*
X3269543D1*
X3827016D2*
X4569519D1*
X4680485D2*
X4885013D1*
X1164983Y218930D2*
X1271762D1*
X1644073D2*
X1660567D1*
X1768089D2*
X1924926D1*
X2073499D2*
X2141487D1*
X2258518D2*
X3294410D1*
X3831070D2*
X4136971D1*
X4213022D2*
X4597222D1*
X4652782D2*
X4885013D1*
X1164983Y194062D2*
X1303735D1*
X1611777D2*
X1656441D1*
X1743580D2*
X1924926D1*
X2073499D2*
X2141487D1*
X2258518D2*
X3323512D1*
X3817650D2*
X4119316D1*
X4230677D2*
X4885013D1*
X1164983Y169193D2*
X1318986D1*
X1442260D2*
X1473862D1*
X1597280D2*
X1669682D1*
X1730303D2*
X1924926D1*
X2073499D2*
X2141487D1*
X2258518D2*
X3503508D1*
X3746491D2*
X4116302D1*
X4233691D2*
X4885013D1*
X1164983Y144324D2*
X1344787D1*
X1417392D2*
X1498730D1*
X1614217D2*
X1924926D1*
X2073499D2*
X2141487D1*
X2258518D2*
X4125058D1*
X4224935D2*
X4885013D1*
X1164983Y119455D2*
X1531384D1*
X1618631D2*
X1924926D1*
X2073499D2*
X2141487D1*
X2258518D2*
X4162162D1*
X4187831D2*
X4885013D1*
X1164983Y94587D2*
X1544267D1*
X1605749D2*
X1924926D1*
X2073499D2*
X2141487D1*
X2258518D2*
X4885013D1*
X1164983Y69718D2*
X2151284D1*
X2248686D2*
X4885013D1*
X994500Y624081D2*
Y610000D1*
X982407D1*
X976909Y606089D1*
X969708Y602420D1*
X962022Y599923D1*
X954041Y598659D1*
X922441Y598500D1*
X920252D1*
X895244Y573519D1*
X895251Y546306D1*
X926575Y515008D1*
X998500Y515000D1*
Y435000D1*
X926190D1*
X920659Y431089D1*
X913459Y427420D1*
X905773Y424923D1*
X897791Y423659D1*
X889710D1*
X881728Y424923D1*
X874042Y427420D1*
X866842Y431089D1*
X860304Y435839D1*
X837847Y458071D1*
X804590Y491553D1*
X799840Y498091D1*
X796171Y505292D1*
X793673Y512978D1*
X792409Y520959D1*
X792251Y552559D1*
Y594873D1*
X788657Y598500D1*
X762468D1*
X762500Y412495D1*
X1151955Y412346D1*
X1154784Y411549D1*
X1157347Y410113D1*
X1159505Y408118D1*
X1161138Y405675D1*
X1162155Y402918D1*
X1162500Y400000D1*
Y62509D1*
X2155224Y62500D1*
X2154072Y67726D1*
X2153500Y75000D1*
X2153627Y78235D1*
X2143972Y78224D1*
Y221776D1*
X2256028D1*
Y78224D1*
X2246375D1*
X2246357Y71352D1*
X2245215Y64145D1*
X2244755Y62511D1*
X4887517Y62500D1*
X4887654Y401955D1*
X4888451Y404784D1*
X4889887Y407347D1*
X4891882Y409505D1*
X4894325Y411138D1*
X4897082Y412155D1*
X4900000Y412500D1*
X4982426D1*
X4981174Y420567D1*
Y429433D1*
X4982561Y438190D1*
X4985301Y446622D1*
X4989326Y454521D1*
X4994537Y461694D1*
X5000806Y467963D1*
X5007979Y473174D1*
X5011230Y474995D1*
X5004290Y479291D1*
X4997548Y485048D1*
X4991791Y491790D1*
X4987158Y499350D1*
X4983765Y507541D1*
X4981696Y516161D1*
X4981000Y525000D1*
X4981696Y533839D1*
X4983765Y542459D1*
X4987158Y550650D1*
X4991791Y558210D1*
X4997548Y564952D1*
X5004290Y570709D1*
X5011850Y575342D1*
X5020041Y578735D1*
X5028661Y580804D1*
X5037500Y581500D1*
X5046339Y580804D1*
X5054959Y578735D1*
X5063150Y575342D1*
X5070710Y570709D1*
X5073500Y568510D1*
Y589000D1*
X5237527D1*
X5237500Y911027D1*
X5073500Y911000D1*
Y931461D1*
X5067643Y927212D1*
X5061190Y923706D1*
X5054337Y921067D1*
X5047199Y919339D1*
X5039898Y918551D1*
X5032556Y918717D1*
X5025297Y919834D1*
X5018245Y921882D1*
X5011518Y924829D1*
X5005230Y928622D1*
X4999487Y933200D1*
X4994386Y938484D1*
X4990014Y944384D1*
X4986444Y950802D1*
X4983737Y957629D1*
X4981938Y964749D1*
X4981077Y972042D1*
X4981170Y979385D1*
X4982215Y986655D1*
X4984194Y993727D1*
X4987073Y1000483D1*
X4990804Y1006808D1*
X4995324Y1012596D1*
X5000557Y1017749D1*
X5006414Y1022180D1*
X5011189Y1024999D1*
X5005230Y1028622D1*
X4999487Y1033200D1*
X4994386Y1038484D1*
X4990014Y1044384D1*
X4986444Y1050802D1*
X4983737Y1057629D1*
X4981938Y1064749D1*
X4981077Y1072042D1*
X4981170Y1079385D1*
X4982215Y1086655D1*
X4982408Y1087501D1*
X4898045Y1087654D1*
X4895216Y1088451D1*
X4892653Y1089887D1*
X4890495Y1091882D1*
X4888862Y1094325D1*
X4887845Y1097082D1*
X4887500Y1100000D1*
Y1437491D1*
X1162483Y1437500D1*
X1162346Y1098045D1*
X1161549Y1095216D1*
X1160113Y1092653D1*
X1158118Y1090495D1*
X1155675Y1088862D1*
X1152918Y1087845D1*
X1150000Y1087500D1*
X762487D1*
X762500Y901525D1*
X1078659Y901500D1*
X1098524Y921356D1*
X1098500Y953647D1*
X1078644Y973524D1*
X890959Y973659D1*
X882978Y974923D1*
X875292Y977420D1*
X872954Y978498D1*
X846352Y978643D1*
X839145Y979785D1*
X832205Y982040D1*
X825704Y985352D1*
X819801Y989641D1*
X814641Y994801D1*
X810352Y1000704D1*
X807040Y1007205D1*
X804785Y1014145D1*
X803643Y1021352D1*
Y1028648D1*
X804785Y1035855D1*
X807040Y1042795D1*
X810352Y1049296D1*
X814641Y1055199D1*
X819801Y1060359D1*
X825704Y1064648D1*
X832205Y1067960D1*
X839145Y1070215D1*
X846352Y1071357D1*
X872858Y1071500D1*
X879086Y1073980D1*
X886944Y1075866D1*
X895000Y1076500D1*
X1104041Y1076341D1*
X1112022Y1075077D1*
X1119708Y1072580D1*
X1126909Y1068911D1*
X1133447Y1064161D1*
X1155903Y1041929D1*
X1189161Y1008447D1*
X1193911Y1001909D1*
X1197580Y994708D1*
X1200077Y987022D1*
X1201341Y979041D1*
X1201500Y947441D1*
Y936496D1*
X1221158Y936500D1*
X1225704Y939648D1*
X1232205Y942960D1*
X1239145Y945215D1*
X1246352Y946357D1*
X1253648D1*
X1260855Y945215D1*
X1267795Y942960D1*
X1274296Y939648D1*
X1280199Y935359D1*
X1285359Y930199D1*
X1289648Y924296D1*
X1292960Y917795D1*
X1295215Y910855D1*
X1296357Y903648D1*
Y896352D1*
X1295215Y889145D1*
X1292960Y882205D1*
X1289648Y875704D1*
X1285359Y869801D1*
X1280199Y864641D1*
X1274296Y860352D1*
X1267795Y857040D1*
X1260855Y854785D1*
X1253648Y853643D1*
X1246352D1*
X1239145Y854785D1*
X1232205Y857040D1*
X1225704Y860352D1*
X1221246Y863502D1*
X1186306Y863500D1*
X1133447Y810839D1*
X1126909Y806089D1*
X1119693Y802415D1*
X1123597Y801500D1*
X1616541Y801341D1*
X1624522Y800077D1*
X1632208Y797580D1*
X1639409Y793911D1*
X1645947Y789161D1*
X1666196Y769136D1*
X1738483Y769139D1*
X1738384Y785103D1*
X1736974Y790977D1*
X1736500Y797012D1*
X1736619Y856021D1*
X1737564Y861988D1*
X1739431Y867733D1*
X1742173Y873116D1*
X1745724Y878004D1*
X1749996Y882276D1*
X1754884Y885827D1*
X1760267Y888569D1*
X1766012Y890436D1*
X1771979Y891381D1*
X1778021D1*
X1783988Y890436D1*
X1788504Y889023D1*
X1788500Y1034887D1*
X1759886Y1063495D1*
X1444399Y1063500D1*
X1440659Y1059341D1*
X1433798Y1053482D1*
X1426104Y1048767D1*
X1417768Y1045314D1*
X1408995Y1043208D1*
X1400000Y1042500D1*
X1391005Y1043208D1*
X1382232Y1045314D1*
X1373896Y1048767D1*
X1366202Y1053482D1*
X1359341Y1059341D1*
X1353482Y1066202D1*
X1348767Y1073896D1*
X1345314Y1082232D1*
X1343208Y1091005D1*
X1342500Y1100000D1*
X1343208Y1108995D1*
X1345314Y1117768D1*
X1348767Y1126104D1*
X1353482Y1133798D1*
X1359341Y1140659D1*
X1366202Y1146518D1*
X1373896Y1151233D1*
X1382232Y1154686D1*
X1391005Y1156792D1*
X1400000Y1157500D1*
X1408995Y1156792D1*
X1417768Y1154686D1*
X1426104Y1151233D1*
X1433798Y1146518D1*
X1440659Y1140659D1*
X1444389Y1136498D1*
X1777864Y1136388D1*
X1783521Y1135492D1*
X1788968Y1133722D1*
X1794071Y1131121D1*
X1798705Y1127755D1*
X1833288Y1093331D1*
X1845797Y1080821D1*
X1844089Y1086577D1*
X1842677Y1095489D1*
Y1104511D1*
X1844089Y1113423D1*
X1846877Y1122004D1*
X1850973Y1130044D1*
X1856277Y1137343D1*
X1862657Y1143723D1*
X1869956Y1149027D1*
X1877996Y1153123D1*
X1886577Y1155911D1*
X1895489Y1157323D1*
X1904511D1*
X1913423Y1155911D1*
X1922004Y1153123D1*
X1930044Y1149027D1*
X1937343Y1143723D1*
X1943723Y1137343D1*
X1949027Y1130044D1*
X1953123Y1122004D1*
X1955911Y1113423D1*
X1957323Y1104511D1*
Y1095489D1*
X1956981Y1092599D1*
X1959714Y1086279D1*
X1961051Y1080710D1*
X1961500Y1074989D1*
Y889084D1*
X1968150Y890886D1*
X1973626Y891475D1*
X1979129Y891278D1*
X1984548Y890297D1*
X1989772Y888553D1*
X1994694Y886082D1*
X1999994Y882269D1*
X2004884Y885827D1*
X2010267Y888569D1*
X2016012Y890436D1*
X2021979Y891381D1*
X2028021D1*
X2033988Y890436D1*
X2039733Y888569D1*
X2045116Y885827D1*
X2049994Y882283D1*
X2054884Y885827D1*
X2060267Y888569D1*
X2066012Y890436D1*
X2071979Y891381D1*
X2078021D1*
X2083988Y890436D1*
X2089733Y888569D1*
X2095116Y885827D1*
X2100004Y882276D1*
X2104276Y878004D1*
X2107827Y873116D1*
X2110569Y867733D1*
X2112436Y861988D1*
X2113381Y856021D1*
X2113500Y807068D1*
X2113464Y797000D1*
X2118373Y795500D1*
X2233382D1*
X2228841Y802754D1*
X2225898Y809858D1*
X2224103Y817335D1*
X2223500Y825000D1*
X2224103Y832665D1*
X2225898Y840142D1*
X2228841Y847246D1*
X2232858Y853801D1*
X2237852Y859648D1*
X2243699Y864642D1*
X2250254Y868659D1*
X2257358Y871602D1*
X2264835Y873397D1*
X2272500Y874000D1*
X2331344Y873849D1*
X2338939Y872646D1*
X2346251Y870270D1*
X2353102Y866779D1*
X2359323Y862260D1*
X2364760Y856823D1*
X2369279Y850602D1*
X2372770Y843751D1*
X2375146Y836439D1*
X2376349Y828844D1*
Y821156D1*
X2375146Y813561D1*
X2372770Y806249D1*
X2369279Y799398D1*
X2366593Y795502D1*
X2420655Y795655D1*
X2416426Y800607D1*
X2413023Y806159D1*
X2410531Y812176D1*
X2409011Y818508D1*
X2408500Y825000D1*
X2409011Y831492D1*
X2410531Y837824D1*
X2413023Y843841D1*
X2416426Y849393D1*
X2420655Y854345D1*
X2425607Y858574D1*
X2427057Y859543D1*
X2422668Y862381D1*
X2417120Y867120D1*
X2412381Y872668D1*
X2408568Y878889D1*
X2405776Y885631D1*
X2404072Y892726D1*
X2403500Y900000D1*
X2404072Y907274D1*
X2405776Y914369D1*
X2408568Y921111D1*
X2412381Y927332D1*
X2417120Y932880D1*
X2422668Y937619D1*
X2428889Y941432D1*
X2435631Y944224D1*
X2442726Y945928D1*
X2450000Y946500D1*
X2452694Y946394D1*
X2460898Y954858D1*
X2459103Y962335D1*
X2458500Y970000D1*
X2459103Y977665D1*
X2460898Y985142D1*
X2463841Y992246D1*
X2467858Y998801D1*
X2472852Y1004648D1*
X2478699Y1009642D1*
X2485254Y1013659D1*
X2492358Y1016602D1*
X2499835Y1018397D1*
X2507515Y1018999D1*
X2566344Y1018849D1*
X2573939Y1017646D1*
X2581251Y1015270D1*
X2585000Y1013526D1*
Y1098500D1*
X2665000D1*
Y1009500D1*
X2591502D1*
X2597148Y1004648D1*
X2602142Y998801D1*
X2606159Y992246D1*
X2609102Y985142D1*
X2610897Y977665D1*
X2611500Y970000D1*
X2610897Y962335D1*
X2609102Y954858D1*
X2606159Y947754D1*
X2602142Y941199D1*
X2597148Y935352D1*
X2591301Y930358D1*
X2584746Y926341D1*
X2577642Y923398D1*
X2570165Y921603D1*
X2562500Y921000D1*
X2544666D1*
X2496413Y872723D1*
X2503656Y873849D1*
X2535059Y874000D1*
X2566344Y873849D1*
X2573939Y872646D1*
X2581251Y870270D1*
X2588102Y866779D1*
X2594323Y862260D1*
X2599760Y856823D1*
X2604507Y850196D1*
X2608155Y854345D1*
X2613107Y858574D1*
X2618659Y861977D1*
X2624676Y864469D1*
X2631008Y865989D1*
X2637500Y866500D1*
X2643992Y865989D1*
X2650324Y864469D1*
X2656341Y861977D1*
X2662623Y857999D1*
X2683755Y858000D1*
X2683500Y862500D1*
X2684011Y868992D1*
X2685531Y875324D1*
X2688023Y881341D1*
X2691426Y886893D1*
X2695655Y891845D1*
X2700607Y896074D1*
X2706159Y899477D1*
X2708020Y900335D1*
X2687407Y921087D1*
X2684363Y925276D1*
X2682012Y929890D1*
X2680412Y934815D1*
X2679602Y939929D1*
X2679500Y1006823D1*
Y1207810D1*
X2671432Y1199907D1*
X2667243Y1196863D1*
X2662584Y1194500D1*
X2665000D1*
Y1105500D1*
X2585000D1*
Y1181467D1*
X2577642Y1178398D1*
X2570165Y1176603D1*
X2562500Y1176000D1*
X2503656Y1176151D1*
X2496061Y1177354D1*
X2488749Y1179730D1*
X2481898Y1183221D1*
X2475677Y1187740D1*
X2471332Y1191996D1*
X2457741Y1192000D1*
X2452332Y1187381D1*
X2446111Y1183568D1*
X2439369Y1180776D1*
X2432274Y1179072D1*
X2425000Y1178500D1*
X2417726Y1179072D1*
X2410631Y1180776D1*
X2403889Y1183568D1*
X2397668Y1187381D1*
X2392120Y1192120D1*
X2387381Y1197668D1*
X2383568Y1203889D1*
X2380776Y1210631D1*
X2379072Y1217726D1*
X2378500Y1225000D1*
X2379072Y1232274D1*
X2380776Y1239369D1*
X2383568Y1246111D1*
X2387381Y1252332D1*
X2392120Y1257880D1*
X2397668Y1262619D1*
X2403889Y1266432D1*
X2410631Y1269224D1*
X2417726Y1270928D1*
X2425000Y1271500D1*
X2432274Y1270928D1*
X2439369Y1269224D1*
X2446111Y1266432D1*
X2452332Y1262619D1*
X2457744Y1258006D1*
X2471255Y1258000D1*
X2475677Y1262260D1*
X2481898Y1266779D1*
X2488749Y1270270D1*
X2496061Y1272646D1*
X2503656Y1273849D1*
X2535059Y1274000D1*
X2566344Y1273849D1*
X2573939Y1272646D1*
X2581251Y1270270D1*
X2588102Y1266779D1*
X2594323Y1262260D1*
X2598668Y1258004D1*
X2636304Y1258000D1*
X2682158Y1303827D1*
X2676645Y1304785D1*
X2669705Y1307040D1*
X2663204Y1310352D1*
X2657301Y1314641D1*
X2652141Y1319801D1*
X2647852Y1325704D1*
X2644540Y1332205D1*
X2642893Y1336990D1*
X2598710Y1337000D1*
X2594323Y1332740D1*
X2588102Y1328221D1*
X2581251Y1324730D1*
X2573939Y1322354D1*
X2566344Y1321151D1*
X2534941Y1321000D1*
X2503656Y1321151D1*
X2496061Y1322354D1*
X2488749Y1324730D1*
X2481898Y1328221D1*
X2475677Y1332740D1*
X2470240Y1338177D1*
X2465721Y1344398D1*
X2462230Y1351249D1*
X2459854Y1358561D1*
X2458651Y1366156D1*
Y1373844D1*
X2459854Y1381439D1*
X2462230Y1388751D1*
X2465721Y1395602D1*
X2470240Y1401823D1*
X2475677Y1407260D1*
X2481898Y1411779D1*
X2488749Y1415270D1*
X2496061Y1417646D1*
X2503656Y1418849D1*
X2535059Y1419000D1*
X2566344Y1418849D1*
X2573939Y1417646D1*
X2581251Y1415270D1*
X2588102Y1411779D1*
X2594323Y1407260D1*
X2598668Y1403004D1*
X2670089Y1402898D1*
X2675204Y1402088D1*
X2680129Y1400488D1*
X2684742Y1398137D1*
X2687500Y1396500D1*
X2694774Y1395928D1*
X2701869Y1394224D1*
X2708611Y1391432D1*
X2714832Y1387619D1*
X2720380Y1382880D1*
X2725119Y1377332D1*
X2728932Y1371111D1*
X2730890Y1366631D1*
X2732991Y1372578D1*
X2737194Y1380827D1*
X2742636Y1388317D1*
X2749183Y1394864D1*
X2756673Y1400306D1*
X2764922Y1404509D1*
X2773727Y1407370D1*
X2782871Y1408818D1*
X2792129D1*
X2801273Y1407370D1*
X2810078Y1404509D1*
X2818327Y1400306D1*
X2825817Y1394864D1*
X2832364Y1388317D1*
X2837494Y1381294D1*
X2842636Y1388317D1*
X2849183Y1394864D1*
X2856673Y1400306D1*
X2864922Y1404509D1*
X2873727Y1407370D1*
X2882871Y1408818D1*
X2892129D1*
X2901273Y1407370D1*
X2910078Y1404509D1*
X2918327Y1400306D1*
X2925817Y1394864D1*
X2928488Y1392395D1*
X2928500Y1409000D1*
X3046500D1*
Y1291000D1*
X3029958D1*
X3034582Y1285556D1*
X3038635Y1279431D1*
X3041895Y1272850D1*
X3044313Y1265915D1*
X3045850Y1258733D1*
X3046483Y1251416D1*
X3046243Y1244496D1*
X3045104Y1237241D1*
X3043072Y1230183D1*
X3040180Y1223432D1*
X3036471Y1217093D1*
X3032003Y1211264D1*
X3026846Y1206035D1*
X3021079Y1201488D1*
X3014792Y1197692D1*
X3008081Y1194706D1*
X3001052Y1192578D1*
X2993813Y1191339D1*
X2986476Y1191009D1*
X2979155Y1191593D1*
X2971963Y1193082D1*
X2965012Y1195454D1*
X2958410Y1198670D1*
X2952258Y1202682D1*
X2946652Y1207427D1*
X2941680Y1212832D1*
X2937498Y1218686D1*
X2932364Y1211683D1*
X2925817Y1205136D1*
X2920509Y1201152D1*
X2920398Y1184911D1*
X2919588Y1179796D1*
X2917988Y1174871D1*
X2915637Y1170257D1*
X2912594Y1166068D1*
X2865365Y1118695D1*
X2820478Y1073809D1*
X2820500Y1014835D1*
X2883125Y952190D1*
X2886622Y950578D1*
X2893328Y946317D1*
X2902745Y937298D1*
X2933852Y906075D1*
X2938002Y899999D1*
X2940398Y895573D1*
X2941728Y891633D1*
X2942855Y883764D1*
X2942994Y879608D1*
X2942481Y875482D1*
X2940089Y867920D1*
X2938413Y864114D1*
X2936162Y860618D1*
X2930716Y854833D1*
X2927554Y852132D1*
X2924008Y849959D1*
X2918571Y847803D1*
X2916140Y841843D1*
X2913889Y838346D1*
X2908443Y832561D1*
X2905281Y829860D1*
X2901735Y827688D1*
X2896298Y825531D1*
X2893869Y819571D1*
X2891618Y816075D1*
X2886173Y810289D1*
X2883011Y807589D1*
X2879465Y805416D1*
X2874028Y803260D1*
X2871599Y797301D1*
X2869348Y793804D1*
X2865371Y789488D1*
X2874310Y792439D1*
X2883067Y793826D1*
X2891933D1*
X2900690Y792439D1*
X2909122Y789699D1*
X2917021Y785674D1*
X2924194Y780463D1*
X2930463Y774194D1*
X2935674Y767021D1*
X2939699Y759122D1*
X2942439Y750690D1*
X2943738Y742673D1*
X2945061Y750690D1*
X2947801Y759122D1*
X2951826Y767021D1*
X2957037Y774194D1*
X2963306Y780463D1*
X2970479Y785674D1*
X2975341Y788299D1*
X2999883Y812924D1*
X2996675Y816550D1*
X2994502Y820095D1*
X2992346Y825532D1*
X2986386Y827961D1*
X2982890Y830212D1*
X2977104Y835658D1*
X2974403Y838820D1*
X2972231Y842366D1*
X2970074Y847803D1*
X2964114Y850233D1*
X2960618Y852484D1*
X2954832Y857930D1*
X2952132Y861092D1*
X2949959Y864637D1*
X2947110Y872055D1*
X2946050Y876076D1*
X2945631Y880213D1*
X2946280Y888117D1*
X2947068Y892201D1*
X2948484Y896110D1*
X2952466Y902899D1*
X2956206Y907603D1*
X2992403Y943799D1*
X2993500Y952559D1*
X2993597Y1102471D1*
X2994370Y1107354D1*
X2995898Y1112055D1*
X2998142Y1116459D1*
X3001047Y1120458D1*
X3040226Y1159774D1*
X3043985Y1162984D1*
X3048199Y1165567D1*
X3052766Y1167458D1*
X3057572Y1168612D1*
X3062510Y1169000D1*
X3073048Y1169057D1*
X3078316Y1172885D1*
X3084119Y1175841D1*
X3090312Y1177853D1*
X3096744Y1178872D1*
X3103256D1*
X3109688Y1177853D1*
X3115881Y1175841D1*
X3121684Y1172885D1*
X3126952Y1169057D1*
X3131557Y1164452D1*
X3135385Y1159184D1*
X3138341Y1153381D1*
X3140353Y1147188D1*
X3141372Y1140756D1*
Y1134244D1*
X3140353Y1127812D1*
X3138341Y1121619D1*
X3135385Y1115816D1*
X3131557Y1110548D1*
X3126952Y1105943D1*
X3121684Y1102115D1*
X3115881Y1099159D1*
X3109688Y1097147D1*
X3103256Y1096128D1*
X3096744D1*
X3090312Y1097147D1*
X3084119Y1099159D1*
X3078316Y1102115D1*
X3074417Y1104864D1*
X3056482Y1086934D1*
X3056500Y1046138D1*
X3062500Y1046500D1*
X3069774Y1045928D1*
X3076869Y1044224D1*
X3083611Y1041432D1*
X3089832Y1037619D1*
X3095380Y1032880D1*
X3100119Y1027332D1*
X3103932Y1021111D1*
X3106724Y1014369D1*
X3108428Y1007274D1*
X3109000Y1000000D1*
X3108775Y995658D1*
X3114369Y994224D1*
X3121111Y991432D1*
X3127332Y987619D1*
X3132880Y982880D1*
X3137619Y977332D1*
X3141432Y971111D1*
X3144224Y964369D1*
X3145928Y957274D1*
X3146500Y950000D1*
X3145928Y942726D1*
X3144224Y935631D1*
X3141432Y928889D1*
X3137619Y922668D1*
X3136498Y921246D1*
X3136388Y908051D1*
X3135492Y902394D1*
X3133722Y896947D1*
X3131121Y891843D1*
X3127755Y887210D1*
X3113858Y873154D1*
X3116581Y869072D1*
X3119011Y863112D1*
X3124971Y860683D1*
X3128467Y858432D1*
X3134253Y852986D1*
X3136954Y849824D1*
X3139126Y846279D1*
X3141283Y840842D1*
X3147241Y838411D1*
X3150738Y836160D1*
X3156523Y830715D1*
X3159224Y827553D1*
X3161397Y824007D1*
X3163553Y818570D1*
X3165714Y817815D1*
X3167000Y824950D1*
Y832163D1*
X3164431Y837267D1*
X3162564Y843012D1*
X3161619Y848979D1*
X3161500Y897932D1*
X3161619Y911021D1*
X3162564Y916988D1*
X3164431Y922733D1*
X3167173Y928116D1*
X3170724Y933004D1*
X3174996Y937276D1*
X3179884Y940827D1*
X3185267Y943569D1*
X3191012Y945436D1*
X3196979Y946381D1*
X3203021D1*
X3208988Y945436D1*
X3214733Y943569D1*
X3220116Y940827D1*
X3224994Y937283D1*
X3229884Y940827D1*
X3235041Y943466D1*
X3228889Y946068D1*
X3222668Y949881D1*
X3217120Y954620D1*
X3212381Y960168D1*
X3208568Y966389D1*
X3205776Y973131D1*
X3204072Y980226D1*
X3203507Y987315D1*
X3174906Y1016068D1*
X3171863Y1020257D1*
X3169512Y1024871D1*
X3167912Y1029796D1*
X3167102Y1034911D1*
X3167000Y1052177D1*
X3164431Y1057267D1*
X3162564Y1063012D1*
X3161619Y1068979D1*
X3161500Y1117932D1*
X3161619Y1131021D1*
X3162564Y1136988D1*
X3164431Y1142733D1*
X3167173Y1148116D1*
X3170724Y1153004D1*
X3174996Y1157276D1*
X3179884Y1160827D1*
X3185267Y1163569D1*
X3191012Y1165436D1*
X3196979Y1166381D1*
X3203021D1*
X3208988Y1165436D1*
X3214733Y1163569D1*
X3220116Y1160827D1*
X3224123Y1157970D1*
X3233161Y1167330D1*
X3328568Y1262594D1*
X3332757Y1265637D1*
X3337371Y1267988D1*
X3342296Y1269588D1*
X3347411Y1270398D1*
X3414304Y1270500D1*
X3811363D1*
X3866068Y1325093D1*
X3870258Y1328137D1*
X3874871Y1330488D1*
X3879796Y1332088D1*
X3884911Y1332898D1*
X3951804Y1333000D1*
X4277589Y1332898D1*
X4282704Y1332088D1*
X4287629Y1330488D1*
X4292242Y1328137D1*
X4296432Y1325093D1*
X4325155Y1296514D1*
X4332274Y1295928D1*
X4339369Y1294224D1*
X4346111Y1291432D1*
X4352332Y1287619D1*
X4357880Y1282880D1*
X4362619Y1277332D1*
X4366432Y1271111D1*
X4369224Y1264369D1*
X4370928Y1257274D1*
X4371500Y1250000D1*
X4370928Y1242726D1*
X4369224Y1235631D1*
X4366432Y1228889D1*
X4362619Y1222668D1*
X4360915Y1220506D1*
X4389080Y1220500D1*
X4385352Y1225704D1*
X4382040Y1232205D1*
X4379785Y1239145D1*
X4378643Y1246352D1*
Y1253648D1*
X4379785Y1260855D1*
X4382040Y1267795D1*
X4385352Y1274296D1*
X4389641Y1280199D1*
X4394801Y1285359D1*
X4400704Y1289648D1*
X4407205Y1292960D1*
X4414145Y1295215D1*
X4421352Y1296357D1*
X4428648D1*
X4435855Y1295215D1*
X4442795Y1292960D1*
X4449296Y1289648D1*
X4455199Y1285359D1*
X4460359Y1280199D1*
X4464648Y1274296D1*
X4467960Y1267795D1*
X4470215Y1260855D1*
X4471357Y1253648D1*
Y1246352D1*
X4470215Y1239145D1*
X4467960Y1232205D1*
X4464648Y1225704D1*
X4460915Y1220506D1*
X4489053Y1220500D1*
X4485352Y1225704D1*
X4482040Y1232205D1*
X4479785Y1239145D1*
X4478643Y1246352D1*
Y1253648D1*
X4479785Y1260855D1*
X4482040Y1267795D1*
X4485352Y1274296D1*
X4489641Y1280199D1*
X4494801Y1285359D1*
X4500704Y1289648D1*
X4507205Y1292960D1*
X4514145Y1295215D1*
X4521352Y1296357D1*
X4528648D1*
X4535855Y1295215D1*
X4542795Y1292960D1*
X4549296Y1289648D1*
X4555199Y1285359D1*
X4560359Y1280199D1*
X4564648Y1274296D1*
X4567960Y1267795D1*
X4570215Y1260855D1*
X4571357Y1253648D1*
Y1246352D1*
X4570897Y1242572D1*
X4578520Y1250190D1*
X4579072Y1257274D1*
X4580776Y1264369D1*
X4583568Y1271111D1*
X4587381Y1277332D1*
X4592120Y1282880D1*
X4597668Y1287619D1*
X4603889Y1291432D1*
X4610631Y1294224D1*
X4617726Y1295928D1*
X4625000Y1296500D1*
X4632274Y1295928D1*
X4639369Y1294224D1*
X4646111Y1291432D1*
X4652332Y1287619D1*
X4657880Y1282880D1*
X4662619Y1277332D1*
X4666432Y1271111D1*
X4669224Y1264369D1*
X4670928Y1257274D1*
X4671500Y1250000D1*
X4670928Y1242726D1*
X4669224Y1235631D1*
X4666432Y1228889D1*
X4662619Y1222668D1*
X4657880Y1217120D1*
X4652332Y1212381D1*
X4646111Y1208568D1*
X4639369Y1205776D1*
X4632274Y1204072D1*
X4625185Y1203507D1*
X4583932Y1162407D1*
X4579742Y1159363D1*
X4575129Y1157012D1*
X4570204Y1155412D1*
X4565089Y1154602D1*
X4562490Y1154500D1*
X4557898Y1152589D1*
X4558000Y1085696D1*
Y882770D1*
X4562619Y877332D1*
X4566432Y871111D1*
X4569224Y864369D1*
X4570928Y857274D1*
X4571500Y850000D1*
X4570928Y842726D1*
X4569224Y835631D1*
X4566432Y828889D1*
X4562619Y822668D1*
X4557880Y817120D1*
X4552332Y812381D1*
X4546111Y808568D1*
X4539369Y805776D1*
X4532274Y804072D1*
X4525000Y803500D1*
X4517726Y804072D1*
X4510631Y805776D1*
X4503889Y808568D1*
X4497668Y812381D1*
X4492120Y817120D1*
X4487381Y822668D1*
X4483568Y828889D1*
X4480776Y835631D1*
X4479072Y842726D1*
X4478500Y850000D1*
X4479072Y857274D1*
X4480776Y864369D1*
X4483568Y871111D1*
X4487381Y877332D1*
X4491994Y882744D1*
X4492000Y1129502D1*
X3588662Y1129500D1*
X3588500Y1109627D1*
X3588381Y1068979D1*
X3587436Y1063012D1*
X3585569Y1057267D1*
X3582827Y1051884D1*
X3579276Y1046996D1*
X3577889Y1045496D1*
X4127589Y1045398D1*
X4132704Y1044588D1*
X4137629Y1042988D1*
X4142243Y1040637D1*
X4146432Y1037593D1*
X4150093Y1033932D1*
X4153137Y1029743D1*
X4155488Y1025129D1*
X4157088Y1020204D1*
X4157898Y1015089D1*
X4158000Y948196D1*
Y882779D1*
X4162619Y877332D1*
X4166432Y871111D1*
X4169224Y864369D1*
X4170928Y857274D1*
X4171500Y850000D1*
X4170928Y842726D1*
X4169224Y835631D1*
X4166432Y828889D1*
X4162619Y822668D1*
X4157880Y817120D1*
X4152332Y812381D1*
X4146111Y808568D1*
X4139369Y805776D1*
X4132274Y804072D1*
X4125000Y803500D1*
X4117726Y804072D1*
X4110631Y805776D1*
X4103889Y808568D1*
X4097668Y812381D1*
X4092120Y817120D1*
X4087381Y822668D1*
X4083568Y828889D1*
X4080776Y835631D1*
X4079072Y842726D1*
X4078500Y850000D1*
X4079072Y857274D1*
X4080776Y864369D1*
X4083568Y871111D1*
X4087381Y877332D1*
X4088308Y878508D1*
X4080226Y879072D1*
X4073131Y880776D1*
X4066389Y883568D1*
X4060168Y887381D1*
X4054620Y892120D1*
X4049881Y897668D1*
X4046068Y903889D1*
X4043616Y909707D1*
X4023830Y929501D1*
X3581950Y929500D1*
X3584304Y925479D1*
X3586616Y919897D1*
X3588026Y914023D1*
X3588500Y908000D1*
X3588381Y848979D1*
X3587436Y843012D1*
X3585569Y837267D1*
X3583006Y832203D1*
X3582898Y722411D1*
X3582088Y717296D1*
X3580488Y712371D1*
X3579398Y710009D1*
X3583432Y708000D1*
X3777589Y707898D1*
X3782704Y707088D1*
X3787629Y705488D1*
X3792242Y703137D1*
X3796432Y700093D1*
X3819014Y677655D1*
X3823048Y681557D1*
X3828316Y685385D1*
X3833506Y688059D1*
X3834011Y693992D1*
X3835531Y700324D1*
X3838023Y706341D1*
X3841426Y711893D1*
X3845655Y716845D1*
X3850607Y721074D1*
X3856159Y724477D1*
X3858506Y725559D1*
X3859011Y731492D1*
X3860531Y737824D1*
X3863023Y743841D1*
X3866426Y749393D1*
X3870655Y754345D1*
X3875607Y758574D1*
X3881159Y761977D1*
X3883506Y763059D1*
X3884011Y768992D1*
X3885531Y775324D1*
X3888023Y781341D1*
X3891426Y786893D1*
X3895655Y791845D1*
X3900607Y796074D1*
X3906159Y799477D1*
X3912176Y801969D1*
X3918596Y803500D1*
X3878500D1*
Y896500D1*
X3971500D1*
Y803500D1*
X3931492Y803489D1*
X3937824Y801969D1*
X3943841Y799477D1*
X3949393Y796074D1*
X3954345Y791845D1*
X3958574Y786893D1*
X3961977Y781341D1*
X3964469Y775324D1*
X3965989Y768992D1*
X3966500Y762500D1*
X3965989Y756008D1*
X3965713Y754622D1*
X3967988Y750129D1*
X3969588Y745204D1*
X3970398Y740089D1*
X3970500Y701149D1*
X4001246Y701000D1*
X4023521Y700881D1*
X4029488Y699936D1*
X4035233Y698069D1*
X4040616Y695327D1*
X4045504Y691776D1*
X4049776Y687504D1*
X4053327Y682616D1*
X4056069Y677233D1*
X4057936Y671488D1*
X4058881Y665521D1*
Y659479D1*
X4057936Y653512D1*
X4056069Y647767D1*
X4053327Y642384D1*
X4049783Y637506D1*
X4053327Y632616D1*
X4056069Y627233D1*
X4057936Y621488D1*
X4058881Y615521D1*
Y609479D1*
X4057936Y603512D1*
X4056069Y597767D1*
X4053327Y592384D1*
X4049783Y587506D1*
X4053327Y582616D1*
X4056069Y577233D1*
X4057936Y571488D1*
X4058881Y565521D1*
Y559479D1*
X4057936Y553512D1*
X4056069Y547767D1*
X4053327Y542384D1*
X4049783Y537506D1*
X4053327Y532616D1*
X4056069Y527233D1*
X4057936Y521488D1*
X4058881Y515521D1*
Y509479D1*
X4057936Y503512D1*
X4056069Y497767D1*
X4053327Y492384D1*
X4049783Y487506D1*
X4053327Y482616D1*
X4056069Y477233D1*
X4057936Y471488D1*
X4058881Y465521D1*
Y459479D1*
X4057936Y453512D1*
X4056069Y447767D1*
X4053327Y442384D1*
X4049783Y437506D1*
X4053327Y432616D1*
X4056069Y427233D1*
X4057936Y421488D1*
X4058881Y415521D1*
Y409479D1*
X4057936Y403512D1*
X4056069Y397767D1*
X4053327Y392384D1*
X4049783Y387506D1*
X4053327Y382616D1*
X4056069Y377233D1*
X4057936Y371488D1*
X4058881Y365521D1*
Y359479D1*
X4057936Y353512D1*
X4056069Y347767D1*
X4053327Y342384D1*
X4049783Y337506D1*
X4053327Y332616D1*
X4056069Y327233D1*
X4057936Y321488D1*
X4058881Y315521D1*
Y309479D1*
X4057936Y303512D1*
X4056069Y297767D1*
X4053327Y292384D1*
X4049776Y287496D1*
X4045504Y283224D1*
X4040616Y279673D1*
X4035233Y276931D1*
X4029488Y275064D1*
X4023521Y274119D1*
X3974568Y274000D1*
X3943601Y273980D1*
X3937500Y273500D1*
X3931399Y273980D1*
X3925448Y275409D1*
X3919794Y277751D1*
X3914576Y280948D1*
X3909923Y284923D1*
X3877825Y317021D1*
X3873131Y318276D1*
X3866389Y321068D1*
X3860168Y324881D1*
X3854620Y329620D1*
X3849881Y335168D1*
X3846068Y341389D1*
X3843276Y348131D1*
X3841572Y355226D1*
X3841000Y362500D1*
X3841572Y369774D1*
X3843276Y376869D1*
X3846068Y383611D1*
X3849881Y389832D1*
X3854620Y395380D1*
X3860168Y400119D1*
X3866389Y403932D1*
X3873131Y406724D1*
X3877778Y407941D1*
X3912171Y442156D1*
X3917122Y445753D1*
X3922575Y448531D1*
X3927993Y450309D1*
X3812400Y566076D1*
X3811893Y566426D1*
X3806341Y563023D1*
X3800324Y560531D1*
X3793992Y559011D1*
X3787500Y558500D1*
X3781008Y559011D1*
X3774676Y560531D1*
X3767804Y563502D1*
X3743972Y563500D1*
X3744000Y541000D1*
X3631000D1*
Y642014D1*
X3619011Y642000D1*
X3619000Y541000D1*
X3506000D1*
Y559337D1*
X3392177Y445507D1*
X3505989Y445500D1*
X3506000Y471500D1*
X3619000D1*
Y353500D1*
X3506000D1*
Y379516D1*
X3363666Y379500D1*
X3296680Y312511D1*
X3351173Y257997D1*
X3505976Y258000D1*
X3506000Y284000D1*
X3619000D1*
Y166000D1*
X3506000D1*
Y192016D1*
X3334911Y192102D1*
X3329796Y192912D1*
X3324871Y194512D1*
X3320257Y196863D1*
X3316068Y199906D1*
X3268695Y247135D1*
X3248827Y267003D1*
X3040634Y267102D1*
X3035519Y267912D1*
X3030594Y269512D1*
X3025981Y271863D1*
X3021791Y274906D1*
X3005501Y291052D1*
X3002023Y292645D1*
X2995559Y296729D1*
X2992397Y299430D1*
X2954794Y337148D1*
X2950643Y343225D1*
X2948247Y347650D1*
X2946918Y351590D1*
X2946488Y353634D1*
X2944894Y352803D1*
X2940860Y348768D1*
X2938002Y343225D1*
X2933650Y336915D1*
X2894721Y298017D1*
X2888644Y293866D1*
X2884219Y291471D1*
X2880279Y290141D1*
X2872410Y289014D1*
X2868254Y288875D1*
X2864128Y289388D1*
X2856565Y291780D1*
X2852760Y293456D1*
X2849264Y295707D1*
X2843478Y301153D1*
X2840778Y304315D1*
X2838605Y307860D1*
X2836449Y313298D1*
X2830488Y315728D1*
X2826992Y317979D1*
X2821206Y323424D1*
X2818506Y326586D1*
X2816333Y330132D1*
X2814177Y335569D1*
X2808217Y337998D1*
X2804720Y340249D1*
X2798935Y345695D1*
X2796234Y348857D1*
X2794061Y352402D1*
X2791905Y357840D1*
X2785946Y360270D1*
X2782450Y362521D1*
X2776664Y367966D1*
X2773964Y371128D1*
X2771791Y374674D1*
X2769635Y380111D1*
X2763675Y382540D1*
X2760178Y384791D1*
X2754393Y390237D1*
X2751692Y393399D1*
X2749519Y396944D1*
X2747363Y402382D1*
X2741404Y404812D1*
X2737908Y407063D1*
X2736297Y408393D1*
X2732883Y408044D1*
X2691295Y366456D1*
X2691372Y359244D1*
X2690353Y352812D1*
X2688341Y346619D1*
X2685385Y340816D1*
X2681557Y335548D1*
X2676952Y330943D1*
X2671684Y327115D1*
X2665881Y324159D1*
X2659688Y322147D1*
X2653256Y321128D1*
X2646744D1*
X2640312Y322147D1*
X2634119Y324159D1*
X2628316Y327115D1*
X2623048Y330943D1*
X2618443Y335548D1*
X2617301Y336997D1*
X2586161Y306009D1*
X2581972Y302965D1*
X2577358Y300614D1*
X2572433Y299014D1*
X2567319Y298204D1*
X2500425Y298102D1*
X2256018D1*
X2256028Y259327D1*
X2143973D1*
Y367015D1*
X2055218Y367000D1*
X2055242Y259327D1*
X1943186D1*
Y367001D1*
X1913690Y367000D1*
X1741124Y194455D1*
X1739469Y187176D1*
X1736977Y181159D1*
X1733574Y175607D1*
X1729345Y170655D1*
X1724393Y166426D1*
X1718841Y163023D1*
X1712824Y160531D1*
X1706492Y159011D1*
X1700000Y158500D1*
X1693508Y159011D1*
X1687176Y160531D1*
X1681159Y163023D1*
X1675607Y166426D1*
X1670655Y170655D1*
X1666426Y175607D1*
X1663023Y181159D1*
X1660531Y187176D1*
X1659011Y193508D1*
X1658500Y200000D1*
X1659011Y206492D1*
X1660531Y212824D1*
X1663023Y218841D1*
X1666426Y224393D1*
X1670655Y229345D1*
X1675607Y233574D1*
X1681159Y236977D1*
X1687176Y239469D1*
X1694431Y241098D1*
X1707850Y254519D1*
X1691159Y254602D1*
X1686044Y255412D1*
X1681119Y257012D1*
X1678132Y258120D1*
X1675396Y251290D1*
X1673145Y247794D1*
X1667778Y242089D1*
X1663861Y238633D1*
X1660316Y236460D1*
X1653004Y233648D1*
X1647976Y232234D1*
X1645907Y231943D1*
X1644131Y230285D1*
X1643805Y226139D1*
X1642834Y222096D1*
X1641243Y218254D1*
X1639070Y214708D1*
X1635071Y210247D1*
X1628347Y203639D1*
X1624983Y201195D1*
X1621278Y199307D1*
X1617323Y198022D1*
X1613216Y197372D1*
X1609594Y197290D1*
X1608887Y192017D1*
X1605696Y182672D1*
X1603010Y177871D1*
X1598788Y173099D1*
X1593542Y168212D1*
X1588824Y165368D1*
X1587824Y164469D1*
X1593841Y161977D1*
X1599393Y158574D1*
X1604345Y154345D1*
X1608574Y149393D1*
X1611977Y143841D1*
X1614469Y137824D1*
X1615989Y131492D1*
X1616500Y125000D1*
X1615989Y118508D1*
X1614469Y112176D1*
X1611977Y106159D1*
X1608574Y100607D1*
X1604345Y95655D1*
X1599393Y91426D1*
X1593841Y88023D1*
X1587824Y85531D1*
X1581492Y84011D1*
X1575000Y83500D1*
X1568508Y84011D1*
X1562176Y85531D1*
X1556159Y88023D1*
X1550607Y91426D1*
X1545655Y95655D1*
X1541426Y100607D1*
X1538023Y106159D1*
X1535531Y112176D1*
X1533902Y119431D1*
X1526418Y126913D1*
X1520916Y128709D1*
X1514156Y132673D1*
X1509909Y135728D1*
X1460529Y185139D1*
X1457864Y188251D1*
X1455377Y184909D1*
X1405966Y135529D1*
X1400140Y131536D1*
X1394647Y128470D1*
X1390707Y127141D1*
X1382951Y126027D1*
X1377733Y125768D1*
X1373607Y126281D1*
X1366142Y128639D1*
X1361328Y130669D1*
X1357832Y132921D1*
X1352127Y138287D1*
X1348671Y142204D1*
X1346498Y145750D1*
X1343686Y153061D1*
X1342272Y158090D1*
X1341672Y161831D1*
X1337545Y162344D1*
X1330080Y164702D1*
X1325267Y166732D1*
X1321771Y168984D1*
X1316065Y174350D1*
X1312610Y178267D1*
X1310437Y181813D1*
X1307624Y189124D1*
X1306211Y194153D1*
X1305919Y196221D1*
X1304243Y197362D1*
X1300161Y198199D1*
X1291781Y201175D1*
X1288119Y203145D1*
X1284804Y205670D1*
X1278542Y211989D1*
X1276098Y215353D1*
X1274207Y219066D1*
X1271306Y227477D1*
X1270563Y231577D1*
X1269482Y232649D1*
X1265391Y233392D1*
X1256425Y236529D1*
X1252763Y238499D1*
X1249449Y241024D1*
X1243186Y247343D1*
X1240742Y250708D1*
X1238852Y254420D1*
X1235951Y262832D1*
X1235208Y266931D1*
X1233531Y268072D1*
X1229450Y268909D1*
X1221069Y271885D1*
X1217408Y273855D1*
X1214093Y276380D1*
X1207831Y282699D1*
X1205387Y286063D1*
X1203496Y289776D1*
X1200755Y297610D1*
X1199920Y301684D1*
X1199733Y305838D1*
X1200795Y315277D1*
X1201900Y319286D1*
X1203624Y323079D1*
X1208392Y330594D1*
X1217413Y340014D1*
X1259115Y381600D1*
X1262228Y384264D1*
X1258885Y386752D1*
X1209505Y436162D1*
X1205512Y441988D1*
X1202447Y447481D1*
X1201118Y451421D1*
X1200003Y459178D1*
X1199745Y464395D1*
X1200257Y468522D1*
X1202616Y475987D1*
X1204646Y480800D1*
X1206897Y484296D1*
X1212264Y490002D1*
X1216181Y493457D1*
X1219726Y495630D1*
X1227038Y498442D1*
X1232066Y499856D1*
X1234135Y500148D1*
X1235276Y501824D1*
X1236113Y505906D1*
X1239088Y514286D1*
X1241059Y517948D1*
X1243583Y521262D1*
X1249902Y527525D1*
X1253267Y529969D1*
X1256979Y531860D1*
X1265391Y534760D1*
X1269490Y535503D1*
X1270631Y537179D1*
X1271468Y541260D1*
X1274444Y549641D1*
X1276414Y553302D1*
X1278939Y556617D1*
X1285258Y562879D1*
X1288622Y565323D1*
X1292335Y567214D1*
X1300746Y570115D1*
X1304846Y570858D1*
X1305987Y572534D1*
X1306824Y576616D1*
X1309799Y584996D1*
X1311770Y588658D1*
X1314295Y591972D1*
X1320614Y598235D1*
X1323978Y600679D1*
X1327691Y602570D1*
X1336102Y605470D1*
X1341873Y606524D1*
X1342386Y610650D1*
X1344744Y618116D1*
X1346774Y622929D1*
X1349026Y626425D1*
X1354392Y632130D1*
X1358309Y635586D1*
X1361855Y637759D1*
X1369166Y640571D1*
X1374195Y641985D1*
X1378332Y642404D1*
X1386135Y641767D1*
X1391280Y640860D1*
X1395189Y639443D1*
X1401949Y635480D1*
X1406196Y632424D1*
X1455576Y583014D1*
X1458241Y579901D1*
X1460728Y583243D1*
X1510139Y632623D1*
X1515965Y636616D1*
X1521458Y639682D1*
X1525398Y641011D1*
X1533154Y642125D1*
X1538372Y642384D1*
X1542498Y641871D1*
X1549963Y639513D1*
X1554777Y637483D1*
X1558273Y635231D1*
X1563978Y629865D1*
X1567434Y625948D1*
X1569606Y622402D1*
X1572419Y615091D1*
X1573833Y610062D1*
X1574124Y607994D1*
X1575799Y606853D1*
X1579881Y606016D1*
X1588261Y603041D1*
X1591923Y601070D1*
X1595237Y598545D1*
X1601500Y592226D1*
X1603944Y588862D1*
X1605835Y585149D1*
X1608735Y576738D1*
X1609478Y572638D1*
X1611155Y571497D1*
X1615236Y570660D1*
X1623617Y567685D1*
X1627279Y565714D1*
X1630593Y563190D1*
X1636856Y556871D1*
X1639300Y553506D1*
X1641190Y549794D1*
X1643484Y543364D1*
X1643852Y542988D1*
X1648777Y544588D1*
X1653891Y545398D1*
X1720785Y545500D1*
X1727589Y545398D1*
X1732713Y544586D1*
X1737381Y552332D1*
X1741781Y557514D1*
X1739431Y562267D1*
X1737564Y568012D1*
X1736619Y573979D1*
X1736500Y622932D1*
X1736619Y636021D1*
X1737564Y641988D1*
X1739431Y647733D1*
X1742173Y653116D1*
X1745724Y658004D1*
X1749996Y662276D1*
X1755450Y666144D1*
X1699100Y666139D1*
X1702148Y661796D1*
X1705460Y655295D1*
X1707715Y648355D1*
X1708857Y641148D1*
Y633852D1*
X1707715Y626645D1*
X1705460Y619705D1*
X1702148Y613204D1*
X1697859Y607301D1*
X1692699Y602141D1*
X1686796Y597852D1*
X1680295Y594540D1*
X1673355Y592285D1*
X1666148Y591143D1*
X1658852D1*
X1651645Y592285D1*
X1644705Y594540D1*
X1638204Y597852D1*
X1632301Y602141D1*
X1627141Y607301D1*
X1622852Y613204D1*
X1619540Y619705D1*
X1617285Y626645D1*
X1616143Y633852D1*
Y641148D1*
X1617285Y648355D1*
X1619540Y655295D1*
X1622852Y661796D1*
X1626002Y666254D1*
X1625153Y670059D1*
X1617952Y673728D1*
X1611414Y678478D1*
X1605700Y684192D1*
X1601084Y688584D1*
X1591163Y698505D1*
X967338Y698500D1*
X973381Y695887D1*
X980271Y691664D1*
X982392Y689992D1*
X994500Y690000D1*
Y675897D1*
X997580Y669708D1*
X1000077Y662022D1*
X1001341Y654041D1*
X1001500Y652257D1*
Y690000D1*
X1090500D1*
Y610000D1*
X1001500D1*
X1001341Y645959D1*
X1000077Y637978D1*
X997580Y630292D1*
X994505Y624152D1*
X1014686Y515000D2*
X1050036D1*
X1055956Y517960D1*
X1062895Y520215D1*
X1070102Y521357D1*
X1101310Y521500D1*
X1122399Y521357D1*
X1129606Y520215D1*
X1136545Y517960D1*
X1143047Y514648D1*
X1148950Y510359D1*
X1154110Y505199D1*
X1158398Y499296D1*
X1161711Y492795D1*
X1163966Y485855D1*
X1165107Y478648D1*
Y471352D1*
X1163966Y464145D1*
X1161711Y457205D1*
X1158398Y450704D1*
X1154110Y444801D1*
X1148950Y439641D1*
X1143047Y435352D1*
X1136545Y432040D1*
X1129606Y429785D1*
X1122399Y428643D1*
X1091192Y428500D1*
X1070102Y428643D1*
X1062895Y429785D1*
X1055956Y432040D1*
X1049988Y435000D1*
X1005500D1*
Y515000D1*
X1014686D1*
X5083474Y750712D2*
X5134910Y750806D1*
X5126041Y753178D1*
X5117524Y756606D1*
X5109485Y761040D1*
X5102041Y766414D1*
X5095303Y772649D1*
X5089369Y779654D1*
X5084326Y787326D1*
X5080249Y795552D1*
X5077198Y804210D1*
X5075217Y813175D1*
X5074335Y822313D1*
X5074566Y831491D1*
X5075906Y840573D1*
X5078336Y849427D1*
X5081819Y857921D1*
X5086305Y865931D1*
X5091727Y873339D1*
X5098007Y880037D1*
X5105050Y885925D1*
X5112755Y890918D1*
X5121007Y894941D1*
X5129685Y897936D1*
X5138662Y899859D1*
X5147806Y900681D1*
X5156982Y900390D1*
X5166056Y898991D1*
X5174893Y896503D1*
X5183365Y892965D1*
X5191345Y888427D1*
X5198718Y882956D1*
X5205375Y876634D1*
X5211217Y869552D1*
X5216159Y861815D1*
X5220129Y853537D1*
X5223067Y844839D1*
X5224931Y835849D1*
X5225694Y826700D1*
X5225356Y817662D1*
X5223914Y808596D1*
X5221385Y799770D1*
X5217807Y791316D1*
X5213231Y783356D1*
X5207726Y776009D1*
X5201372Y769383D1*
X5194263Y763574D1*
X5186503Y758668D1*
X5178206Y754737D1*
X5169494Y751840D1*
X5164593Y750711D1*
X5225713Y750712D1*
Y599287D1*
X5074288D1*
Y750712D1*
X5083474D1*
X4671357Y846352D2*
X4670215Y839145D1*
X4667960Y832205D1*
X4664648Y825704D1*
X4660359Y819801D1*
X4655199Y814641D1*
X4649296Y810352D1*
X4642795Y807040D1*
X4635855Y804785D1*
X4628648Y803643D1*
X4621352D1*
X4614145Y804785D1*
X4607205Y807040D1*
X4600704Y810352D1*
X4594801Y814641D1*
X4589641Y819801D1*
X4585352Y825704D1*
X4582040Y832205D1*
X4579785Y839145D1*
X4578643Y846352D1*
Y853648D1*
X4579785Y860855D1*
X4582040Y867795D1*
X4585352Y874296D1*
X4589641Y880199D1*
X4594801Y885359D1*
X4600704Y889648D1*
X4607205Y892960D1*
X4614145Y895215D1*
X4621352Y896357D1*
X4628648D1*
X4635855Y895215D1*
X4642795Y892960D1*
X4649296Y889648D1*
X4655199Y885359D1*
X4660359Y880199D1*
X4664648Y874296D1*
X4667960Y867795D1*
X4670215Y860855D1*
X4671357Y853648D1*
Y846352D1*
X4471357D2*
X4470215Y839145D1*
X4467960Y832205D1*
X4464648Y825704D1*
X4460359Y819801D1*
X4455199Y814641D1*
X4449296Y810352D1*
X4442795Y807040D1*
X4435855Y804785D1*
X4428648Y803643D1*
X4421352D1*
X4414145Y804785D1*
X4407205Y807040D1*
X4400704Y810352D1*
X4394801Y814641D1*
X4389641Y819801D1*
X4385352Y825704D1*
X4382040Y832205D1*
X4379785Y839145D1*
X4378643Y846352D1*
Y853648D1*
X4379785Y860855D1*
X4382040Y867795D1*
X4385352Y874296D1*
X4389641Y880199D1*
X4394801Y885359D1*
X4400704Y889648D1*
X4407205Y892960D1*
X4414145Y895215D1*
X4421352Y896357D1*
X4428648D1*
X4435855Y895215D1*
X4442795Y892960D1*
X4449296Y889648D1*
X4455199Y885359D1*
X4460359Y880199D1*
X4464648Y874296D1*
X4467960Y867795D1*
X4470215Y860855D1*
X4471357Y853648D1*
Y846352D1*
X4371357D2*
X4370215Y839145D1*
X4367960Y832205D1*
X4364648Y825704D1*
X4360359Y819801D1*
X4355199Y814641D1*
X4349296Y810352D1*
X4342795Y807040D1*
X4335855Y804785D1*
X4328648Y803643D1*
X4321352D1*
X4314145Y804785D1*
X4307205Y807040D1*
X4300704Y810352D1*
X4294801Y814641D1*
X4289641Y819801D1*
X4285352Y825704D1*
X4282040Y832205D1*
X4279785Y839145D1*
X4278643Y846352D1*
Y853648D1*
X4279785Y860855D1*
X4282040Y867795D1*
X4285352Y874296D1*
X4289641Y880199D1*
X4294801Y885359D1*
X4300704Y889648D1*
X4307205Y892960D1*
X4314145Y895215D1*
X4321352Y896357D1*
X4328648D1*
X4335855Y895215D1*
X4342795Y892960D1*
X4349296Y889648D1*
X4355199Y885359D1*
X4360359Y880199D1*
X4364648Y874296D1*
X4367960Y867795D1*
X4370215Y860855D1*
X4371357Y853648D1*
Y846352D1*
X4271357D2*
X4270215Y839145D1*
X4267960Y832205D1*
X4264648Y825704D1*
X4260359Y819801D1*
X4255199Y814641D1*
X4249296Y810352D1*
X4242795Y807040D1*
X4235855Y804785D1*
X4228648Y803643D1*
X4221352D1*
X4214145Y804785D1*
X4207205Y807040D1*
X4200704Y810352D1*
X4194801Y814641D1*
X4189641Y819801D1*
X4185352Y825704D1*
X4182040Y832205D1*
X4179785Y839145D1*
X4178643Y846352D1*
Y853648D1*
X4179785Y860855D1*
X4182040Y867795D1*
X4185352Y874296D1*
X4189641Y880199D1*
X4194801Y885359D1*
X4200704Y889648D1*
X4207205Y892960D1*
X4214145Y895215D1*
X4221352Y896357D1*
X4228648D1*
X4235855Y895215D1*
X4242795Y892960D1*
X4249296Y889648D1*
X4255199Y885359D1*
X4260359Y880199D1*
X4264648Y874296D1*
X4267960Y867795D1*
X4270215Y860855D1*
X4271357Y853648D1*
Y846352D1*
X4071357D2*
X4070215Y839145D1*
X4067960Y832205D1*
X4064648Y825704D1*
X4060359Y819801D1*
X4055199Y814641D1*
X4049296Y810352D1*
X4042795Y807040D1*
X4035855Y804785D1*
X4028648Y803643D1*
X4021352D1*
X4014145Y804785D1*
X4007205Y807040D1*
X4000704Y810352D1*
X3994801Y814641D1*
X3989641Y819801D1*
X3985352Y825704D1*
X3982040Y832205D1*
X3979785Y839145D1*
X3978643Y846352D1*
Y853648D1*
X3979785Y860855D1*
X3982040Y867795D1*
X3985352Y874296D1*
X3989641Y880199D1*
X3994801Y885359D1*
X4000704Y889648D1*
X4007205Y892960D1*
X4014145Y895215D1*
X4021352Y896357D1*
X4028648D1*
X4035855Y895215D1*
X4042795Y892960D1*
X4049296Y889648D1*
X4055199Y885359D1*
X4060359Y880199D1*
X4064648Y874296D1*
X4067960Y867795D1*
X4070215Y860855D1*
X4071357Y853648D1*
Y846352D1*
X3640187Y284000D2*
X3744000D1*
Y261500D1*
X3767773D1*
X3774676Y264469D1*
X3781008Y265989D1*
X3787500Y266500D1*
X3793992Y265989D1*
X3800324Y264469D1*
X3806341Y261977D1*
X3811893Y258574D1*
X3816845Y254345D1*
X3821074Y249393D1*
X3824477Y243841D1*
X3826969Y237824D1*
X3828489Y231492D1*
X3829000Y225000D1*
X3828489Y218508D1*
X3826969Y212176D1*
X3824477Y206159D1*
X3821074Y200607D1*
X3816845Y195655D1*
X3811893Y191426D1*
X3806341Y188023D1*
X3800324Y185531D1*
X3793992Y184011D1*
X3787500Y183500D1*
X3781008Y184011D1*
X3774676Y185531D1*
X3767804Y188502D1*
X3743972Y188500D1*
X3744000Y166000D1*
X3631000D1*
Y284000D1*
X3640187D1*
Y471500D2*
X3744000D1*
Y449000D1*
X3767773D1*
X3774676Y451969D1*
X3781008Y453489D1*
X3787500Y454000D1*
X3793992Y453489D1*
X3800324Y451969D1*
X3806341Y449477D1*
X3811893Y446074D1*
X3816845Y441845D1*
X3821074Y436893D1*
X3824477Y431341D1*
X3826969Y425324D1*
X3828489Y418992D1*
X3829000Y412500D1*
X3828489Y406008D1*
X3826969Y399676D1*
X3824477Y393659D1*
X3821074Y388107D1*
X3816845Y383155D1*
X3811893Y378926D1*
X3806341Y375523D1*
X3800324Y373031D1*
X3793992Y371511D1*
X3787500Y371000D1*
X3781008Y371511D1*
X3774676Y373031D1*
X3767804Y376002D1*
X3743972Y376000D1*
X3744000Y353500D1*
X3631000D1*
Y471500D1*
X3640187D1*
X2057471Y1198163D2*
X2056768Y1190853D1*
X2055139Y1183692D1*
X2052610Y1176796D1*
X2049224Y1170280D1*
X2045034Y1164248D1*
X2040110Y1158800D1*
X2034531Y1154023D1*
X2028389Y1149997D1*
X2021784Y1146786D1*
X2014823Y1144444D1*
X2007621Y1143007D1*
X2000295Y1142501D1*
X1992963Y1142932D1*
X1985747Y1144295D1*
X1978762Y1146566D1*
X1972125Y1149709D1*
X1965942Y1153672D1*
X1960315Y1158391D1*
X1955335Y1163789D1*
X1951083Y1169777D1*
X1947630Y1176259D1*
X1945031Y1183128D1*
X1943329Y1190272D1*
X1942551Y1197574D1*
X1942711Y1204917D1*
X1943805Y1212179D1*
X1945815Y1219242D1*
X1948710Y1225992D1*
X1952441Y1232317D1*
X1956948Y1238116D1*
X1962158Y1243292D1*
X1967985Y1247763D1*
X1974334Y1251454D1*
X1981102Y1254306D1*
X1988178Y1256272D1*
X1995447Y1257319D1*
X2002790Y1257432D1*
X2010088Y1256608D1*
X2017221Y1254861D1*
X2024073Y1252218D1*
X2030532Y1248724D1*
X2036494Y1244435D1*
X2041860Y1239421D1*
X2046543Y1233764D1*
X2050467Y1227556D1*
X2053568Y1220898D1*
X2055795Y1213900D1*
X2057111Y1206675D1*
X2057500Y1200000D1*
X2057471Y1198163D1*
X1857323Y1195489D2*
X1855911Y1186577D1*
X1853123Y1177996D1*
X1849027Y1169956D1*
X1843723Y1162657D1*
X1837343Y1156277D1*
X1830044Y1150973D1*
X1822004Y1146877D1*
X1813423Y1144089D1*
X1804511Y1142677D1*
X1795489D1*
X1786577Y1144089D1*
X1777996Y1146877D1*
X1769956Y1150973D1*
X1762657Y1156277D1*
X1756277Y1162657D1*
X1750973Y1169956D1*
X1746877Y1177996D1*
X1744089Y1186577D1*
X1742677Y1195489D1*
Y1204511D1*
X1744089Y1213423D1*
X1746877Y1222004D1*
X1750973Y1230044D1*
X1756277Y1237343D1*
X1762657Y1243723D1*
X1769956Y1249027D1*
X1777996Y1253123D1*
X1786577Y1255911D1*
X1795489Y1257323D1*
X1804511D1*
X1813423Y1255911D1*
X1822004Y1253123D1*
X1830044Y1249027D1*
X1837343Y1243723D1*
X1843723Y1237343D1*
X1849027Y1230044D1*
X1853123Y1222004D1*
X1855911Y1213423D1*
X1857323Y1204511D1*
Y1195489D1*
X1557471Y1198163D2*
X1556768Y1190853D1*
X1555139Y1183692D1*
X1552610Y1176796D1*
X1549224Y1170280D1*
X1545034Y1164248D1*
X1540110Y1158800D1*
X1534531Y1154023D1*
X1528389Y1149997D1*
X1521784Y1146786D1*
X1514823Y1144444D1*
X1507621Y1143007D1*
X1500295Y1142501D1*
X1492963Y1142932D1*
X1485747Y1144295D1*
X1478762Y1146566D1*
X1472125Y1149709D1*
X1465942Y1153672D1*
X1460315Y1158391D1*
X1455335Y1163789D1*
X1451083Y1169777D1*
X1447630Y1176259D1*
X1445031Y1183128D1*
X1443329Y1190272D1*
X1442551Y1197574D1*
X1442711Y1204917D1*
X1443805Y1212179D1*
X1445815Y1219242D1*
X1448710Y1225992D1*
X1452441Y1232317D1*
X1456948Y1238116D1*
X1462158Y1243292D1*
X1467985Y1247763D1*
X1474334Y1251454D1*
X1481102Y1254306D1*
X1488178Y1256272D1*
X1495447Y1257319D1*
X1502790Y1257432D1*
X1510088Y1256608D1*
X1517221Y1254861D1*
X1524073Y1252218D1*
X1530532Y1248724D1*
X1536494Y1244435D1*
X1541860Y1239421D1*
X1546543Y1233764D1*
X1550467Y1227556D1*
X1553568Y1220898D1*
X1555795Y1213900D1*
X1557111Y1206675D1*
X1557500Y1200000D1*
X1557471Y1198163D1*
X1357323Y1195489D2*
X1355911Y1186577D1*
X1353123Y1177996D1*
X1349027Y1169956D1*
X1343723Y1162657D1*
X1337343Y1156277D1*
X1330044Y1150973D1*
X1322004Y1146877D1*
X1313423Y1144089D1*
X1304511Y1142677D1*
X1295489D1*
X1286577Y1144089D1*
X1277996Y1146877D1*
X1269956Y1150973D1*
X1262657Y1156277D1*
X1256277Y1162657D1*
X1250973Y1169956D1*
X1246877Y1177996D1*
X1244089Y1186577D1*
X1242677Y1195489D1*
Y1204511D1*
X1244089Y1213423D1*
X1246877Y1222004D1*
X1250973Y1230044D1*
X1256277Y1237343D1*
X1262657Y1243723D1*
X1269956Y1249027D1*
X1277996Y1253123D1*
X1286577Y1255911D1*
X1295489Y1257323D1*
X1304511D1*
X1313423Y1255911D1*
X1322004Y1253123D1*
X1330044Y1249027D1*
X1337343Y1243723D1*
X1343723Y1237343D1*
X1349027Y1230044D1*
X1353123Y1222004D1*
X1355911Y1213423D1*
X1357323Y1204511D1*
Y1195489D1*
X4686310Y270175D2*
X4684801Y260643D1*
X4681819Y251465D1*
X4677437Y242866D1*
X4671765Y235059D1*
X4664941Y228235D1*
X4657134Y222563D1*
X4648535Y218181D1*
X4639357Y215199D1*
X4629825Y213690D1*
X4620175D1*
X4610643Y215199D1*
X4601465Y218181D1*
X4592866Y222563D1*
X4585059Y228235D1*
X4578235Y235059D1*
X4572563Y242866D1*
X4568181Y251465D1*
X4565199Y260643D1*
X4563690Y270175D1*
Y279825D1*
X4565199Y289357D1*
X4568181Y298535D1*
X4572563Y307134D1*
X4578235Y314941D1*
X4585059Y321765D1*
X4592866Y327437D1*
X4601465Y331819D1*
X4610643Y334801D1*
X4620175Y336310D1*
X4629825D1*
X4639357Y334801D1*
X4648535Y331819D1*
X4657134Y327437D1*
X4664941Y321765D1*
X4671765Y314941D1*
X4677437Y307134D1*
X4681819Y298535D1*
X4684801Y289357D1*
X4686310Y279825D1*
Y270175D1*
X4686473Y573163D2*
X4685815Y565848D1*
X4684290Y558663D1*
X4681920Y551711D1*
X4678738Y545092D1*
X4674789Y538899D1*
X4670130Y533221D1*
X4664828Y528139D1*
X4658957Y523725D1*
X4652603Y520042D1*
X4645854Y517144D1*
X4638808Y515070D1*
X4631565Y513851D1*
X4624229Y513505D1*
X4616903Y514035D1*
X4609693Y515435D1*
X4602701Y517685D1*
X4596028Y520752D1*
X4589767Y524593D1*
X4584009Y529152D1*
X4578836Y534366D1*
X4574321Y540159D1*
X4570529Y546449D1*
X4567514Y553146D1*
X4565318Y560155D1*
X4563974Y567376D1*
X4563501Y574705D1*
X4563904Y582039D1*
X4565179Y589272D1*
X4567307Y596302D1*
X4570258Y603028D1*
X4573990Y609354D1*
X4578449Y615190D1*
X4583572Y620453D1*
X4589286Y625068D1*
X4595509Y628968D1*
X4602153Y632099D1*
X4609123Y634415D1*
X4616320Y635884D1*
X4623640Y636485D1*
X4630979Y636209D1*
X4638233Y635059D1*
X4645299Y633053D1*
X4652075Y630220D1*
X4658465Y626598D1*
X4664377Y622241D1*
X4669728Y617210D1*
X4674441Y611576D1*
X4678449Y605422D1*
X4681694Y598833D1*
X4684131Y591904D1*
X4685725Y584734D1*
X4686452Y577426D1*
X4686473Y573163D1*
X2021357Y521352D2*
X2020215Y514145D1*
X2017960Y507205D1*
X2014648Y500704D1*
X2010359Y494801D1*
X2005199Y489641D1*
X1999296Y485352D1*
X1994880Y483001D1*
X2348799Y483000D1*
X2476921Y611090D1*
X2472188Y609647D1*
X2465756Y608628D1*
X2459244D1*
X2452812Y609647D1*
X2446619Y611659D1*
X2440816Y614615D1*
X2435548Y618443D1*
X2430943Y623048D1*
X2427115Y628316D1*
X2424159Y634119D1*
X2422147Y640312D1*
X2421811Y641997D1*
X2113645Y642000D1*
X2113026Y639023D1*
X2113500Y633000D1*
X2113381Y573979D1*
X2112436Y568012D1*
X2110569Y562267D1*
X2107827Y556884D1*
X2104276Y551996D1*
X2100004Y547724D1*
X2095116Y544173D1*
X2089733Y541431D1*
X2083988Y539564D1*
X2078021Y538619D1*
X2071979D1*
X2066012Y539564D1*
X2060267Y541431D1*
X2054884Y544173D1*
X2050006Y547717D1*
X2045116Y544173D1*
X2039733Y541431D1*
X2033988Y539564D1*
X2028021Y538619D1*
X2021979D1*
X2019364Y538928D1*
X2020928Y532274D1*
X2021500Y525000D1*
X2021357Y521352D1*
X1488994Y441994D2*
X1483581Y437381D1*
X1477360Y433568D1*
X1470619Y430776D1*
X1463524Y429072D1*
X1456249Y428500D1*
X1448975Y429072D1*
X1441880Y430776D1*
X1435139Y433568D1*
X1428917Y437381D1*
X1423505Y441994D1*
X1363832Y442102D1*
X1358708Y442914D1*
X1357551Y441853D1*
X1354576Y433472D1*
X1352606Y429810D1*
X1350081Y426496D1*
X1343762Y420234D1*
X1340397Y417789D1*
X1336685Y415899D1*
X1328273Y412998D1*
X1324174Y412255D1*
X1323033Y410579D1*
X1322196Y406497D1*
X1319220Y398117D1*
X1317250Y394455D1*
X1314725Y391140D1*
X1308400Y384873D1*
X1308860Y382877D1*
X1315122Y376558D1*
X1317566Y373194D1*
X1319457Y369481D1*
X1322358Y361070D1*
X1323100Y356970D1*
X1324777Y355829D1*
X1328858Y354992D1*
X1337239Y352017D1*
X1340901Y350046D1*
X1344215Y347522D1*
X1350478Y341203D1*
X1352922Y337838D1*
X1354812Y334126D1*
X1357713Y325714D1*
X1358456Y321615D1*
X1360133Y320475D1*
X1364214Y319638D1*
X1372595Y316663D1*
X1376256Y314692D1*
X1379571Y312167D1*
X1385833Y305848D1*
X1388277Y302484D1*
X1390168Y298771D1*
X1393069Y290360D1*
X1393812Y286260D1*
X1395488Y285119D1*
X1399570Y284282D1*
X1407950Y281307D1*
X1411612Y279336D1*
X1414926Y276812D1*
X1420798Y270940D1*
X1423317Y267632D1*
X1425287Y263970D1*
X1428425Y255004D1*
X1429477Y249232D1*
X1433603Y248719D1*
X1441068Y246361D1*
X1445882Y244331D1*
X1449378Y242079D1*
X1455083Y236713D1*
X1457256Y234423D1*
X1459251Y234883D1*
X1465570Y241146D1*
X1468935Y243590D1*
X1472647Y245480D1*
X1480481Y248222D1*
X1484563Y249057D1*
X1486247Y250361D1*
X1487399Y255741D1*
X1490796Y264700D1*
X1493808Y269305D1*
X1500740Y276342D1*
X1505243Y279503D1*
X1508574Y281065D1*
X1505435Y286697D1*
X1497245Y295046D1*
X1493879Y299679D1*
X1491278Y304783D1*
X1489508Y310230D1*
X1488612Y315887D1*
X1488500Y358690D1*
X1485352Y363204D1*
X1482040Y369705D1*
X1479785Y376645D1*
X1478643Y383852D1*
Y391148D1*
X1479785Y398355D1*
X1482040Y405295D1*
X1485352Y411796D1*
X1489641Y417699D1*
X1494801Y422859D1*
X1500704Y427148D1*
X1507205Y430460D1*
X1514145Y432715D1*
X1521352Y433857D1*
X1528648D1*
X1535855Y432715D1*
X1542795Y430460D1*
X1549296Y427148D1*
X1555199Y422859D1*
X1560359Y417699D1*
X1564648Y411796D1*
X1567960Y405295D1*
X1570215Y398355D1*
X1571140Y392975D1*
X1596121Y368100D1*
X1597798Y371905D1*
X1600050Y375401D1*
X1605416Y381107D1*
X1607705Y383279D1*
X1607245Y385275D1*
X1600983Y391594D1*
X1598539Y394958D1*
X1596648Y398671D1*
X1593747Y407082D1*
X1592694Y412854D1*
X1588567Y413366D1*
X1581102Y415725D1*
X1576289Y417755D1*
X1572793Y420006D1*
X1567088Y425373D1*
X1563632Y429290D1*
X1561459Y432835D1*
X1558647Y440146D1*
X1557683Y443152D1*
X1550858Y442102D1*
X1489024Y442000D1*
X2829501Y487377D2*
X2827115Y490816D1*
X2824159Y496619D1*
X2822147Y502812D1*
X2821128Y509244D1*
Y515756D1*
X2822134Y522126D1*
X2815756Y521128D1*
X2809244D1*
X2802812Y522147D1*
X2796619Y524159D1*
X2790816Y527115D1*
X2785548Y530943D1*
X2783663Y532586D1*
X2784945Y529046D1*
X2790904Y526616D1*
X2794400Y524365D1*
X2800186Y518919D1*
X2802887Y515757D1*
X2805059Y512212D1*
X2807216Y506775D1*
X2813176Y504346D1*
X2816672Y502095D1*
X2822458Y496649D1*
X2825158Y493487D1*
X2827331Y489942D1*
X2829487Y484504D1*
X2775617Y543493D2*
X2773031Y549676D1*
X2771511Y556008D1*
X2771000Y562500D1*
X2771511Y568992D1*
X2773031Y575324D1*
X2775523Y581341D1*
X2778926Y586893D1*
X2783155Y591845D1*
X2788107Y596074D1*
X2793659Y599477D1*
X2799676Y601969D1*
X2806008Y603489D1*
X2812500Y604000D1*
X2818992Y603489D1*
X2825324Y601969D1*
X2831341Y599477D1*
X2837623Y595499D1*
X3037314Y595500D1*
X3043659Y599477D1*
X3049676Y601969D1*
X3056008Y603489D1*
X3062500Y604000D1*
X3068992Y603489D1*
X3075324Y601969D1*
X3081341Y599477D1*
X3086893Y596074D1*
X3091845Y591845D1*
X3096074Y586893D1*
X3099477Y581341D1*
X3101969Y575324D1*
X3103489Y568992D1*
X3104000Y562500D1*
X3103489Y556008D1*
X3103099Y554048D1*
X3113365Y543780D1*
X3116989Y546989D1*
X3120535Y549162D1*
X3125972Y551318D1*
X3128401Y557277D1*
X3130652Y560773D1*
X3136098Y566559D1*
X3139260Y569259D1*
X3142805Y571432D1*
X3148242Y573588D1*
X3150673Y579548D1*
X3152924Y583045D1*
X3158369Y588830D1*
X3161531Y591531D1*
X3165077Y593704D1*
X3170514Y595860D1*
X3172944Y601820D1*
X3175195Y605316D1*
X3180641Y611102D1*
X3183803Y613803D1*
X3187348Y615975D1*
X3194766Y618824D1*
X3198787Y619885D1*
X3202924Y620303D1*
X3210829Y619654D1*
X3214912Y618867D1*
X3218822Y617450D1*
X3225677Y613427D1*
X3229019Y610939D1*
X3252923Y587120D1*
X3367025Y701194D1*
X3366839Y774747D1*
X3274909Y682817D1*
X3273289Y679312D1*
X3269028Y672606D1*
X3260009Y663190D1*
X3228787Y632083D1*
X3222710Y627932D1*
X3218285Y625536D1*
X3214345Y624206D1*
X3206476Y623079D1*
X3202320Y622940D1*
X3198193Y623453D1*
X3190631Y625845D1*
X3186826Y627522D1*
X3183329Y629773D1*
X3177544Y635218D1*
X3174843Y638380D1*
X3172670Y641926D1*
X3170514Y647363D1*
X3164554Y649793D1*
X3161058Y652044D1*
X3155272Y657490D1*
X3152571Y660652D1*
X3150399Y664198D1*
X3148242Y669635D1*
X3142284Y672065D1*
X3138787Y674316D1*
X3133002Y679762D1*
X3130301Y682924D1*
X3128128Y686469D1*
X3125972Y691906D1*
X3120012Y694335D1*
X3116516Y696587D1*
X3110730Y702032D1*
X3108030Y705194D1*
X3105857Y708740D1*
X3103701Y714177D1*
X3098174Y716380D1*
X3093569Y719391D1*
X3087207Y725647D1*
X3084046Y730150D1*
X3081577Y736028D1*
X3080929Y736622D1*
X3075470Y738877D1*
X3071974Y741128D1*
X3070363Y742458D1*
X3066950Y742111D1*
X3056166Y731327D1*
X3054939Y724310D1*
X3052199Y715878D1*
X3048174Y707979D1*
X3042963Y700806D1*
X3036694Y694537D1*
X3029521Y689326D1*
X3021622Y685301D1*
X3018224Y684047D1*
X2978651Y644482D1*
X2976969Y637176D1*
X2974477Y631159D1*
X2971074Y625607D1*
X2966845Y620655D1*
X2961893Y616426D1*
X2956341Y613023D1*
X2950324Y610531D1*
X2943992Y609011D1*
X2937500Y608500D1*
X2931008Y609011D1*
X2924676Y610531D1*
X2918659Y613023D1*
X2913107Y616426D1*
X2908155Y620655D1*
X2903926Y625607D1*
X2900523Y631159D1*
X2898031Y637176D1*
X2896511Y643508D1*
X2896000Y650000D1*
X2896511Y656492D1*
X2898031Y662824D1*
X2900523Y668841D1*
X2903926Y674393D1*
X2908155Y679345D1*
X2913107Y683574D1*
X2918659Y686977D1*
X2924676Y689469D1*
X2931931Y691098D1*
X2950729Y709898D1*
X2947801Y715878D1*
X2945061Y724310D1*
X2943762Y732327D1*
X2942439Y724310D1*
X2939699Y715878D1*
X2935674Y707979D1*
X2930463Y700806D1*
X2924194Y694537D1*
X2917021Y689326D1*
X2909122Y685301D1*
X2900690Y682561D1*
X2891933Y681174D1*
X2883067D1*
X2874310Y682561D1*
X2865878Y685301D1*
X2857979Y689326D1*
X2850806Y694537D1*
X2844537Y700806D1*
X2839326Y707979D1*
X2835301Y715878D1*
X2832561Y724310D1*
X2831174Y733067D1*
Y741933D1*
X2832561Y750690D1*
X2835301Y759122D1*
X2836512Y761750D1*
X2833026Y760001D1*
X2829486Y758719D1*
X2827057Y752759D1*
X2824806Y749262D1*
X2819360Y743477D1*
X2816198Y740776D1*
X2812653Y738603D1*
X2807216Y736447D1*
X2804785Y730488D1*
X2802534Y726992D1*
X2797089Y721206D1*
X2793927Y718506D1*
X2790381Y716333D1*
X2784944Y714177D1*
X2782515Y708217D1*
X2780264Y704720D1*
X2774818Y698935D1*
X2771656Y696234D1*
X2768111Y694062D1*
X2762674Y691905D1*
X2760243Y685946D1*
X2757992Y682450D1*
X2756662Y680839D1*
X2756343Y677948D1*
X2759387Y673758D1*
X2761738Y669144D1*
X2763338Y664219D1*
X2764148Y659105D1*
Y634911D1*
X2763338Y629796D1*
X2761738Y624871D1*
X2759387Y620257D1*
X2756343Y616068D1*
X2735835Y595416D1*
X2731897Y592053D1*
X2729734Y590608D1*
X2729199Y589849D1*
X2734786Y584205D1*
X2737230Y580841D1*
X2739121Y577128D1*
X2740403Y573588D1*
X2746362Y571158D1*
X2749858Y568907D1*
X2755644Y563461D1*
X2758345Y560299D1*
X2760517Y556754D1*
X2762674Y551317D1*
X2768634Y548888D1*
X2772130Y546637D1*
X2775605Y543502D1*
X4796357Y1246352D2*
X4795215Y1239145D1*
X4792960Y1232205D1*
X4789648Y1225704D1*
X4785359Y1219801D1*
X4783006Y1217256D1*
X4782898Y822411D1*
X4782088Y817296D1*
X4780488Y812371D1*
X4778137Y807757D1*
X4775094Y803568D1*
X4727865Y756195D1*
X4708932Y737406D1*
X4704743Y734363D1*
X4700129Y732012D1*
X4695204Y730412D1*
X4690089Y729602D1*
X4623196Y729500D1*
X4571271D1*
X4571357Y721352D1*
X4570215Y714145D1*
X4567960Y707205D1*
X4564648Y700704D1*
X4560359Y694801D1*
X4555199Y689641D1*
X4549296Y685352D1*
X4542795Y682040D1*
X4535855Y679785D1*
X4528648Y678643D1*
X4521352D1*
X4514145Y679785D1*
X4507205Y682040D1*
X4500704Y685352D1*
X4495260Y689279D1*
X4492960Y682205D1*
X4489648Y675704D1*
X4485359Y669801D1*
X4480199Y664641D1*
X4474296Y660352D1*
X4467795Y657040D1*
X4460855Y654785D1*
X4453648Y653643D1*
X4446352D1*
X4439145Y654785D1*
X4432205Y657040D1*
X4425704Y660352D1*
X4420260Y664279D1*
X4417960Y657205D1*
X4414648Y650704D1*
X4410359Y644801D1*
X4405199Y639641D1*
X4399296Y635352D1*
X4395502Y633288D1*
X4395398Y609911D1*
X4394588Y604796D1*
X4392988Y599871D1*
X4390637Y595257D1*
X4387594Y591068D1*
X4340365Y543695D1*
X4305226Y508428D1*
X4312500Y509000D1*
X4319774Y508428D1*
X4326869Y506724D1*
X4333611Y503932D1*
X4339832Y500119D1*
X4345380Y495380D1*
X4350119Y489832D1*
X4353932Y483611D1*
X4356724Y476869D1*
X4358428Y469774D1*
X4359000Y462500D1*
X4358428Y455226D1*
X4356724Y448131D1*
X4353932Y441389D1*
X4350119Y435168D1*
X4345380Y429620D1*
X4339832Y424881D1*
X4333611Y421068D1*
X4326869Y418276D1*
X4319774Y416572D1*
X4312500Y416000D1*
X4305226Y416572D1*
X4298131Y418276D1*
X4291389Y421068D1*
X4287243Y423494D1*
X4277369Y423500D1*
X4278526Y418523D1*
X4279000Y412500D1*
X4278526Y406477D1*
X4277116Y400603D1*
X4274804Y395021D1*
X4271647Y389870D1*
X4269783Y387506D1*
X4273327Y382616D1*
X4276069Y377233D1*
X4277936Y371488D1*
X4278881Y365521D1*
Y359479D1*
X4277936Y353512D1*
X4276069Y347767D1*
X4273327Y342384D1*
X4269783Y337506D1*
X4273188Y332841D1*
X4275756Y327969D1*
X4277602Y322780D1*
X4278689Y317382D1*
X4278956Y310663D1*
X4278301Y305195D1*
X4276872Y299877D1*
X4274699Y294817D1*
X4271826Y290118D1*
X4268312Y285878D1*
X4264229Y282182D1*
X4259661Y279107D1*
X4254700Y276715D1*
X4249449Y275055D1*
X4244015Y274161D1*
X4231314Y274000D1*
X4180678Y274190D1*
X4175251Y275128D1*
X4170013Y276830D1*
X4165072Y279261D1*
X4160529Y282373D1*
X4156475Y286102D1*
X4152996Y290370D1*
X4150161Y295091D1*
X4148028Y300169D1*
X4146642Y305499D1*
X4146030Y310972D1*
X4146206Y316476D1*
X4147165Y321899D1*
X4148888Y327130D1*
X4151339Y332061D1*
X4155232Y337498D1*
X4151673Y342384D1*
X4148931Y347767D1*
X4147064Y353512D1*
X4146119Y359479D1*
Y365521D1*
X4147064Y371488D1*
X4148931Y377233D1*
X4151673Y382616D1*
X4155217Y387494D1*
X4151673Y392384D1*
X4148931Y397767D1*
X4147064Y403512D1*
X4146119Y409479D1*
Y415521D1*
X4147064Y421488D1*
X4148931Y427233D1*
X4151673Y432616D1*
X4155217Y437494D1*
X4151673Y442384D1*
X4148931Y447767D1*
X4147064Y453512D1*
X4146119Y459479D1*
Y465521D1*
X4147064Y471488D1*
X4148931Y477233D1*
X4151673Y482616D1*
X4155217Y487494D1*
X4151673Y492384D1*
X4148931Y497767D1*
X4147064Y503512D1*
X4146119Y509479D1*
Y515521D1*
X4147064Y521488D1*
X4148931Y527233D1*
X4151673Y532616D1*
X4155217Y537494D1*
X4151673Y542384D1*
X4148931Y547767D1*
X4147064Y553512D1*
X4146119Y559479D1*
Y565521D1*
X4147064Y571488D1*
X4148931Y577233D1*
X4151673Y582616D1*
X4155217Y587494D1*
X4151673Y592384D1*
X4148931Y597767D1*
X4147064Y603512D1*
X4146119Y609479D1*
Y615521D1*
X4147064Y621488D1*
X4148931Y627233D1*
X4151673Y632616D1*
X4155217Y637494D1*
X4151673Y642384D1*
X4148931Y647767D1*
X4147064Y653512D1*
X4146119Y659479D1*
Y665521D1*
X4147064Y671488D1*
X4148931Y677233D1*
X4151673Y682616D1*
X4155224Y687504D1*
X4159496Y691776D1*
X4164384Y695327D1*
X4169767Y698069D1*
X4175512Y699936D1*
X4181479Y700881D1*
X4230432Y701000D1*
X4243521Y700881D1*
X4249488Y699936D1*
X4254491Y698343D1*
X4254602Y727589D1*
X4255412Y732704D1*
X4257012Y737629D1*
X4259363Y742242D1*
X4262407Y746432D1*
X4301665Y785835D1*
X4305603Y789198D1*
X4310018Y791903D1*
X4314802Y793885D1*
X4319838Y795094D1*
X4325000Y795500D1*
X4673830D1*
X4717019Y838689D1*
X4717000Y1217250D1*
X4712381Y1222668D1*
X4708568Y1228889D1*
X4705776Y1235631D1*
X4704072Y1242726D1*
X4703500Y1250000D1*
X4704072Y1257274D1*
X4705776Y1264369D1*
X4708568Y1271111D1*
X4712381Y1277332D1*
X4717120Y1282880D1*
X4722668Y1287619D1*
X4728889Y1291432D1*
X4735631Y1294224D1*
X4742726Y1295928D1*
X4750000Y1296500D1*
X4757274Y1295928D1*
X4764369Y1294224D1*
X4771111Y1291432D1*
X4777332Y1287619D1*
X4782880Y1282880D1*
X4787619Y1277332D1*
X4791432Y1271111D1*
X4794224Y1264369D1*
X4795928Y1257274D1*
X4796500Y1250000D1*
X4796357Y1246352D1*
X4231326Y170567D2*
X4229939Y161810D1*
X4227199Y153378D1*
X4223174Y145479D1*
X4217963Y138306D1*
X4211694Y132037D1*
X4204521Y126826D1*
X4196622Y122801D1*
X4188190Y120061D1*
X4179433Y118674D1*
X4170567D1*
X4161810Y120061D1*
X4153378Y122801D1*
X4145479Y126826D1*
X4138306Y132037D1*
X4132037Y138306D1*
X4126826Y145479D1*
X4122801Y153378D1*
X4120061Y161810D1*
X4118674Y170567D1*
Y179433D1*
X4120061Y188190D1*
X4122801Y196622D1*
X4126826Y204521D1*
X4132037Y211694D1*
X4138306Y217963D1*
X4145479Y223174D1*
X4153378Y227199D1*
X4161810Y229939D1*
X4170567Y231326D1*
X4179433D1*
X4188190Y229939D1*
X4196622Y227199D1*
X4204521Y223174D1*
X4211694Y217963D1*
X4217963Y211694D1*
X4223174Y204521D1*
X4227199Y196622D1*
X4229939Y188190D1*
X4231326Y179433D1*
Y170567D1*
X2272515Y1176001D2*
X2264835Y1176603D1*
X2257358Y1178398D1*
X2250254Y1181341D1*
X2243699Y1185358D1*
X2237852Y1190352D1*
X2232858Y1196199D1*
X2228841Y1202754D1*
X2225898Y1209858D1*
X2224103Y1217335D1*
X2223500Y1225000D1*
X2224103Y1232665D1*
X2225898Y1240142D1*
X2228841Y1247246D1*
X2232858Y1253801D1*
X2237852Y1259648D1*
X2243699Y1264642D1*
X2250254Y1268659D1*
X2257358Y1271602D1*
X2264835Y1273397D1*
X2272515Y1273999D1*
X2331344Y1273849D1*
X2338939Y1272646D1*
X2346251Y1270270D1*
X2353102Y1266779D1*
X2359323Y1262260D1*
X2364760Y1256823D1*
X2369279Y1250602D1*
X2372770Y1243751D1*
X2375146Y1236439D1*
X2376349Y1228844D1*
Y1221156D1*
X2375146Y1213561D1*
X2372770Y1206249D1*
X2369279Y1199398D1*
X2364760Y1193177D1*
X2359323Y1187740D1*
X2353102Y1183221D1*
X2346251Y1179730D1*
X2338939Y1177354D1*
X2331344Y1176151D1*
X2299941Y1176000D1*
X2272500Y1176036D1*
X2272515Y1321001D2*
X2264835Y1321603D1*
X2257358Y1323398D1*
X2250254Y1326341D1*
X2243699Y1330358D1*
X2237852Y1335352D1*
X2232858Y1341199D1*
X2228841Y1347754D1*
X2225898Y1354858D1*
X2224103Y1362335D1*
X2223500Y1370000D1*
X2224103Y1377665D1*
X2225898Y1385142D1*
X2228841Y1392246D1*
X2232858Y1398801D1*
X2237852Y1404648D1*
X2243699Y1409642D1*
X2250254Y1413659D1*
X2257358Y1416602D1*
X2264835Y1418397D1*
X2272515Y1418999D1*
X2331344Y1418849D1*
X2338939Y1417646D1*
X2346251Y1415270D1*
X2353102Y1411779D1*
X2359323Y1407260D1*
X2364760Y1401823D1*
X2369279Y1395602D1*
X2372770Y1388751D1*
X2375146Y1381439D1*
X2376349Y1373844D1*
Y1366156D1*
X2375146Y1358561D1*
X2372770Y1351249D1*
X2369279Y1344398D1*
X2364760Y1338177D1*
X2359323Y1332740D1*
X2353102Y1328221D1*
X2346251Y1324730D1*
X2338939Y1322354D1*
X2331344Y1321151D1*
X2299941Y1321000D1*
X2272500Y1321036D1*
X2272515Y921001D2*
X2264835Y921603D1*
X2257358Y923398D1*
X2250254Y926341D1*
X2243699Y930358D1*
X2237852Y935352D1*
X2232858Y941199D1*
X2228841Y947754D1*
X2225898Y954858D1*
X2224103Y962335D1*
X2223500Y970000D1*
X2224103Y977665D1*
X2225898Y985142D1*
X2228841Y992246D1*
X2232858Y998801D1*
X2237852Y1004648D1*
X2243699Y1009642D1*
X2250254Y1013659D1*
X2257358Y1016602D1*
X2264835Y1018397D1*
X2272515Y1018999D1*
X2331344Y1018849D1*
X2338939Y1017646D1*
X2346251Y1015270D1*
X2353102Y1011779D1*
X2359323Y1007260D1*
X2364760Y1001823D1*
X2369279Y995602D1*
X2372770Y988751D1*
X2375146Y981439D1*
X2376349Y973844D1*
Y966156D1*
X2375146Y958561D1*
X2372770Y951249D1*
X2369279Y944398D1*
X2364760Y938177D1*
X2359323Y932740D1*
X2353102Y928221D1*
X2346251Y924730D1*
X2338939Y922354D1*
X2331344Y921151D1*
X2299941Y921000D1*
X2272500Y921036D1*
X1929276Y221776D2*
X2070990D1*
Y78224D1*
X1927438D1*
Y221776D1*
X1929276D1*
X2625000Y1098464D2*
D15*
Y1009536D1*
X2585036Y1054000D2*
X2664964D1*
X1046000Y689964D2*
Y610036D1*
X1001536Y650000D2*
X1090464D1*
X2987500Y1250000D2*
Y1191036D1*
Y1250000D2*
X3046464D1*
X4981036Y1075000D2*
X5037500D1*
X5150000Y900677D2*
Y825000D1*
X5074323D2*
X5225677D1*
X5037500Y975000D2*
Y918536D1*
X4981036Y975000D2*
X5037500D1*
X5187500Y1025000D2*
Y911036D1*
X2000000Y1257464D2*
Y1142536D1*
X1942536Y1200000D2*
X2057464D1*
X1500000Y1257464D2*
Y1142536D1*
X1442536Y1200000D2*
X1557464D1*
X4625000Y636464D2*
Y513536D1*
X4563536Y575000D2*
X4686464D1*
X4212500Y312500D2*
Y274036D1*
X4146036Y312500D2*
X4278964D1*
X1975000Y891464D2*
Y825000D1*
X1999214Y331102D2*
Y259363D1*
X1943222Y331102D2*
X2055206D1*
X1999214Y221740D2*
Y78260D1*
X1927474Y150000D2*
X2070954D1*
D33*
X2625000Y1150000D3*
Y1054000D3*
D34*
X950000Y650000D3*
X1046000D3*
X1050000Y475000D3*
X954000D3*
D35*
X2987500Y1250000D3*
X2887500Y1350000D3*
X2787500D3*
D36*
X2987500D3*
D35*
X2787500Y1250000D3*
X2887500D3*
D37*
X300000Y750000D3*
X5037500Y1075000D3*
Y425000D3*
D38*
X5150000Y675000D3*
D39*
Y825000D3*
D37*
X5037500Y975000D3*
Y525000D3*
D40*
X3925000Y1250000D3*
X4025000D3*
X4125000D3*
X4225000D3*
X4325000D3*
X4425000D3*
X4525000D3*
X4625000D3*
Y850000D3*
X4525000D3*
X4425000D3*
X4325000D3*
X4225000D3*
X4125000D3*
X4025000D3*
D41*
X3925000D3*
D43*
X3687500Y225000D3*
X3562500D3*
X3687500Y412500D3*
X3562500D3*
X3687500Y600000D3*
X3562500D3*
D44*
X5187500Y1025000D3*
Y475000D3*
D31*
X1037500Y850000D3*
X947500D3*
X950000Y1025000D3*
X1040000D3*
D46*
X2000000Y1200000D3*
X1800000D3*
X1900000Y1100000D3*
X1500000Y1200000D3*
X1300000D3*
X1400000Y1100000D3*
D48*
X3250000D3*
X3200000D3*
X3550000Y880000D3*
X3200000D3*
X3300000Y1100000D3*
X3350000D3*
X3400000D3*
X3450000D3*
X3500000D3*
X3550000D3*
X3500000Y880000D3*
X3450000D3*
X3400000D3*
X3350000D3*
X3300000D3*
X3250000D3*
D49*
X4625000Y275000D3*
Y575000D3*
D37*
X725000Y650000D3*
Y750000D3*
Y850000D3*
D50*
X2300000Y1225000D3*
X2535000D3*
Y1370000D3*
X2300000D3*
Y825000D3*
X2535000D3*
Y970000D3*
X2300000D3*
D123*
X3000000Y900000D3*
D126*
Y343223D3*
X2888646Y900000D3*
D123*
X3022272Y877728D3*
X3044543Y855458D3*
X3066814Y833186D3*
X3089085Y810916D3*
X3111356Y788644D3*
X3133627Y766374D3*
X3155898Y744102D3*
X3178169Y721832D3*
X3200440Y699560D3*
X3222711Y677289D3*
D126*
Y565934D3*
X3200440Y543663D3*
X3178168Y521391D3*
X3155898Y499121D3*
X3133627Y476849D3*
X3111356Y454579D3*
X3089085Y432307D3*
X3066814Y410037D3*
X3044543Y387765D3*
X3022272Y365495D3*
D123*
X2888646Y343223D3*
X2866374Y365495D3*
X2844102Y387765D3*
X2821832Y410037D3*
X2799560Y432307D3*
X2777290Y454579D3*
X2755018Y476849D3*
X2732748Y499121D3*
X2710476Y521391D3*
X2688206Y543663D3*
X2665934Y565934D3*
D126*
Y677289D3*
X2688206Y699560D3*
X2710476Y721832D3*
X2732748Y744102D3*
X2755018Y766374D3*
X2777290Y788644D3*
X2799560Y810916D3*
X2821832Y833186D3*
X2844102Y855457D3*
X2866373Y877728D3*
D129*
X1512500Y187500D3*
X1547854Y222856D3*
X1618566Y293567D3*
X1654629Y329629D3*
D132*
Y438524D3*
X1618566Y474585D3*
X1583210Y509941D3*
X1547854Y545297D3*
X1512500Y580652D3*
D129*
X1403605D3*
X1367543Y544589D3*
X1332188Y509234D3*
X1296832Y473879D3*
X1261476Y438524D3*
D132*
Y329629D3*
X1296832Y294273D3*
X1332188Y258919D3*
X1367543Y223563D3*
X1403605Y187500D3*
D135*
X1583210Y258211D3*
D51*
X4212500Y612500D3*
Y662500D3*
X3992500Y312500D3*
Y662500D3*
X4212500Y562500D3*
Y512500D3*
Y462500D3*
Y412500D3*
Y362500D3*
Y312500D3*
X3992500Y362500D3*
Y412500D3*
Y462500D3*
Y512500D3*
Y562500D3*
Y612500D3*
D48*
X2075000Y825000D3*
Y605000D3*
X2025000D3*
X1975000D3*
X1925000D3*
X1875000D3*
X1825000D3*
X1775000D3*
Y825000D3*
X1825000D3*
X1875000D3*
X1925000D3*
X1975000D3*
X2025000D3*
D52*
X2200000Y150000D3*
X1999214Y331102D3*
D53*
Y150000D3*
D52*
X2200000Y331102D3*
M02*
