G04 DipTrace 3.3.0.0*
G04 TopMask.gbr*
%MOIN*%
G04 #@! TF.FileFunction,Soldermask,Top*
G04 #@! TF.Part,Single*
%AMOUTLINE1*
4,1,16,
-0.028155,-0.008663,
-0.031201,-0.013509,
-0.031891,-0.019649,
-0.029851,-0.025482,
-0.025482,-0.029851,
-0.019649,-0.031891,
-0.013509,-0.031201,
-0.008663,-0.028155,
0.028155,0.008663,
0.031201,0.013509,
0.031891,0.019649,
0.029851,0.025482,
0.025482,0.029851,
0.019649,0.031891,
0.013509,0.031201,
0.008663,0.028155,
-0.028155,-0.008663,
0*%
%AMOUTLINE4*
4,1,16,
0.008663,-0.028155,
0.013509,-0.031201,
0.019649,-0.031891,
0.025482,-0.029851,
0.029851,-0.025482,
0.031891,-0.019649,
0.031201,-0.013509,
0.028155,-0.008663,
-0.008663,0.028155,
-0.013509,0.031201,
-0.019649,0.031891,
-0.025482,0.029851,
-0.029851,0.025482,
-0.031891,0.019649,
-0.031201,0.013509,
-0.028155,0.008663,
0.008663,-0.028155,
0*%
%AMOUTLINE7*
4,1,16,
-0.012377,0.03492,
-0.018037,0.038476,
-0.025131,0.039274,
-0.031869,0.036917,
-0.036917,0.031869,
-0.039274,0.025131,
-0.038476,0.018037,
-0.03492,0.012377,
0.012377,-0.03492,
0.018037,-0.038476,
0.025131,-0.039274,
0.031869,-0.036917,
0.036917,-0.031869,
0.039274,-0.025131,
0.038476,-0.018037,
0.03492,-0.012377,
-0.012377,0.03492,
0*%
%AMOUTLINE10*
4,1,16,
-0.03492,-0.012377,
-0.038476,-0.018037,
-0.039274,-0.025131,
-0.036917,-0.031869,
-0.031869,-0.036917,
-0.025131,-0.039274,
-0.018037,-0.038476,
-0.012377,-0.03492,
0.03492,0.012377,
0.038476,0.018037,
0.039274,0.025131,
0.036917,0.031869,
0.031869,0.036917,
0.025131,0.039274,
0.018037,0.038476,
0.012377,0.03492,
-0.03492,-0.012377,
0*%
%AMOUTLINE13*
4,1,8,
-0.038361,0.017109,
-0.038361,0.029559,
-0.029559,0.038361,
-0.017109,0.038361,
0.038361,-0.017109,
0.038361,-0.029559,
0.029559,-0.038361,
0.017109,-0.038361,
-0.038361,0.017109,
0*%
%ADD25C,0.001312*%
%ADD26C,0.3*%
%ADD50C,0.145699*%
%ADD62R,0.098431X0.098431*%
%ADD64R,0.066935X0.098431*%
%ADD66O,0.10788X0.05288*%
%ADD68C,0.07788*%
%ADD70O,0.03188X0.08788*%
%ADD72C,0.06988*%
%ADD74R,0.06788X0.07288*%
%ADD76R,0.04788X0.04788*%
%ADD78C,0.04788*%
%ADD80C,0.06788*%
%ADD82R,0.07288X0.07288*%
%ADD84C,0.07288*%
%ADD86R,0.04388X0.03488*%
%ADD88R,0.03488X0.04388*%
%ADD92R,0.06788X0.05788*%
%ADD98OUTLINE1*%
%ADD101OUTLINE4*%
%ADD104OUTLINE7*%
%ADD107OUTLINE10*%
%ADD110OUTLINE13*%
%FSLAX26Y26*%
G04*
G70*
G90*
G75*
G01*
G04 TopMask*
%LPD*%
D88*
X2625000Y1150000D3*
Y1054000D3*
D86*
X950000Y650000D3*
X1046000D3*
X1037500Y475000D3*
X941500D3*
D50*
X950000Y200000D3*
X5350000Y1300000D3*
Y200000D3*
X950000Y1300000D3*
D84*
X2987500Y1250000D3*
X2887500Y1350000D3*
X2787500D3*
D82*
X2987500D3*
D84*
X2787500Y1250000D3*
X2887500D3*
D80*
X300000Y750000D3*
X5450000Y1075000D3*
Y425000D3*
D78*
X3950000Y1250000D3*
X4050000D3*
X4150000D3*
X4250000D3*
X4350000D3*
X4450000D3*
X4550000D3*
X4650000D3*
Y850000D3*
X4550000D3*
X4450000D3*
X4350000D3*
X4250000D3*
X4150000D3*
X4050000D3*
D76*
X3950000D3*
D74*
X3800000Y225000D3*
X3675000D3*
X3800000Y412500D3*
X3675000D3*
X3800000Y600000D3*
X3675000D3*
D92*
X1037500Y850000D3*
X947500D3*
X950000Y1025000D3*
X1040000D3*
D72*
X2000000Y1200000D3*
X1800000D3*
X1900000Y1100000D3*
X1500000Y1200000D3*
X1300000D3*
X1400000Y1100000D3*
D70*
X3250000D3*
X3200000D3*
X3550000Y880000D3*
X3200000D3*
X3300000Y1100000D3*
X3350000D3*
X3400000D3*
X3450000D3*
X3500000D3*
X3550000D3*
X3500000Y880000D3*
X3450000D3*
X3400000D3*
X3350000D3*
X3300000D3*
X3250000D3*
D68*
X5200000Y600000D3*
Y900000D3*
D80*
X725000Y650000D3*
Y750000D3*
Y850000D3*
D66*
X2300000Y1225000D3*
X2535000D3*
Y1370000D3*
X2300000D3*
Y825000D3*
X2535000D3*
Y970000D3*
X2300000D3*
D98*
X3000000Y900000D3*
D101*
Y343223D3*
X2888646Y900000D3*
D98*
X3022272Y877728D3*
X3044543Y855458D3*
X3066814Y833186D3*
X3089085Y810916D3*
X3111356Y788644D3*
X3133627Y766374D3*
X3155898Y744102D3*
X3178169Y721832D3*
X3200440Y699560D3*
X3222711Y677289D3*
D101*
Y565934D3*
X3200440Y543663D3*
X3178168Y521391D3*
X3155898Y499121D3*
X3133627Y476849D3*
X3111356Y454579D3*
X3089085Y432307D3*
X3066814Y410037D3*
X3044543Y387765D3*
X3022272Y365495D3*
D98*
X2888646Y343223D3*
X2866374Y365495D3*
X2844102Y387765D3*
X2821832Y410037D3*
X2799560Y432307D3*
X2777290Y454579D3*
X2755018Y476849D3*
X2732748Y499121D3*
X2710476Y521391D3*
X2688206Y543663D3*
X2665934Y565934D3*
D101*
Y677289D3*
X2688206Y699560D3*
X2710476Y721832D3*
X2732748Y744102D3*
X2755018Y766374D3*
X2777290Y788644D3*
X2799560Y810916D3*
X2821832Y833186D3*
X2844102Y855457D3*
X2866373Y877728D3*
D104*
X1512500Y187500D3*
X1547854Y222856D3*
X1618566Y293567D3*
X1654629Y329629D3*
D107*
Y438524D3*
X1618566Y474585D3*
X1583210Y509941D3*
X1547854Y545297D3*
X1512500Y580652D3*
D104*
X1403605D3*
X1367543Y544589D3*
X1332188Y509234D3*
X1296832Y473879D3*
X1261476Y438524D3*
D107*
Y329629D3*
X1296832Y294273D3*
X1332188Y258919D3*
X1367543Y223563D3*
X1403605Y187500D3*
D110*
X1583210Y258211D3*
D78*
X4700000Y300000D3*
X4600000D3*
X4500000D3*
X4400000D3*
X4300000D3*
X4200000D3*
X4100000D3*
X4000000D3*
Y600000D3*
X4100000D3*
X4200000D3*
X4300000D3*
X4400000D3*
X4500000D3*
X4600000D3*
D76*
X4700000D3*
D70*
X2075000Y825000D3*
Y605000D3*
X2025000D3*
X1975000D3*
X1925000D3*
X1875000D3*
X1825000D3*
X1775000D3*
Y825000D3*
X1825000D3*
X1875000D3*
X1925000D3*
X1975000D3*
X2025000D3*
D64*
X2200000Y150000D3*
X1999214Y331102D3*
D62*
Y150000D3*
D64*
X2200000Y331102D3*
X950000Y1350000D2*
D25*
Y1353488D1*
Y1356959D1*
Y1360396D1*
Y1363782D1*
Y1367101D1*
Y1370337D1*
Y1373474D1*
Y1376496D1*
Y1379389D1*
Y1382139D1*
Y1384733D1*
Y1387157D1*
Y1389401D1*
Y1391452D1*
Y1393301D1*
Y1394940D1*
Y1396359D1*
Y1397553D1*
Y1398515D1*
Y1399240D1*
Y1399726D1*
Y1399970D1*
Y1399726D1*
Y1399240D1*
Y1398515D1*
Y1397553D1*
Y1396359D1*
Y1394940D1*
Y1393301D1*
Y1391452D1*
Y1389401D1*
Y1387157D1*
Y1384733D1*
Y1382139D1*
Y1379389D1*
Y1376496D1*
Y1373474D1*
Y1370337D1*
Y1367101D1*
Y1363782D1*
Y1360396D1*
Y1356959D1*
Y1353488D1*
Y1350000D1*
Y1346512D1*
Y1343041D1*
Y1339604D1*
Y1336218D1*
Y1332899D1*
Y1329663D1*
Y1326526D1*
Y1323504D1*
Y1320611D1*
Y1317861D1*
Y1315267D1*
Y1312843D1*
Y1310599D1*
Y1308548D1*
Y1306699D1*
Y1305060D1*
Y1303641D1*
Y1302447D1*
Y1301485D1*
Y1300760D1*
Y1300274D1*
Y1300030D1*
Y1300274D1*
Y1300760D1*
Y1301485D1*
Y1302447D1*
Y1303641D1*
Y1305060D1*
Y1306699D1*
Y1308548D1*
Y1310599D1*
Y1312843D1*
Y1315267D1*
Y1317861D1*
Y1320611D1*
Y1323504D1*
Y1326526D1*
Y1329663D1*
Y1332899D1*
Y1336218D1*
Y1339604D1*
Y1343041D1*
Y1346512D1*
Y1350000D1*
D26*
Y1300000D3*
X5350000D3*
X950000Y200000D3*
X5350000D3*
M02*
