G04 DipTrace 3.3.0.0*
G04 TopMask.gbr*
%MOIN*%
G04 #@! TF.FileFunction,Soldermask,Top*
G04 #@! TF.Part,Single*
%AMOUTLINE1*
4,1,16,
-0.028155,-0.008663,
-0.031201,-0.013509,
-0.031891,-0.019649,
-0.029851,-0.025482,
-0.025482,-0.029851,
-0.019649,-0.031891,
-0.013509,-0.031201,
-0.008663,-0.028155,
0.028155,0.008663,
0.031201,0.013509,
0.031891,0.019649,
0.029851,0.025482,
0.025482,0.029851,
0.019649,0.031891,
0.013509,0.031201,
0.008663,0.028155,
-0.028155,-0.008663,
0*%
%AMOUTLINE4*
4,1,16,
0.008663,-0.028155,
0.013509,-0.031201,
0.019649,-0.031891,
0.025482,-0.029851,
0.029851,-0.025482,
0.031891,-0.019649,
0.031201,-0.013509,
0.028155,-0.008663,
-0.008663,0.028155,
-0.013509,0.031201,
-0.019649,0.031891,
-0.025482,0.029851,
-0.029851,0.025482,
-0.031891,0.019649,
-0.031201,0.013509,
-0.028155,0.008663,
0.008663,-0.028155,
0*%
%AMOUTLINE7*
4,1,16,
-0.012377,0.03492,
-0.018037,0.038476,
-0.025131,0.039274,
-0.031869,0.036917,
-0.036917,0.031869,
-0.039274,0.025131,
-0.038476,0.018037,
-0.03492,0.012377,
0.012377,-0.03492,
0.018037,-0.038476,
0.025131,-0.039274,
0.031869,-0.036917,
0.036917,-0.031869,
0.039274,-0.025131,
0.038476,-0.018037,
0.03492,-0.012377,
-0.012377,0.03492,
0*%
%AMOUTLINE10*
4,1,16,
-0.03492,-0.012377,
-0.038476,-0.018037,
-0.039274,-0.025131,
-0.036917,-0.031869,
-0.031869,-0.036917,
-0.025131,-0.039274,
-0.018037,-0.038476,
-0.012377,-0.03492,
0.03492,0.012377,
0.038476,0.018037,
0.039274,0.025131,
0.036917,0.031869,
0.031869,0.036917,
0.025131,0.039274,
0.018037,0.038476,
0.012377,0.03492,
-0.03492,-0.012377,
0*%
%AMOUTLINE13*
4,1,8,
-0.038361,0.017109,
-0.038361,0.029559,
-0.029559,0.038361,
-0.017109,0.038361,
0.038361,-0.017109,
0.038361,-0.029559,
0.029559,-0.038361,
0.017109,-0.038361,
-0.038361,0.017109,
0*%
%ADD27C,0.001312*%
%ADD65C,0.08788*%
%ADD67C,0.14288*%
%ADD69C,0.06788*%
%ADD71C,0.267681*%
%ADD73C,0.04788*%
%ADD75C,0.03788*%
%ADD77R,0.098431X0.098431*%
%ADD79R,0.066935X0.098431*%
%ADD81O,0.08788X0.03188*%
%ADD83O,0.10788X0.05288*%
%ADD85C,0.07788*%
%ADD87O,0.03188X0.08788*%
%ADD91C,0.06988*%
%ADD93R,0.06788X0.07288*%
%ADD95R,0.04788X0.04788*%
%ADD97C,0.04788*%
%ADD99C,0.106305*%
%ADD101R,0.106305X0.106305*%
%ADD103R,0.18288X0.18288*%
%ADD105C,0.06788*%
%ADD107R,0.07288X0.07288*%
%ADD109C,0.07288*%
%ADD111R,0.04388X0.03488*%
%ADD117R,0.06788X0.05788*%
%ADD124OUTLINE1*%
%ADD127OUTLINE4*%
%ADD130OUTLINE7*%
%ADD133OUTLINE10*%
%ADD136OUTLINE13*%
%FSLAX26Y26*%
G04*
G70*
G90*
G75*
G01*
G04 TopMask*
%LPD*%
D75*
X3925000Y762500D3*
X3900000Y725000D3*
X3875000Y687500D3*
X3850000Y650000D3*
D73*
X850000Y1025000D3*
D71*
X950000Y1300000D3*
D73*
X1975000Y525000D3*
X1118751Y475000D3*
X1125000Y650000D3*
X1456249Y475000D3*
X2150000Y237500D3*
X2075000Y187500D3*
D75*
X2862500Y512500D3*
X2912500D3*
X2962500D3*
X3012500D3*
X3787500Y600000D3*
Y412500D3*
Y225000D3*
D73*
X2687500Y1350000D3*
D75*
X1925000Y487500D3*
X2612500Y450000D3*
D73*
X1525000Y387500D3*
X2000000Y712500D3*
D75*
X2575000Y400000D3*
X2812500Y562500D3*
X2937500Y650000D3*
X2462500D3*
D73*
X4062500Y975000D3*
Y925000D3*
X3250000Y987500D3*
X4750000Y1250000D3*
X1775000Y525000D3*
X1875000D3*
D75*
X2450000Y825000D3*
X2725000Y862500D3*
X3062500Y562500D3*
D69*
X2887500Y737500D3*
X3000000D3*
D75*
X2493751Y681251D3*
X2637500Y825000D3*
D73*
X2450000Y900000D3*
X2425000Y1225000D3*
D75*
X3100000Y1137500D3*
D73*
X1662500Y637500D3*
X1250000Y900000D3*
X3100000Y950000D3*
X2137500Y1137500D3*
D75*
X2612500Y618751D3*
D73*
X3500000Y512500D3*
X3062500Y1000000D3*
X1475000Y325000D3*
D75*
X1575000Y125000D3*
X1700000Y200000D3*
D73*
X3150000Y875000D3*
D67*
X500000Y750000D3*
X100000D3*
D71*
X950000Y200000D3*
X5100000D3*
D73*
X3887500Y362500D3*
X4312500Y312500D3*
D65*
X100000Y887500D3*
X350000Y612500D3*
D73*
X4312500Y462500D3*
X4525000Y725000D3*
D75*
X2725000Y375000D3*
D71*
X5100000Y1300000D3*
D69*
X4025000Y175000D3*
X4175000D3*
D65*
X350000Y887500D3*
X100000Y612500D3*
D73*
X4450000Y700000D3*
X4375000Y675000D3*
X2562500Y1050000D3*
D111*
X950000Y650000D3*
X1046000D3*
X1050000Y475000D3*
X954000D3*
D109*
X2987500Y1250000D3*
X2887500Y1350000D3*
X2787500D3*
D107*
X2987500D3*
D109*
X2787500Y1250000D3*
X2887500D3*
D105*
X300000Y750000D3*
D103*
X5187500Y1025000D3*
Y475000D3*
D101*
X5150000Y675000D3*
D99*
Y825000D3*
D97*
X3925000Y1250000D3*
X4025000D3*
X4125000D3*
X4225000D3*
X4325000D3*
X4425000D3*
X4525000D3*
X4625000D3*
Y850000D3*
X4525000D3*
X4425000D3*
X4325000D3*
X4225000D3*
X4125000D3*
X4025000D3*
D95*
X3925000D3*
D93*
X3687500Y225000D3*
X3562500D3*
X3687500Y412500D3*
X3562500D3*
X3687500Y600000D3*
X3562500D3*
D117*
X1037500Y850000D3*
X947500D3*
X950000Y1025000D3*
X1040000D3*
D91*
X2000000Y1200000D3*
X1800000D3*
X1900000Y1100000D3*
X1500000Y1200000D3*
X1300000D3*
X1400000Y1100000D3*
D87*
X3250000D3*
X3200000D3*
X3550000Y880000D3*
X3200000D3*
X3300000Y1100000D3*
X3350000D3*
X3400000D3*
X3450000D3*
X3500000D3*
X3550000D3*
X3500000Y880000D3*
X3450000D3*
X3400000D3*
X3350000D3*
X3300000D3*
X3250000D3*
D105*
X5037500Y1075000D3*
Y975000D3*
Y525000D3*
Y425000D3*
D85*
X4625000Y275000D3*
Y575000D3*
D105*
X725000Y650000D3*
Y750000D3*
Y850000D3*
D83*
X2300000Y1225000D3*
X2535000D3*
Y1370000D3*
X2300000D3*
Y825000D3*
X2535000D3*
Y970000D3*
X2300000D3*
D124*
X3000000Y900000D3*
D127*
Y343223D3*
X2888646Y900000D3*
D124*
X3022272Y877728D3*
X3044543Y855458D3*
X3066814Y833186D3*
X3089085Y810916D3*
X3111356Y788644D3*
X3133627Y766374D3*
X3155898Y744102D3*
X3178169Y721832D3*
X3200440Y699560D3*
X3222711Y677289D3*
D127*
Y565934D3*
X3200440Y543663D3*
X3178168Y521391D3*
X3155898Y499121D3*
X3133627Y476849D3*
X3111356Y454579D3*
X3089085Y432307D3*
X3066814Y410037D3*
X3044543Y387765D3*
X3022272Y365495D3*
D124*
X2888646Y343223D3*
X2866374Y365495D3*
X2844102Y387765D3*
X2821832Y410037D3*
X2799560Y432307D3*
X2777290Y454579D3*
X2755018Y476849D3*
X2732748Y499121D3*
X2710476Y521391D3*
X2688206Y543663D3*
X2665934Y565934D3*
D127*
Y677289D3*
X2688206Y699560D3*
X2710476Y721832D3*
X2732748Y744102D3*
X2755018Y766374D3*
X2777290Y788644D3*
X2799560Y810916D3*
X2821832Y833186D3*
X2844102Y855457D3*
X2866373Y877728D3*
D130*
X1512500Y187500D3*
X1547854Y222856D3*
X1618566Y293567D3*
X1654629Y329629D3*
D133*
Y438524D3*
X1618566Y474585D3*
X1583210Y509941D3*
X1547854Y545297D3*
X1512500Y580652D3*
D130*
X1403605D3*
X1367543Y544589D3*
X1332188Y509234D3*
X1296832Y473879D3*
X1261476Y438524D3*
D133*
Y329629D3*
X1296832Y294273D3*
X1332188Y258919D3*
X1367543Y223563D3*
X1403605Y187500D3*
D136*
X1583210Y258211D3*
D81*
X4212500Y612500D3*
Y662500D3*
X3992500Y312500D3*
Y662500D3*
X4212500Y562500D3*
Y512500D3*
Y462500D3*
Y412500D3*
Y362500D3*
Y312500D3*
X3992500Y362500D3*
Y412500D3*
Y462500D3*
Y512500D3*
Y562500D3*
Y612500D3*
D87*
X2075000Y825000D3*
Y605000D3*
X2025000D3*
X1975000D3*
X1925000D3*
X1875000D3*
X1825000D3*
X1775000D3*
Y825000D3*
X1825000D3*
X1875000D3*
X1925000D3*
X1975000D3*
X2025000D3*
D79*
X2150000Y150000D3*
X1949214Y331102D3*
D77*
Y150000D3*
D79*
X2150000Y331102D3*
X950000Y1350000D2*
D27*
Y1353488D1*
Y1356959D1*
Y1360396D1*
Y1363782D1*
Y1367101D1*
Y1370337D1*
Y1373474D1*
Y1376496D1*
Y1379389D1*
Y1382139D1*
Y1384733D1*
Y1387157D1*
Y1389401D1*
Y1391452D1*
Y1393301D1*
Y1394940D1*
Y1396359D1*
Y1397553D1*
Y1398515D1*
Y1399240D1*
Y1399726D1*
Y1399970D1*
Y1399726D1*
Y1399240D1*
Y1398515D1*
Y1397553D1*
Y1396359D1*
Y1394940D1*
Y1393301D1*
Y1391452D1*
Y1389401D1*
Y1387157D1*
Y1384733D1*
Y1382139D1*
Y1379389D1*
Y1376496D1*
Y1373474D1*
Y1370337D1*
Y1367101D1*
Y1363782D1*
Y1360396D1*
Y1356959D1*
Y1353488D1*
Y1350000D1*
Y1346512D1*
Y1343041D1*
Y1339604D1*
Y1336218D1*
Y1332899D1*
Y1329663D1*
Y1326526D1*
Y1323504D1*
Y1320611D1*
Y1317861D1*
Y1315267D1*
Y1312843D1*
Y1310599D1*
Y1308548D1*
Y1306699D1*
Y1305060D1*
Y1303641D1*
Y1302447D1*
Y1301485D1*
Y1300760D1*
Y1300274D1*
Y1300030D1*
Y1300274D1*
Y1300760D1*
Y1301485D1*
Y1302447D1*
Y1303641D1*
Y1305060D1*
Y1306699D1*
Y1308548D1*
Y1310599D1*
Y1312843D1*
Y1315267D1*
Y1317861D1*
Y1320611D1*
Y1323504D1*
Y1326526D1*
Y1329663D1*
Y1332899D1*
Y1336218D1*
Y1339604D1*
Y1343041D1*
Y1346512D1*
Y1350000D1*
M02*
