G04 DipTrace 3.3.0.0*
G04 TopSilk.gbr*
%MOIN*%
G04 #@! TF.FileFunction,Legend,Top*
G04 #@! TF.Part,Single*
%ADD12C,0.003*%
%ADD23C,0.01*%
%ADD27C,0.012*%
%ADD37C,0.008*%
%ADD94C,0.004632*%
%ADD95C,0.009264*%
%ADD96C,0.006176*%
%FSLAX26Y26*%
G04*
G70*
G90*
G75*
G01*
G04 TopSilk*
%LPD*%
X2655000Y1088998D2*
D23*
X2595000D1*
X2655000Y1083995D2*
X2595000D1*
X2655000Y1124004D2*
X2595000D1*
X2655000Y1079006D2*
Y1124004D1*
X2595000Y1079006D2*
Y1124004D1*
X2655000Y1079006D2*
X2595000D1*
X1011002Y680000D2*
Y620000D1*
X1016005Y680000D2*
Y620000D1*
X975996Y680000D2*
Y620000D1*
X1020994Y680000D2*
X975996D1*
X1020994Y620000D2*
X975996D1*
X1020994Y680000D2*
Y620000D1*
X976498Y445000D2*
Y505000D1*
X971495Y445000D2*
Y505000D1*
X1011504Y445000D2*
Y505000D1*
X966506Y445000D2*
X1011504D1*
X966506Y505000D2*
X1011504D1*
X966506Y445000D2*
Y505000D1*
X3037500Y1400000D2*
Y1200000D1*
X2937510Y1400000D2*
Y1300000D1*
X2737500Y1400000D2*
Y1200000D1*
X3037500Y1300000D2*
X2937510D1*
X3037500Y1200000D2*
X2737500D1*
X3037500Y1400000D2*
X2737500D1*
X250000Y800000D2*
X350000D1*
Y700000D2*
Y800000D1*
X250000Y700000D2*
X350000D1*
X250000D2*
Y800000D1*
X5400000Y1125000D2*
X5500000D1*
Y1025000D2*
Y1125000D1*
X5400000Y1025000D2*
X5500000D1*
X5400000D2*
Y1125000D1*
Y475000D2*
X5500000D1*
Y375000D2*
Y475000D1*
X5400000Y375000D2*
X5500000D1*
X5400000D2*
Y475000D1*
X3700000Y1020000D2*
G03X3700000Y1070000I-40J25000D01*
G01*
X4900000Y800000D2*
X3700000D1*
Y1020000D1*
X4900000Y1300000D2*
X3700000D1*
Y1070000D2*
Y1300000D1*
X4900000Y800000D2*
Y1300000D1*
X3739998Y225000D2*
D37*
X3719995D1*
X3739998Y235000D2*
X3730008Y225000D1*
X3739998Y245000D2*
Y215000D1*
X3744992Y210000D2*
X3730008Y225000D1*
X3744992Y250000D2*
X3719995Y225000D1*
X3744992Y250000D2*
Y200000D1*
X3719995Y225000D1*
Y250000D2*
Y200000D1*
X3850000Y275000D2*
D27*
X3775008D1*
X3850000Y175000D2*
X3775008D1*
X3699992Y275000D2*
X3625000D1*
X3699992Y175000D2*
X3625000D1*
X3850000Y275000D2*
Y175000D1*
X3625000Y275000D2*
Y175000D1*
X3739998Y412500D2*
D37*
X3719995D1*
X3739998Y422500D2*
X3730008Y412500D1*
X3739998Y432500D2*
Y402500D1*
X3744992Y397500D2*
X3730008Y412500D1*
X3744992Y437500D2*
X3719995Y412500D1*
X3744992Y437500D2*
Y387500D1*
X3719995Y412500D1*
Y437500D2*
Y387500D1*
X3850000Y462500D2*
D27*
X3775008D1*
X3850000Y362500D2*
X3775008D1*
X3699992Y462500D2*
X3625000D1*
X3699992Y362500D2*
X3625000D1*
X3850000Y462500D2*
Y362500D1*
X3625000Y462500D2*
Y362500D1*
X3739998Y600000D2*
D37*
X3719995D1*
X3739998Y610000D2*
X3730008Y600000D1*
X3739998Y620000D2*
Y590000D1*
X3744992Y585000D2*
X3730008Y600000D1*
X3744992Y625000D2*
X3719995Y600000D1*
X3744992Y625000D2*
Y575000D1*
X3719995Y600000D1*
Y625000D2*
Y575000D1*
X3850000Y650000D2*
D27*
X3775008D1*
X3850000Y550000D2*
X3775008D1*
X3699992Y650000D2*
X3625000D1*
X3699992Y550000D2*
X3625000D1*
X3850000Y650000D2*
Y550000D1*
X3625000Y650000D2*
Y550000D1*
X1087500Y805000D2*
X1012507D1*
X1087500Y895000D2*
X1012507D1*
X972493D2*
X897500D1*
X972493Y805000D2*
X897500D1*
X1087500Y895000D2*
Y805000D1*
X897500Y895000D2*
Y805000D1*
X900000Y1070000D2*
X974993D1*
X900000Y980000D2*
X974993D1*
X1015007D2*
X1090000D1*
X1015007Y1070000D2*
X1090000D1*
X900000Y980000D2*
Y1070000D1*
X1090000Y980000D2*
Y1070000D1*
X2100000Y1400000D2*
Y999995D1*
X1800000D1*
Y950000D1*
X1700000D1*
Y1400000D2*
Y950000D1*
X2100000Y1400000D2*
X1700000D1*
X1600000D2*
Y999995D1*
X1300000D1*
Y950000D1*
X1200000D1*
Y1400000D2*
Y950000D1*
X1600000Y1400000D2*
X1200000D1*
X3175000Y965010D2*
D23*
G03X3175000Y1014990I10J24990D01*
G01*
X3575000Y935010D2*
X3175000D1*
Y965010D1*
X3575000Y935010D2*
Y1044990D1*
X3175000D1*
Y1014990D2*
Y1044990D1*
X4960000Y750000D2*
D37*
G02X4960000Y750000I240000J0D01*
G01*
X5149984Y600000D2*
X5110000D1*
X5130016Y920016D2*
Y879984D1*
X5149984Y900000D2*
X5110000D1*
X645000Y520000D2*
D27*
X805000D1*
Y980000D2*
Y520000D1*
X645000Y980000D2*
Y520000D1*
Y980000D2*
X805000D1*
X2314990Y1400000D2*
Y1195000D1*
X2520010Y1400000D2*
Y1195000D1*
X2314990D1*
X2520010Y1400000D2*
X2314990D1*
Y1000000D2*
Y795000D1*
X2520010Y1000000D2*
Y795000D1*
X2314990D1*
X2520010Y1000000D2*
X2314990D1*
X2960555Y783564D2*
D23*
G02X2960555Y783564I-16232J16232D01*
G01*
X2699373Y621612D2*
X2944323Y866562D1*
X2699373Y621612D2*
X2944323Y376661D1*
X3189273Y621612D1*
X2944323Y866562D2*
X3189273Y621612D1*
X1716138Y398233D2*
Y369919D1*
X1687872Y426492D2*
X1716138Y398233D1*
X1458026Y656322D2*
X1500452Y613906D1*
X1185806Y384076D2*
X1228233Y341660D1*
X1415652Y154246D2*
X1458026Y111830D1*
X1716138Y369919D2*
X1687872Y341660D1*
X1458026Y656322D2*
X1415652Y613906D1*
X1228233Y426492D2*
X1185806Y384076D1*
X1500452Y154246D2*
X1458026Y111830D1*
X4750000Y475000D2*
G03X4750000Y425000I40J-25000D01*
G01*
Y650000D2*
Y475000D1*
Y425000D2*
Y250000D1*
X3950000D2*
X4750000D1*
X3950000Y650000D2*
X4750000D1*
X3950000D2*
Y250000D1*
X2100000Y739990D2*
G03X2100000Y690010I0J-24990D01*
G01*
X1750000Y769990D2*
Y660010D1*
X2100000Y690010D2*
Y660010D1*
Y769990D2*
Y739990D1*
X1750000Y769990D2*
X2100000D1*
X1750000Y660010D2*
X2100000D1*
X1892913Y201189D2*
G03X1892913Y279914I-8J39363D01*
G01*
X2255122Y142131D2*
X2306299D1*
X2255122Y338971D2*
X2306299D1*
X2054341D2*
X2144872D1*
X1892913D2*
X1944091D1*
X1892913Y142131D2*
X1928341D1*
X2070091D2*
X2144872D1*
X2306299D2*
Y338971D1*
X1892913Y142131D2*
Y338971D1*
X12500Y837500D2*
X600000D1*
X12500Y662500D2*
X600000D1*
X12500Y650000D2*
X600000Y587500D1*
X12500Y850000D2*
X600000Y912500D1*
X12500Y862500D2*
X600000Y987500D1*
X12500Y875000D2*
X750000Y1125000D1*
X12500Y887500D2*
X750000Y1250000D1*
X12500Y637500D2*
X600000Y512500D1*
X12500Y625000D2*
X750000Y375000D1*
X12500Y612500D2*
X750000Y250000D1*
X12500Y900000D2*
X750000Y1406249D1*
X12500Y600000D2*
X750000Y93751D1*
X3179000Y1378000D2*
D12*
X3191000D1*
X3317000D2*
X3335000D1*
X3365000D2*
X3368000D1*
X3548000D2*
X3569000D1*
X3169680Y1375000D2*
X3200206D1*
X3317000D2*
X3335000D1*
X3362000D2*
X3368000D1*
X3548000D2*
X3569000D1*
X3161925Y1372000D2*
X3207576D1*
X3317000D2*
X3335000D1*
X3359012D2*
X3368000D1*
X3548000D2*
X3569000D1*
X3155772Y1369000D2*
X3213022D1*
X3317000D2*
X3335000D1*
X3356129D2*
X3368000D1*
X3548000D2*
X3569000D1*
X3150941Y1366000D2*
X3217178D1*
X3317000D2*
X3335000D1*
X3353628D2*
X3368000D1*
X3548000D2*
X3569000D1*
X3147300Y1363000D2*
X3220560D1*
X3317000D2*
X3335000D1*
X3351846D2*
X3368000D1*
X3548000D2*
X3569000D1*
X3144554Y1360000D2*
X3223270D1*
X3317000D2*
X3335000D1*
X3350834D2*
X3368000D1*
X3548000D2*
X3569000D1*
X3142240Y1357000D2*
X3177179D1*
X3193410D2*
X3225231D1*
X3317000D2*
X3335000D1*
X3350344D2*
X3368000D1*
X3548000D2*
X3569000D1*
X3140172Y1354000D2*
X3170682D1*
X3198153D2*
X3226655D1*
X3317000D2*
X3335000D1*
X3350133D2*
X3368000D1*
X3548000D2*
X3569000D1*
X3138534Y1351000D2*
X3165778D1*
X3202044D2*
X3227898D1*
X3317000D2*
X3335000D1*
X3350049D2*
X3368000D1*
X3548000D2*
X3569000D1*
X3137255Y1348000D2*
X3162198D1*
X3205068D2*
X3229013D1*
X3260000D2*
X3284000D1*
X3317000D2*
X3335000D1*
X3350017D2*
X3368000D1*
X3416000D2*
X3437000D1*
X3500000D2*
X3521000D1*
X3548000D2*
X3569000D1*
X3581000D2*
X3599000D1*
X3136096Y1345000D2*
X3159612D1*
X3207261D2*
X3230000D1*
X3252846D2*
X3289758D1*
X3317000D2*
X3335000D1*
X3350006D2*
X3386000D1*
X3409205D2*
X3442770D1*
X3493205D2*
X3526410D1*
X3548000D2*
X3569000D1*
X3575000D2*
X3604758D1*
X3135135Y1342000D2*
X3157713D1*
X3209000D2*
X3218000D1*
X3247272D2*
X3294364D1*
X3317000D2*
X3335000D1*
X3350002D2*
X3386000D1*
X3403589D2*
X3447481D1*
X3487589D2*
X3531153D1*
X3548000D2*
X3609376D1*
X3134534Y1339000D2*
X3156391D1*
X3243082D2*
X3297736D1*
X3317000D2*
X3335000D1*
X3350001D2*
X3386000D1*
X3399160D2*
X3451248D1*
X3483160D2*
X3535041D1*
X3548000D2*
X3612854D1*
X3134227Y1336000D2*
X3155634D1*
X3240001D2*
X3300282D1*
X3317000D2*
X3335000D1*
X3350000D2*
X3386000D1*
X3395585D2*
X3454240D1*
X3479596D2*
X3538005D1*
X3548000D2*
X3615405D1*
X3134090Y1333000D2*
X3155264D1*
X3237641D2*
X3267301D1*
X3270897D2*
X3301169D1*
X3317000D2*
X3335000D1*
X3350000D2*
X3386000D1*
X3392690D2*
X3456561D1*
X3476795D2*
X3540262D1*
X3548000D2*
X3617293D1*
X3134033Y1330000D2*
X3155102D1*
X3236793D2*
X3261236D1*
X3277792D2*
X3301647D1*
X3317000D2*
X3335000D1*
X3350000D2*
X3368000D1*
X3390412D2*
X3416552D1*
X3433448D2*
X3458364D1*
X3474794D2*
X3503601D1*
X3514411D2*
X3541203D1*
X3548000D2*
X3618611D1*
X3134012Y1327000D2*
X3155038D1*
X3236312D2*
X3257116D1*
X3284000D2*
X3301862D1*
X3317000D2*
X3335000D1*
X3350000D2*
X3368000D1*
X3388638D2*
X3411604D1*
X3438396D2*
X3459749D1*
X3473357D2*
X3498964D1*
X3519176D2*
X3538400D1*
X3548000D2*
X3575126D1*
X3595422D2*
X3619367D1*
X3134004Y1324000D2*
X3155013D1*
X3236000D2*
X3254000D1*
X3274815D2*
X3301949D1*
X3317000D2*
X3335000D1*
X3350000D2*
X3368000D1*
X3387364D2*
X3407000D1*
X3443000D2*
X3460874D1*
X3472134D2*
X3495459D1*
X3523250D2*
X3534492D1*
X3548000D2*
X3572628D1*
X3597282D2*
X3619736D1*
X3134001Y1321000D2*
X3155016D1*
X3264499D2*
X3301982D1*
X3317000D2*
X3335000D1*
X3350000D2*
X3368000D1*
X3386625D2*
X3461957D1*
X3471148D2*
X3492796D1*
X3527000D2*
X3530000D1*
X3548000D2*
X3570846D1*
X3598669D2*
X3619898D1*
X3134012Y1318000D2*
X3155119D1*
X3254679D2*
X3301994D1*
X3317000D2*
X3335000D1*
X3350000D2*
X3368000D1*
X3386261D2*
X3462886D1*
X3470539D2*
X3491868D1*
X3548000D2*
X3569834D1*
X3599875D2*
X3619962D1*
X3134117Y1315000D2*
X3155512D1*
X3246863D2*
X3301998D1*
X3317000D2*
X3335000D1*
X3350000D2*
X3368000D1*
X3386101D2*
X3463473D1*
X3470229D2*
X3491368D1*
X3548000D2*
X3569344D1*
X3600855D2*
X3619987D1*
X3134500Y1312000D2*
X3156347D1*
X3241164D2*
X3301999D1*
X3317000D2*
X3335000D1*
X3350000D2*
X3368000D1*
X3386037D2*
X3463776D1*
X3470090D2*
X3491144D1*
X3548000D2*
X3569133D1*
X3601462D2*
X3619995D1*
X3135230Y1309000D2*
X3157616D1*
X3212000D2*
X3218000D1*
X3236822D2*
X3302000D1*
X3317000D2*
X3335000D1*
X3350000D2*
X3368000D1*
X3386013D2*
X3463917D1*
X3470045D2*
X3491064D1*
X3548000D2*
X3569049D1*
X3601772D2*
X3619999D1*
X3136104Y1306000D2*
X3159369D1*
X3210014D2*
X3227000D1*
X3233000D2*
X3270767D1*
X3283988D2*
X3302000D1*
X3317000D2*
X3335000D1*
X3350000D2*
X3368000D1*
X3386016D2*
X3464000D1*
X3470129D2*
X3491147D1*
X3548000D2*
X3569017D1*
X3601910D2*
X3620000D1*
X3137022Y1303000D2*
X3161748D1*
X3207793D2*
X3262471D1*
X3283859D2*
X3302000D1*
X3317000D2*
X3335000D1*
X3350000D2*
X3368000D1*
X3386127D2*
X3407589D1*
X3470504D2*
X3491634D1*
X3527000D2*
X3530000D1*
X3548000D2*
X3569006D1*
X3601967D2*
X3620000D1*
X3138136Y1300000D2*
X3164849D1*
X3204900D2*
X3256251D1*
X3283543D2*
X3302000D1*
X3317000D2*
X3335000D1*
X3350000D2*
X3368000D1*
X3386590D2*
X3408824D1*
X3449000D2*
D3*
X3471231D2*
X3492837D1*
X3525053D2*
X3539000D1*
X3548000D2*
X3569002D1*
X3601988D2*
X3620000D1*
X3139531Y1297000D2*
X3168710D1*
X3201184D2*
X3251000D1*
X3282040D2*
X3302012D1*
X3317000D2*
X3335000D1*
X3350000D2*
X3368000D1*
X3387615D2*
X3410750D1*
X3444594D2*
X3455000D1*
X3472117D2*
X3494754D1*
X3523073D2*
X3569001D1*
X3601996D2*
X3620000D1*
X3141325Y1294000D2*
X3173000D1*
X3197000D2*
X3227114D1*
X3233114D2*
X3254000D1*
X3278747D2*
X3302117D1*
X3317000D2*
X3335000D1*
X3350000D2*
X3368000D1*
X3389000D2*
X3413000D1*
X3440000D2*
X3458669D1*
X3473139D2*
X3497000D1*
X3521000D2*
X3569000D1*
X3601999D2*
X3620000D1*
X3143611Y1291000D2*
X3224487D1*
X3233510D2*
X3257000D1*
X3275000D2*
X3302500D1*
X3317000D2*
X3335000D1*
X3350012D2*
X3461439D1*
X3474635D2*
X3542452D1*
X3548000D2*
X3569000D1*
X3602000D2*
X3620000D1*
X3146268Y1288000D2*
X3222089D1*
X3234358D2*
X3303218D1*
X3317000D2*
X3335000D1*
X3350129D2*
X3386000D1*
X3392012D2*
X3462245D1*
X3476761D2*
X3540090D1*
X3548000D2*
X3569000D1*
X3601988D2*
X3620000D1*
X3149252Y1285000D2*
X3219347D1*
X3235756D2*
X3303987D1*
X3317000D2*
X3335000D1*
X3350628D2*
X3386000D1*
X3395152D2*
X3459477D1*
X3479465D2*
X3537449D1*
X3548000D2*
X3569000D1*
X3601874D2*
X3620000D1*
X3152917Y1282000D2*
X3215538D1*
X3237624D2*
X3304513D1*
X3317000D2*
X3335000D1*
X3351835D2*
X3386000D1*
X3398880D2*
X3455388D1*
X3483001D2*
X3533913D1*
X3548000D2*
X3569000D1*
X3601410D2*
X3620000D1*
X3158027Y1279000D2*
X3210369D1*
X3241923D2*
X3304807D1*
X3317000D2*
X3335000D1*
X3353754D2*
X3386000D1*
X3404014D2*
X3449244D1*
X3488059D2*
X3529025D1*
X3548000D2*
X3569000D1*
X3600385D2*
X3620000D1*
X3164988Y1276000D2*
X3203989D1*
X3247578D2*
X3275000D1*
X3287000D2*
X3305000D1*
X3317000D2*
X3335000D1*
X3356000D2*
X3386000D1*
X3410984D2*
X3440781D1*
X3494999D2*
X3522512D1*
X3548000D2*
X3569000D1*
X3599000D2*
X3620000D1*
X3173000Y1273000D2*
X3197000D1*
X3254000D2*
X3263000D1*
X3419000D2*
X3431000D1*
X3503000D2*
X3515000D1*
X3179000Y1378000D2*
X3169680Y1375000D1*
X3161925Y1372000D1*
X3155772Y1369000D1*
X3150941Y1366000D1*
X3147300Y1363000D1*
X3144554Y1360000D1*
X3142240Y1357000D1*
X3140172Y1354000D1*
X3138534Y1351000D1*
X3137255Y1348000D1*
X3136096Y1345000D1*
X3135135Y1342000D1*
X3134534Y1339000D1*
X3134227Y1336000D1*
X3134090Y1333000D1*
X3134033Y1330000D1*
X3134012Y1327000D1*
X3134004Y1324000D1*
X3134001Y1321000D1*
X3134012Y1318000D1*
X3134117Y1315000D1*
X3134500Y1312000D1*
X3135230Y1309000D1*
X3136104Y1306000D1*
X3137022Y1303000D1*
X3138136Y1300000D1*
X3139531Y1297000D1*
X3141325Y1294000D1*
X3143611Y1291000D1*
X3146268Y1288000D1*
X3149252Y1285000D1*
X3152917Y1282000D1*
X3158027Y1279000D1*
X3164988Y1276000D1*
X3173000Y1273000D1*
X3191000Y1378000D2*
X3200206Y1375000D1*
X3207576Y1372000D1*
X3213022Y1369000D1*
X3217178Y1366000D1*
X3220560Y1363000D1*
X3223270Y1360000D1*
X3225231Y1357000D1*
X3226655Y1354000D1*
X3227898Y1351000D1*
X3229013Y1348000D1*
X3230000Y1345000D1*
X3218000Y1342000D1*
X3317000Y1378000D2*
Y1375000D1*
Y1372000D1*
Y1369000D1*
Y1366000D1*
Y1363000D1*
Y1360000D1*
Y1357000D1*
Y1354000D1*
Y1351000D1*
Y1348000D1*
Y1345000D1*
Y1342000D1*
Y1339000D1*
Y1336000D1*
Y1333000D1*
Y1330000D1*
Y1327000D1*
Y1324000D1*
Y1321000D1*
Y1318000D1*
Y1315000D1*
Y1312000D1*
Y1309000D1*
Y1306000D1*
Y1303000D1*
Y1300000D1*
Y1297000D1*
Y1294000D1*
Y1291000D1*
Y1288000D1*
Y1285000D1*
Y1282000D1*
Y1279000D1*
Y1276000D1*
X3335000Y1378000D2*
Y1375000D1*
Y1372000D1*
Y1369000D1*
Y1366000D1*
Y1363000D1*
Y1360000D1*
Y1357000D1*
Y1354000D1*
Y1351000D1*
Y1348000D1*
Y1345000D1*
Y1342000D1*
Y1339000D1*
Y1336000D1*
Y1333000D1*
Y1330000D1*
Y1327000D1*
Y1324000D1*
Y1321000D1*
Y1318000D1*
Y1315000D1*
Y1312000D1*
Y1309000D1*
Y1306000D1*
Y1303000D1*
Y1300000D1*
Y1297000D1*
Y1294000D1*
Y1291000D1*
Y1288000D1*
Y1285000D1*
Y1282000D1*
Y1279000D1*
Y1276000D1*
X3365000Y1378000D2*
X3362000Y1375000D1*
X3359012Y1372000D1*
X3356129Y1369000D1*
X3353628Y1366000D1*
X3351846Y1363000D1*
X3350834Y1360000D1*
X3350344Y1357000D1*
X3350133Y1354000D1*
X3350049Y1351000D1*
X3350017Y1348000D1*
X3350006Y1345000D1*
X3350002Y1342000D1*
X3350001Y1339000D1*
X3350000Y1336000D1*
Y1333000D1*
Y1330000D1*
Y1327000D1*
Y1324000D1*
Y1321000D1*
Y1318000D1*
Y1315000D1*
Y1312000D1*
Y1309000D1*
Y1306000D1*
Y1303000D1*
Y1300000D1*
Y1297000D1*
Y1294000D1*
X3350012Y1291000D1*
X3350129Y1288000D1*
X3350628Y1285000D1*
X3351835Y1282000D1*
X3353754Y1279000D1*
X3356000Y1276000D1*
X3368000Y1378000D2*
Y1375000D1*
Y1372000D1*
Y1369000D1*
Y1366000D1*
Y1363000D1*
Y1360000D1*
Y1357000D1*
Y1354000D1*
Y1351000D1*
Y1348000D1*
Y1345000D1*
X3386000D1*
Y1342000D1*
Y1339000D1*
Y1336000D1*
Y1333000D1*
Y1330000D1*
X3368000D1*
Y1327000D1*
Y1324000D1*
Y1321000D1*
Y1318000D1*
Y1315000D1*
Y1312000D1*
Y1309000D1*
Y1306000D1*
Y1303000D1*
Y1300000D1*
Y1297000D1*
Y1294000D1*
X3548000Y1378000D2*
Y1375000D1*
Y1372000D1*
Y1369000D1*
Y1366000D1*
Y1363000D1*
Y1360000D1*
Y1357000D1*
Y1354000D1*
Y1351000D1*
Y1348000D1*
Y1345000D1*
Y1342000D1*
Y1339000D1*
Y1336000D1*
Y1333000D1*
Y1330000D1*
Y1327000D1*
Y1324000D1*
Y1321000D1*
Y1318000D1*
Y1315000D1*
Y1312000D1*
Y1309000D1*
Y1306000D1*
Y1303000D1*
Y1300000D1*
X3569000Y1378000D2*
Y1375000D1*
Y1372000D1*
Y1369000D1*
Y1366000D1*
Y1363000D1*
Y1360000D1*
Y1357000D1*
Y1354000D1*
Y1351000D1*
Y1348000D1*
Y1345000D1*
X3185000Y1360000D2*
X3177179Y1357000D1*
X3170682Y1354000D1*
X3165778Y1351000D1*
X3162198Y1348000D1*
X3159612Y1345000D1*
X3157713Y1342000D1*
X3156391Y1339000D1*
X3155634Y1336000D1*
X3155264Y1333000D1*
X3155102Y1330000D1*
X3155038Y1327000D1*
X3155013Y1324000D1*
X3155016Y1321000D1*
X3155119Y1318000D1*
X3155512Y1315000D1*
X3156347Y1312000D1*
X3157616Y1309000D1*
X3159369Y1306000D1*
X3161748Y1303000D1*
X3164849Y1300000D1*
X3168710Y1297000D1*
X3173000Y1294000D1*
X3188000Y1360000D2*
X3193410Y1357000D1*
X3198153Y1354000D1*
X3202044Y1351000D1*
X3205068Y1348000D1*
X3207261Y1345000D1*
X3209000Y1342000D1*
X3260000Y1348000D2*
X3252846Y1345000D1*
X3247272Y1342000D1*
X3243082Y1339000D1*
X3240001Y1336000D1*
X3237641Y1333000D1*
X3236793Y1330000D1*
X3236312Y1327000D1*
X3236000Y1324000D1*
X3284000Y1348000D2*
X3289758Y1345000D1*
X3294364Y1342000D1*
X3297736Y1339000D1*
X3300282Y1336000D1*
X3301169Y1333000D1*
X3301647Y1330000D1*
X3301862Y1327000D1*
X3301949Y1324000D1*
X3301982Y1321000D1*
X3301994Y1318000D1*
X3301998Y1315000D1*
X3301999Y1312000D1*
X3302000Y1309000D1*
Y1306000D1*
Y1303000D1*
Y1300000D1*
X3302012Y1297000D1*
X3302117Y1294000D1*
X3302500Y1291000D1*
X3303218Y1288000D1*
X3303987Y1285000D1*
X3304513Y1282000D1*
X3304807Y1279000D1*
X3305000Y1276000D1*
X3416000Y1348000D2*
X3409205Y1345000D1*
X3403589Y1342000D1*
X3399160Y1339000D1*
X3395585Y1336000D1*
X3392690Y1333000D1*
X3390412Y1330000D1*
X3388638Y1327000D1*
X3387364Y1324000D1*
X3386625Y1321000D1*
X3386261Y1318000D1*
X3386101Y1315000D1*
X3386037Y1312000D1*
X3386013Y1309000D1*
X3386016Y1306000D1*
X3386127Y1303000D1*
X3386590Y1300000D1*
X3387615Y1297000D1*
X3389000Y1294000D1*
X3437000Y1348000D2*
X3442770Y1345000D1*
X3447481Y1342000D1*
X3451248Y1339000D1*
X3454240Y1336000D1*
X3456561Y1333000D1*
X3458364Y1330000D1*
X3459749Y1327000D1*
X3460874Y1324000D1*
X3461957Y1321000D1*
X3462886Y1318000D1*
X3463473Y1315000D1*
X3463776Y1312000D1*
X3463917Y1309000D1*
X3464000Y1306000D1*
X3500000Y1348000D2*
X3493205Y1345000D1*
X3487589Y1342000D1*
X3483160Y1339000D1*
X3479596Y1336000D1*
X3476795Y1333000D1*
X3474794Y1330000D1*
X3473357Y1327000D1*
X3472134Y1324000D1*
X3471148Y1321000D1*
X3470539Y1318000D1*
X3470229Y1315000D1*
X3470090Y1312000D1*
X3470045Y1309000D1*
X3470129Y1306000D1*
X3470504Y1303000D1*
X3471231Y1300000D1*
X3472117Y1297000D1*
X3473139Y1294000D1*
X3474635Y1291000D1*
X3476761Y1288000D1*
X3479465Y1285000D1*
X3483001Y1282000D1*
X3488059Y1279000D1*
X3494999Y1276000D1*
X3503000Y1273000D1*
X3521000Y1348000D2*
X3526410Y1345000D1*
X3531153Y1342000D1*
X3535041Y1339000D1*
X3538005Y1336000D1*
X3540262Y1333000D1*
X3541203Y1330000D1*
X3538400Y1327000D1*
X3534492Y1324000D1*
X3530000Y1321000D1*
X3581000Y1348000D2*
X3575000Y1345000D1*
X3599000Y1348000D2*
X3604758Y1345000D1*
X3609376Y1342000D1*
X3612854Y1339000D1*
X3615405Y1336000D1*
X3617293Y1333000D1*
X3618611Y1330000D1*
X3619367Y1327000D1*
X3619736Y1324000D1*
X3619898Y1321000D1*
X3619962Y1318000D1*
X3619987Y1315000D1*
X3619995Y1312000D1*
X3619999Y1309000D1*
X3620000Y1306000D1*
Y1303000D1*
Y1300000D1*
Y1297000D1*
Y1294000D1*
Y1291000D1*
Y1288000D1*
Y1285000D1*
Y1282000D1*
Y1279000D1*
Y1276000D1*
X3275000Y1336000D2*
X3267301Y1333000D1*
X3261236Y1330000D1*
X3257116Y1327000D1*
X3254000Y1324000D1*
X3263000Y1336000D2*
X3270897Y1333000D1*
X3277792Y1330000D1*
X3284000Y1327000D1*
X3274815Y1324000D1*
X3264499Y1321000D1*
X3254679Y1318000D1*
X3246863Y1315000D1*
X3241164Y1312000D1*
X3236822Y1309000D1*
X3233000Y1306000D1*
X3422000Y1333000D2*
X3416552Y1330000D1*
X3411604Y1327000D1*
X3407000Y1324000D1*
X3428000Y1333000D2*
X3433448Y1330000D1*
X3438396Y1327000D1*
X3443000Y1324000D1*
X3509000Y1333000D2*
X3503601Y1330000D1*
X3498964Y1327000D1*
X3495459Y1324000D1*
X3492796Y1321000D1*
X3491868Y1318000D1*
X3491368Y1315000D1*
X3491144Y1312000D1*
X3491064Y1309000D1*
X3491147Y1306000D1*
X3491634Y1303000D1*
X3492837Y1300000D1*
X3494754Y1297000D1*
X3497000Y1294000D1*
X3509000Y1333000D2*
X3514411Y1330000D1*
X3519176Y1327000D1*
X3523250Y1324000D1*
X3527000Y1321000D1*
X3578000Y1330000D2*
X3575126Y1327000D1*
X3572628Y1324000D1*
X3570846Y1321000D1*
X3569834Y1318000D1*
X3569344Y1315000D1*
X3569133Y1312000D1*
X3569049Y1309000D1*
X3569017Y1306000D1*
X3569006Y1303000D1*
X3569002Y1300000D1*
X3569001Y1297000D1*
X3569000Y1294000D1*
Y1291000D1*
Y1288000D1*
Y1285000D1*
Y1282000D1*
Y1279000D1*
Y1276000D1*
X3593000Y1330000D2*
X3595422Y1327000D1*
X3597282Y1324000D1*
X3598669Y1321000D1*
X3599875Y1318000D1*
X3600855Y1315000D1*
X3601462Y1312000D1*
X3601772Y1309000D1*
X3601910Y1306000D1*
X3601967Y1303000D1*
X3601988Y1300000D1*
X3601996Y1297000D1*
X3601999Y1294000D1*
X3602000Y1291000D1*
X3601988Y1288000D1*
X3601874Y1285000D1*
X3601410Y1282000D1*
X3600385Y1279000D1*
X3599000Y1276000D1*
X3212000Y1309000D2*
X3210014Y1306000D1*
X3207793Y1303000D1*
X3204900Y1300000D1*
X3201184Y1297000D1*
X3197000Y1294000D1*
X3218000Y1309000D2*
X3227000Y1306000D1*
X3281000Y1309000D2*
X3270767Y1306000D1*
X3262471Y1303000D1*
X3256251Y1300000D1*
X3251000Y1297000D1*
X3254000Y1294000D1*
X3257000Y1291000D1*
X3284000Y1309000D2*
X3283988Y1306000D1*
X3283859Y1303000D1*
X3283543Y1300000D1*
X3282040Y1297000D1*
X3278747Y1294000D1*
X3275000Y1291000D1*
X3407000Y1306000D2*
X3407589Y1303000D1*
X3408824Y1300000D1*
X3410750Y1297000D1*
X3413000Y1294000D1*
X3527000Y1303000D2*
X3525053Y1300000D1*
X3523073Y1297000D1*
X3521000Y1294000D1*
X3530000Y1303000D2*
X3539000Y1300000D1*
X3449000D2*
X3444594Y1297000D1*
X3440000Y1294000D1*
X3455000Y1297000D2*
X3458669Y1294000D1*
X3461439Y1291000D1*
X3462245Y1288000D1*
X3459477Y1285000D1*
X3455388Y1282000D1*
X3449244Y1279000D1*
X3440781Y1276000D1*
X3431000Y1273000D1*
X3230000Y1297000D2*
X3227114Y1294000D1*
X3224487Y1291000D1*
X3222089Y1288000D1*
X3219347Y1285000D1*
X3215538Y1282000D1*
X3210369Y1279000D1*
X3203989Y1276000D1*
X3197000Y1273000D1*
X3233000Y1297000D2*
X3233114Y1294000D1*
X3233510Y1291000D1*
X3234358Y1288000D1*
X3235756Y1285000D1*
X3237624Y1282000D1*
X3241923Y1279000D1*
X3247578Y1276000D1*
X3254000Y1273000D1*
X3545000Y1294000D2*
X3542452Y1291000D1*
X3540090Y1288000D1*
X3537449Y1285000D1*
X3533913Y1282000D1*
X3529025Y1279000D1*
X3522512Y1276000D1*
X3515000Y1273000D1*
X3548000Y1294000D2*
Y1291000D1*
Y1288000D1*
Y1285000D1*
Y1282000D1*
Y1279000D1*
Y1276000D1*
X3386000Y1291000D2*
Y1288000D1*
Y1285000D1*
Y1282000D1*
Y1279000D1*
Y1276000D1*
X3389000Y1291000D2*
X3392012Y1288000D1*
X3395152Y1285000D1*
X3398880Y1282000D1*
X3404014Y1279000D1*
X3410984Y1276000D1*
X3419000Y1273000D1*
X3287000Y1279000D2*
X3275000Y1276000D1*
X3263000Y1273000D1*
X3284000Y1279000D2*
X3287000Y1276000D1*
X2551066Y1033722D2*
D94*
X2581210D1*
Y1043770D1*
X2579751Y1048081D1*
X2576899Y1050966D1*
X2574014Y1052392D1*
X2569736Y1053818D1*
X2562540D1*
X2558229Y1052392D1*
X2555377Y1050966D1*
X2552492Y1048081D1*
X2551066Y1043770D1*
Y1033722D1*
X2556836Y1063082D2*
X2555377Y1065967D1*
X2551099Y1070278D1*
X2581210D1*
X973272Y723934D2*
Y693790D1*
X983320D1*
X987631Y695249D1*
X990516Y698101D1*
X991942Y700986D1*
X993368Y705264D1*
Y712460D1*
X991942Y716771D1*
X990516Y719623D1*
X987631Y722508D1*
X983320Y723934D1*
X973272D1*
X1004091Y716738D2*
Y718164D1*
X1005517Y721049D1*
X1006943Y722475D1*
X1009828Y723901D1*
X1015565D1*
X1018417Y722475D1*
X1019843Y721049D1*
X1021302Y718164D1*
Y715312D1*
X1019843Y712427D1*
X1016991Y708149D1*
X1002632Y693790D1*
X1022728D1*
X964772Y548934D2*
Y518790D1*
X974820D1*
X979131Y520249D1*
X982016Y523101D1*
X983442Y525986D1*
X984868Y530264D1*
Y537460D1*
X983442Y541771D1*
X982016Y544623D1*
X979131Y547508D1*
X974820Y548934D1*
X964772D1*
X997017Y548901D2*
X1012769D1*
X1004180Y537427D1*
X1008491D1*
X1011343Y536001D1*
X1012769Y534575D1*
X1014228Y530264D1*
Y527412D1*
X1012769Y523101D1*
X1009917Y520216D1*
X1005606Y518790D1*
X1001295D1*
X997017Y520216D1*
X995591Y521675D1*
X994132Y524527D1*
X2886450Y1443934D2*
Y1420986D1*
X2885024Y1416675D1*
X2883565Y1415249D1*
X2880713Y1413790D1*
X2877828D1*
X2874976Y1415249D1*
X2873550Y1416675D1*
X2872091Y1420986D1*
Y1423838D1*
X2895713Y1438164D2*
X2898598Y1439623D1*
X2902909Y1443901D1*
Y1413790D1*
X206066Y742500D2*
X229014D1*
X233325Y741074D1*
X234751Y739615D1*
X236210Y736763D1*
Y733878D1*
X234751Y731026D1*
X233325Y729600D1*
X229014Y728141D1*
X226162D1*
X213262Y753222D2*
X211836D1*
X208951Y754648D1*
X207525Y756074D1*
X206099Y758959D1*
Y764696D1*
X207525Y767548D1*
X208951Y768974D1*
X211836Y770433D1*
X214688D1*
X217573Y768974D1*
X221851Y766122D1*
X236210Y751763D1*
Y771859D1*
X5442500Y1006434D2*
Y983486D1*
X5441074Y979175D1*
X5439615Y977749D1*
X5436763Y976290D1*
X5433878D1*
X5431026Y977749D1*
X5429600Y979175D1*
X5428141Y983486D1*
Y986338D1*
X5454648Y1006401D2*
X5470400D1*
X5461811Y994927D1*
X5466122D1*
X5468974Y993501D1*
X5470400Y992075D1*
X5471859Y987764D1*
Y984912D1*
X5470400Y980601D1*
X5467548Y977716D1*
X5463237Y976290D1*
X5458926D1*
X5454648Y977716D1*
X5453222Y979175D1*
X5451763Y982027D1*
X5441787Y518934D2*
Y495986D1*
X5440361Y491675D1*
X5438902Y490249D1*
X5436050Y488790D1*
X5433165D1*
X5430313Y490249D1*
X5428887Y491675D1*
X5427428Y495986D1*
Y498838D1*
X5465409Y488790D2*
Y518901D1*
X5451050Y498838D1*
X5472572D1*
X4254535Y1343934D2*
Y1313790D1*
X4271746D1*
X4299646Y1343934D2*
X4281009D1*
Y1313790D1*
X4299646D1*
X4281009Y1329575D2*
X4292483D1*
X4308910Y1343934D2*
Y1313790D1*
X4318958D1*
X4323269Y1315249D1*
X4326154Y1318101D1*
X4327580Y1320986D1*
X4329006Y1325264D1*
Y1332460D1*
X4327580Y1336771D1*
X4326154Y1339623D1*
X4323269Y1342508D1*
X4318958Y1343934D1*
X4308910D1*
X4338269Y1338164D2*
X4341154Y1339623D1*
X4345465Y1343901D1*
Y1313790D1*
X3685585Y318934D2*
Y288790D1*
X3702796D1*
X3730696Y318934D2*
X3712059D1*
Y288790D1*
X3730696D1*
X3712059Y304575D2*
X3723533D1*
X3739960Y318934D2*
Y288790D1*
X3750008D1*
X3754319Y290249D1*
X3757204Y293101D1*
X3758630Y295986D1*
X3760056Y300264D1*
Y307460D1*
X3758630Y311771D1*
X3757204Y314623D1*
X3754319Y317508D1*
X3750008Y318934D1*
X3739960D1*
X3770778Y311738D2*
Y313164D1*
X3772204Y316049D1*
X3773630Y317475D1*
X3776515Y318901D1*
X3782252D1*
X3785104Y317475D1*
X3786530Y316049D1*
X3787989Y313164D1*
Y310312D1*
X3786530Y307427D1*
X3783678Y303149D1*
X3769319Y288790D1*
X3789415D1*
X3685585Y506434D2*
Y476290D1*
X3702796D1*
X3730696Y506434D2*
X3712059D1*
Y476290D1*
X3730696D1*
X3712059Y492075D2*
X3723533D1*
X3739960Y506434D2*
Y476290D1*
X3750008D1*
X3754319Y477749D1*
X3757204Y480601D1*
X3758630Y483486D1*
X3760056Y487764D1*
Y494960D1*
X3758630Y499271D1*
X3757204Y502123D1*
X3754319Y505008D1*
X3750008Y506434D1*
X3739960D1*
X3772204Y506401D2*
X3787956D1*
X3779367Y494927D1*
X3783678D1*
X3786530Y493501D1*
X3787956Y492075D1*
X3789415Y487764D1*
Y484912D1*
X3787956Y480601D1*
X3785104Y477716D1*
X3780793Y476290D1*
X3776482D1*
X3772204Y477716D1*
X3770778Y479175D1*
X3769319Y482027D1*
X3684872Y693934D2*
Y663790D1*
X3702083D1*
X3729983Y693934D2*
X3711346D1*
Y663790D1*
X3729983D1*
X3711346Y679575D2*
X3722820D1*
X3739247Y693934D2*
Y663790D1*
X3749295D1*
X3753606Y665249D1*
X3756491Y668101D1*
X3757917Y670986D1*
X3759343Y675264D1*
Y682460D1*
X3757917Y686771D1*
X3756491Y689623D1*
X3753606Y692508D1*
X3749295Y693934D1*
X3739247D1*
X3782965Y663790D2*
Y693901D1*
X3768606Y673838D1*
X3790128D1*
X974222Y924575D2*
X987122D1*
X991433Y926034D1*
X992892Y927460D1*
X994318Y930312D1*
Y933197D1*
X992892Y936049D1*
X991433Y937508D1*
X987122Y938934D1*
X974222D1*
Y908790D1*
X984270Y924575D2*
X994318Y908790D1*
X1003582Y933164D2*
X1006467Y934623D1*
X1010778Y938901D1*
Y908790D1*
X970272Y1099575D2*
X983172D1*
X987483Y1101034D1*
X988942Y1102460D1*
X990368Y1105312D1*
Y1108197D1*
X988942Y1111049D1*
X987483Y1112508D1*
X983172Y1113934D1*
X970272D1*
Y1083790D1*
X980320Y1099575D2*
X990368Y1083790D1*
X1002517Y1113901D2*
X1018269D1*
X1009680Y1102427D1*
X1013991D1*
X1016843Y1101001D1*
X1018269Y1099575D1*
X1019728Y1095264D1*
Y1092412D1*
X1018269Y1088101D1*
X1015417Y1085216D1*
X1011106Y1083790D1*
X1006795D1*
X1002517Y1085216D1*
X1001091Y1086675D1*
X999632Y1089527D1*
X1875272Y1429575D2*
X1888172D1*
X1892483Y1431034D1*
X1893942Y1432460D1*
X1895368Y1435312D1*
Y1438197D1*
X1893942Y1441049D1*
X1892483Y1442508D1*
X1888172Y1443934D1*
X1875272D1*
Y1413790D1*
X1885320Y1429575D2*
X1895368Y1413790D1*
X1910369D2*
X1924728Y1443901D1*
X1904632D1*
X1375985Y1429575D2*
X1388885D1*
X1393196Y1431034D1*
X1394655Y1432460D1*
X1396081Y1435312D1*
Y1438197D1*
X1394655Y1441049D1*
X1393196Y1442508D1*
X1388885Y1443934D1*
X1375985D1*
Y1413790D1*
X1386033Y1429575D2*
X1396081Y1413790D1*
X1424015Y1433886D2*
X1422556Y1429575D1*
X1419704Y1426690D1*
X1415393Y1425264D1*
X1413967D1*
X1409656Y1426690D1*
X1406804Y1429575D1*
X1405345Y1433886D1*
Y1435312D1*
X1406804Y1439623D1*
X1409656Y1442475D1*
X1413967Y1443901D1*
X1415393D1*
X1419704Y1442475D1*
X1422556Y1439623D1*
X1424015Y1433886D1*
Y1426690D1*
X1422556Y1419527D1*
X1419704Y1415216D1*
X1415393Y1413790D1*
X1412541D1*
X1408230Y1415216D1*
X1406804Y1418101D1*
X3342042Y1169575D2*
X3354942D1*
X3359253Y1171034D1*
X3360712Y1172460D1*
X3362138Y1175312D1*
Y1178197D1*
X3360712Y1181049D1*
X3359253Y1182508D1*
X3354942Y1183934D1*
X3342042D1*
Y1153790D1*
X3352090Y1169575D2*
X3362138Y1153790D1*
X3371402Y1168149D2*
X3384335D1*
X3388613Y1169575D1*
X3390072Y1171034D1*
X3391498Y1173886D1*
Y1178197D1*
X3390072Y1181049D1*
X3388613Y1182508D1*
X3384335Y1183934D1*
X3371402D1*
Y1153790D1*
X3400762Y1178164D2*
X3403647Y1179623D1*
X3407958Y1183901D1*
Y1153790D1*
X4907779Y554623D2*
X4904927Y557508D1*
X4900616Y558934D1*
X4894879D1*
X4890568Y557508D1*
X4887683Y554623D1*
Y551771D1*
X4889142Y548886D1*
X4890568Y547460D1*
X4893420Y546034D1*
X4902042Y543149D1*
X4904927Y541723D1*
X4906353Y540264D1*
X4907779Y537412D1*
Y533101D1*
X4904927Y530249D1*
X4900616Y528790D1*
X4894879D1*
X4890568Y530249D1*
X4887683Y533101D1*
X4917042Y543149D2*
X4929975D1*
X4934253Y544575D1*
X4935712Y546034D1*
X4937138Y548886D1*
Y553197D1*
X4935712Y556049D1*
X4934253Y557508D1*
X4929975Y558934D1*
X4917042D1*
Y528790D1*
X4946402Y558934D2*
Y528790D1*
X4966498Y558934D2*
X4946402Y538838D1*
X4953565Y546034D2*
X4966498Y528790D1*
X4975762Y544575D2*
X4988661D1*
X4992972Y546034D1*
X4994432Y547460D1*
X4995858Y550312D1*
Y553197D1*
X4994432Y556049D1*
X4992972Y557508D1*
X4988661Y558934D1*
X4975762D1*
Y528790D1*
X4985810Y544575D2*
X4995858Y528790D1*
X5005121Y553164D2*
X5008006Y554623D1*
X5012317Y558901D1*
Y528790D1*
X605377Y732827D2*
X602492Y729976D1*
X601066Y725665D1*
Y719928D1*
X602492Y715617D1*
X605377Y712732D1*
X608229D1*
X611114Y714191D1*
X612540Y715617D1*
X613966Y718468D1*
X616851Y727091D1*
X618277Y729976D1*
X619736Y731402D1*
X622588Y732827D1*
X626899D1*
X629751Y729976D1*
X631210Y725665D1*
Y719928D1*
X629751Y715617D1*
X626899Y712732D1*
X601066Y742091D2*
X631210Y749287D1*
X601066Y756450D1*
X631210Y763613D1*
X601066Y770809D1*
X606836Y780073D2*
X605377Y782958D1*
X601099Y787269D1*
X631210D1*
X2393877Y1439623D2*
X2391026Y1442508D1*
X2386714Y1443934D1*
X2380978D1*
X2376666Y1442508D1*
X2373781Y1439623D1*
Y1436771D1*
X2375241Y1433886D1*
X2376666Y1432460D1*
X2379518Y1431034D1*
X2388140Y1428149D1*
X2391026Y1426723D1*
X2392451Y1425264D1*
X2393877Y1422412D1*
Y1418101D1*
X2391026Y1415249D1*
X2386714Y1413790D1*
X2380978D1*
X2376666Y1415249D1*
X2373781Y1418101D1*
X2403141Y1443934D2*
X2410337Y1413790D1*
X2417500Y1443934D1*
X2424663Y1413790D1*
X2431859Y1443934D1*
X2442582Y1436738D2*
Y1438164D1*
X2444008Y1441049D1*
X2445434Y1442475D1*
X2448319Y1443901D1*
X2454056D1*
X2456908Y1442475D1*
X2458334Y1441049D1*
X2459793Y1438164D1*
Y1435312D1*
X2458334Y1432427D1*
X2455482Y1428149D1*
X2441123Y1413790D1*
X2461219D1*
X2393877Y1039623D2*
X2391026Y1042508D1*
X2386714Y1043934D1*
X2380978D1*
X2376666Y1042508D1*
X2373781Y1039623D1*
Y1036771D1*
X2375241Y1033886D1*
X2376666Y1032460D1*
X2379518Y1031034D1*
X2388140Y1028149D1*
X2391026Y1026723D1*
X2392451Y1025264D1*
X2393877Y1022412D1*
Y1018101D1*
X2391026Y1015249D1*
X2386714Y1013790D1*
X2380978D1*
X2376666Y1015249D1*
X2373781Y1018101D1*
X2403141Y1043934D2*
X2410337Y1013790D1*
X2417500Y1043934D1*
X2424663Y1013790D1*
X2431859Y1043934D1*
X2444008Y1043901D2*
X2459759D1*
X2451171Y1032427D1*
X2455482D1*
X2458334Y1031001D1*
X2459759Y1029575D1*
X2461219Y1025264D1*
Y1022412D1*
X2459759Y1018101D1*
X2456908Y1015216D1*
X2452597Y1013790D1*
X2448286D1*
X2444008Y1015216D1*
X2442582Y1016675D1*
X2441123Y1019527D1*
X2926045Y971810D2*
Y950288D1*
X2927471Y945977D1*
X2930356Y943125D1*
X2934667Y941666D1*
X2937519D1*
X2941830Y943125D1*
X2944715Y945977D1*
X2946141Y950288D1*
Y971810D1*
X2955405Y966040D2*
X2958290Y967499D1*
X2962601Y971777D1*
Y941666D1*
X1426245Y700256D2*
Y678734D1*
X1427671Y674423D1*
X1430556Y671571D1*
X1434867Y670112D1*
X1437719D1*
X1442030Y671571D1*
X1444915Y674423D1*
X1446341Y678734D1*
Y700256D1*
X1457063Y693060D2*
Y694486D1*
X1458489Y697371D1*
X1459915Y698797D1*
X1462800Y700223D1*
X1468537D1*
X1471389Y698797D1*
X1472815Y697371D1*
X1474274Y694486D1*
Y691634D1*
X1472815Y688749D1*
X1469963Y684471D1*
X1455604Y670112D1*
X1475700D1*
X4325272Y693934D2*
Y672412D1*
X4326698Y668101D1*
X4329583Y665249D1*
X4333894Y663790D1*
X4336746D1*
X4341057Y665249D1*
X4343942Y668101D1*
X4345368Y672412D1*
Y693934D1*
X4357517Y693901D2*
X4373269D1*
X4364680Y682427D1*
X4368991D1*
X4371843Y681001D1*
X4373269Y679575D1*
X4374728Y675264D1*
Y672412D1*
X4373269Y668101D1*
X4370417Y665216D1*
X4366106Y663790D1*
X4361795D1*
X4357517Y665216D1*
X4356091Y666675D1*
X4354632Y669527D1*
X2118566Y689559D2*
X2140088D1*
X2144399Y690985D1*
X2147251Y693870D1*
X2148710Y698181D1*
Y701033D1*
X2147251Y705344D1*
X2144399Y708229D1*
X2140088Y709655D1*
X2118566D1*
X2148710Y733278D2*
X2118599D1*
X2138662Y718919D1*
Y740441D1*
X2074879Y420312D2*
Y398790D1*
X2076304Y394479D1*
X2079190Y391627D1*
X2083501Y390168D1*
X2086352D1*
X2090664Y391627D1*
X2093549Y394479D1*
X2094975Y398790D1*
Y420312D1*
X2121449Y420279D2*
X2107123D1*
X2105697Y407379D1*
X2107123Y408805D1*
X2111434Y410264D1*
X2115712D1*
X2120023Y408805D1*
X2122908Y405953D1*
X2124334Y401642D1*
Y398790D1*
X2122908Y394479D1*
X2120023Y391594D1*
X2115712Y390168D1*
X2111434D1*
X2107123Y391594D1*
X2105697Y393053D1*
X2104238Y395905D1*
X1346913Y962369D2*
D95*
Y902081D1*
X1381334D1*
X1414187Y942273D2*
X1408484Y939421D1*
X1402713Y933651D1*
X1399862Y925029D1*
Y919325D1*
X1402713Y910703D1*
X1408484Y904999D1*
X1414187Y902081D1*
X1422809D1*
X1428580Y904999D1*
X1434283Y910703D1*
X1437202Y919325D1*
Y925029D1*
X1434283Y933651D1*
X1428580Y939421D1*
X1422809Y942273D1*
X1414187D1*
X1455729D2*
X1467203Y902081D1*
X1478677Y942273D1*
X1490151Y902081D1*
X1501625Y942273D1*
X1846913Y962369D2*
Y902081D1*
X1887105Y962369D2*
Y902081D1*
X1846913Y933651D2*
X1887105D1*
X1905632Y962369D2*
X1908484Y959517D1*
X1911402Y962369D1*
X1908484Y965287D1*
X1905632Y962369D1*
X1908484Y942273D2*
Y902081D1*
X1964351Y939421D2*
Y893459D1*
X1961499Y884903D1*
X1958647Y881985D1*
X1952877Y879133D1*
X1944255D1*
X1938551Y881985D1*
X1964351Y930799D2*
X1958647Y936503D1*
X1952877Y939421D1*
X1944255D1*
X1938551Y936503D1*
X1932781Y930799D1*
X1929929Y922177D1*
Y916407D1*
X1932781Y907851D1*
X1938551Y902081D1*
X1944255Y899229D1*
X1952877D1*
X1958647Y902081D1*
X1964351Y907851D1*
X1982878Y962369D2*
Y902081D1*
Y930799D2*
X1991500Y939421D1*
X1997270Y942273D1*
X2005892D1*
X2011596Y939421D1*
X2014448Y930799D1*
Y902081D1*
X2742875Y1102081D2*
X2719861Y1162369D1*
X2696913Y1102081D1*
X2705535Y1122177D2*
X2734253D1*
X2761402Y1162369D2*
X2784350Y1102081D1*
X2807298Y1162369D1*
X2825825Y1133651D2*
X2851625D1*
X2860247Y1136569D1*
X2863165Y1139421D1*
X2866017Y1145125D1*
Y1150895D1*
X2863165Y1156599D1*
X2860247Y1159517D1*
X2851625Y1162369D1*
X2825825D1*
Y1102081D1*
X2845921Y1133651D2*
X2866017Y1102081D1*
X2884544Y1162369D2*
Y1102081D1*
X2943263Y1153747D2*
X2937559Y1159517D1*
X2928937Y1162369D1*
X2917463D1*
X2908841Y1159517D1*
X2903071Y1153747D1*
Y1148043D1*
X2905989Y1142273D1*
X2908841Y1139421D1*
X2914545Y1136569D1*
X2931789Y1130799D1*
X2937559Y1127947D1*
X2940411Y1125029D1*
X2943263Y1119325D1*
Y1110703D1*
X2937559Y1104999D1*
X2928937Y1102081D1*
X2917463D1*
X2908841Y1104999D1*
X2903071Y1110703D1*
X2961790Y1130799D2*
X2987656D1*
X2996212Y1133651D1*
X2999130Y1136569D1*
X3001982Y1142273D1*
Y1150895D1*
X2999130Y1156599D1*
X2996212Y1159517D1*
X2987656Y1162369D1*
X2961790D1*
Y1102081D1*
X3054931Y1153747D2*
X3052079Y1159450D1*
X3043457Y1162302D1*
X3037753D1*
X3029131Y1159450D1*
X3023361Y1150828D1*
X3020509Y1136503D1*
Y1122177D1*
X3023361Y1110703D1*
X3029131Y1104933D1*
X3037753Y1102081D1*
X3040605D1*
X3049161Y1104933D1*
X3054931Y1110703D1*
X3057783Y1119325D1*
Y1122177D1*
X3054931Y1130799D1*
X3049161Y1136503D1*
X3040605Y1139354D1*
X3037753D1*
X3029131Y1136503D1*
X3023361Y1130799D1*
X3020509Y1122177D1*
X1204509Y837369D2*
Y777081D1*
X1184413Y837369D2*
X1224605D1*
X1243132D2*
Y777081D1*
X1283324Y837369D2*
Y777081D1*
X1243132Y808651D2*
X1283324D1*
X1301851D2*
X1327651D1*
X1336273Y811569D1*
X1339191Y814421D1*
X1342043Y820125D1*
Y825895D1*
X1339191Y831599D1*
X1336273Y834517D1*
X1327651Y837369D1*
X1301851D1*
Y777081D1*
X1321947Y808651D2*
X1342043Y777081D1*
X1397844Y837369D2*
X1360570D1*
Y777081D1*
X1397844D1*
X1360570Y808651D2*
X1383518D1*
X1456563Y828747D2*
X1450859Y834517D1*
X1442237Y837369D1*
X1430763D1*
X1422141Y834517D1*
X1416371Y828747D1*
Y823043D1*
X1419289Y817273D1*
X1422141Y814421D1*
X1427845Y811569D1*
X1445089Y805799D1*
X1450859Y802947D1*
X1453711Y800029D1*
X1456563Y794325D1*
Y785703D1*
X1450859Y779999D1*
X1442237Y777081D1*
X1430763D1*
X1422141Y779999D1*
X1416371Y785703D1*
X1475090Y837369D2*
Y777081D1*
X1515282Y837369D2*
Y777081D1*
X1475090Y808651D2*
X1515282D1*
X1551053Y837369D2*
X1545283Y834517D1*
X1539579Y828747D1*
X1536661Y823043D1*
X1533809Y814421D1*
Y800029D1*
X1536661Y791473D1*
X1539579Y785703D1*
X1545283Y779999D1*
X1551053Y777081D1*
X1562527D1*
X1568231Y779999D1*
X1574001Y785703D1*
X1576853Y791473D1*
X1579705Y800029D1*
Y814421D1*
X1576853Y823043D1*
X1574001Y828747D1*
X1568231Y834517D1*
X1562527Y837369D1*
X1551053D1*
X1598232D2*
Y777081D1*
X1632654D1*
X1651181Y837369D2*
Y777081D1*
X1671277D1*
X1679899Y779999D1*
X1685669Y785703D1*
X1688521Y791473D1*
X1691373Y800029D1*
Y814421D1*
X1688521Y823043D1*
X1685669Y828747D1*
X1679899Y834517D1*
X1671277Y837369D1*
X1651181D1*
X2421686Y249869D2*
X2384413D1*
Y189581D1*
X2421686D1*
X2384413Y221151D2*
X2407361D1*
X2477487Y249869D2*
X2440213D1*
Y189581D1*
X2477487D1*
X2440213Y221151D2*
X2463161D1*
X2554336Y238328D2*
X2560106Y241247D1*
X2568728Y249802D1*
Y189581D1*
X2593025Y249802D2*
X2624529D1*
X2607351Y226854D1*
X2615973D1*
X2621677Y224003D1*
X2624529Y221151D1*
X2627447Y212529D1*
Y206825D1*
X2624529Y198203D1*
X2618825Y192433D1*
X2610203Y189581D1*
X2601581D1*
X2593025Y192433D1*
X2590173Y195351D1*
X2587255Y201055D1*
X2750191Y189581D2*
Y249869D1*
X2727243Y189581D1*
X2704295Y249869D1*
Y189581D1*
X2768718Y229773D2*
Y201055D1*
X2771570Y192499D1*
X2777340Y189581D1*
X2785962D1*
X2791666Y192499D1*
X2800288Y201055D1*
Y229773D2*
Y189581D1*
X2818815Y249869D2*
Y189581D1*
X2845964Y249869D2*
Y201055D1*
X2848816Y192499D1*
X2854586Y189581D1*
X2860290D1*
X2837342Y229773D2*
X2857438D1*
X2878817Y249869D2*
X2881669Y247017D1*
X2884587Y249869D1*
X2881669Y252787D1*
X2878817Y249869D1*
X2881669Y229773D2*
Y189581D1*
X2903114Y229773D2*
Y169485D1*
Y221151D2*
X2908885Y226854D1*
X2914588Y229773D1*
X2923210D1*
X2928981Y226854D1*
X2934684Y221151D1*
X2937603Y212529D1*
Y206758D1*
X2934684Y198203D1*
X2928981Y192433D1*
X2923210Y189581D1*
X2914588D1*
X2908885Y192433D1*
X2903114Y198203D1*
X2956130Y229773D2*
Y201055D1*
X2958982Y192499D1*
X2964752Y189581D1*
X2973374D1*
X2979078Y192499D1*
X2987700Y201055D1*
Y229773D2*
Y189581D1*
X3006227Y229773D2*
Y189581D1*
Y212529D2*
X3009145Y221151D1*
X3014849Y226921D1*
X3020619Y229773D1*
X3029241D1*
X3047768D2*
Y169485D1*
Y221151D2*
X3053538Y226854D1*
X3059242Y229773D1*
X3067864D1*
X3073634Y226854D1*
X3079338Y221151D1*
X3082256Y212529D1*
Y206758D1*
X3079338Y198203D1*
X3073634Y192433D1*
X3067864Y189581D1*
X3059242D1*
X3053538Y192433D1*
X3047768Y198203D1*
X3115109Y229773D2*
X3109405Y226921D1*
X3103635Y221151D1*
X3100783Y212529D1*
Y206825D1*
X3103635Y198203D1*
X3109405Y192499D1*
X3115109Y189581D1*
X3123731D1*
X3129501Y192499D1*
X3135205Y198203D1*
X3138123Y206825D1*
Y212529D1*
X3135205Y221151D1*
X3129501Y226921D1*
X3123731Y229773D1*
X3115109D1*
X3188220Y221151D2*
X3185369Y226921D1*
X3176747Y229773D1*
X3168124D1*
X3159502Y226921D1*
X3156651Y221151D1*
X3159502Y215447D1*
X3165273Y212529D1*
X3179598Y209677D1*
X3185369Y206825D1*
X3188220Y201055D1*
Y198203D1*
X3185369Y192499D1*
X3176747Y189581D1*
X3168124D1*
X3159502Y192499D1*
X3156651Y198203D1*
X3206748Y212529D2*
X3241169D1*
Y218299D1*
X3238318Y224069D1*
X3235466Y226921D1*
X3229695Y229773D1*
X3221073D1*
X3215370Y226921D1*
X3209599Y221151D1*
X3206748Y212529D1*
Y206825D1*
X3209599Y198203D1*
X3215370Y192499D1*
X3221073Y189581D1*
X3229695D1*
X3235466Y192499D1*
X3241169Y198203D1*
X3318018Y218299D2*
X3343884D1*
X3352440Y221151D1*
X3355358Y224069D1*
X3358210Y229773D1*
Y238395D1*
X3355358Y244099D1*
X3352440Y247017D1*
X3343884Y249869D1*
X3318018D1*
Y189581D1*
X3376737Y229773D2*
Y189581D1*
Y212529D2*
X3379655Y221151D1*
X3385359Y226921D1*
X3391129Y229773D1*
X3399751D1*
X3432604D2*
X3426900Y226921D1*
X3421130Y221151D1*
X3418278Y212529D1*
Y206825D1*
X3421130Y198203D1*
X3426900Y192499D1*
X3432604Y189581D1*
X3441226D1*
X3446996Y192499D1*
X3452700Y198203D1*
X3455618Y206825D1*
Y212529D1*
X3452700Y221151D1*
X3446996Y226921D1*
X3441226Y229773D1*
X3432604D1*
X3474145Y249869D2*
Y189581D1*
Y221151D2*
X3479915Y226921D1*
X3485619Y229773D1*
X3494241D1*
X3499945Y226921D1*
X3505715Y221151D1*
X3508567Y212529D1*
Y206825D1*
X3505715Y198203D1*
X3499945Y192499D1*
X3494241Y189581D1*
X3485619D1*
X3479915Y192499D1*
X3474145Y198203D1*
X3527094Y212529D2*
X3561516D1*
Y218299D1*
X3558664Y224069D1*
X3555812Y226921D1*
X3550042Y229773D1*
X3541420D1*
X3535716Y226921D1*
X3529946Y221151D1*
X3527094Y212529D1*
Y206825D1*
X3529946Y198203D1*
X3535716Y192499D1*
X3541420Y189581D1*
X3550042D1*
X3555812Y192499D1*
X3561516Y198203D1*
X2384413Y133651D2*
X2410212D1*
X2418834Y136569D1*
X2421753Y139421D1*
X2424605Y145125D1*
Y150895D1*
X2421753Y156599D1*
X2418834Y159517D1*
X2410212Y162369D1*
X2384413D1*
Y102081D1*
X2404509Y133651D2*
X2424605Y102081D1*
X2477554Y142273D2*
Y102081D1*
Y133651D2*
X2471850Y139421D1*
X2466080Y142273D1*
X2457524D1*
X2451754Y139421D1*
X2446050Y133651D1*
X2443132Y125029D1*
Y119325D1*
X2446050Y110703D1*
X2451754Y104999D1*
X2457524Y102081D1*
X2466080D1*
X2471850Y104999D1*
X2477554Y110703D1*
X2498999Y142273D2*
X2516177Y102081D1*
X2510473Y90607D1*
X2504703Y84837D1*
X2498999Y81985D1*
X2496081D1*
X2533421Y142273D2*
X2516177Y102081D1*
X2650461Y153747D2*
X2644757Y159517D1*
X2636135Y162369D1*
X2624661D1*
X2616039Y159517D1*
X2610269Y153747D1*
Y148043D1*
X2613187Y142273D1*
X2616039Y139421D1*
X2621743Y136569D1*
X2638987Y130799D1*
X2644757Y127947D1*
X2647609Y125029D1*
X2650461Y119325D1*
Y110703D1*
X2644757Y104999D1*
X2636135Y102081D1*
X2624661D1*
X2616039Y104999D1*
X2610269Y110703D1*
X2668988Y142273D2*
Y113555D1*
X2671840Y104999D1*
X2677610Y102081D1*
X2686232D1*
X2691936Y104999D1*
X2700558Y113555D1*
Y142273D2*
Y102081D1*
X2719085Y142273D2*
Y102081D1*
Y130799D2*
X2727707Y139421D1*
X2733477Y142273D1*
X2742033D1*
X2747803Y139421D1*
X2750655Y130799D1*
Y102081D1*
X2284413Y1133651D2*
X2310212D1*
X2318834Y1136569D1*
X2321753Y1139421D1*
X2324605Y1145125D1*
Y1150895D1*
X2321753Y1156599D1*
X2318834Y1159517D1*
X2310212Y1162369D1*
X2284413D1*
Y1102081D1*
X2304509Y1133651D2*
X2324605Y1102081D1*
X2380405Y1162369D2*
X2343132D1*
Y1102081D1*
X2380405D1*
X2343132Y1133651D2*
X2366080D1*
X2439125Y1153747D2*
X2433421Y1159517D1*
X2424799Y1162369D1*
X2413325D1*
X2404703Y1159517D1*
X2398933Y1153747D1*
Y1148043D1*
X2401851Y1142273D1*
X2404703Y1139421D1*
X2410407Y1136569D1*
X2427651Y1130799D1*
X2433421Y1127947D1*
X2436273Y1125029D1*
X2439125Y1119325D1*
Y1110703D1*
X2433421Y1104999D1*
X2424799Y1102081D1*
X2413325D1*
X2404703Y1104999D1*
X2398933Y1110703D1*
X2494925Y1162369D2*
X2457652D1*
Y1102081D1*
X2494925D1*
X2457652Y1133651D2*
X2480600D1*
X2533549Y1162369D2*
Y1102081D1*
X2513453Y1162369D2*
X2553645D1*
X2334413Y730799D2*
X2360279D1*
X2368834Y733651D1*
X2371753Y736569D1*
X2374605Y742273D1*
Y750895D1*
X2371753Y756599D1*
X2368834Y759517D1*
X2360279Y762369D1*
X2334413D1*
Y702081D1*
X2393132Y762369D2*
Y702081D1*
X2418998D1*
X2427620Y704999D1*
X2430472Y707851D1*
X2433324Y713555D1*
Y722177D1*
X2430472Y727947D1*
X2427620Y730799D1*
X2418998Y733651D1*
X2427620Y736569D1*
X2430472Y739421D1*
X2433324Y745125D1*
Y750895D1*
X2430472Y756599D1*
X2427620Y759517D1*
X2418998Y762369D1*
X2393132D1*
Y733651D2*
X2418998D1*
X2451851Y762369D2*
Y702081D1*
X2510570Y762369D2*
Y702081D1*
X2470378Y762369D1*
Y702081D1*
X5054209Y1315301D2*
D96*
X5094401Y1330599D1*
X5054209Y1345898D1*
X5063759Y1386945D2*
X5059957Y1385044D1*
X5056110Y1381197D1*
X5054209Y1377394D1*
Y1369745D1*
X5056110Y1365898D1*
X5059957Y1362096D1*
X5063759Y1360150D1*
X5069507Y1358249D1*
X5079102D1*
X5084806Y1360150D1*
X5088653Y1362096D1*
X5092455Y1365898D1*
X5094401Y1369745D1*
Y1377394D1*
X5092455Y1381197D1*
X5088653Y1385044D1*
X5084806Y1386945D1*
X5063759Y1427992D2*
X5059957Y1426091D1*
X5056110Y1422244D1*
X5054209Y1418442D1*
Y1410792D1*
X5056110Y1406946D1*
X5059957Y1403143D1*
X5063759Y1401198D1*
X5069507Y1399296D1*
X5079102D1*
X5084806Y1401198D1*
X5088653Y1403143D1*
X5092455Y1406946D1*
X5094401Y1410792D1*
Y1418442D1*
X5092455Y1422244D1*
X5088653Y1426091D1*
X5084806Y1427992D1*
X5063759Y1193996D2*
X5059957Y1192095D1*
X5056110Y1188248D1*
X5054209Y1184446D1*
Y1176797D1*
X5056110Y1172950D1*
X5059957Y1169147D1*
X5063759Y1167202D1*
X5069507Y1165301D1*
X5079102D1*
X5084806Y1167202D1*
X5088653Y1169147D1*
X5092455Y1172950D1*
X5094401Y1176797D1*
Y1184446D1*
X5092455Y1188248D1*
X5088653Y1192095D1*
X5084806Y1193996D1*
X5079102D1*
Y1184446D1*
X5054209Y1233143D2*
X5094401Y1233142D1*
X5054209Y1206348D1*
X5094401D1*
X5054209Y1245494D2*
X5094401D1*
Y1258891D1*
X5092455Y1264639D1*
X5088653Y1268486D1*
X5084806Y1270387D1*
X5079102Y1272289D1*
X5069507D1*
X5063759Y1270387D1*
X5059957Y1268486D1*
X5056110Y1264639D1*
X5054209Y1258891D1*
Y1245494D1*
X5078163Y1106119D2*
D95*
X5101111Y1045831D1*
X5124059Y1106119D1*
X5185630Y1091794D2*
X5182778Y1097497D1*
X5177008Y1103267D1*
X5171304Y1106119D1*
X5159830D1*
X5154060Y1103267D1*
X5148356Y1097497D1*
X5145438Y1091794D1*
X5142586Y1083171D1*
Y1068779D1*
X5145438Y1060224D1*
X5148356Y1054453D1*
X5154060Y1048750D1*
X5159830Y1045831D1*
X5171304D1*
X5177008Y1048750D1*
X5182778Y1054453D1*
X5185630Y1060224D1*
X5247201Y1091794D2*
X5244349Y1097497D1*
X5238579Y1103267D1*
X5232875Y1106119D1*
X5221401D1*
X5215631Y1103267D1*
X5209927Y1097497D1*
X5207009Y1091794D1*
X5204157Y1083171D1*
Y1068779D1*
X5207009Y1060224D1*
X5209927Y1054453D1*
X5215631Y1048750D1*
X5221401Y1045831D1*
X5232875D1*
X5238579Y1048750D1*
X5244349Y1054453D1*
X5247201Y1060224D1*
X5139957Y441794D2*
X5137105Y447497D1*
X5131334Y453267D1*
X5125631Y456119D1*
X5114157D1*
X5108387Y453267D1*
X5102683Y447497D1*
X5099765Y441794D1*
X5096913Y433171D1*
Y418779D1*
X5099765Y410224D1*
X5102683Y404453D1*
X5108387Y398750D1*
X5114157Y395831D1*
X5125631D1*
X5131334Y398750D1*
X5137105Y404453D1*
X5139957Y410224D1*
Y418779D1*
X5125631D1*
X5198676Y456119D2*
Y395831D1*
X5158484Y456119D1*
Y395831D1*
X5217203Y456119D2*
Y395831D1*
X5237299D1*
X5245921Y398750D1*
X5251691Y404453D1*
X5254543Y410224D1*
X5257395Y418779D1*
Y433171D1*
X5254543Y441794D1*
X5251691Y447497D1*
X5245921Y453267D1*
X5237299Y456119D1*
X5217203D1*
X671913Y487369D2*
X694861Y427081D1*
X717808Y487369D1*
X782231Y427081D2*
Y487369D1*
X759283Y427081D1*
X736336Y487369D1*
Y427081D1*
M02*
